<svg width="494" height="492" viewBox="0 0 494 492" fill="none" xmlns="http://www.w3.org/2000/svg">
<g opacity="0.4">
<path d="M154.935 39.8519C154.935 39.8519 70.9967 82.6129 29.133 148.505C-12.7307 214.397 -9.41837 299.165 41.4517 362.088C92.3219 425.011 189.553 416.747 270.965 456.606C352.378 496.464 442.198 488.256 480.694 403.808C519.19 319.361 461.141 287.799 451.171 190.069C441.201 92.3394 353.098 -50.7661 154.935 39.8519Z" fill="#FECACA"/>
</g>
<path d="M106.535 379.459C109.858 378.351 115.752 372.934 115.752 372.923C115.752 372.912 111.011 370.164 110.689 370.031C106.956 368.458 98.8136 367.616 95.8558 371.062C94.9099 372.247 94.5076 373.776 94.7481 375.274C94.9885 376.771 95.8492 378.097 97.1187 378.927C99.7331 380.788 103.655 380.389 106.535 379.459Z" fill="#E26A6C"/>
<path d="M167.918 327.237C167.996 327.237 165.481 322.329 165.281 322.03C163.066 318.707 156.707 313.467 152.342 314.708C150.887 315.166 149.694 316.219 149.061 317.607C148.427 318.995 148.412 320.586 149.019 321.986C150.204 324.955 153.694 326.794 156.618 327.603C160.053 328.555 167.907 327.248 167.918 327.237Z" fill="#E26A6C"/>
<path d="M123.916 394.868C126.774 392.996 130.718 386.737 131.028 386.238C134.604 388.501 138.327 390.522 142.173 392.287C144.388 393.328 146.693 394.314 148.997 395.267C147.889 394.979 146.881 394.746 146.781 394.724C142.76 394.192 134.684 395.533 132.745 399.632C132.131 401.032 132.142 402.628 132.777 404.02C133.411 405.411 134.609 406.467 136.069 406.921C139.082 408.029 142.716 406.578 145.297 404.916C147.878 403.254 151.334 397.948 152.232 396.541L154.89 397.649C159.155 399.344 163.409 400.972 167.541 402.789C168.993 403.409 170.4 404.085 171.818 404.739C170.821 404.495 169.99 404.296 169.857 404.284C165.835 403.753 157.771 405.093 155.821 409.192C155.206 410.591 155.218 412.186 155.853 413.575C156.487 414.965 157.685 416.018 159.144 416.47C162.169 417.578 165.847 416.127 168.372 414.465C170.898 412.803 174.066 408.018 175.152 406.356C176.57 407.076 177.999 407.796 179.351 408.572C180.259 409.114 181.178 409.569 182.065 410.167L184.701 411.862C186.33 412.97 188.025 414.166 189.598 415.318C190.705 416.116 191.725 416.891 192.766 417.667C191.326 417.035 188.479 415.839 188.224 415.772C184.336 414.665 176.149 414.742 173.612 418.497C172.79 419.783 172.555 421.358 172.965 422.828C173.375 424.297 174.392 425.523 175.761 426.197C178.575 427.714 182.408 426.872 185.189 425.61C188.213 424.225 192.943 418.874 193.475 418.198C195.192 419.495 196.854 420.769 198.394 421.998C202.891 425.554 206.636 428.756 209.472 431.259L211.687 429.243C208.718 426.739 204.752 423.483 199.978 419.871C198.239 418.553 196.355 417.168 194.439 415.772C195.461 413.725 196.364 411.621 197.142 409.469C200.543 409.812 206.946 408.051 207.777 407.818C208.497 409.846 209.172 411.829 209.782 413.701C211.532 419.051 212.873 423.671 213.858 427.338L216.34 425.122C215.31 421.699 213.98 417.523 212.33 412.814C211.61 410.754 210.801 408.572 209.937 406.334C210.701 405.902 216.861 402.313 218.799 399.61C220.561 397.15 222.123 393.528 221.17 390.459C220.763 388.991 219.754 387.765 218.392 387.083C217.03 386.401 215.444 386.327 214.025 386.881C209.848 388.664 208.187 396.674 208.552 400.706C208.552 400.95 209.106 403.509 209.461 405.137C209.106 404.218 208.774 403.332 208.353 402.401C207.622 400.54 206.835 398.712 206.004 396.74C205.561 395.799 205.129 394.857 204.675 393.904C204.221 392.952 203.689 391.988 203.19 391.013C202.005 388.797 200.687 386.582 199.302 384.366C200.931 383.724 206.658 381.353 208.785 379.182C210.912 377.01 212.994 373.643 212.507 370.508C212.334 368.994 211.525 367.625 210.282 366.743C209.039 365.862 207.479 365.551 205.993 365.888C201.562 366.996 198.737 374.684 198.493 378.728C198.493 378.971 198.626 381.896 198.737 383.502C197.895 382.195 197.064 380.888 196.178 379.592C193.608 375.858 190.883 372.158 188.191 368.458C187.36 367.35 186.551 366.187 185.743 365.046C186.319 364.825 193.187 362.155 195.569 359.729C197.685 357.513 199.778 354.19 199.302 351.044C199.126 349.529 198.314 348.16 197.07 347.279C195.825 346.398 194.264 346.087 192.777 346.424C188.346 347.532 185.521 355.22 185.277 359.264C185.277 359.574 185.477 363.772 185.587 364.803C183.793 362.288 182.031 359.773 180.392 357.225C178.157 353.798 176.151 350.227 174.388 346.535C174.653 346.435 181.832 343.677 184.269 341.184C186.385 338.969 188.479 335.645 188.002 332.51C187.829 330.996 187.02 329.627 185.777 328.746C184.534 327.864 182.975 327.553 181.489 327.891C177.057 328.998 174.233 336.687 173.989 340.73C173.989 340.996 174.133 344.197 174.244 345.715L174 345.782C172.314 342.022 170.972 338.118 169.99 334.117C169.425 331.901 169.004 329.785 168.638 327.713C170.023 327.337 176.393 325.553 178.808 323.548C181.223 321.543 183.593 318.53 183.472 315.328C183.459 313.804 182.801 312.356 181.661 311.345C180.52 310.333 179.004 309.852 177.489 310.022C173.003 310.653 169.314 317.965 168.627 321.964C168.627 322.174 168.45 324.423 168.372 326.063C168.228 325.121 168.051 324.157 167.929 323.249C167.453 319.848 167.22 316.713 167.032 313.932C166.943 312.348 166.899 310.908 166.866 309.568C168.029 308.46 172.704 304.029 173.922 301.226C175.141 298.423 175.861 294.579 174.277 291.788C173.567 290.436 172.317 289.451 170.837 289.077C169.358 288.702 167.789 288.975 166.522 289.827C162.822 292.463 162.922 300.65 164.152 304.516C164.262 304.848 166.511 309.878 166.578 309.823L166.644 309.756C166.644 311.041 166.644 312.426 166.733 313.944C166.855 316.735 167.01 319.892 167.42 323.315C167.819 327.004 168.433 330.666 169.259 334.283C170.163 338.343 171.431 342.314 173.047 346.147L173.114 346.28C172.25 345.272 169.735 342.536 169.513 342.347C166.456 339.689 158.978 336.354 155.112 338.703C153.828 339.526 152.955 340.856 152.712 342.362C152.469 343.867 152.878 345.405 153.838 346.59C155.766 349.149 159.61 350.002 162.645 350.013C166.057 350.013 172.792 346.967 173.335 346.69C175.07 350.552 177.061 354.293 179.295 357.89C180.58 359.984 181.943 362.066 183.339 364.127C182.563 363.285 181.865 362.531 181.754 362.432C178.697 359.784 171.219 356.439 167.353 358.787C166.069 359.61 165.197 360.941 164.953 362.446C164.71 363.952 165.12 365.489 166.079 366.675C167.996 369.245 171.851 370.087 174.886 370.098C177.922 370.109 183.749 367.616 185.277 366.941C185.82 367.727 186.385 368.525 186.906 369.311C189.52 373.067 192.146 376.822 194.66 380.566C195.536 381.896 196.344 383.225 197.153 384.555C196.466 383.801 195.879 383.181 195.779 383.092C192.722 380.434 185.244 377.099 181.378 379.448C180.096 380.272 179.225 381.604 178.984 383.109C178.743 384.614 179.154 386.151 180.115 387.335C182.031 389.894 185.887 390.747 188.911 390.758C191.935 390.769 197.219 388.543 199.036 387.723C199.834 389.108 200.631 390.492 201.329 391.877C201.795 392.83 202.304 393.716 202.703 394.702C203.102 395.688 203.556 396.63 203.966 397.571C204.708 399.432 205.472 401.338 206.181 403.166C206.658 404.428 207.09 405.647 207.522 406.866C206.68 405.536 204.952 402.977 204.786 402.778C202.372 400.143 199.319 398.174 195.923 397.062C195.671 396.754 195.389 396.472 195.081 396.22C193.935 395.217 192.416 394.747 190.903 394.929C189.391 395.111 188.026 395.926 187.149 397.172C184.646 400.961 187.681 408.56 190.218 411.729C190.362 411.917 192.212 413.756 193.397 414.897L190.894 413.269C189.265 412.161 187.57 411.053 185.82 409.846L183.15 408.206C182.264 407.641 181.267 407.154 180.314 406.622C178.099 405.425 175.783 404.318 173.435 403.298C174.432 401.869 177.866 396.74 178.475 393.749C179.085 390.758 178.941 386.837 176.803 384.455C175.82 383.289 174.389 382.596 172.866 382.547C171.342 382.499 169.87 383.1 168.815 384.2C165.769 387.523 167.619 395.533 169.635 399.045C169.768 399.266 171.496 401.615 172.482 402.889C171.064 402.268 169.646 401.637 168.195 401.05C163.985 399.355 159.676 397.726 155.389 396.164C154.071 395.677 152.763 395.167 151.456 394.669C151.822 394.17 156.076 388.155 156.718 384.809C157.294 381.84 157.195 377.897 155.045 375.515C154.063 374.349 152.632 373.656 151.109 373.607C149.585 373.559 148.113 374.16 147.058 375.26C144.012 378.583 145.862 386.593 147.889 390.105C148.033 390.37 150.537 393.749 151.213 394.536C148.332 393.428 145.474 392.32 142.694 391.091C138.94 389.465 135.298 387.592 131.793 385.485C131.959 385.252 136.434 378.993 137.088 375.57C137.653 372.601 137.553 368.658 135.415 366.276C134.433 365.11 133.002 364.417 131.478 364.368C129.955 364.32 128.483 364.92 127.428 366.021C124.382 369.344 126.232 377.354 128.248 380.865C128.381 381.098 130.286 383.679 131.228 384.887L131.051 385.075C127.576 382.864 124.306 380.347 121.28 377.553C119.585 376.035 118.056 374.496 116.605 372.956C117.558 371.848 121.856 366.896 122.797 363.872C123.739 360.848 124.016 357.048 122.155 354.456C121.301 353.193 119.951 352.351 118.441 352.14C116.931 351.929 115.402 352.368 114.234 353.348C110.844 356.361 111.808 364.492 113.425 368.203C113.514 368.403 114.644 370.352 115.486 371.759C114.843 371.061 114.168 370.352 113.558 369.666C111.343 367.096 109.36 364.603 107.676 362.376C106.723 361.102 105.892 359.939 105.117 358.842C105.505 357.291 106.967 351.032 106.413 347.986C105.859 344.94 104.353 341.339 101.494 339.921C100.16 339.187 98.5769 339.056 97.1397 339.559C95.7025 340.062 94.5469 341.152 93.9614 342.558C92.333 346.79 96.9303 353.558 100.076 356.106C100.353 356.328 105.006 359.274 105.028 359.197C105.031 359.164 105.031 359.13 105.028 359.097C105.748 360.205 106.535 361.313 107.41 362.554C109.05 364.769 110.933 367.361 113.16 369.987C115.531 372.844 118.065 375.563 120.748 378.129C123.745 380.994 126.988 383.589 130.441 385.884L130.574 385.961C129.3 385.596 125.689 384.698 125.401 384.665C121.379 384.133 113.315 385.474 111.365 389.573C110.75 390.973 110.762 392.569 111.396 393.961C112.031 395.352 113.228 396.408 114.688 396.862C117.713 397.948 121.391 396.541 123.916 394.868Z" fill="#E26A6C"/>
<path d="M331.174 113.842C333.545 117.808 342.086 123.624 342.097 123.624C342.108 123.624 344.224 116.833 344.313 116.379C345.221 111.205 343.936 100.659 338.774 97.9116C337 97.0364 334.937 96.9565 333.101 97.692C331.264 98.4274 329.827 99.9089 329.147 101.767C327.541 105.622 329.158 110.474 331.174 113.842Z" fill="#E26A6C"/>
<path d="M414.935 176.477C414.935 176.576 420.474 171.979 420.773 171.647C424.396 167.825 429.137 158.353 426.312 153.158C425.315 151.448 423.638 150.244 421.7 149.844C419.762 149.445 417.745 149.888 416.154 151.064C412.73 153.423 411.412 158.364 411.224 162.286C411.013 166.894 414.935 176.466 414.935 176.477Z" fill="#E26A6C"/>
<path d="M316.673 140.285C319.875 143.354 328.937 146.544 329.657 146.788C327.829 151.967 326.348 157.263 325.226 162.64C324.55 165.764 323.963 168.944 323.42 172.134C323.42 170.639 323.42 169.298 323.42 169.11C322.932 163.881 318.911 154.044 313.162 152.77C311.218 152.392 309.206 152.858 307.627 154.052C306.048 155.246 305.051 157.056 304.886 159.029C304.399 163.161 307.257 167.415 310.093 170.107C312.929 172.799 320.639 175.746 322.678 176.477C322.478 177.695 322.268 178.925 322.079 180.144C321.16 186.026 320.274 191.897 319.221 197.636C318.856 199.652 318.413 201.635 317.981 203.618C317.981 202.288 317.981 201.169 317.981 201.003C317.493 195.763 313.472 185.937 307.722 184.652C305.779 184.277 303.768 184.747 302.191 185.943C300.614 187.139 299.621 188.95 299.458 190.922C298.971 195.043 301.818 199.297 304.654 202C307.49 204.703 314.458 207.34 316.84 208.226C316.341 210.242 315.842 212.259 315.266 214.186C314.834 215.493 314.524 216.778 314.026 218.075L312.63 221.896C311.666 224.289 310.68 226.771 309.672 229.097C308.985 230.703 308.298 232.232 307.612 233.772C307.999 231.767 308.719 227.823 308.719 227.491C309.029 222.24 306.504 211.915 301.053 209.766C299.189 209.098 297.128 209.255 295.386 210.198C293.644 211.14 292.385 212.78 291.925 214.707C290.817 218.706 293.033 223.348 295.381 226.461C298.018 229.895 306.138 234.282 307.157 234.824C306.049 237.361 304.875 239.832 303.767 242.136C300.555 248.86 297.586 254.51 295.237 258.842L298.439 261.124C300.765 256.692 303.734 250.699 306.925 243.609C308.099 241.028 309.306 238.248 310.514 235.378C313.396 236.09 316.319 236.627 319.266 236.985C319.819 241.416 323.885 248.993 324.417 249.968C322.057 251.464 319.753 252.893 317.548 254.2C311.289 257.966 305.784 261.002 301.474 263.295L304.964 265.787C309.007 263.505 313.904 260.625 319.365 257.18C321.769 255.673 324.306 254.012 326.887 252.283C327.652 253.125 333.966 259.883 337.965 261.567C341.588 263.084 346.617 264.026 350.217 261.932C351.964 261.002 353.232 259.372 353.704 257.449C354.175 255.527 353.806 253.495 352.688 251.862C349.232 247.088 338.619 247.298 333.612 248.927C333.323 249.026 330.233 250.422 328.305 251.342C329.358 250.633 330.388 249.946 331.462 249.204C333.6 247.741 335.694 246.224 337.943 244.606L341.156 242.114C342.263 241.294 343.294 240.308 344.379 239.4C346.85 237.251 349.254 234.968 351.613 232.576C352.898 234.437 357.551 241.006 360.908 243.066C364.264 245.127 369.094 246.811 372.961 245.282C374.828 244.626 376.329 243.207 377.088 241.379C377.847 239.55 377.792 237.485 376.938 235.7C374.246 230.46 363.71 229.053 358.526 229.906C358.205 229.961 354.549 231.014 352.555 231.59C353.962 230.161 355.38 228.732 356.753 227.225C360.742 222.905 364.641 218.363 368.54 213.931C369.737 212.558 370.955 211.206 372.152 209.855C372.606 210.519 377.957 218.44 381.723 220.755C385.047 222.805 389.91 224.5 393.787 222.971C395.653 222.313 397.151 220.893 397.908 219.064C398.664 217.236 398.608 215.173 397.753 213.389C395.061 208.149 384.526 206.742 379.342 207.595C378.954 207.65 373.692 209.146 372.373 209.589C375.032 206.598 377.702 203.64 380.46 200.826C384.158 197.015 388.099 193.448 392.258 190.147C392.469 190.457 398.019 198.755 401.874 201.125C405.197 203.175 410.061 204.859 413.938 203.341C415.804 202.683 417.302 201.262 418.059 199.434C418.815 197.606 418.759 195.543 417.904 193.758C415.212 188.519 404.677 187.112 399.492 187.976C399.149 187.976 395.15 189.161 393.255 189.737L393.1 189.438C397.38 186.23 401.936 183.408 406.715 181.008C409.33 179.656 411.9 178.515 414.47 177.452C415.345 179.102 419.433 186.602 422.667 189.117C425.902 191.631 430.422 193.736 434.41 192.651C436.336 192.202 437.981 190.955 438.934 189.223C439.887 187.49 440.058 185.434 439.406 183.567C437.302 178.028 426.999 175.502 421.748 175.812C421.46 175.812 418.569 176.311 416.475 176.676C417.583 176.222 418.801 175.723 419.909 175.302C424.074 173.718 427.974 172.522 431.452 171.492C433.424 170.916 435.23 170.384 436.914 170.007C438.62 171.181 445.544 175.823 449.509 176.543C453.475 177.263 458.494 177.086 461.551 174.272C463.055 172.985 463.94 171.12 463.986 169.142C464.033 167.164 463.236 165.259 461.795 163.903C457.364 159.993 447.072 162.474 442.541 165.133C442.143 165.365 436.437 169.675 436.526 169.741L436.626 169.808C434.997 170.184 433.247 170.616 431.342 171.115C427.852 172.079 423.897 173.198 419.688 174.693C415.131 176.281 410.67 178.13 406.327 180.232C401.454 182.55 396.794 185.293 392.402 188.43L392.258 188.552C393.278 187.167 396.025 183.201 396.202 182.869C398.684 178.227 400.755 167.814 396.667 163.571C395.251 162.19 393.315 161.474 391.341 161.601C389.366 161.727 387.538 162.685 386.31 164.236C383.629 167.415 383.662 172.533 384.526 176.366C385.501 180.686 391.295 188.341 391.76 188.951C387.375 192.259 383.215 195.856 379.308 199.718C377.015 201.934 374.788 204.282 372.573 206.642C373.426 205.412 374.168 204.305 374.257 204.138C376.738 199.508 378.81 189.083 374.722 184.852C373.31 183.465 371.375 182.744 369.4 182.871C367.425 182.998 365.598 183.96 364.375 185.516C361.683 188.685 361.716 193.803 362.581 197.636C363.445 201.469 368.275 208.16 369.571 209.888L367.045 212.624C363.035 217.055 359.058 221.431 355.014 225.63C353.596 227.114 352.134 228.521 350.683 229.939C351.436 228.831 352.068 227.923 352.145 227.723C354.627 223.093 356.698 212.668 352.61 208.437C351.197 207.051 349.261 206.331 347.286 206.456C345.31 206.58 343.481 207.538 342.252 209.09C339.572 212.27 339.605 217.388 340.469 221.221C341.333 225.054 345.687 231.091 347.226 233.163C345.698 234.559 344.169 235.965 342.618 237.262C341.51 238.115 340.569 239.012 339.439 239.821L336.171 242.236C334.044 243.709 331.85 245.227 329.734 246.611C328.261 247.575 326.854 248.473 325.425 249.381C326.865 247.919 329.612 245.005 329.856 244.739C332.491 240.934 334.108 236.518 334.553 231.911C334.866 231.501 335.141 231.064 335.373 230.604C336.312 228.861 336.467 226.802 335.8 224.938C335.132 223.075 333.704 221.583 331.872 220.833C326.333 218.761 317.615 224.788 314.347 228.909C314.148 229.153 312.353 232.022 311.245 233.85C311.733 232.675 312.22 231.545 312.707 230.327C313.682 227.934 314.591 225.519 315.566 222.916C315.998 221.642 316.441 220.357 316.873 219.06C317.305 217.764 317.659 216.38 318.069 215.028C318.944 211.86 319.675 208.625 320.34 205.335C322.434 206.188 329.934 209.101 333.877 208.968C337.821 208.835 342.74 207.573 345.166 204.172C346.359 202.593 346.824 200.581 346.446 198.639C346.067 196.697 344.881 195.007 343.183 193.991C338.054 191.1 328.494 195.741 324.638 199.308C324.395 199.541 321.913 202.41 320.584 204.017C320.961 202.045 321.359 200.073 321.692 198.057C322.622 192.241 323.387 186.336 324.184 180.443C324.417 178.637 324.683 176.842 324.937 175.048C325.68 175.358 334.52 179.014 338.94 178.858C342.862 178.726 347.802 177.463 350.217 174.062C351.411 172.484 351.878 170.474 351.502 168.532C351.126 166.589 349.942 164.899 348.246 163.881C343.105 161.001 333.545 165.631 329.69 169.21C329.402 169.475 325.835 173.641 324.982 174.749C325.547 170.794 326.09 166.85 326.887 162.984C327.881 157.76 329.209 152.605 330.864 147.552C331.208 147.696 340.413 151.562 344.944 151.407C348.866 151.263 353.807 150.011 356.222 146.61C357.416 145.031 357.883 143.019 357.507 141.075C357.131 139.131 355.947 137.439 354.25 136.419C349.11 133.538 339.56 138.169 335.694 141.747C335.439 141.98 332.725 145.137 331.462 146.666L331.174 146.5C332.951 141.466 335.176 136.602 337.821 131.965C339.261 129.395 340.768 127.014 342.252 124.731C343.892 125.629 351.436 129.628 355.546 129.949C359.468 130.237 364.53 129.528 367.289 126.415C368.647 124.977 369.331 123.029 369.168 121.057C369.005 119.085 368.012 117.276 366.436 116.08C361.65 112.645 351.647 116.201 347.415 119.336C347.193 119.503 345.044 121.486 343.504 122.959C344.202 121.94 344.911 120.876 345.609 119.913C348.201 116.301 350.805 113.144 353.12 110.363C354.46 108.801 355.701 107.405 356.864 106.12C358.936 106.12 367.278 106.209 370.978 104.625C374.678 103.041 378.732 100.116 379.773 96.0838C380.318 94.1777 380.025 92.13 378.968 90.4532C377.91 88.7764 376.189 87.6292 374.235 87.2989C368.408 86.457 361.163 94.2337 358.847 98.953C358.648 99.3629 356.266 106.109 356.366 106.109H356.499C355.391 107.328 354.117 108.646 352.81 110.12C350.428 112.845 347.747 115.958 345.055 119.525C342.119 123.349 339.408 127.34 336.935 131.478C334.15 136.1 331.781 140.96 329.856 146.001L329.79 146.19C329.889 144.461 329.978 139.642 329.945 139.266C329.457 134.026 325.436 124.2 319.687 122.926C317.745 122.551 315.735 123.019 314.159 124.213C312.583 125.407 311.588 127.214 311.422 129.185C310.99 133.317 313.837 137.571 316.673 140.285Z" fill="#E26A6C"/>
<path d="M383.673 335.291V331.58C383.673 312.47 407.867 311.639 407.867 298.035C407.867 292.131 403.059 288.276 395.903 288.276C388.071 288.276 383.119 292.541 383.119 298.589V300.107C383.119 301.614 382.299 302.323 380.782 302.323L366.081 301.769C364.707 301.769 363.744 301.082 363.744 300.129V298.612C363.744 281.995 376.938 270.573 396.324 270.573C415.29 270.573 427.52 281.297 427.52 297.371C427.52 320.191 402.915 320.335 402.915 332.82V335.291C402.991 335.931 402.769 336.57 402.314 337.026C401.858 337.482 401.218 337.704 400.578 337.628L386.01 337.628C385.37 337.704 384.731 337.482 384.275 337.026C383.819 336.57 383.597 335.931 383.673 335.291ZM382.432 357.447C382.432 351.398 387.794 346.446 394.252 346.446C400.445 346.446 405.94 351.398 405.94 357.447C405.94 363.495 400.401 368.447 394.119 368.447C387.838 368.447 382.432 363.473 382.432 357.425L382.432 357.447Z" fill="#622466"/>
<path d="M93.2082 177.873V174.649C93.2082 158.032 114.256 157.334 114.256 145.514C114.256 140.374 110.08 137.039 103.876 137.039C97.0633 137.039 92.7983 140.739 92.7983 145.99V147.308C92.7983 148.616 92.0893 149.214 90.771 149.214L77.9981 148.737C76.8017 148.737 75.9708 148.139 75.9708 147.308V145.99C75.9708 131.589 87.4255 121.619 104.264 121.619C120.737 121.619 131.372 130.935 131.372 144.882C131.372 164.701 109.991 164.823 109.991 175.69V177.839C110.056 178.394 109.863 178.948 109.468 179.344C109.073 179.739 108.519 179.931 107.964 179.867H95.2354C94.6869 179.929 94.1392 179.741 93.7456 179.354C93.3519 178.967 93.1544 178.422 93.2082 177.873ZM92.1004 197.093C92.1004 191.842 96.7531 187.544 102.359 187.544C107.731 187.544 112.517 191.842 112.517 197.093C112.517 202.344 107.731 206.642 102.248 206.642C96.8253 206.779 92.3084 202.514 92.1336 197.093H92.1004Z" fill="#EF3E37"/>
<path d="M360.586 50.7526V49.1242C360.586 40.7382 371.199 40.3726 371.199 34.4015C371.199 31.8093 369.083 30.1143 365.948 30.1143C362.514 30.1143 360.343 31.9865 360.343 34.6453V35.3099C360.343 35.9746 359.977 36.2737 359.312 36.2737L352.865 36.03C352.256 36.03 351.835 35.7309 351.835 35.3099V34.6453C351.835 27.3449 357.629 22.3376 366.136 22.3376C374.456 22.3376 379.829 27.0457 379.829 34.1024C379.829 44.0726 369.028 44.1723 369.028 49.6116V50.7194C369.061 51.0005 368.962 51.2812 368.761 51.4803C368.56 51.6793 368.278 51.7746 367.997 51.7386H361.606C361.332 51.7734 361.057 51.6821 360.859 51.4903C360.661 51.2986 360.561 51.0272 360.586 50.7526ZM360.044 60.468C359.898 58.3484 361.063 56.3552 362.982 55.4421C364.9 54.5291 367.182 54.8819 368.735 56.3317C370.288 57.7816 370.797 60.0336 370.018 62.0103C369.239 63.987 367.331 65.2865 365.206 65.287C363.882 65.3348 362.593 64.8535 361.624 63.9493C360.656 63.0451 360.087 61.7924 360.044 60.468Z" fill="#5B5B5B"/>
<path d="M49.4833 274.794V272.744C49.4833 262.176 62.8655 261.722 62.8655 254.189C62.8655 250.921 60.2068 248.794 56.2187 248.794C51.8872 248.794 49.151 251.153 49.151 254.499V255.33C49.151 256.172 48.6968 256.548 47.8549 256.548L39.7236 256.249C38.9592 256.249 38.4275 255.862 38.4275 255.33V254.499C38.4275 245.304 45.7279 238.99 56.4514 238.99C66.9422 238.99 73.6998 244.917 73.6998 253.812C73.6998 266.43 60.096 266.508 60.096 273.431V274.794C60.1396 275.149 60.0172 275.505 59.764 275.758C59.5109 276.011 59.1553 276.134 58.7999 276.09L50.7573 276.09C50.4056 276.126 50.0564 276 49.8086 275.748C49.5607 275.496 49.441 275.145 49.4833 274.794ZM48.7965 287.035C48.6189 284.364 50.0934 281.857 52.5137 280.713C54.9339 279.57 57.8073 280.024 59.7575 281.857C61.7078 283.69 62.338 286.53 61.3462 289.016C60.3545 291.503 57.9427 293.129 55.266 293.117C51.7944 293.229 48.8887 290.507 48.7743 287.035H48.7965Z" stroke="#263238"/>
<path d="M151.401 83.5656V82.1587C151.401 74.8916 160.607 74.5703 160.607 69.3969C160.607 67.1813 158.779 65.6858 156.053 65.6858C153.074 65.6858 151.19 67.3031 151.19 69.6074V70.1834C151.19 70.7595 150.88 71.0143 150.304 71.0143L144.765 70.8038C144.244 70.8038 143.879 70.549 143.879 70.1834V69.6074C143.879 63.2818 148.897 58.9393 156.264 58.9393C163.631 58.9393 168.018 63.016 168.018 69.131C168.018 77.8162 158.657 77.8715 158.657 82.624V83.5656C158.686 83.8084 158.602 84.051 158.429 84.2238C158.256 84.3967 158.013 84.4808 157.771 84.4519L152.232 84.4519C151.998 84.4631 151.771 84.3713 151.611 84.2007C151.452 84.0301 151.374 83.798 151.401 83.5656ZM150.935 91.9849C150.836 90.1738 151.85 88.4848 153.495 87.7215C155.141 86.9582 157.085 87.2747 158.403 88.5205C159.722 89.7664 160.148 91.6898 159.479 93.3758C158.81 95.0617 157.181 96.1696 155.367 96.1724C152.984 96.2533 150.986 94.3894 150.902 92.007L150.935 91.9849Z" fill="#263238"/>
<path d="M271.985 412.482C271.907 412.249 271.829 412.017 271.741 411.784C271.652 411.552 271.586 411.308 271.497 411.075C271.408 410.843 271.342 410.61 271.253 410.377C271.165 410.145 271.098 409.901 271.01 409.668C270.921 409.436 270.855 409.203 270.766 408.97C270.677 408.738 270.611 408.494 270.522 408.261L270.279 407.563C270.201 407.32 270.112 407.087 270.035 406.854L269.791 406.156C269.714 405.913 269.625 405.68 269.547 405.447L269.304 404.75C269.226 404.506 269.137 404.273 269.06 404.041L268.827 403.298C268.75 403.055 268.661 402.822 268.584 402.589L268.329 401.892C268.251 401.648 268.174 401.415 268.085 401.182C267.996 400.95 267.93 400.717 267.841 400.485C267.753 400.252 267.686 400.008 267.598 399.776C267.509 399.543 267.442 399.31 267.354 399.078C263.742 388.088 252.576 380.023 240.29 380.023C228.382 380.023 218.024 386.958 213.703 396.729C213.592 396.951 213.493 397.183 213.393 397.405L213.094 398.092C212.983 398.313 212.883 398.535 212.784 398.767C212.684 399 212.573 399.222 212.474 399.443L212.174 400.119C212.064 400.352 211.964 400.573 211.864 400.806C211.765 401.038 211.654 401.249 211.554 401.481C211.454 401.714 211.344 401.925 211.244 402.157L210.945 402.833C210.834 403.055 210.734 403.287 210.635 403.509C210.535 403.73 210.424 403.963 210.324 404.184L210.025 404.871C209.915 405.093 209.815 405.314 209.715 405.547C209.615 405.78 209.505 406.001 209.405 406.223L209.106 406.898C208.995 407.131 208.895 407.353 208.796 407.585C208.696 407.818 208.585 408.028 208.485 408.261L208.186 408.937C208.076 409.158 207.976 409.391 207.876 409.613C207.776 409.834 207.666 410.067 207.566 410.299C205.665 414.347 204.689 418.767 204.708 423.239C204.708 441.074 220.106 455.653 239.149 455.653C257.783 455.653 273.99 441.074 273.99 423.239C273.986 419.838 273.39 416.464 272.228 413.269C272.151 412.947 272.073 412.715 271.985 412.482Z" fill="#263238"/>
<path d="M245.63 167.116C188.501 167.116 149.606 200.737 149.606 249.769V254.2C149.627 255.689 150.425 257.059 151.711 257.811C151.95 258.041 152.209 258.249 152.486 258.432C152.726 258.665 152.99 258.873 153.273 259.052C153.513 259.285 153.777 259.493 154.059 259.672C154.297 259.908 154.561 260.116 154.846 260.293C155.082 260.526 155.342 260.734 155.621 260.913C155.861 261.15 156.125 261.362 156.408 261.545C156.651 261.775 156.914 261.982 157.195 262.165C157.435 262.398 157.699 262.605 157.981 262.785C158.218 263.018 158.478 263.226 158.757 263.406C159.017 263.656 159.303 263.879 159.61 264.07C159.835 264.276 160.076 264.465 160.33 264.635C160.573 264.865 160.836 265.073 161.116 265.256C161.355 265.486 161.615 265.693 161.892 265.876C162.134 266.106 162.398 266.314 162.678 266.496C162.919 266.729 163.182 266.937 163.465 267.117C163.701 267.349 163.961 267.557 164.24 267.737C164.481 267.97 164.744 268.178 165.027 268.357C165.263 268.59 165.523 268.798 165.802 268.978C166.045 269.208 166.308 269.416 166.589 269.598C166.825 269.831 167.085 270.039 167.364 270.219C168.644 271.345 170.314 271.925 172.017 271.836L207.644 273.165C211.311 273.165 213.305 271.504 213.305 267.837V264.181C213.305 249.525 225.291 239.211 244.323 239.211C261.638 239.211 273.292 248.528 273.292 262.852C273.292 264.489 273.136 266.118 272.825 267.72C254.947 291.156 208.408 301.492 208.408 346.989V357.934C208.408 362.365 210.834 364.814 215.299 364.814H258.192C262.624 364.814 265.083 362.387 265.083 357.934V350.634C265.083 313.766 337.611 313.356 337.611 246.102C337.611 198.71 301.541 167.116 245.63 167.116Z" fill="#263238"/>
<path d="M208.353 357.956V347.011C208.353 290.691 279.662 288.298 279.662 248.151C279.662 230.726 265.482 219.349 244.412 219.349C221.314 219.349 206.746 231.911 206.746 249.735V254.167C206.746 258.598 204.309 260.658 199.856 260.658L156.497 259.03C152.453 259.03 149.617 257.003 149.617 254.167V249.735C149.617 200.704 188.512 167.083 245.641 167.083C301.552 167.083 337.588 198.677 337.588 246.091C337.588 313.345 265.061 313.755 265.061 350.623V357.923C265.061 362.354 262.624 364.802 258.17 364.802H215.243C210.779 364.836 208.353 362.41 208.353 357.956ZM204.708 423.239C204.708 405.414 220.505 390.825 239.548 390.825C257.783 390.825 273.99 405.414 273.99 423.239C273.99 441.063 257.749 455.598 239.15 455.598C220.084 455.598 204.708 441.019 204.708 423.239Z" fill="#EF3E37" stroke="#407BFF"/>
<ellipse cx="237.377" cy="478.396" rx="60.4969" ry="13.5262" fill="#3D3C3C"/>
<path d="M191.138 171.602L188.822 176.654C188.822 176.654 175.374 178.105 175.374 179.113C175.374 180.121 175.518 187.067 176.249 187.355C176.804 187.572 177.421 187.572 177.977 187.355L197.784 182.293L199.668 173.331L191.138 171.602Z" fill="white" stroke="#263238" stroke-linecap="round" stroke-linejoin="round"/>
<path d="M187.371 180.631C184.911 182.646 182.258 184.412 179.45 185.904C176.249 187.344 176.127 189.527 177.146 189.527C178.165 189.527 187.205 185.738 187.205 185.738C187.205 185.738 195.414 183.589 196.599 182.935C197.784 182.282 197.917 178.648 197.917 178.648" fill="white"/>
<path d="M187.371 180.631C184.911 182.646 182.258 184.412 179.45 185.904C176.249 187.344 176.127 189.527 177.146 189.527C178.165 189.527 187.205 185.738 187.205 185.738C187.205 185.738 195.414 183.589 196.599 182.935C197.784 182.282 197.917 178.648 197.917 178.648" stroke="#263238" stroke-linecap="round" stroke-linejoin="round"/>
<path d="M202.969 74.5371L194.705 137.881L188.955 172.178L201.717 175.192L211.233 134.624L215.742 109.089L202.969 74.5371Z" fill="#622466" stroke="#263238" stroke-linecap="round" stroke-linejoin="round"/>
<path d="M269.658 28.6742L264.618 27.8766L254.293 23.9661L253.917 36.2294L269.924 37.7028L269.658 28.6742Z" fill="white" stroke="#263238" stroke-linecap="round" stroke-linejoin="round"/>
<path d="M210.734 253.303C206.978 257.683 203.468 262.269 200.221 267.039C195.956 273.553 197.463 280.554 202.725 282.316C207.987 284.077 214.734 279.303 216.495 275.547C218.256 271.792 217.747 269.798 220.494 266.042C223.242 262.287 225.501 258.531 224.504 253.524C223.507 248.517 213.437 249.802 210.734 253.303Z" fill="#7D7D7D" stroke="#263238" stroke-linecap="round" stroke-linejoin="round"/>
<path d="M215.985 276.489C215.631 275.735 215.221 274.938 214.734 274.085C210.712 267.006 203.656 267.571 199.224 268.889C196.311 274.838 197.973 280.754 202.747 282.349C207.522 283.944 213.681 280.045 215.985 276.489Z" fill="white" stroke="#263238" stroke-linecap="round" stroke-linejoin="round"/>
<path d="M214.734 274.085C213.238 276.3 211.233 282.349 203.467 279.845C201.302 279.289 199.365 278.069 197.928 276.356C198.271 279.112 200.147 281.435 202.769 282.349C208.02 284.099 214.778 279.336 216.539 275.58C218.301 271.825 217.791 269.831 220.539 266.076C223.286 262.32 225.546 258.565 224.549 253.557C224.549 259.562 222.333 260.559 219.541 263.816C216.75 267.073 216.24 271.825 214.734 274.085Z" fill="white" stroke="#263238" stroke-linecap="round" stroke-linejoin="round"/>
<path d="M284.614 253.303C288.37 257.683 291.88 262.269 295.127 267.039C299.392 273.553 297.885 280.554 292.623 282.316C287.361 284.077 280.614 279.303 278.853 275.547C277.092 271.792 277.601 269.798 274.854 266.042C272.106 262.287 269.847 258.531 270.844 253.524C271.841 248.517 281.866 249.802 284.614 253.303Z" fill="#7D7D7D" stroke="#263238" stroke-linecap="round" stroke-linejoin="round"/>
<path d="M279.374 276.489C279.717 275.735 280.127 274.938 280.614 274.085C284.636 267.006 291.692 267.571 296.124 268.889C299.037 274.838 297.375 280.754 292.601 282.349C287.826 283.944 281.667 280.045 279.374 276.489Z" fill="white" stroke="#263238" stroke-linecap="round" stroke-linejoin="round"/>
<path d="M280.614 274.085C282.11 276.3 284.115 282.349 291.881 279.845C294.046 279.289 295.983 278.069 297.42 276.356C297.077 279.112 295.201 281.435 292.579 282.349C287.328 284.099 280.57 279.336 278.809 275.58C277.047 271.825 277.557 269.831 274.81 266.076C272.062 262.32 269.802 258.565 270.799 253.557C270.799 259.562 273.015 260.559 275.807 263.816C278.598 267.073 279.108 271.825 280.614 274.085Z" fill="white" stroke="#263238" stroke-linecap="round" stroke-linejoin="round"/>
<path d="M296.356 166.927C296.356 162.419 288.602 157.411 288.602 157.411C276.914 145.525 255.822 147.098 248.034 148.161C240.279 147.054 219.165 145.525 207.477 157.411C207.477 157.411 199.723 162.419 199.723 166.927C199.723 171.436 209.494 252.804 209.494 252.804C209.494 252.804 209.239 257.058 216.251 257.556C223.264 258.055 226.221 254.056 226.221 254.056L228.98 185.206C228.98 185.206 240.246 177.186 242.273 176.942C243.005 176.842 243.957 176.687 245.021 176.554V176.687C247.005 176.273 249.052 176.273 251.036 176.687V176.554C252.144 176.687 253.041 176.842 253.783 176.942C255.789 177.186 267.077 185.206 267.077 185.206L269.835 254.056C269.835 254.056 272.838 258.055 279.806 257.556C286.774 257.058 286.563 252.804 286.563 252.804C286.563 252.804 296.356 171.436 296.356 166.927Z" fill="#3D3C3C" stroke="#263238" stroke-linecap="round" stroke-linejoin="round"/>
<path d="M267.066 185.206C267.066 185.206 265.559 168.678 272.827 162.419" stroke="#707070" stroke-linecap="round" stroke-linejoin="round"/>
<path d="M229.013 185.206C229.013 185.206 229.766 171.436 228.26 166.429C226.753 161.422 224.25 159.417 224.25 159.417" stroke="#707070" stroke-linecap="round" stroke-linejoin="round"/>
<path d="M238.274 152.404C238.274 152.404 246.284 161.665 247.79 169.431" stroke="#707070" stroke-linecap="round" stroke-linejoin="round"/>
<path d="M255.8 152.936C255.8 152.936 251.291 157.943 250.792 161.699" stroke="#707070" stroke-linecap="round" stroke-linejoin="round"/>
<path d="M244.533 55.5162C244.533 55.5162 237.277 54.5081 234.774 57.0117C232.27 59.5153 223.751 68.7433 223.751 68.7433L228.26 148.361C228.26 148.361 238.529 152.371 247.292 152.371C256.055 152.371 266.069 149.114 268.34 147.364C270.611 145.613 268.595 60.2354 268.595 60.2354C268.595 60.2354 249.995 54.7629 244.533 55.5162Z" fill="#E26A6C" stroke="#263238" stroke-linecap="round" stroke-linejoin="round"/>
<path d="M257.805 57.2665C261.616 56.6877 265.461 56.351 269.315 56.2584C274.322 56.2584 279.285 56.5132 279.285 56.5132L291.803 44.4936L266.612 38.733L268.617 27.223C268.617 27.223 287.139 25.9712 296.401 27.7215C305.662 29.4718 320.185 33.9806 320.938 33.9806C321.692 33.9806 322.689 36.739 321.935 38.733C321.182 40.7271 297.63 66.7825 290.596 73.5401C285.994 78.0497 281.648 82.8133 277.579 87.8085L274.366 143.642C274.366 143.642 282.631 148.15 284.137 149.646C285.644 151.141 287.394 157.157 287.394 157.157C287.394 157.157 272.118 150.898 268.107 150.399C264.097 149.901 261.605 149.646 260.851 148.184C260.098 146.721 253.839 79.8323 253.839 79.8323L254.094 58.5515C254.094 58.5515 254.049 57.2665 257.805 57.2665Z" fill="#622466" stroke="#263238" stroke-linecap="round" stroke-linejoin="round"/>
<path d="M272.827 91.5639L259.3 93.3143L260.552 98.3215L267.321 100.072L273.824 97.0697L272.827 91.5639Z" stroke="#263238" stroke-linecap="round" stroke-linejoin="round"/>
<path d="M280.581 61.5204L277.579 87.8085L285.345 65.5307" stroke="#263238" stroke-linecap="round" stroke-linejoin="round"/>
<path d="M291.848 44.4936C291.848 44.4936 298.107 45.7454 307.623 41.9899" stroke="#263238" stroke-linecap="round" stroke-linejoin="round"/>
<path d="M298.361 46.2439C302.473 46.3584 306.585 46.024 310.625 45.2469" stroke="#263238" stroke-linecap="round" stroke-linejoin="round"/>
<path d="M236.026 55.2614L237.277 73.5401C239.592 76.5839 243.214 78.3477 247.037 78.2925C253.296 78.0488 254.049 73.5401 254.049 73.5401V58.5183L236.026 55.2614Z" fill="white" stroke="#263238" stroke-linecap="round" stroke-linejoin="round"/>
<path d="M254.293 64.7774L253.795 79.8213L259.057 71.5571C259.057 71.5571 264.817 78.8132 266.313 78.5695C267.808 78.3257 265.316 75.3125 264.817 72.5652C264.319 69.8179 260.054 60.036 259.555 57.2886C259.057 54.5413 254.293 54.0317 254.016 55.2835C253.877 56.3647 253.877 57.4593 254.016 58.5405L254.293 64.7774Z" fill="#7D7D7D" stroke="#263238" stroke-linecap="round" stroke-linejoin="round"/>
<path d="M237.022 78.2925C237.022 78.2925 238.019 148.394 235.516 149.192C233.012 149.989 222.998 150.2 216.683 153.202C210.369 156.204 207.422 157.456 207.422 157.456C207.422 157.456 210.424 150.2 213.936 146.943C216.27 144.845 218.879 143.075 221.691 141.681L215.188 108.137C215.188 108.137 203.168 76.3317 202.913 74.5814C202.659 72.831 225.701 59.8144 230.453 57.5545C235.206 55.2946 236.469 57.3108 236.469 57.3108L237.022 78.2925Z" fill="#622466" stroke="#263238" stroke-linecap="round" stroke-linejoin="round"/>
<path d="M230.763 54.0095C230.763 54.0095 224.759 73.0415 224.25 75.5452C223.74 78.0488 224.25 78.0488 226.011 76.2874C227.772 74.526 232.27 70.2831 232.27 70.2831L237.023 78.2925L236.768 63.5255V55.0066C236.768 55.0066 236.524 51.5059 230.763 54.0095Z" fill="#7D7D7D" stroke="#263238" stroke-linecap="round" stroke-linejoin="round"/>
<path d="M218.999 95.0757H233.766L233.522 101.08L227.008 103.329L218.744 101.08L218.999 95.0757Z" stroke="#263238" stroke-linecap="round" stroke-linejoin="round"/>
<path d="M259.555 29.2281C259.555 29.2281 263.056 44.4936 263.809 46.9529C264.562 49.4122 259.81 59.2273 258.27 61.4761C257.082 63.4539 255.027 64.7523 252.731 64.9768C250.981 64.9768 241.465 61.7309 239.205 60.2243C236.945 58.7177 234.707 56.9674 234.707 56.9674C232.531 57.9597 229.973 57.5682 228.193 55.9704C225.191 53.212 221.181 49.955 222.178 47.7062C223.173 45.4457 225.474 44.0474 227.939 44.2055C230.697 44.2055 229.7 43.9508 229.7 43.9508C229.7 43.9508 224.693 36.6947 224.693 30.9341C224.693 25.1736 235.449 20.9639 241.708 20.9639C246.036 21.1443 250.288 22.1639 254.227 23.9661L259.555 29.2281Z" fill="white" stroke="#263238" stroke-linecap="round" stroke-linejoin="round"/>
<path d="M250.792 34.9776L255.301 43.4966L250.792 46.4987L248.787 43.9951" stroke="#263238" stroke-linecap="round" stroke-linejoin="round"/>
<path d="M259.057 42.7433C259.057 42.7433 259.3 44.7484 256.298 48.0053" stroke="#263238" stroke-linecap="round" stroke-linejoin="round"/>
<path d="M246.04 38.1127C246.04 39.2869 245.53 40.2396 244.932 40.2396C244.334 40.2396 243.824 39.2869 243.824 38.1127C243.824 36.9384 244.334 35.9857 244.932 35.9857C245.53 35.9857 246.04 36.9384 246.04 38.1127Z" fill="#263238"/>
<ellipse cx="253.916" cy="34.1024" rx="1.12995" ry="2.12697" fill="#263238"/>
<path d="M232.514 16.2004C232.514 16.2004 216.761 21.9609 216.24 29.2281C215.72 36.4953 230.265 46.4987 231.018 47.7505C231.772 49.0023 234.02 46.2439 234.02 46.2439C233.007 44.8827 232.639 43.1468 233.012 41.4915C233.766 38.9878 237.023 35.9524 237.023 34.7339C237.023 33.5153 233.267 35.7309 233.267 31.9754C233.267 28.22 242.528 25.9712 248.034 26.2149C253.54 26.4586 258.303 35.7309 262.314 31.2221C266.324 26.7134 260.552 25.4727 260.552 25.4727C260.552 25.4727 268.307 24.4646 268.307 20.4654C268.307 16.4663 264.296 13.6968 262.546 13.6968C260.796 13.6968 256.043 16.71 256.043 13.4531C256.043 10.1961 260.796 8.68953 256.287 3.48287C251.778 -1.72379 246.029 3.48287 246.029 5.48798C246.029 7.49311 244.522 11.2375 243.525 11.2375C242.528 11.2375 239.515 6.7398 236.014 9.24342C233.884 10.9372 232.604 13.4804 232.514 16.2004Z" fill="#263238" stroke="#263238" stroke-linecap="round" stroke-linejoin="round"/>
<line x1="239.32" y1="34.8431" x2="246.393" y2="32.182" stroke="#263238" stroke-linecap="round" stroke-linejoin="round"/>
<path d="M248.289 28.9733C248.136 28.1874 248.261 27.3726 248.643 26.6691" stroke="#263238" stroke-linecap="round" stroke-linejoin="round"/>
<path d="M248.643 26.6469C249.208 25.5391 250.482 24.1101 253.296 22.9469" stroke="white" stroke-linecap="round" stroke-linejoin="round"/>
</svg>
