<svg width="1366" height="298" viewBox="0 0 1366 298" fill="none" xmlns="http://www.w3.org/2000/svg">
<path opacity="0.11" d="M40.1353 196.23C40.1353 196.23 90.3784 197.038 146.752 199.66C226.707 204.482 353.582 181.433 435.65 154.773C492.825 135.898 521.2 122.415 567.04 112.982C571.41 112.083 587.438 111.238 593.934 110.559C661.286 107.655 779.688 141.936 960.314 104.645C1153.91 64.6763 1364.7 0.000244141 1364.7 0.000244141C1364.7 0.000244141 1191.16 104.352 1091.24 153.265C991.319 202.177 892.312 198.153 851.618 190.492C758.194 172.905 544.166 82.2789 334.793 85.8868C273.907 86.5376 187.279 107.407 135.569 120.608C115.288 125.786 119.86 128.869 76.5391 144.537C33.2178 160.205 12.9658 192.066 -0.000976562 196.23" fill="white"/>
<path opacity="0.11" d="M984.641 275.127C1006.3 274.71 1023.61 276.163 1038.81 277.069C1084.51 279.791 1141.5 279.06 1196.91 260.51C1228.7 250.033 1243.97 243.89 1266.73 232.229C1358.03 180.764 1371.71 144.191 1371.71 144.191C1371.71 144.191 1305.74 131.424 1188.07 175.133C1070.4 218.842 984.641 275.127 984.641 275.127Z" fill="white"/>
</svg>
