<svg width="634" height="575" viewBox="0 0 634 575" fill="none" xmlns="http://www.w3.org/2000/svg">
<g style="mix-blend-mode:multiply" opacity="0.5">
<path d="M373.383 74.6278C349.534 94.167 330.764 119.077 309.257 141.167C276.682 174.631 237.578 201.711 194.795 220.434C157.24 236.869 116.975 248.938 85.3387 275.008C40.8913 311.632 33.0178 376.863 61.0145 423.443C78.5915 452.684 109.084 472.589 141.649 482.767C174.213 492.946 208.906 494.214 242.991 492.735C280.191 491.119 317.567 486.251 352.646 473.769C409.271 453.622 458.101 413.795 492.277 364.354C526.45 314.913 545.144 265.636 551.671 205.888C555.669 169.301 550.345 125.039 537.095 96.645C524.383 69.3992 495.937 44.4896 462.913 43.1254C449.768 42.5831 434.189 44.2198 421.885 48.3651C404.017 54.3836 388.032 62.6242 373.383 74.6278Z" fill="url(#paint0_linear_1_3477)"/>
</g>
<path d="M213.901 162.709C212.982 162.709 212.087 162.802 211.22 162.979C211.222 162.889 211.234 162.801 211.234 162.709C211.234 155.343 205.262 149.371 197.896 149.371C195.548 149.371 193.346 149.982 191.429 151.046C190.795 144.271 185.097 138.968 178.155 138.968C170.789 138.968 164.818 144.939 164.818 152.306C158.378 152.306 153.006 156.869 151.755 162.939C150.973 162.795 150.169 162.709 149.346 162.709C141.979 162.709 136.008 168.68 136.008 176.048C136.008 183.414 141.979 189.385 149.346 189.385H213.901C221.267 189.385 227.239 183.414 227.239 176.048C227.239 168.68 221.267 162.709 213.901 162.709Z" fill="#F7E6E8"/>
<path d="M448.092 112.391C447.097 112.391 446.125 112.492 445.187 112.683C445.188 112.585 445.201 112.489 445.201 112.391C445.201 104.407 438.73 97.9369 430.747 97.9369C428.204 97.9369 425.817 98.5988 423.74 99.7516C423.053 92.4093 416.877 86.662 409.355 86.662C401.372 86.662 394.9 93.1338 394.9 101.116C387.922 101.116 382.101 106.062 380.746 112.638C379.897 112.484 379.027 112.391 378.134 112.391C370.152 112.391 363.68 118.862 363.68 126.844C363.68 134.828 370.152 141.298 378.134 141.298H448.092C456.075 141.298 462.547 134.828 462.547 126.844C462.547 118.862 456.075 112.391 448.092 112.391Z" fill="#D8A4B1"/>
<path d="M548.886 151.316C547.814 151.316 546.765 151.426 545.753 151.632C545.756 151.526 545.77 151.423 545.77 151.316C545.77 142.71 538.792 135.732 530.184 135.732C527.442 135.732 524.868 136.445 522.629 137.69C521.888 129.773 515.23 123.575 507.118 123.575C498.511 123.575 491.534 130.553 491.534 139.161C484.009 139.161 477.732 144.492 476.271 151.583C475.356 151.416 474.417 151.316 473.455 151.316C464.847 151.316 457.871 158.294 457.871 166.902C457.871 175.51 464.847 182.486 473.455 182.486H548.886C557.494 182.486 564.472 175.51 564.472 166.902C564.472 158.294 557.494 151.316 548.886 151.316Z" fill="white"/>
<path d="M104.391 358.233C103.16 358.233 101.959 358.357 100.798 358.595C100.801 358.472 100.816 358.354 100.816 358.233C100.816 348.36 92.813 340.357 82.9412 340.357C79.7957 340.357 76.8435 341.176 74.2751 342.603C73.424 333.522 65.7883 326.414 56.4852 326.414C46.6135 326.414 38.6106 334.418 38.6106 344.29C29.9806 344.29 22.7801 350.405 21.1045 358.539C20.0546 358.347 18.9797 358.233 17.8741 358.233C8.00235 358.233 -0.000488281 366.236 -0.000488281 376.108C-0.000488281 385.979 8.00235 393.982 17.8741 393.982H104.391C114.263 393.982 122.266 385.979 122.266 376.108C122.266 366.236 114.263 358.233 104.391 358.233Z" fill="white"/>
<g style="mix-blend-mode:multiply" opacity="0.28">
<ellipse cx="305.006" cy="562.258" rx="176.771" ry="11.8645" fill="#EBC1C5"/>
</g>
<path d="M199.783 139.093C199.783 124.538 211.582 112.739 226.137 112.739H383.874C398.43 112.739 410.229 124.538 410.229 139.093V491.138C410.229 505.693 398.43 517.493 383.875 517.493H226.137C211.582 517.493 199.783 505.694 199.783 491.138V139.093Z" fill="white"/>
<rect opacity="0.75" x="207.722" y="161.547" width="194.568" height="302.248" fill="url(#paint1_linear_1_3477)"/>
<path d="M336.237 311.823H227.921C223.07 311.823 219.137 315.756 219.137 320.608V347.582C219.137 352.434 223.07 356.367 227.921 356.367H231.929C232.136 357.887 231.9 359.469 231.231 360.85C231.175 360.965 231.118 361.111 231.196 361.214C231.253 361.288 231.357 361.303 231.451 361.31C233.064 361.431 234.717 360.925 235.985 359.921C237.108 359.033 237.892 357.755 238.238 356.367H336.237C341.089 356.367 345.021 352.434 345.021 347.582V320.608C345.021 315.756 341.089 311.823 336.237 311.823Z" fill="#FCF5F6"/>
<path d="M382.544 234.133H264.029C258.734 234.133 254.44 238.427 254.44 243.723V287.73C254.44 293.027 258.734 297.32 264.029 297.32H370.187C370.539 298.692 371.319 299.955 372.43 300.835C373.698 301.839 375.35 302.345 376.963 302.224C377.058 302.217 377.162 302.203 377.219 302.128C377.297 302.025 377.24 301.881 377.185 301.764C376.52 300.394 376.281 298.828 376.479 297.32H382.544C387.841 297.32 392.133 293.027 392.133 287.73V243.723C392.133 238.427 387.841 234.133 382.544 234.133Z" fill="#FCF5F6"/>
<path d="M304.654 215.34C309.075 212.279 313.209 208.803 316.982 204.971C319.38 202.536 321.664 199.912 323.131 196.824C324.598 193.736 325.185 190.109 324.108 186.865C322.832 183.017 319.14 180.091 315.101 179.73C311.065 179.367 306.909 181.586 304.968 185.145C302.165 180.687 296.42 178.474 291.438 180.178C286.454 181.88 282.997 187.25 283.509 192.491C283.954 197.04 286.962 200.907 290.16 204.172C294.77 208.878 298.928 212.082 304.654 215.34Z" fill="#EBC1C5"/>
<line x1="283.765" y1="211.504" x2="291.902" y2="205.798" stroke="#D8A4B1" stroke-width="0.75"/>
<path d="M281.333 213.888L286.185 213.245L283.202 209.364L281.333 213.888Z" fill="#D8A4B1"/>
<line x1="316.262" y1="188.591" x2="328.703" y2="179.866" stroke="#D8A4B1" stroke-width="0.75" stroke-linecap="round" stroke-linejoin="round"/>
<line x1="328.652" y1="179.828" x2="329.331" y2="176.46" stroke="#D8A4B1" stroke-width="0.75" stroke-linecap="round" stroke-linejoin="round"/>
<line x1="326.866" y1="180.942" x2="327.545" y2="177.574" stroke="#D8A4B1" stroke-width="0.75" stroke-linecap="round" stroke-linejoin="round"/>
<line x1="325.151" y1="181.936" x2="325.83" y2="178.569" stroke="#D8A4B1" stroke-width="0.75" stroke-linecap="round" stroke-linejoin="round"/>
<line x1="329.431" y1="179.912" x2="332.758" y2="180.767" stroke="#D8A4B1" stroke-width="0.75" stroke-linecap="round" stroke-linejoin="round"/>
<line x1="327.651" y1="181.035" x2="330.978" y2="181.89" stroke="#D8A4B1" stroke-width="0.75" stroke-linecap="round" stroke-linejoin="round"/>
<line x1="326.008" y1="182.145" x2="329.336" y2="183.001" stroke="#D8A4B1" stroke-width="0.75" stroke-linecap="round" stroke-linejoin="round"/>
<path d="M382.544 369.78H264.029C258.734 369.78 254.44 374.073 254.44 379.37V434.961C254.44 440.257 258.734 444.551 264.029 444.551H370.187C370.539 445.923 371.319 447.185 372.43 448.066C373.698 449.07 375.35 449.577 376.963 449.456C377.058 449.449 377.162 449.433 377.219 449.358C377.297 449.257 377.24 449.111 377.185 448.995C376.52 447.626 376.281 446.058 376.479 444.551H382.544C387.841 444.551 392.133 440.257 392.133 434.961V379.37C392.133 374.073 387.841 369.78 382.544 369.78Z" fill="#FCF5F6"/>
<circle cx="320.353" cy="484.565" r="15.3472" transform="rotate(-45 320.353 484.565)" fill="#F7E6E8"/>
<path d="M37.2145 215.624H161.013C166.792 215.624 171.477 220.309 171.477 226.088V262.435C171.477 268.215 166.792 272.899 161.013 272.899H156.238C155.992 274.71 156.273 276.594 157.071 278.241C157.138 278.378 157.206 278.551 157.113 278.673C157.044 278.762 156.919 278.78 156.808 278.789C154.886 278.932 152.919 278.33 151.407 277.134C150.071 276.074 149.136 274.553 148.723 272.899H37.2145C31.4366 272.899 26.7517 268.215 26.7517 262.435V226.088C26.7517 220.309 31.4366 215.624 37.2145 215.624Z" fill="#622466"/>
<line x1="44.7114" y1="230.594" x2="153.518" y2="230.594" stroke="white" stroke-width="1.5"/>
<line x1="44.7114" y1="243.048" x2="153.518" y2="243.048" stroke="white" stroke-width="1.5"/>
<line x1="44.7114" y1="255.502" x2="110.615" y2="255.502" stroke="white" stroke-width="1.5"/>
<path d="M201.578 384.211C197.754 382.771 194.088 380.906 190.673 378.664C189.043 377.593 187.462 376.427 186.11 375.022C183.349 372.146 181.69 368.422 179.808 364.906C177.401 360.408 174.553 356.147 171.317 352.203C170.564 351.284 169.759 350.359 168.691 349.838C167.935 349.471 167.094 349.328 166.265 349.189C163.274 348.688 160.283 348.187 157.292 347.688C156.976 348.637 157.659 349.254 158.461 349.852C159.189 350.393 159.746 351.126 160.293 351.849C161.888 353.954 163.483 356.06 165.078 358.166C165.516 358.743 165.973 359.339 166.616 359.675C167.164 359.961 167.795 360.032 168.397 360.17C170.564 360.664 172.435 362.065 173.897 363.738C175.36 365.411 176.465 367.359 177.596 369.273C181.673 376.167 189.15 389.717 195.566 394.512C196.561 395.255 199.466 397.908 200.667 398.215C201.869 398.522 203.248 398.374 204.181 397.556C205.405 396.485 201.304 385.814 201.578 384.211Z" fill="#E2B791"/>
<path d="M211.829 347.103C210.034 347.238 208.371 348.187 207.037 349.431C205.705 350.674 204.661 352.205 203.637 353.727C198.926 360.733 194.394 367.866 189.862 374.996C189.681 375.282 189.496 375.575 189.435 375.91C189.321 376.532 189.655 377.146 190.026 377.652C191.794 380.061 194.579 381.396 197.249 382.639C198.3 383.129 199.352 383.618 200.403 384.108C200.798 383.004 201.191 382.044 201.419 380.891C202.998 372.92 205.565 365.16 209.037 357.858C210.667 354.431 212.337 350.889 211.829 347.103Z" fill="#BC2D51"/>
<g style="mix-blend-mode:multiply" opacity="0.54">
<path d="M193.489 381.885C195.814 369.106 203.194 357.905 210.409 347.103" stroke="#BC2D51" stroke-width="0.5"/>
</g>
<path d="M153.366 513.638C153.943 519.965 154.326 526.364 153.312 532.63C153.206 533.287 153.592 533.864 154.188 534.159C154.785 534.454 155.486 534.443 156.145 534.351C160.009 533.817 164.191 530.15 166.806 527.255C166.289 523.378 166.662 519.444 167.086 515.557C167.219 514.339 167.36 513.121 167.503 511.903C162.945 513.316 158.132 513.907 153.366 513.638Z" fill="#EDD5B9"/>
<path d="M267.217 448.671C267.032 442.519 265.356 436.417 262.376 431.035C255.984 430.328 249.542 429.41 243.116 429.152C240.46 429.045 237.792 428.976 235.148 429.26C229.949 429.816 224.893 431.727 219.667 431.575C199.416 430.989 174.566 430.338 154.304 435.724C150.923 436.622 148.529 439.627 148.409 443.123C147.625 466.093 151.139 489.873 153.286 512.762C153.314 513.054 153.34 513.346 153.366 513.638C158.132 513.907 162.945 513.316 167.503 511.903C169.354 496.248 171.996 480.602 172.395 464.863C172.429 463.569 173.595 462.604 174.875 462.803C180.359 463.656 195.055 465.568 218.374 465.902C228.857 466.009 239.363 466.116 249.804 465.158C255.356 464.649 261.508 463.481 264.768 458.958C266.866 456.044 267.325 452.259 267.217 448.671Z" fill="#293373"/>
<path d="M168.198 512.586C161.848 514.62 157.451 514.377 152.479 513.701C152.207 511.32 151.945 508.87 152.013 506.474C152.02 506.233 152.037 505.973 152.19 505.787C152.329 505.619 152.552 505.549 152.764 505.496C153.706 505.266 154.683 505.227 155.654 505.189C159.389 505.044 163.124 504.9 166.859 504.755C167.548 504.729 168.37 504.768 168.734 505.353C168.905 505.628 168.93 505.969 168.941 506.293C169.005 508.218 168.749 510.739 168.198 512.586Z" fill="#8CA5C1"/>
<path d="M192.299 529.683C195.989 534.462 195.88 541.234 195.661 547.268C196.369 547.866 197.091 546.932 197.564 546.135C200.584 541.037 203.358 535.792 205.872 530.425C206.417 529.263 206.951 528.089 207.337 526.864C208.042 524.621 207.242 522.239 206.901 519.913C203.215 518.162 199.709 515.835 196.967 511.662C193.461 515.087 190.138 518.637 186.13 521.459C188.138 524.207 190.186 526.948 192.299 529.683Z" fill="#EDD5B9"/>
<path d="M236.615 465.484C237.396 465.392 238.245 465.25 238.765 464.66C239.65 463.66 239.028 462.04 238.078 461.1C236.892 459.925 235.312 459.248 233.762 458.627C224.111 454.757 214.009 452.013 203.727 450.467C185.337 447.702 167.838 442.654 149.464 445.513C146.579 448.37 143.178 452.199 143.556 456.242C143.696 457.755 144.465 459.692 145.156 461.045C146.345 463.37 147.5 466.055 148.972 468.211C161.843 487.04 173.181 503.734 186.13 521.459C190.138 518.637 193.917 515.493 197.423 512.068C195.867 510.34 194.458 508.468 193.2 506.52C189.726 501.145 187.782 494.8 184.835 489.119C182.392 484.408 180.653 479.611 177.643 475.24C177.191 474.585 176.438 473.315 176.079 472.606C175.72 471.897 175.742 470.928 176.349 470.413C176.784 470.043 177.397 469.989 177.967 469.954C189.213 469.272 199.551 468.461 210.763 467.366C214.264 467.026 219.59 466.657 223.102 466.443C228.041 466.143 230.561 466.066 234.74 465.489C235.474 465.388 235.88 465.571 236.615 465.484Z" fill="#1F2656"/>
<path d="M197.97 512.257C193.823 517.469 189.829 519.616 185.773 522.139C184.243 520.373 182.206 518.074 180.95 516.102C180.824 515.905 180.694 515.687 180.719 515.45C180.743 515.236 180.889 515.055 181.036 514.894C181.69 514.176 182.479 513.597 183.261 513.021L192.307 506.371C192.863 505.962 193.566 505.533 194.187 505.8C194.481 505.925 194.686 506.185 194.873 506.441C195.981 507.958 197.415 510.458 197.97 512.257Z" fill="#8CA5C1"/>
<path d="M182.68 564.715C182.848 564.424 183.119 564.327 183.439 564.227C187.927 562.832 192.518 561.726 196.842 559.888C198.656 559.115 200.468 558.176 201.746 556.673C203.097 555.083 203.721 553.018 204.312 551.017C207.111 541.545 209.91 532.072 212.71 522.599C212.82 522.228 212.619 521.84 212.259 521.697C209.616 520.651 207.603 519.327 205.52 517.162C202.383 513.898 200.959 517.307 200.436 520.373C200.026 522.783 199.62 524.919 198.317 526.7C197.892 527.28 197.061 527.233 196.576 526.701C196.545 526.667 196.512 526.636 196.477 526.612C196.134 526.369 195.664 526.318 195.276 526.48C194.939 526.621 194.683 526.9 194.439 527.17C193.852 527.818 193.25 528.491 192.965 529.319C192.581 530.434 192.827 531.653 192.847 532.834C192.86 533.67 192.724 534.529 192.675 535.365C192.42 539.716 192.243 542.314 191.989 546.665C191.977 546.855 191.966 547.046 191.954 547.238C191.823 549.237 190.736 551.038 189.053 552.127C187.345 553.231 185.672 554.502 183.559 556.42C182.616 557.275 181.224 558.988 180.6 560.096C179.974 561.205 179.835 562.675 180.57 563.712C180.57 563.712 181.68 565.082 182.569 564.838L182.68 564.715Z" fill="#293373"/>
<path d="M182.633 565.281C183.628 565.296 185.086 564.901 186.046 564.683C190.609 563.644 195.091 562.256 199.439 560.532C201.629 559.665 203.71 557.933 204.897 555.9C205.789 554.374 206.368 552.692 206.953 551.024C209.559 543.569 212.337 536.176 215.286 528.85C215.862 527.418 216.456 525.864 216.076 524.367C215.971 523.951 215.788 523.549 215.502 523.228C215.008 522.676 214.271 522.421 213.569 522.183C213.34 522.106 213.032 522.023 212.751 522.432C209.888 532.123 207.176 541.326 204.312 551.017C203.721 553.018 203.096 555.083 201.746 556.673C200.468 558.176 198.656 559.115 196.842 559.888C192.518 561.726 187.63 562.911 183.143 564.306C182.912 564.378 182.452 564.51 182.196 564.826C182.161 564.87 182.133 564.965 182.142 565.021C182.154 565.105 182.213 565.179 182.285 565.225C182.357 565.271 182.477 565.274 182.562 565.281C182.588 565.282 182.607 565.279 182.633 565.281Z" fill="white"/>
<path d="M225.959 335.575C227.479 338.983 229.785 342.316 232.604 344.762C227.78 352.159 214.829 350.327 211.991 347.873C211.03 344.277 209.292 340.606 206.409 338.252C206.16 338.049 205.879 337.841 205.443 337.556C207.619 335.505 209.867 333.158 212.261 331.365C213.902 330.137 216.335 330.087 218.385 330.117C220.433 330.147 222.572 330.876 223.833 332.492C224.517 333.368 225.507 334.56 225.959 335.575Z" fill="#EDD5B9"/>
<g style="mix-blend-mode:multiply" opacity="0.6">
<path d="M214.119 336.104C213.049 337.604 210.773 339.685 208.801 340.82C208.321 340.132 206.956 338.487 205.636 337.684C207.12 336.541 208.826 335.176 210.235 333.944C210.395 333.803 210.559 333.657 210.648 333.464C210.76 333.756 211.083 333.9 211.322 334.102C212.091 334.751 213.288 335.537 214.119 336.104Z" fill="#EFBEB7"/>
</g>
<path d="M210.63 333.533C206.522 337.432 202.755 340.045 197.998 341.987C197.241 342.295 196.46 342.593 195.643 342.614C194.826 342.635 193.956 342.33 193.5 341.652C192.972 340.867 193.04 339.402 192.32 338.788C191.658 338.222 190.399 338.174 190.302 337.307C190.256 336.892 190.552 336.49 190.49 336.075C190.341 335.087 188.643 335.312 188.122 334.459C187.597 333.601 188.789 332.294 188.154 331.514C186.744 331.82 185.257 331.898 183.883 330.891C183.569 330.66 183.346 330.304 183.249 329.926C183.039 329.101 183.602 328.306 184 327.554C185.13 325.414 184.92 322.524 184.31 320.181C183.701 317.839 182.637 315.639 181.918 313.328C181.201 311.015 180.843 308.476 181.665 306.198C182.391 304.186 183.95 302.365 185.892 301.468C189.959 299.59 194.763 298.972 198.942 300.583C200.941 301.355 202.723 302.595 204.417 303.91C206.718 305.692 208.918 307.652 210.627 310.01C213.021 313.313 214.375 317.358 214.451 321.438C214.527 325.517 213.589 330.724 210.63 333.533Z" fill="#EDD5B9"/>
<path d="M207.702 324.444C209.179 323.803 210.275 322.411 210.681 320.854C211.088 319.298 210.835 317.603 210.116 316.163C209.556 315.044 208.655 314.022 207.456 313.658C205.835 313.165 204.031 314.023 202.981 315.354C202.624 315.807 202.322 316.323 201.851 316.656C201.378 316.988 201.153 317.183 200.131 317.077C196.551 316.597 192.781 315.351 189.661 313.163C186.542 310.974 184.007 308.033 181.915 304.847C180.146 306.513 179.315 309.103 179.61 311.516C179.903 313.927 181.106 316.156 182.662 318.023C181.732 317.181 180.847 316.127 180.237 315.033C179.133 313.048 178.296 310.844 178.347 308.575C178.398 306.306 179.471 303.969 181.445 302.849C180.808 301.372 182.118 299.828 183.441 298.912C185.96 297.165 188.48 295.419 191 293.673C193.122 292.202 195.262 290.723 197.63 289.694C204.541 286.69 213.151 288.1 218.744 293.151C224.135 298.019 226.869 305.84 233.393 309.034C236.125 310.37 239.543 310.935 241.171 313.505C242.582 315.734 242.062 318.66 241.154 321.138C238.728 327.764 233.801 333.44 227.581 336.775C224.741 338.296 221.501 339.357 218.318 338.862C215.114 338.363 212.28 336.294 210.442 333.622C208.602 330.952 208.015 327.671 207.702 324.444Z" fill="#DC724C"/>
<path d="M221.604 296.342C223.298 297.968 224.901 299.671 226.491 301.387C228.083 303.086 229.633 304.812 231.513 306.048C233.359 307.305 235.645 307.97 237.69 309.262C238.714 309.91 239.644 310.728 240.341 311.725C241.006 312.729 241.442 313.948 241.271 315.127C241.189 313.95 240.669 312.886 239.914 312.05C239.185 311.191 238.267 310.507 237.269 309.991C235.265 308.938 232.968 308.312 230.908 306.959C228.882 305.589 227.301 303.765 225.855 301.934C224.398 300.104 222.956 298.261 221.604 296.342Z" fill="#DC724C"/>
<g style="mix-blend-mode:multiply" opacity="0.48">
<path d="M190.789 291.885C195.492 287.699 201.99 285.602 208.252 286.25C214.515 286.899 220.446 290.28 224.192 295.341C227.127 299.304 228.889 304.336 232.955 307.127C235.828 309.099 239.582 309.724 242.044 312.188C244.819 314.963 245.193 319.483 243.933 323.198C242.673 326.915 240.057 329.997 237.403 332.888" stroke="#DC724C" stroke-width="0.5"/>
</g>
<path d="M211.405 429.061C214.488 431.493 218.575 432.296 222.501 432.303C226.428 432.308 230.317 431.599 234.236 431.354C240.698 430.952 247.21 431.417 253.572 432.621C255.424 432.972 257.293 433.41 259.172 433.259C261.052 433.111 262.992 432.253 263.906 430.603C265.168 428.324 264.106 425.511 263.068 423.121C260.086 416.246 257.375 409.194 256.008 401.825C254.49 393.643 254.66 385.255 254.006 376.959C253.351 368.662 251.767 360.171 247.189 353.223C245.511 350.674 243.394 348.331 240.697 346.904C239.04 346.028 237.219 345.523 235.412 345.024C234.271 344.708 233.065 344.829 231.889 344.967C230.13 346.37 228.341 347.79 226.273 348.677C222.65 350.229 218.471 349.992 214.679 348.917C213.328 348.535 211.977 348.033 210.898 347.135C207.687 352.394 204.569 357.673 201.682 363.115C199.053 368.073 196.507 373.301 196.306 378.908C196.203 381.801 196.735 384.676 197.378 387.498C199.178 395.398 202.814 402.169 206.346 409.459C208.304 413.501 209.63 418.512 209.849 422.997C209.908 424.175 209.823 425.373 210.119 426.515C210.415 427.655 210.481 428.331 211.405 429.061Z" fill="#BC2D51"/>
<path d="M167.506 362.558C167.312 363.357 166.245 363.658 165.482 363.348C164.722 363.036 164.21 362.327 163.74 361.652L151.072 343.476C150.678 342.913 151.17 342.147 151.685 341.69C152.2 341.234 153.363 341.015 153.686 341.366C154.501 342.251 154.978 342.942 155.657 343.922C159.618 349.642 163.62 355.321 167.495 361.1C167.734 361.458 167.607 362.139 167.506 362.558Z" fill="#293373"/>
<path d="M204.509 403.947C198.268 391.558 185.65 382.107 180.024 369.427C178.605 366.23 177.575 362.677 174.98 360.333C173.024 358.564 170.323 357.645 168.71 355.556C167.849 354.441 167.303 353 165.862 352.518C165.175 352.287 164.385 352.501 163.971 353.095C163.545 353.704 163.787 354.227 164.021 354.72C164.889 356.548 165.756 358.376 166.623 360.203C166.951 360.892 167.287 361.634 167.027 362.402C166.902 362.771 166.605 363.081 166.225 363.163C165.638 363.292 165.254 362.876 164.925 362.49C161.864 358.894 159.082 355.062 156.61 351.039C155.905 349.889 155.256 348.541 153.91 348.456C153.345 349.504 153.637 350.786 153.943 351.935C155.175 356.577 156.409 361.219 157.642 365.859C157.826 366.551 158.019 367.263 158.457 367.829C158.965 368.486 159.741 368.87 160.499 369.208C163.626 370.597 167.029 371.619 169.557 373.926C170.867 375.122 171.875 376.608 172.809 378.114C177.318 385.38 180.41 393.419 184.273 401.048C188.138 408.675 193.471 415.31 200.496 420.184C202.241 421.395 204.537 422.831 206.786 423.52C208.186 423.948 209.718 423.61 210.795 422.616C216.909 416.963 221.388 409.508 225.507 402.267C229.954 394.452 233.656 386.238 237.945 378.335C239.332 375.778 240.79 373.232 241.684 370.463C243.333 365.358 242.919 359.618 240.552 354.802C239.313 352.28 237.272 349.835 234.489 349.438C232.033 349.086 229.648 350.423 227.738 352.006C223.261 355.712 220.215 361.011 218.873 366.664C218.311 369.035 218.034 371.47 217.39 373.82C216.467 377.188 214.815 380.303 213.213 383.405C210.977 387.737 208.801 392.14 207.509 396.84C206.78 399.495 206.014 401.64 204.509 403.947Z" fill="#EDD5B9"/>
<path d="M234.603 392.757C234.431 393.092 234.246 393.44 233.948 393.665C233.77 393.8 233.52 393.776 233.342 393.643C227.735 389.431 219.312 385.176 212.458 383.571C212.337 383.542 212.119 383.537 211.912 383.531C211.697 383.524 211.557 383.305 211.636 383.106L213.634 378.127C214.249 376.596 215.192 374.067 215.754 372.518C216.503 370.456 217.347 368.384 218.075 366.328C219.205 363.131 220.358 359.92 222.105 357.013C223.655 354.434 225.77 352.078 228.266 350.403C230.812 348.695 234.141 347.929 237.007 349.015C239.453 349.944 241.596 351.814 242.784 354.147C245.925 360.32 245.522 367.81 243.293 374.368C242.655 376.244 241.877 378.071 241.078 379.884C239.118 384.327 236.834 388.445 234.603 392.757Z" fill="#BC2D51"/>
<path d="M131.908 559.588C132.16 559.366 132.448 559.361 132.784 559.369C137.48 559.483 142.185 559.905 146.869 559.544C148.837 559.394 150.853 559.084 152.544 558.069C154.333 556.994 155.586 555.238 156.786 553.531C162.468 545.452 168.151 537.371 173.833 529.292C174.055 528.975 173.99 528.544 173.694 528.294C171.525 526.457 170.042 524.559 168.762 521.841C166.833 517.746 164.394 520.519 162.917 523.257C161.757 525.41 160.689 527.302 158.884 528.573C158.296 528.988 157.524 528.677 157.235 528.018C157.217 527.975 157.195 527.936 157.17 527.902C156.922 527.562 156.494 527.362 156.074 527.393C155.709 527.418 155.378 527.6 155.06 527.778C154.297 528.205 153.511 528.65 152.976 529.342C152.255 530.277 152.098 531.51 151.739 532.635C151.485 533.432 151.082 534.202 150.767 534.978C149.133 539.019 148.135 541.424 146.502 545.465C146.43 545.641 146.359 545.818 146.285 545.996C145.522 547.848 143.916 549.207 141.973 549.7C140.003 550.2 138.01 550.869 135.394 552.01C134.228 552.519 132.36 553.697 131.414 554.547C130.467 555.396 129.865 556.744 130.23 557.963C130.23 557.963 130.844 559.615 131.762 559.669L131.908 559.588Z" fill="#293373"/>
<path d="M131.683 560.109C132.62 560.443 134.127 560.535 135.108 560.635C139.762 561.11 144.453 561.228 149.125 560.987C151.476 560.865 154.003 559.891 155.779 558.344C157.111 557.185 158.199 555.775 159.285 554.381C164.138 548.153 169.137 542.037 174.274 536.039C175.279 534.866 176.339 533.585 176.457 532.044C176.49 531.617 176.446 531.176 176.278 530.782C175.987 530.1 175.369 529.625 174.78 529.174C174.587 529.027 174.322 528.851 173.926 529.148C168.112 537.413 162.6 545.265 156.786 553.532C155.586 555.238 154.333 556.994 152.544 558.069C150.853 559.084 148.837 559.394 146.869 559.544C142.184 559.905 137.176 559.462 132.478 559.348C132.236 559.343 131.758 559.321 131.414 559.539C131.366 559.569 131.31 559.65 131.3 559.706C131.285 559.789 131.316 559.878 131.37 559.945C131.424 560.012 131.537 560.052 131.616 560.085C131.64 560.095 131.659 560.101 131.683 560.109Z" fill="white"/>
<g style="mix-blend-mode:multiply" opacity="0.48">
<path d="M237.721 350.213C241.413 353.643 241.741 359.39 240.873 364.354C238.963 375.28 232.681 384.891 226.196 393.889" stroke="#BC2D51" stroke-width="0.5"/>
</g>
<g style="mix-blend-mode:multiply" opacity="0.48">
<path d="M224.146 345.344C219.376 350.788 216.623 357.667 214.035 364.427C211.647 370.659 209.322 376.928 207.595 383.375" stroke="#BC2D51" stroke-width="0.5"/>
</g>
<path d="M231.663 241.067C232.959 238.724 234.036 236.259 234.873 233.715C235.405 232.098 235.845 230.424 235.817 228.722C235.791 227.02 235.251 225.272 234.054 224.062C232.634 222.627 230.34 222.137 228.458 222.867C226.577 223.597 225.213 225.505 225.132 227.523C222.897 226.152 219.845 226.434 217.997 228.295C216.149 230.155 215.793 233.316 217.179 235.541C218.383 237.473 220.579 238.535 222.729 239.285C225.824 240.367 228.389 240.878 231.663 241.067Z" fill="#BC2D51"/>
<path d="M251.276 208.472C252.941 207.749 254.537 206.87 256.038 205.851C256.991 205.203 257.919 204.484 258.607 203.559C259.296 202.633 259.728 201.472 259.585 200.327C259.415 198.97 258.386 197.759 257.074 197.374C255.761 196.989 254.241 197.45 253.365 198.5C252.729 196.841 250.974 195.731 249.213 195.968C247.452 196.204 245.956 197.753 245.781 199.522C245.629 201.056 246.37 202.534 247.214 203.825C248.43 205.684 249.596 207.017 251.276 208.472Z" fill="#BC2D51"/>
<path d="M244.15 278.423C246.726 276.402 249.113 274.138 251.268 271.673C252.638 270.106 253.931 268.429 254.711 266.499C255.491 264.568 255.717 262.342 254.945 260.409C254.028 258.116 251.678 256.471 249.211 256.397C246.743 256.324 244.298 257.824 243.247 260.057C241.381 257.449 237.81 256.311 234.842 257.526C231.875 258.743 229.967 262.132 230.469 265.3C230.904 268.049 232.872 270.291 234.936 272.16C237.907 274.853 240.551 276.65 244.15 278.423Z" fill="#BC2D51"/>
<path d="M449.307 266.104H590.484C596.793 266.104 601.908 271.218 601.908 277.527V329.95C601.908 336.259 596.793 341.373 590.484 341.373H464.027C463.608 343.009 462.679 344.512 461.356 345.561C459.844 346.756 457.876 347.36 455.954 347.215C455.843 347.207 455.718 347.189 455.65 347.1C455.557 346.979 455.625 346.805 455.692 346.667C456.483 345.036 456.768 343.17 456.532 341.373H449.307C442.998 341.373 437.884 336.259 437.884 329.95V277.527C437.884 271.218 442.998 266.104 449.307 266.104Z" fill="#EF3E37"/>
<line x1="455.167" y1="284.918" x2="581.675" y2="284.918" stroke="white" stroke-width="1.5"/>
<line x1="455.167" y1="297.372" x2="581.675" y2="297.372" stroke="white" stroke-width="1.5"/>
<line x1="455.167" y1="309.827" x2="531.792" y2="309.827" stroke="white" stroke-width="1.5"/>
<line x1="455.167" y1="322.074" x2="553.456" y2="322.074" stroke="white" stroke-width="1.5"/>
<path d="M618.904 562.64C616.397 563.8 613.888 564.961 611.325 565.991C604.467 568.747 597.23 570.554 589.882 571.342C588.187 571.524 586.471 571.652 584.783 571.426C583.249 571.218 581.688 570.673 580.663 569.516C580.044 568.818 579.663 567.946 579.332 567.074C577.823 563.107 577.168 558.877 576.523 554.683C576.38 553.754 576.273 552.692 576.886 551.978C577.649 551.091 579.034 551.262 580.197 551.408C582.594 551.708 585.09 551.548 587.317 550.61C589.542 549.671 591.47 547.894 592.281 545.619C592.469 545.092 592.601 544.534 592.908 544.067C593.914 542.54 596.261 542.683 597.864 543.562C599.466 544.441 600.771 545.854 602.487 546.483C608.15 548.559 614.822 549.746 620.808 548.995C623.874 548.612 627.174 547.848 629.913 549.276C631.042 549.865 631.974 550.793 632.676 551.856C632.938 552.251 633.175 552.692 633.166 553.164C633.146 553.986 632.412 554.587 631.739 555.056C627.761 557.83 623.305 560.603 618.904 562.64Z" fill="#F7F9FE"/>
<g style="mix-blend-mode:multiply" opacity="0.4">
<path d="M576.168 560.421C577.574 561.864 579.397 565.228 581.401 565.438C588.836 566.212 596.002 566.73 603.132 564.482C610.263 562.234 621.931 559.233 628.628 555.911" stroke="#CED5DE" stroke-width="0.5"/>
</g>
<path d="M578.592 544.719C580.883 544.018 582.113 541.004 580.963 538.9C552.762 525.88 536.978 495.392 511.759 477.258C508.178 474.684 504.191 472.292 499.784 472.09C495.846 471.909 492.067 473.502 488.459 475.093C467.822 484.198 447.637 494.329 428.005 505.435C424.236 507.566 426.553 513.191 429.925 515.904C433.298 518.617 437.988 518.929 442.306 518.626C459.154 517.439 475.519 508.738 492.178 511.531C504.43 513.585 514.704 521.542 525.363 527.925C541.699 537.709 559.734 542.072 578.592 544.719Z" fill="#95B2D5"/>
<g style="mix-blend-mode:multiply" opacity="0.65">
<path d="M435.987 498.499C445.547 496.694 457.406 493.358 466.659 490.351C470.173 489.208 483.311 483.749 486.984 484.166C489.27 484.426 492.607 485.138 494.688 486.124C502.757 489.947 510.194 494.957 517.591 499.959C536.234 512.569 561.332 527.892 580.963 538.9" stroke="#95B2D5" stroke-width="0.5"/>
</g>
<path d="M573.287 558.072C578.759 558.763 584.139 560.194 589.231 562.313C589.55 562.445 589.897 562.583 590.23 562.491C590.445 562.433 590.623 562.284 590.792 562.135C594.682 558.689 596.599 553.152 595.673 548.037C590.857 547.12 586.047 545.609 581.415 544.005C579.1 546.738 576.984 549.407 574.669 552.141C573.348 553.701 571.937 555.588 572.376 557.585C572.437 557.866 573.137 558.316 573.287 558.072Z" fill="#EBC1C5"/>
<path d="M482.707 454.122C488.337 450.01 493.968 445.897 499.598 441.784C500.26 441.301 501.225 440.527 501.843 439.819C502.381 439.201 502.2 438.499 501.763 437.805C501.209 436.925 500.264 436.52 499.164 437.33C492.754 442.041 487.538 445.779 481.384 450.247C480.884 450.61 480.35 451.019 480.035 451.551C479.723 452.084 479.647 452.778 479.937 453.324C480.237 453.89 480.885 454.218 481.526 454.253C482.167 454.288 482.188 454.501 482.707 454.122Z" fill="#293373"/>
<path d="M467.449 472.932C468.581 472.371 469.456 471.412 470.303 470.474L473.527 466.903C474.345 465.998 475.17 465.087 476.157 464.372C477.218 463.606 478.436 463.092 479.603 462.498C483.942 460.29 487.624 456.97 491.898 454.641C493.11 453.981 494.374 453.396 495.468 452.555C496.561 451.713 497.49 450.56 497.729 449.201C497.824 448.662 497.8 448.082 497.54 447.601C497.258 447.079 496.736 446.737 496.237 446.416C494.926 445.576 493.616 444.735 492.305 443.893C491.549 443.409 490.511 442.935 489.831 443.522C488.893 444.331 489.917 445.853 489.74 447.079L485.759 445.782C485.175 445.593 484.409 445.458 484.057 445.96C483.6 446.612 484.374 447.389 484.948 447.94C485.776 448.734 486.321 449.814 486.467 450.951C485.46 451.852 483.887 451.284 482.544 451.415C481.352 451.53 480.307 452.223 479.322 452.904C475.95 455.236 472.649 457.673 469.427 460.208C466.218 462.73 462.994 465.453 460.837 468.97C459.893 470.508 459.209 471.814 461.146 472.74C462.99 473.621 465.591 473.849 467.449 472.932Z" fill="#E2B791"/>
<path d="M424.531 512.807C427.805 514.182 431.185 515.303 434.634 516.154C438.158 517.024 442.04 517.576 445.289 515.958C448.155 514.53 449.992 511.679 451.658 508.944C457.509 499.336 463.02 489.496 467.544 479.196C468.253 477.582 468.947 475.92 469.087 474.161C469.133 473.581 469.032 472.862 468.489 472.651C468.165 472.524 467.805 472.637 467.47 472.731C464.921 473.449 462.077 473.044 459.83 471.644C455.895 476.155 451.342 480.532 447.156 484.813C444.639 487.384 442.051 489.936 439.003 491.848C435.955 493.76 432.377 495.007 428.789 494.722C426.45 483.578 420.609 473.609 417.737 462.588C416.26 456.926 414.704 451.249 412.258 445.933C409.812 440.617 405.376 434.295 400.752 430.708C397.91 428.502 394.147 426.977 390.562 426.664C388.257 427.114 387.486 430.776 386.92 433.056C386.353 435.337 386.667 437.733 386.987 440.062C388.478 450.887 390.073 461.787 393.783 472.065C396.119 478.534 402.553 483.813 405.886 489.83C410.635 498.402 415.497 509.01 424.531 512.807Z" fill="#293373"/>
<g style="mix-blend-mode:multiply" opacity="0.48">
<path d="M390.801 423.877C396.786 427.792 401.384 433.551 404.878 439.791C408.374 446.031 410.842 452.782 413.295 459.498C416.722 468.876 420.147 478.253 423.572 487.631" stroke="#293373" stroke-width="0.5"/>
</g>
<path d="M584.099 543.016C582.392 549.688 578.792 555.925 573.317 560.102C556.785 555.096 540.406 549.582 524.211 543.571C521.158 542.437 518.222 540.998 515.48 539.242C510.61 536.124 506.182 532.923 501.827 529.047C497.847 525.506 494.286 521.235 489.454 519.748C488.002 519.301 486.424 519.633 485.237 520.581C469.97 532.794 453.551 543.568 436.271 552.714C426.2 558.044 415.455 562.917 404.065 563.182C400.331 563.268 396.597 562.854 392.927 562.159C386.376 560.917 379.393 558.293 376.222 552.426C387.882 535.555 405.497 520.655 423.711 511.23C441.925 501.804 461.251 497.252 480.753 490.904C483.512 490.005 486.326 489.097 489.228 489.086C493.703 489.068 497.885 491.166 501.822 493.295C529.879 508.469 555.765 528.36 584.099 543.016Z" fill="#95B2D5"/>
<path d="M395.746 417.685C393.404 423.058 394.357 428.779 397.573 434.932C392.989 436.398 387.982 435.483 383.395 434.024C379.995 432.942 376.66 431.553 373.718 429.535C370.774 427.516 368.155 424.641 366.655 421.402C370.774 415.482 375.487 408.044 376.653 400.099C377.478 399.166 378.809 398.912 379.971 399.357C381.132 399.8 380.044 399.602 380.934 400.471C386.771 406.161 390.117 411.787 395.746 417.685Z" fill="#F0CAA2"/>
<path d="M419.414 385.775C419.618 389.824 417.564 393.657 417.214 397.697C417.008 400.069 417.396 402.455 417.977 404.765C418.203 405.659 418.333 406.852 417.512 407.271C417.222 407.417 416.883 407.415 416.559 407.392C415.207 407.294 413.879 406.876 412.715 406.181C412.25 405.9 411.464 406.673 411.257 407.176C411.05 407.68 411.076 408.243 411.018 408.784C410.96 409.326 410.777 409.91 410.31 410.19C409.833 410.476 409.164 410.375 408.758 410.756C408.085 411.388 408.733 412.718 408.058 413.349C407.779 413.612 407.364 413.649 407 413.768C406.088 414.064 405.438 414.905 405.127 415.812C404.817 416.718 404.793 417.693 404.774 418.651C404.747 419.931 403.969 421.149 402.725 421.448C401.482 421.748 400.193 421.289 399.004 420.818C393.819 418.763 388.621 416.207 385.016 411.947C380.199 406.253 378.931 398.119 380.479 390.823C381.142 387.69 382.424 384.469 385.045 382.63C386.033 381.936 387.169 381.473 388.336 381.164C389.915 380.747 391.553 380.606 393.182 380.466C397.619 380.086 402.062 379.706 406.516 379.691C409.051 379.683 411.643 379.802 414.009 380.717C416.374 381.631 419.286 383.243 419.414 385.775Z" fill="#F0CAA2"/>
<path d="M389.612 396.131C391.131 393.726 391.979 390.904 392.037 388.06C392.078 386.174 391.592 384.01 389.928 383.119C388.671 382.446 387.035 382.753 385.923 383.647C384.812 384.542 384.179 385.927 383.94 387.334C383.684 388.83 383.833 390.367 383.691 391.878C383.335 395.665 379.426 400.809 376.115 402.679C374.611 401.077 376.306 399.136 376.854 397.007C379.308 387.455 374.649 379.85 378.323 369.468C378.921 367.779 379.856 366.251 381.088 364.95C382.645 363.304 384.63 362.054 386.791 361.373C388.701 360.769 390.786 361.142 392.488 360.073C396.368 357.638 400.297 356.221 404.967 356.827C407.438 357.148 409.847 358.012 411.909 359.421C416.111 362.295 418.719 366.901 421.554 371.129C424.391 375.358 427.934 379.584 432.854 380.895C433.412 381.043 434.1 381.276 434.165 381.851C434.174 381.93 434.168 382.009 434.153 382.087C433.915 383.225 432.974 384.144 431.096 384.824C428.001 385.945 424.633 385.653 421.797 385.274C422.422 385.975 423.847 386.826 424.744 387.1C425.641 387.374 426.578 387.483 427.51 387.59C427.675 388.261 425.754 388.891 424.68 389.012C419.839 389.559 414.805 388.117 410.979 385.105C410.814 384.975 410.56 385.042 410.502 385.245C410.262 386.08 410.246 386.976 410.453 387.821C410.52 388.09 410.308 388.331 410.033 388.298C408.359 388.089 407.049 386.402 405.386 385.799C403.023 384.943 400.452 386.429 398.672 388.202C397.189 389.678 395.935 391.437 395.337 393.444C395.069 394.342 394.98 395.369 394.456 396.146C393.922 396.941 392.831 397.108 391.873 397.101C391.403 397.099 390.932 397.072 390.465 397.022C390.196 396.993 389.921 396.954 389.691 396.812C389.462 396.67 389.468 396.359 389.612 396.131Z" fill="#293373"/>
<g style="mix-blend-mode:multiply" opacity="0.48">
<path d="M375.507 400.752C377.411 396.594 377.693 391.251 377.529 386.68C377.365 382.111 376.084 377.333 377.284 372.922C378.486 368.509 381.602 364.296 386.048 363.224C387.761 362.811 389.615 362.868 391.19 362.075C391.801 361.768 392.345 361.342 392.906 360.952C396.337 358.558 400.591 357.372 404.764 357.641C408.938 357.912 413.005 359.636 416.099 362.451C419.013 365.101 421.137 368.71 424.605 370.58" stroke="#293373" stroke-width="0.5"/>
</g>
<path d="M423.572 498.396C421.567 483.763 418.97 468.899 412.02 455.865C409.577 451.283 406.629 446.993 403.686 442.714C401.88 440.087 399.627 436.537 397.575 433.967C397.377 433.72 397.067 433.675 396.754 433.723C392.94 434.309 386.597 434.261 382.306 432.214C376.57 429.477 372.137 426.237 367.552 421.837C367.614 420.791 365.704 420.171 364.7 420.47C363.696 420.769 363.003 421.668 362.404 422.527C352.165 437.217 348.427 455.578 348.017 473.48C347.74 485.497 349.715 497.402 352.956 508.977C354.977 516.196 357.138 523.375 359.438 530.51C362.122 538.84 365.218 547.464 371.622 553.429C376.658 558.12 385.491 551.863 390.302 546.942C395.113 542.02 398.793 535.995 404.123 531.641C406.612 529.608 409.404 527.988 412.105 526.247C414.565 524.66 416.955 522.969 419.271 521.178C420.899 519.917 422.521 518.571 423.586 516.809C424.629 515.085 425.071 513.07 425.373 511.077C426.062 506.527 424.196 502.956 423.572 498.396Z" fill="#293373"/>
<path d="M457.744 476.436C459.836 473.253 462.033 469.965 465.281 467.977C466.58 467.181 468.007 466.622 469.37 465.942C474.1 463.581 477.991 459.809 481.335 455.713C481.911 455.008 482.485 454.27 482.748 453.398C482.896 452.908 482.94 452.388 482.876 451.881C482.627 449.905 480.886 448.509 479.279 447.334C477.751 446.214 476.683 444.894 475.153 443.775C476.258 443.683 477.365 443.593 478.471 443.501C479.725 443.397 481.155 443.196 481.856 442.149C481.958 441.995 482.043 441.816 482.02 441.631C481.968 441.229 481.476 441.074 481.075 441.008C479.394 440.732 477.713 440.457 476.032 440.182C474.142 439.872 472.247 439.56 470.335 439.471C469.057 439.411 467.705 439.47 466.617 440.144C465.864 440.611 465.309 441.332 464.769 442.035C459.453 448.958 453.895 455.691 448.106 462.223C451.861 466.462 455.325 471.316 457.744 476.436Z" fill="#F0CAA2"/>
<path d="M459.52 477.103C454.615 487.136 448.648 496.651 441.752 505.437C439.063 508.863 436.197 512.213 432.682 514.787C430.338 516.503 427.663 517.875 424.78 518.234C420.512 518.765 416.312 517.055 412.407 515.251C399.109 509.113 386.501 501.478 374.9 492.536C368.94 487.943 363.184 482.941 358.812 476.815C354.44 470.691 351.511 463.313 351.756 455.791C351.926 450.532 352.759 444.65 356.49 440.937C360.221 437.224 365.611 435.247 370.857 435.662C377.538 436.194 383.452 440.363 387.875 445.398C392.299 450.432 395.543 456.37 399.349 461.885C405.783 471.209 413.889 479.374 423.164 485.878C430.966 478.264 438.567 469.709 446.366 462.097C446.693 461.779 447.059 461.442 447.514 461.404C448.025 461.362 448.479 461.709 448.868 462.045C453.756 466.243 456.669 471.325 459.52 477.103Z" fill="#293373"/>
<g style="mix-blend-mode:multiply" opacity="0.48">
<path d="M356.644 441.802C353.852 450.4 355.359 460.002 359.34 468.119C363.32 476.237 371.362 482.777 378.193 488.701C389.956 498.904 401.865 507.14 416.529 512.378C421.351 514.101 427.338 515.726 432.42 514.05C435.977 512.878 438.251 509.419 440.664 506.762C449.07 497.506 456.614 487.597 462.952 476.803" stroke="#293373" stroke-width="0.5"/>
</g>
<g style="mix-blend-mode:multiply" opacity="0.48">
<path d="M366.907 435.534C372.121 435.106 377.276 437.339 381.38 440.586C385.485 443.834 388.701 448.043 391.873 452.206C395.639 457.147 399.403 462.089 403.168 467.03C408.209 473.645 413.636 480.56 421.373 483.608C421.835 483.789 422.327 483.959 422.817 483.885C423.481 483.788 423.995 483.273 424.456 482.787L448.106 457.884" stroke="#293373" stroke-width="0.5"/>
</g>
<path d="M620.926 535.094C620.36 537.867 619.794 540.642 619.087 543.383C617.195 550.714 614.288 557.784 610.477 564.327C609.598 565.835 608.661 567.329 607.447 568.585C606.345 569.724 604.948 570.682 603.369 570.823C602.418 570.91 601.466 570.696 600.547 570.438C596.357 569.273 592.469 567.244 588.615 565.229C587.761 564.783 586.82 564.227 586.603 563.287C586.335 562.117 587.319 561.078 588.145 560.208C589.849 558.412 591.234 556.256 591.811 553.849C592.389 551.443 592.095 548.772 590.708 546.72C590.388 546.245 590.009 545.798 589.81 545.26C589.16 543.504 590.705 541.653 592.403 540.865C594.103 540.076 596.061 539.858 597.622 538.825C602.774 535.412 607.808 530.629 610.824 525.234C612.369 522.47 613.743 519.284 616.587 517.891C617.758 517.316 619.09 517.113 620.394 517.179C620.878 517.202 621.387 517.273 621.771 517.569C622.437 518.084 622.486 519.055 622.465 519.896C622.337 524.863 621.917 530.224 620.926 535.094Z" fill="white"/>
<path d="M458.812 410.055C462.443 408.971 465.972 407.547 469.336 405.806C471.476 404.701 473.579 403.442 475.238 401.696C476.896 399.949 478.082 397.649 478.071 395.241C478.057 392.384 476.224 389.617 473.6 388.491C470.974 387.366 467.708 387.943 465.629 389.902C464.726 386.302 461.364 383.564 457.654 383.614C453.944 383.664 450.454 386.505 449.651 390.126C448.953 393.27 450.123 396.519 451.549 399.406C453.607 403.565 455.69 406.62 458.812 410.055Z" fill="#BC2D51"/>
<defs>
<linearGradient id="paint0_linear_1_3477" x1="552.971" y1="268.136" x2="44.6675" y2="268.136" gradientUnits="userSpaceOnUse">
<stop stop-color="#BC2D51"/>
<stop offset="0.206642" stop-color="#C44562"/>
<stop offset="0.642811" stop-color="#DB858F"/>
<stop offset="1" stop-color="#EFBEB7"/>
</linearGradient>
<linearGradient id="paint1_linear_1_3477" x1="256.364" y1="237.109" x2="256.364" y2="237.109" gradientUnits="userSpaceOnUse">
<stop stop-color="#EBC1C5"/>
<stop offset="0.699194" stop-color="#F3D9DC"/>
<stop offset="1" stop-color="#F7E6E8"/>
</linearGradient>
</defs>
</svg>