<svg id="pairing" xmlns="http://www.w3.org/2000/svg" width="467.469" height="424.005" viewBox="0 0 467.469 424.005">
  <path id="Path_18771" data-name="Path 18771" d="M1832.007,237.437c-75.354-8.445-151.563-109.226-193.138-26.077s57.165,104.482,0,198.025-70.318,154.662,0,188.324,117.417-117.073,257.732-39.12,205.45-81.645,130.1-149.2,18.4-145.569-41.36-184.545S1907.361,245.882,1832.007,237.437Z" transform="translate(-1590.937 -178.687)" fill="#fecaca" opacity="0.4"/>
  <g id="Group_17884" data-name="Group 17884" transform="translate(39.499 16.513)">
    <g id="Group_17763" data-name="Group 17763" transform="translate(59.947 71.548)">
      <g id="Group_17718" data-name="Group 17718" transform="translate(2.242 0)">
        <path id="Path_18772" data-name="Path 18772" d="M197.669,325.232A122.356,122.356,0,1,1,320.024,202.877,122.494,122.494,0,0,1,197.669,325.232Zm0-243.512A121.156,121.156,0,1,0,318.827,202.877,121.293,121.293,0,0,0,197.669,81.721Z" transform="translate(-75.315 -80.521)" fill="#bfe1ff"/>
      </g>
      <g id="Group_17719" data-name="Group 17719" transform="translate(0 4.373)">
        <circle id="Ellipse_480" data-name="Ellipse 480" cx="121.755" cy="121.755" r="121.755" fill="#e26a6c"/>
      </g>
    </g>
    <g id="Group_17766" data-name="Group 17766" transform="translate(208.842 100.99)">
      <g id="Group_17764" data-name="Group 17764" transform="translate(29.755 122.382)">
        <path id="Path_18803" data-name="Path 18803" d="M342.359,320.793a5.842,5.842,0,0,1,2.04.365,1.567,1.567,0,0,1,1.162-.515,1.537,1.537,0,0,1,.606.122,2.618,2.618,0,0,1,4.2-1.88,1.544,1.544,0,0,1,.344-.344,3.087,3.087,0,0,1,2.692-4.6h.011a3.394,3.394,0,0,1,2.569-.238,1.541,1.541,0,0,1,.687-.713,5.606,5.606,0,0,1,6.9-6.61,6.073,6.073,0,0,1,5.983,6.073c0,.046,0,.094,0,.14a3.737,3.737,0,0,1,2.656.317,4.866,4.866,0,0,1,8.551,4.386c.05,0,.1-.005.147-.005a2.393,2.393,0,0,1,2.353,2.852l.05,0a1.381,1.381,0,0,1,1.38,1.335,3.424,3.424,0,0,1,.642-.061,3.269,3.269,0,0,1,2.254.852c1.555,1.471-.144,1.854-1.781,1.854H340.56c-1.707,0-4.146.279-2.452-1.5a5.842,5.842,0,0,1,4.251-1.827Zm14.759-7.948a1.6,1.6,0,0,1,.26-.022h.045c-.006-.122-.011-.244-.011-.367a6.075,6.075,0,0,1,4.12-5.753,5.138,5.138,0,0,0-4.518,5.1,5.2,5.2,0,0,0,.1,1.04Zm-5.991,5.482a1.565,1.565,0,0,1,.5-.082,1.447,1.447,0,0,1,.254.021,3.381,3.381,0,0,1,.734-3.734,2.626,2.626,0,0,0-1.489,3.8Z" transform="translate(-337.536 -306.2)" fill="#fff" fill-rule="evenodd"/>
      </g>
      <g id="Group_17765" data-name="Group 17765" transform="translate(0 0)">
        <path id="Path_18804" data-name="Path 18804" d="M298.131,138.879a5.848,5.848,0,0,1,2.04.366,1.568,1.568,0,0,1,1.163-.516,1.524,1.524,0,0,1,.606.122,2.619,2.619,0,0,1,4.2-1.879,1.579,1.579,0,0,1,.344-.345,3.087,3.087,0,0,1,2.693-4.6h.009a3.4,3.4,0,0,1,2.571-.237,1.539,1.539,0,0,1,.686-.712,5.681,5.681,0,0,1-.126-1.19,5.606,5.606,0,0,1,5.6-5.6,5.65,5.65,0,0,1,1.425.182,6.075,6.075,0,0,1,5.983,6.073c0,.047,0,.093,0,.141a3.77,3.77,0,0,1,.916-.114,3.7,3.7,0,0,1,1.74.432,4.864,4.864,0,0,1,8.791,2.873,4.9,4.9,0,0,1-.239,1.512c.048,0,.1,0,.147,0a2.4,2.4,0,0,1,2.4,2.4,2.47,2.47,0,0,1-.042.455h.048a1.383,1.383,0,0,1,1.382,1.335,3.459,3.459,0,0,1,.641-.062,3.255,3.255,0,0,1,2.253.853c1.556,1.471-.144,1.854-1.78,1.854H296.331c-1.707,0-4.145.279-2.452-1.506a5.846,5.846,0,0,1,4.252-1.826Zm14.759-7.949a1.646,1.646,0,0,1,.261-.022h.044c-.007-.122-.012-.244-.012-.369a6.076,6.076,0,0,1,4.12-5.753,5.143,5.143,0,0,0-4.413,6.141Zm-5.991,5.484a1.542,1.542,0,0,1,.5-.083,1.487,1.487,0,0,1,.252.021,3.387,3.387,0,0,1,.735-3.734,2.623,2.623,0,0,0-1.487,3.8Z" transform="translate(-293.307 -124.286)" fill="#fff" fill-rule="evenodd"/>
      </g>
    </g>
    <g id="Group_17827" data-name="Group 17827" transform="translate(88.911 102.666)">
      <g id="Group_17767" data-name="Group 17767" transform="translate(36.972 99.546)">
        <path id="Path_18805" data-name="Path 18805" d="M213.411,274.747a25.761,25.761,0,0,0-16.138,10.5c-6.344,9.137-27.28,38.447-27.28,38.447l44.283.761Z" transform="translate(-169.993 -274.747)" fill="#622466" fill-rule="evenodd"/>
      </g>
      <g id="Group_17768" data-name="Group 17768" transform="translate(99.996 75.673)">
        <path id="Path_18806" data-name="Path 18806" d="M269.806,239.262s-.524,2.567-.973,4.778a73.785,73.785,0,0,0-.381,9.008c-.342,1.845-.687,6.382-3.364,6.289-4.552-.161,2.818,15.745,8.917,17.454,7.05,1.978,21.842-6.172,29.945-10.986,1.019-.605.018-3.418.867-3.809,0,0-3.893-1.482-4.264-5.088s1.009-16.682,1.009-16.682Z" transform="translate(-263.675 -239.262)" fill="#d69d74" fill-rule="evenodd"/>
      </g>
      <g id="Group_17769" data-name="Group 17769" transform="translate(104.149 75.673)">
        <path id="Path_18807" data-name="Path 18807" d="M271.827,239.262s-.524,2.567-.973,4.778a73.79,73.79,0,0,0-.381,9.008c-.147.791-.293,2.076-.625,3.279a65.7,65.7,0,0,0,7.753,6.109,16.476,16.476,0,0,0,14.773,0c2.167-1.224,6.836-5.263,10.15-8.23.127-5.15,1.06-13.98,1.06-13.98Z" transform="translate(-269.848 -239.262)" fill="#d69d74" fill-rule="evenodd"/>
      </g>
      <g id="Group_17770" data-name="Group 17770" transform="translate(64.21 95.748)">
        <path id="Path_18808" data-name="Path 18808" d="M287.41,271.761l25.456,8.716s-21.532,32.478-10.978,60.33l1.2,22.753L298.221,374.8a122.114,122.114,0,0,1-83.9,12.806l.919-9.963-2.773-35.212c-4.817-21.244-1.181-34.007,14.191-69.527l21.021-3.8C248.689,282.171,269.287,283.735,287.41,271.761Z" transform="translate(-210.481 -269.102)" fill="#fff" fill-rule="evenodd"/>
      </g>
      <g id="Group_17771" data-name="Group 17771" transform="translate(72.352 95.748)">
        <path id="Path_18809" data-name="Path 18809" d="M291.371,271.761l25.456,8.716a97.825,97.825,0,0,0-9.272,19.235,26.077,26.077,0,0,0-7.469,3.7c2.895-9.762-.811-15.7-7.24-18.733-3-1.417-6.672-3.21-6.77-3.39-.071-.135-5.169-1.231-10.833-2.411a50.645,50.645,0,0,0,16.128-7.116Zm-68.787,20.471c1.8-4.637,1.382-7.58,3.829-13.3.54-1.263,3.635-4.713,4.209-6.037l21.021-3.8a10.227,10.227,0,0,0,3.948,7.5c-5.465,1.049-14.724,2.919-20.714,4.618C226.248,283.673,222.817,291.67,222.584,292.232Z" transform="translate(-222.584 -269.102)" fill="#622466" fill-rule="evenodd"/>
      </g>
      <g id="Group_17772" data-name="Group 17772" transform="translate(96.671 95.748)">
        <path id="Path_18810" data-name="Path 18810" d="M303.2,271.761l5.566,1.906c-20.407,20.221-51.273,14.682-50-3.717l4.7-.848C264.479,282.171,285.077,283.735,303.2,271.761Z" transform="translate(-258.732 -269.102)" fill="#622466" fill-rule="evenodd"/>
      </g>
      <g id="Group_17773" data-name="Group 17773" transform="translate(143.682 54.732)">
        <path id="Path_18811" data-name="Path 18811" d="M334.28,210.275s3.275-2.591,5.082-2.072,3.33,5.13,2.5,8.256-6.328,13.507-11.622,8.216S334.28,210.275,334.28,210.275Z" transform="translate(-328.612 -208.134)" fill="#d69d74" fill-rule="evenodd"/>
      </g>
      <g id="Group_17774" data-name="Group 17774" transform="translate(146.352 57.274)">
        <path id="Path_18812" data-name="Path 18812" d="M332.9,214.473a.763.763,0,0,0-.287.807.364.364,0,0,0,.543.2h0s-.142,10.062,1.5,8.787,3.333-2.478,4.358-4.85-.632-5.022.231-5.532c.825-.486,1.415.616,1.469.72v0l0,0h0a6.756,6.756,0,0,1,.549,1.989.369.369,0,0,0,.535.336.767.767,0,0,0,.42-.749c0-.011-.373-3.909-2.952-4.253C336.8,211.609,332.907,214.466,332.9,214.473Z" transform="translate(-332.581 -211.913)" fill="#efba93" fill-rule="evenodd"/>
      </g>
      <g id="Group_17775" data-name="Group 17775" transform="translate(85.952 49.324)">
        <path id="Path_18813" data-name="Path 18813" d="M250.265,202.926s-2-2.822-3.557-2.831-3.842,3.3-3.907,5.979,1.88,12.211,7.322,9.241S250.265,202.926,250.265,202.926Z" transform="translate(-242.8 -200.095)" fill="#d69d74" fill-rule="evenodd"/>
      </g>
      <g id="Group_17776" data-name="Group 17776" transform="translate(86.516 51.506)">
        <path id="Path_18814" data-name="Path 18814" d="M251.485,206.862a.632.632,0,0,1,.04.708.3.3,0,0,1-.478.035h0s-2.233,8.031-3.237,6.636a10.034,10.034,0,0,1-2.332-4.87c-.261-2.123,1.672-3.845,1.1-4.451-.542-.579-1.267.16-1.333.229l0,0v0h0a5.6,5.6,0,0,0-.9,1.452.306.306,0,0,1-.5.143.633.633,0,0,1-.159-.693c0-.008,1.206-3.021,3.338-2.693C249.053,203.677,251.478,206.853,251.485,206.862Z" transform="translate(-243.637 -203.339)" fill="#efba93" fill-rule="evenodd"/>
      </g>
      <g id="Group_17777" data-name="Group 17777" transform="translate(90.045 6.217)">
        <path id="Path_18815" data-name="Path 18815" d="M284.361,136.281c-38.063-3.49-35.854,28.593-35.226,54.336.975,40.076,48.657,45.194,58.117,6.238C313.327,171.831,322.294,140.948,284.361,136.281Z" transform="translate(-248.883 -136.019)" fill="#efba93" fill-rule="evenodd"/>
      </g>
      <g id="Group_17778" data-name="Group 17778" transform="translate(90.046 38.5)">
        <path id="Path_18816" data-name="Path 18816" d="M249.006,186.883c-.131,3.074-.142,6.2-.1,9.316a12.6,12.6,0,0,0,1.306.57c7.868,2.936,13.158-6.593,13.158-6.593l1.452-3.881s-10.253.426-15.813.588Zm61.072,13.834c.511-2.3.984-4.608,1.386-6.9a48.048,48.048,0,0,0-6.439-7.57l-5.693-2.241s-2.952,16.6,9.18,16.785A11.5,11.5,0,0,0,310.078,200.717Z" transform="translate(-248.884 -184.006)" fill="#58575a" fill-rule="evenodd"/>
      </g>
      <g id="Group_17779" data-name="Group 17779" transform="translate(90.045 8.725)">
        <path id="Path_18817" data-name="Path 18817" d="M307.9,195.419c.831-3.39,1.746-7.168,2.5-10.651,5.048-23.362,5.227-40.82-26.314-44.7-31.643-2.9-35.173,14.2-35.2,38.1,0,3.563.09,7.449.181,10.939h0s4.121-3.354,4.114-10.853c0,0,7.86.9,6-12.336s14.84-12.4,23.367-11.482,25.026,3.638,20.4,16.18,3.245,13.328,3.245,13.328c-1.6,7.327,1.715,11.48,1.715,11.48Z" transform="translate(-248.883 -139.747)" fill="#12006c" fill-rule="evenodd"/>
      </g>
      <g id="Group_17780" data-name="Group 17780" transform="translate(83.306 0.296)">
        <path id="Path_18818" data-name="Path 18818" d="M296.048,165.225s-2.465,1.522-4.295,5.817-4.55,8.164-10.029,7.575-7.1-6.285-7.1-6.285-6.946,9.3-14.534-.741a12.818,12.818,0,0,1-11.345,3.759c-24.526-3.55.018-53.666,36.429-47.629,14,2.321,21.15,10.467,22.337,15.5-.162-9.35,8.147-7.1,4.87,5.869C331.5,158.6,297.485,202,296.048,165.225Z" transform="translate(-238.867 -127.218)" fill="#131313" fill-rule="evenodd"/>
      </g>
      <g id="Group_17781" data-name="Group 17781" transform="translate(88.919 10.797)">
        <path id="Path_18819" data-name="Path 18819" d="M255.518,142.827c-1,5.677-.457,18.261,25.439,14.562l.612-.088c.443-.066.684-.1.654.042l0,0v0a.1.1,0,0,1-.112.069h0c-.138.048-.4.109-.819.2l-.324.073a86.319,86.319,0,0,1-9.431,1.571,46.654,46.654,0,0,1-7.767.243,21.021,21.021,0,0,1-7.322-1.722,15.836,15.836,0,0,1-4.253-2.8l-.488-.453h0c-1.679-1.559-2.484-2.306-4.495-2.06a47.011,47.011,0,0,1,8.308-9.644Zm29.174,13.985c.024-.007,8.921-2.836,13.653-.357a.1.1,0,0,1-.081.174h0a3.869,3.869,0,0,0-3.356.254c-1.226.881-2.207.62-3.505.276-.3-.079-.627-.165-.964-.24a12.86,12.86,0,0,0-2.911-.3,11.364,11.364,0,0,0-2.774.373h-.009a.1.1,0,0,1-.053-.183Z" transform="translate(-247.21 -142.827)" fill="#060606" fill-rule="evenodd"/>
      </g>
      <g id="Group_17802" data-name="Group 17802" transform="translate(93.515 43.579)">
        <g id="Group_17782" data-name="Group 17782" transform="translate(14.607 10.599)">
          <path id="Path_18820" data-name="Path 18820" d="M281.391,211.6a.6.6,0,0,1-.071.174l-.186.306,0,.008h0c-.952,1.571-3.987,6.6-4,7.155.021.4,1.472,1.635,1.79,1.876.732.555,2.532-.1,3.177-.337,2.793-1.013-1.79,2.416-2.9,2.076a4.907,4.907,0,0,1-2.1-1.328,4.2,4.2,0,0,1-1.343-2.256c-.04-.785,3.066-6.088,4.137-7.806,1.007-1.7,1.036-2.817.832-3.479-.138-.451-.124-1.117.461-.26A3.721,3.721,0,0,1,281.391,211.6Z" transform="translate(-275.754 -207.31)" fill="#8a674d" fill-rule="evenodd"/>
        </g>
        <g id="Group_17783" data-name="Group 17783" transform="translate(30.062 3.531)">
          <path id="Path_18821" data-name="Path 18821" d="M299.375,198.175a1.36,1.36,0,0,0,.291.816,1.7,1.7,0,0,1,1.178-1.421c4.566-1.736,11.842-.316,15.177,2.172h0a.1.1,0,0,1,.033.1.077.077,0,0,1-.1.051,17.685,17.685,0,0,0-7.114-1.083,19.194,19.194,0,0,0-7.35,1.736,2.662,2.662,0,0,1-1.177.385,1.353,1.353,0,0,1-1.21-.756,2.68,2.68,0,0,1-.258-.554,2.109,2.109,0,0,1-.077-1.079.96.96,0,0,1,.262-.551.19.19,0,0,1,.032-.015l0,0h0a.242.242,0,0,1,.309.186h0Z" transform="translate(-298.727 -196.803)" fill="#464646" fill-rule="evenodd"/>
        </g>
        <g id="Group_17784" data-name="Group 17784" transform="translate(1.491)">
          <path id="Path_18822" data-name="Path 18822" d="M270.289,194.759a1.351,1.351,0,0,1-.417.695,1.66,1.66,0,0,0-.651-1.582c-3.36-2.63-9.634-2.929-12.914-1.359h0a.1.1,0,0,0-.049.085.067.067,0,0,0,.073.07,13.255,13.255,0,0,1,6.065.576,15.252,15.252,0,0,1,5.64,3.25,2.152,2.152,0,0,0,.88.62,1.09,1.09,0,0,0,1.158-.433,2.7,2.7,0,0,0,.334-.457,2.282,2.282,0,0,0,.3-.987.976.976,0,0,0-.095-.568.1.1,0,0,0-.023-.022l0,0h0c-.182-.126-.293.1-.293.1h0Z" transform="translate(-256.258 -191.555)" fill="#464646" fill-rule="evenodd"/>
        </g>
        <g id="Group_17785" data-name="Group 17785" transform="translate(29.494 9.628)">
          <path id="Path_18823" data-name="Path 18823" d="M299.677,209.774c1.914-2.453,3.885-3.6,5.7-3.853a5.716,5.716,0,0,1,3.459.615,7.444,7.444,0,0,1,2.618,2.347,7.932,7.932,0,0,1,1.371,6.189.116.116,0,0,1-.139.085.118.118,0,0,1-.092-.122,6.6,6.6,0,0,0-1.376-4.359,7.421,7.421,0,0,0-2.864-2.347,6.16,6.16,0,0,0-3.8-.443,8.941,8.941,0,0,0-4.871,3.132,7.49,7.49,0,0,0-.992,1.448h0a6.228,6.228,0,0,0-.575,1.543.118.118,0,0,1-.231-.04,7.559,7.559,0,0,1,.581-2.147A9.221,9.221,0,0,1,299.677,209.774Z" transform="translate(-297.883 -205.866)" fill="#12006c" fill-rule="evenodd"/>
        </g>
        <g id="Group_17786" data-name="Group 17786" transform="translate(30.896 11.017)">
          <path id="Path_18824" data-name="Path 18824" d="M301.661,209.518c.3-.34.611-.646.916-.928a6.325,6.325,0,0,1,3.906-.568c3.194.533,5.414,3.237,4.961,6.042-.754,4.667-7.3,4.818-10.252,2.172a5.271,5.271,0,0,1-1.149-1.966A5.773,5.773,0,0,1,301.661,209.518Z" transform="translate(-299.966 -207.931)" fill="#12006c" fill-rule="evenodd"/>
        </g>
        <g id="Group_17789" data-name="Group 17789" transform="translate(42.187 20.137)">
          <g id="Group_17787" data-name="Group 17787" transform="translate(1.27)">
            <path id="Path_18825" data-name="Path 18825" d="M319.553,222.548a.312.312,0,0,1-.127-.028,1.912,1.912,0,0,1-.732-.56.3.3,0,0,1,.486-.35,1.4,1.4,0,0,0,.5.365.3.3,0,0,1,.147.4A.3.3,0,0,1,319.553,222.548Z" transform="translate(-318.638 -221.487)" fill="#bfe1ff"/>
          </g>
          <g id="Group_17788" data-name="Group 17788" transform="translate(0 0.755)">
            <path id="Path_18826" data-name="Path 18826" d="M317.374,223.72a.3.3,0,0,1-.213-.088,1.526,1.526,0,0,1-.4-.649.3.3,0,0,1,.58-.151.984.984,0,0,0,.248.375.3.3,0,0,1-.212.513Z" transform="translate(-316.75 -222.609)" fill="#bfe1ff"/>
          </g>
        </g>
        <g id="Group_17790" data-name="Group 17790" transform="translate(33.934 13.499)">
          <path id="Path_18827" data-name="Path 18827" d="M305.545,211.622a1.009,1.009,0,1,1-1.06.94A1,1,0,0,1,305.545,211.622Z" transform="translate(-304.483 -211.62)" fill="#fff" fill-rule="evenodd"/>
        </g>
        <g id="Group_17797" data-name="Group 17797" transform="translate(0 5.199)">
          <g id="Group_17791" data-name="Group 17791" transform="translate(0.882)">
            <path id="Path_18828" data-name="Path 18828" d="M264.579,199.845c1.51.78,2.885,2.425,3.823,5.239a9.254,9.254,0,0,1,.446,2.231,7.565,7.565,0,0,1-.135,2.131.108.108,0,0,1-.213-.035,6.2,6.2,0,0,0-.04-1.579,7.482,7.482,0,0,0-.435-1.62,8.421,8.421,0,0,0-3.313-4.329,5.461,5.461,0,0,0-3.448-.749,6.735,6.735,0,0,0-3.2,1.269,6.387,6.387,0,0,0-2.5,3.553.109.109,0,0,1-.213-.037,7.757,7.757,0,0,1,3.043-5.22,6.787,6.787,0,0,1,2.984-1.343A5.07,5.07,0,0,1,264.579,199.845Z" transform="translate(-255.352 -199.283)" fill="#12006c" fill-rule="evenodd"/>
          </g>
          <g id="Group_17792" data-name="Group 17792" transform="translate(2.169 1.199)">
            <path id="Path_18829" data-name="Path 18829" d="M267.219,203.968c-.164-.4-.34-.774-.524-1.123a5.692,5.692,0,0,0-3.237-1.7,5.183,5.183,0,0,0-6.127,4c-.736,4.479,4.924,6.6,8.291,5.087a4.972,4.972,0,0,0,1.588-1.444A5.753,5.753,0,0,0,267.219,203.968Z" transform="translate(-257.266 -201.065)" fill="#12006c" fill-rule="evenodd"/>
          </g>
          <g id="Group_17795" data-name="Group 17795" transform="translate(0 8.003)">
            <g id="Group_17793" data-name="Group 17793">
              <path id="Path_18830" data-name="Path 18830" d="M254.341,212.012a.3.3,0,0,1-.033-.6,1.22,1.22,0,0,0,.528-.177.3.3,0,0,1,.358.48,1.747,1.747,0,0,1-.818.293Z" transform="translate(-254.041 -211.18)" fill="#bfe1ff"/>
            </g>
            <g id="Group_17794" data-name="Group 17794" transform="translate(1.12 1.074)">
              <path id="Path_18831" data-name="Path 18831" d="M256.007,213.74a.3.3,0,0,1-.139-.566.927.927,0,0,0,.322-.262.3.3,0,0,1,.413-.088.294.294,0,0,1,.092.408,1.417,1.417,0,0,1-.55.474A.3.3,0,0,1,256.007,213.74Z" transform="translate(-255.706 -212.776)" fill="#bfe1ff"/>
            </g>
          </g>
          <g id="Group_17796" data-name="Group 17796" transform="translate(5.052 4.02)">
            <path id="Path_18832" data-name="Path 18832" d="M262.565,205.261a.952.952,0,0,1,.874,1.029.962.962,0,0,1-1.011.9.95.95,0,0,1-.874-1.028A.963.963,0,0,1,262.565,205.261Z" transform="translate(-261.551 -205.259)" fill="#fff" fill-rule="evenodd"/>
          </g>
        </g>
        <g id="Group_17801" data-name="Group 17801" transform="translate(15.068 25.687)">
          <g id="Group_17798" data-name="Group 17798" transform="translate(5.418 5.274)">
            <path id="Path_18833" data-name="Path 18833" d="M289.8,238.894a.681.681,0,0,0,.487-.809.648.648,0,0,0-.785-.489,10.683,10.683,0,0,1-4.347.622c-.857-.056-.893.936-.038.992A17.215,17.215,0,0,0,289.8,238.894Z" transform="translate(-284.492 -237.577)" fill="#8a674d" fill-rule="evenodd"/>
          </g>
          <g id="Group_17799" data-name="Group 17799" transform="translate(0 1.367)">
            <path id="Path_18834" data-name="Path 18834" d="M289.109,233.14a.789.789,0,0,0,.327-.962.584.584,0,0,0-.832-.338,18.7,18.7,0,0,1-11.511,1.524c-.816-.148-.9.762-.082.909C283.043,235.895,289.093,233.148,289.109,233.14Z" transform="translate(-276.439 -231.769)" fill="#8a674d" fill-rule="evenodd"/>
          </g>
          <g id="Group_17800" data-name="Group 17800" transform="translate(11.25)">
            <path id="Path_18835" data-name="Path 18835" d="M294.419,229.965a.719.719,0,0,0-.877-.146c-.33.154-.472.467-.318.7a6.385,6.385,0,0,1,1.465,3.012c.114.64,1.08.409.965-.229A10,10,0,0,0,294.419,229.965Z" transform="translate(-293.162 -229.737)" fill="#8a674d" fill-rule="evenodd"/>
          </g>
        </g>
      </g>
      <g id="Group_17803" data-name="Group 17803" transform="translate(149.41 107.124)">
        <path id="Path_18836" data-name="Path 18836" d="M338.4,373.241l19.657-5.478a122.639,122.639,0,0,0,17.859-18.225c-2.545-13.11-4.03-35.845-6.577-47.795s-15.029-15.732-15.029-15.732c-17.642.661-20.645,34.3-13.789,46.925l2.705,29Z" transform="translate(-337.126 -286.011)" fill="#622466" fill-rule="evenodd"/>
      </g>
      <g id="Group_17809" data-name="Group 17809" transform="translate(87.63 41.152)">
        <g id="Group_17804" data-name="Group 17804">
          <path id="Path_18837" data-name="Path 18837" d="M257.524,212.384h0c-.381,0-.768-.018-1.156-.055a12.205,12.205,0,1,1,1.156.055Zm-.028-23.6a11.389,11.389,0,1,0,1.08.051Q258.033,188.79,257.5,188.789Z" transform="translate(-245.294 -187.948)" fill="#fff"/>
        </g>
        <g id="Group_17805" data-name="Group 17805" transform="translate(28.832 1.823)">
          <path id="Path_18838" data-name="Path 18838" d="M302.716,219.752h0c-.457,0-.922-.022-1.378-.065a14.547,14.547,0,0,1,1.343-29.03c.457,0,.921.022,1.379.065a14.547,14.547,0,0,1-1.345,29.03Zm-.034-28.256a13.708,13.708,0,0,0-1.265,27.355c.431.041.868.061,1.3.061a13.708,13.708,0,0,0,1.266-27.355C303.549,191.517,303.114,191.5,302.682,191.5Z" transform="translate(-288.151 -190.657)" fill="#fff"/>
        </g>
        <g id="Group_17806" data-name="Group 17806" transform="translate(23.416 9.46)">
          <path id="Path_18839" data-name="Path 18839" d="M287.016,203.732a.427.427,0,0,1-.17-.036,9.813,9.813,0,0,0-6.23-.587.419.419,0,1,1-.193-.816,10.662,10.662,0,0,1,6.765.636.42.42,0,0,1-.172.8Z" transform="translate(-280.1 -202.01)" fill="#fff"/>
        </g>
        <g id="Group_17807" data-name="Group 17807" transform="translate(31.784 8.829)">
          <path id="Path_18840" data-name="Path 18840" d="M294.083,214.07a.3.3,0,0,1-.267-.163,11.61,11.61,0,0,1-.007-10.577.3.3,0,1,1,.533.273,11.026,11.026,0,0,0,.007,10.03.3.3,0,0,1-.266.437Zm.66-11.439a.311.311,0,0,1-.166-.05.3.3,0,0,1-.081-.417,11.609,11.609,0,0,1,.738-.985.3.3,0,0,1,.461.385,11.267,11.267,0,0,0-.7.934A.3.3,0,0,1,294.743,202.631Z" transform="translate(-292.538 -201.072)" fill="#fff"/>
        </g>
        <g id="Group_17808" data-name="Group 17808" transform="translate(2.485 4.856)">
          <path id="Path_18841" data-name="Path 18841" d="M249.488,204.78a.3.3,0,0,1-.292-.237q-.082-.38-.131-.77a.3.3,0,0,1,.26-.336.306.306,0,0,1,.336.26q.046.365.121.721a.3.3,0,0,1-.23.355A.25.25,0,0,1,249.488,204.78Zm-.2-1.855a.3.3,0,0,1-.3-.3,9.578,9.578,0,0,1,.042-1.01,9.693,9.693,0,0,1,3.241-6.378.3.3,0,1,1,.4.45,9.092,9.092,0,0,0-3.039,5.983,8.961,8.961,0,0,0-.04.949.3.3,0,0,1-.3.3Z" transform="translate(-248.988 -195.166)" fill="#fff"/>
        </g>
      </g>
      <g id="Group_17810" data-name="Group 17810" transform="translate(20.024 90.917)">
        <path id="Path_18842" data-name="Path 18842" d="M158.605,261.92a29.559,29.559,0,0,1,.735,9.036c-2.668,24.1-11.675,29.68-14.4,49.5-1.14,8.3,4.785,19.872,8.242,23.977s12.888,1.5,18.745-11.9-.964-47.282,4.844-64.732Z" transform="translate(-144.801 -261.92)" fill="#efba93" fill-rule="evenodd"/>
      </g>
      <g id="Group_17811" data-name="Group 17811" transform="translate(33.828 90.917)">
        <path id="Path_18843" data-name="Path 18843" d="M165.32,261.92a29.559,29.559,0,0,1,.735,9.036c-.061.549-.126,1.085-.194,1.615,3.2,2.369,8.323,4.035,13.888-2.451a7.57,7.57,0,0,0,1.693-2.988Z" transform="translate(-165.32 -261.92)" fill="#efba93" fill-rule="evenodd"/>
      </g>
      <g id="Group_17814" data-name="Group 17814" transform="translate(10.403 41.707)">
        <g id="Group_17812" data-name="Group 17812">
          <path id="Path_18844" data-name="Path 18844" d="M137.039,220.046c-1.39,1.558-4.54,5.095-5.562,6.281-2.719,3.16.705,5.321,4.481,2.716-.135.611-.877,3.971-1.239,5.56-.957,4.2,3.956,3.79,5.28-1.947l.684-2.942,2.552-2.46,5.472,1.6c.616,7.993,6.555,10.458,6.555,10.458,0,.142.013.284.024.426.9,11.516,22.2,12.044,19.247-8.054-1.89-12.87-6.522-23.922-8.609-37.693-1.429-9.43-8.012-4.269-7.747,1.353.245,5.227,2.151,19.368,2.151,19.368.121.908-1.568,1.107-2.366.307s-4.274-5.073-6.181-7.011-5.472.031-5.472.031l-5.011,2.736s-4.927,2.828-7.15,4.084C129.931,217.238,132.264,220.726,137.039,220.046Z" transform="translate(-130.499 -188.773)" fill="#e6ae84" fill-rule="evenodd"/>
        </g>
        <g id="Group_17813" data-name="Group 17813" transform="translate(5.159 25.76)">
          <path id="Path_18845" data-name="Path 18845" d="M157.775,252.14h-.022a.3.3,0,0,1-.279-.319,5.593,5.593,0,0,1,3.858-4.781,11.591,11.591,0,0,1-.324-6.356,8.15,8.15,0,0,1,3.6-5.2,3.683,3.683,0,0,1,3.235-.559,2.229,2.229,0,0,1,1.2,1.427c.127,5.3,4.2,9.908,4.236,9.954a.3.3,0,0,1-.448.4c-.173-.194-4.254-4.817-4.38-10.274h0a1.693,1.693,0,0,0-.856-.96,3.207,3.207,0,0,0-2.693.534,7.545,7.545,0,0,0-3.315,4.82,12.167,12.167,0,0,0,2,9.513.3.3,0,0,1-.5.328,15.639,15.639,0,0,1-1.563-3.06,4.894,4.894,0,0,0-3.457,4.256A.3.3,0,0,1,157.775,252.14Zm-19.306-10.268a.3.3,0,0,1-.2-.521c.012-.011,1.284-1.181,2.49-2.507s4.432-4.585,4.555-4.71l1.995-2.149a.3.3,0,0,1,.441.408l-1.682,1.811,7.141,2.374a22.5,22.5,0,0,1,2.609-2.877l-5.49-5.963c-1.125.62-6.518,3.593-7.728,4.254a8.272,8.272,0,0,1-3.027.883.3.3,0,0,1-.32-.277.3.3,0,0,1,.278-.32,7.815,7.815,0,0,0,2.782-.811c1.353-.738,7.932-4.365,7.932-4.365a.3.3,0,0,1,.365.059l5.648,6.136a38.759,38.759,0,0,1,6.554-4.655.3.3,0,0,1,.3.521c-10.931,6.3-11.59,12.191-11.6,12.249a.3.3,0,0,1-.324.271.3.3,0,0,1-.271-.326,9.806,9.806,0,0,1,1.917-4.269l-7.227-2.4c-.627.634-3.337,3.383-4.411,4.563-1.224,1.348-2.517,2.534-2.529,2.546A.3.3,0,0,1,138.468,241.872Zm7.277-1.788a.3.3,0,0,1-.215-.508l1.074-1.108a.3.3,0,1,1,.43.416l-1.073,1.109A.3.3,0,0,1,145.745,240.084Z" transform="translate(-138.168 -227.064)" fill="#e6ae84"/>
        </g>
      </g>
      <g id="Group_17815" data-name="Group 17815" transform="translate(126.887 175.891)">
        <path id="Path_18846" data-name="Path 18846" d="M358.213,390.786a18.158,18.158,0,0,0-8.516-2.542c-11.207-.659-32.087,20.232-46.05,21.267l1.488,14.3A121.772,121.772,0,0,0,358.213,390.786Z" transform="translate(-303.647 -388.229)" fill="#efba93" fill-rule="evenodd"/>
      </g>
      <g id="Group_17816" data-name="Group 17816" transform="translate(0.3 140.623)">
        <path id="Path_18847" data-name="Path 18847" d="M117.36,335.806H234.855a2.941,2.941,0,0,1,2.742,2.287l13.153,66.119a121.4,121.4,0,0,1-41.137,7.715v.01H132.5a2.941,2.941,0,0,1-2.742-2.287l-14.235-71.557A1.826,1.826,0,0,1,117.36,335.806Z" transform="translate(-115.482 -335.806)" fill="#e26a6c" fill-rule="evenodd"/>
      </g>
      <g id="Group_17817" data-name="Group 17817" transform="translate(116.47 140.623)">
        <path id="Path_18848" data-name="Path 18848" d="M290.9,338.093l12.918,64.938.45,2.258q1.5-.519,2.988-1.076l-13.153-66.119a2.941,2.941,0,0,0-2.742-2.287h-3.2A2.939,2.939,0,0,1,290.9,338.093Z" transform="translate(-288.162 -335.806)" fill="#919191" fill-rule="evenodd"/>
      </g>
      <g id="Group_17825" data-name="Group 17825" transform="translate(0.3 140.623)">
        <g id="Group_17820" data-name="Group 17820">
          <g id="Group_17818" data-name="Group 17818">
            <path id="Path_18849" data-name="Path 18849" d="M117.36,335.806h10.594l69.007,76.132H181.033l-65.1-71.827-.4-2.018A1.826,1.826,0,0,1,117.36,335.806Z" transform="translate(-115.482 -335.806)" fill="#5b5b5b" fill-rule="evenodd"/>
          </g>
          <g id="Group_17819" data-name="Group 17819" transform="translate(23.331)">
            <path id="Path_18850" data-name="Path 18850" d="M150.162,335.806h33.3l65.675,72.457a122.046,122.046,0,0,1-28.177,3.665v.01H219.17Z" transform="translate(-150.162 -335.806)" fill="#5b5b5b" fill-rule="evenodd"/>
          </g>
        </g>
      </g>
      <g id="Group_17826" data-name="Group 17826" transform="translate(0 0)">
        <path id="Path_18854" data-name="Path 18854" d="M124.647,316.567a.3.3,0,0,1-.293-.242l-9.266-46.579a2.22,2.22,0,0,1,.427-1.88,2.148,2.148,0,0,1,1.7-.766h58.834a.3.3,0,0,1,0,.6H117.214a1.557,1.557,0,0,0-1.237.547,1.632,1.632,0,0,0-.3,1.382l9.266,46.578a.3.3,0,0,1-.235.354A.359.359,0,0,1,124.647,316.567Zm105.83-96.007a.265.265,0,0,1-.04,0c-12.286-1.662-24.907-12.5-25.4-32.957l-.011-.489a.3.3,0,0,1,.292-.307.284.284,0,0,1,.305.293l.013.488c.488,20.108,12.85,30.751,24.885,32.379a.3.3,0,0,1-.04.6ZM204.63,174.522a.293.293,0,0,1-.119-.025c-5.893-2.55-7.921-9.141-5.421-17.63,4.372-14.848,22.652-33.392,45.607-29.586a35.028,35.028,0,0,1,15.812,6.557.3.3,0,0,1-.369.473,34.426,34.426,0,0,0-15.541-6.438c-22.611-3.751-40.624,14.528-44.933,29.164-2.405,8.17-.505,14.493,5.083,16.911a.3.3,0,0,1-.118.575Z" transform="translate(-115.036 -126.777)" fill="#fff"/>
      </g>
    </g>
    <g id="Group_17828" data-name="Group 17828" transform="translate(48.767 113.41)" opacity="0.25">
      <path id="Rectangle_4718" data-name="Rectangle 4718" d="M7.363,0h96.87A7.363,7.363,0,0,1,111.6,7.363V73.915a7.363,7.363,0,0,1-7.363,7.363H7.365A7.365,7.365,0,0,1,0,73.913V7.363A7.363,7.363,0,0,1,7.363,0Z" transform="translate(0 0)" fill="#fff"/>
    </g>
    <g id="Group_17829" data-name="Group 17829" transform="translate(48.168 112.81)">
      <path id="Path_18855" data-name="Path 18855" d="M66.427,224.333h-6.4a5.56,5.56,0,0,1-5.554-5.554V147.409a5.56,5.56,0,0,1,5.554-5.553H98.911a.6.6,0,0,1,0,1.2H60.027a4.36,4.36,0,0,0-4.355,4.354V218.78a4.36,4.36,0,0,0,4.355,4.355h6.4a.6.6,0,1,1,0,1.2Z" transform="translate(-54.473 -141.856)" fill="#bfe1ff"/>
    </g>
    <g id="Group_17835" data-name="Group 17835" transform="translate(114.378 135.024)">
      <g id="Group_17830" data-name="Group 17830" transform="translate(11.38 11.383)">
        <path id="Path_18856" data-name="Path 18856" d="M172.536,197.252a2.728,2.728,0,1,0-2.729-2.729A2.734,2.734,0,0,0,172.536,197.252Z" transform="translate(-169.807 -191.795)" fill="#fff" fill-rule="evenodd"/>
      </g>
      <g id="Group_17831" data-name="Group 17831" transform="translate(3.739 3.742)">
        <path id="Path_18857" data-name="Path 18857" d="M168.819,201.176a10.369,10.369,0,1,1,10.369-10.37A10.382,10.382,0,0,1,168.819,201.176Zm0-19.541a9.171,9.171,0,1,0,9.17,9.171A9.181,9.181,0,0,0,168.819,181.635Z" transform="translate(-158.449 -180.437)" fill="#fff"/>
      </g>
      <g id="Group_17832" data-name="Group 17832" transform="translate(3.737 4.073)">
        <path id="Path_18858" data-name="Path 18858" d="M166.288,201.005a.582.582,0,0,1-.155-.021,10.383,10.383,0,0,1-7.333-12.7.6.6,0,1,1,1.158.311,9.183,9.183,0,0,0,6.485,11.233.6.6,0,0,1-.155,1.179Zm11.967-6.909a.634.634,0,0,1-.156-.02.6.6,0,0,1-.423-.735,9.182,9.182,0,0,0-6.486-11.232.6.6,0,0,1,.31-1.158,10.382,10.382,0,0,1,7.333,12.7A.6.6,0,0,1,178.255,194.1Z" transform="translate(-158.446 -180.929)" fill="#59b2ff"/>
      </g>
      <g id="Group_17833" data-name="Group 17833" transform="translate(0 0.003)">
        <path id="Path_18859" data-name="Path 18859" d="M167,203.095a14.107,14.107,0,1,1,14.106-14.106A14.123,14.123,0,0,1,167,203.095Zm0-27.016a12.909,12.909,0,1,0,12.908,12.91A12.925,12.925,0,0,0,167,176.079Z" transform="translate(-152.891 -174.88)" fill="#fff"/>
      </g>
      <g id="Group_17834" data-name="Group 17834" transform="translate(0.46)">
        <path id="Path_18860" data-name="Path 18860" d="M165.015,202.914a.56.56,0,0,1-.1-.009c-.451-.075-.9-.174-1.345-.291a.6.6,0,1,1,.31-1.158c.4.108.818.2,1.232.267a.6.6,0,0,1-.1,1.191Zm12.105-4.132a.6.6,0,0,1-.439-1.008,12.942,12.942,0,0,0,3.011-5.447.6.6,0,0,1,1.158.311,14.135,14.135,0,0,1-3.291,5.953A.6.6,0,0,1,177.121,198.782ZM154.174,186.09a.607.607,0,0,1-.155-.02.6.6,0,0,1-.424-.735,14.136,14.136,0,0,1,8.789-9.6.6.6,0,0,1,.412,1.127,12.936,12.936,0,0,0-8.043,8.787A.6.6,0,0,1,154.174,186.09Zm16.545-9.552a.572.572,0,0,1-.155-.021,12.9,12.9,0,0,0-4.616-.379.6.6,0,0,1-.117-1.193,14.053,14.053,0,0,1,5.044.414.6.6,0,0,1-.155,1.179Z" transform="translate(-153.574 -174.875)" fill="#ff75ca"/>
      </g>
    </g>
    <g id="Group_17836" data-name="Group 17836" transform="translate(59.524 112.81)">
      <path id="Path_18861" data-name="Path 18861" d="M167.239,224.333H71.951a.6.6,0,0,1,0-1.2h95.288a4.359,4.359,0,0,0,4.355-4.355V147.409a4.359,4.359,0,0,0-4.355-4.354h-62.8a.6.6,0,1,1,0-1.2h62.8a5.559,5.559,0,0,1,5.553,5.553V218.78A5.56,5.56,0,0,1,167.239,224.333Z" transform="translate(-71.353 -141.856)" fill="#fff"/>
    </g>
    <g id="Group_17848" data-name="Group 17848" transform="translate(56.224 124.685)">
      <g id="Group_17840" data-name="Group 17840" transform="translate(0 22.527)">
        <g id="Group_17837" data-name="Group 17837" transform="translate(0 14.941)">
          <path id="Path_18862" data-name="Path 18862" d="M78.425,224.86l11.088-4.385-11.088-4.384-11.087,4.384Z" transform="translate(-66.739 -215.492)" fill="#fff" fill-rule="evenodd"/>
          <path id="Path_18863" data-name="Path 18863" d="M78.134,225.168a.589.589,0,0,1-.219-.042l-11.089-4.384a.6.6,0,0,1,0-1.117l11.089-4.383a.6.6,0,0,1,.441,0l11.087,4.383a.6.6,0,0,1,0,1.117l-11.087,4.384A.6.6,0,0,1,78.134,225.168Zm-9.457-4.984,9.457,3.74,9.458-3.74-9.458-3.739Z" transform="translate(-66.448 -215.201)" fill="#59b2ff"/>
        </g>
        <g id="Group_17838" data-name="Group 17838">
          <path id="Path_18864" data-name="Path 18864" d="M67.337,213.207l11.087-4.384v-14.94l-11.087,4.384Z" transform="translate(-66.739 -193.283)" fill="#59b2ff" fill-rule="evenodd"/>
          <path id="Path_18865" data-name="Path 18865" d="M67.046,213.515a.6.6,0,0,1-.6-.6V197.975a.6.6,0,0,1,.377-.558l11.089-4.384a.6.6,0,0,1,.819.558v14.94a.6.6,0,0,1-.378.558l-11.088,4.385A.619.619,0,0,1,67.046,213.515Zm.6-15.131v13.651l9.889-3.91V194.473Z" transform="translate(-66.448 -192.992)" fill="#59b2ff"/>
        </g>
        <g id="Group_17839" data-name="Group 17839" transform="translate(11.088)">
          <path id="Path_18866" data-name="Path 18866" d="M94.906,213.207l-11.088-4.384v-14.94l11.088,4.384Z" transform="translate(-83.22 -193.283)" fill="#bfe1ff" fill-rule="evenodd"/>
          <path id="Path_18867" data-name="Path 18867" d="M94.615,213.515a.612.612,0,0,1-.22-.04l-11.087-4.385a.6.6,0,0,1-.379-.558v-14.94a.6.6,0,0,1,.82-.558l11.086,4.384a.6.6,0,0,1,.379.558v14.941a.6.6,0,0,1-.6.6Zm-10.487-5.391,9.889,3.91V198.383l-9.889-3.911Z" transform="translate(-82.929 -192.992)" fill="#59b2ff"/>
        </g>
      </g>
      <g id="Group_17844" data-name="Group 17844" transform="translate(24.955 0)">
        <g id="Group_17841" data-name="Group 17841" transform="translate(0 14.94)">
          <path id="Path_18868" data-name="Path 18868" d="M115.52,191.374l11.088-4.385-11.088-4.384-11.087,4.384Z" transform="translate(-103.834 -182.006)" fill="#bfe1ff" fill-rule="evenodd"/>
          <path id="Path_18869" data-name="Path 18869" d="M115.229,191.682a.607.607,0,0,1-.22-.041l-11.088-4.385a.6.6,0,0,1,0-1.115l11.088-4.384a.6.6,0,0,1,.441,0l11.088,4.384a.6.6,0,0,1,0,1.115l-11.088,4.385A.6.6,0,0,1,115.229,191.682Zm-9.456-4.984,9.456,3.74,9.458-3.74-9.458-3.738Z" transform="translate(-103.543 -181.715)" fill="#59b2ff"/>
        </g>
        <g id="Group_17842" data-name="Group 17842">
          <path id="Path_18870" data-name="Path 18870" d="M104.433,179.722l11.087-4.384V160.4l-11.087,4.384Z" transform="translate(-103.834 -159.799)" fill="#fff" fill-rule="evenodd"/>
          <path id="Path_18871" data-name="Path 18871" d="M104.142,180.03a.6.6,0,0,1-.6-.6v-14.94a.6.6,0,0,1,.379-.558l11.087-4.384a.6.6,0,0,1,.82.558v14.939a.6.6,0,0,1-.379.558l-11.088,4.384A.611.611,0,0,1,104.142,180.03Zm.6-15.131v13.651l9.888-3.911v-13.65Z" transform="translate(-103.543 -159.507)" fill="#59b2ff"/>
        </g>
        <g id="Group_17843" data-name="Group 17843" transform="translate(11.087)">
          <path id="Path_18872" data-name="Path 18872" d="M132,179.722l-11.088-4.384V160.4L132,164.783Z" transform="translate(-120.314 -159.799)" fill="#59b2ff" fill-rule="evenodd"/>
          <path id="Path_18873" data-name="Path 18873" d="M131.71,180.03a.609.609,0,0,1-.221-.042L120.4,175.6a.6.6,0,0,1-.379-.558V160.107a.6.6,0,0,1,.82-.558l11.087,4.384a.6.6,0,0,1,.379.558v14.94a.6.6,0,0,1-.6.6Zm-10.488-5.391,9.889,3.911V164.9l-9.889-3.91Z" transform="translate(-120.023 -159.507)" fill="#59b2ff"/>
        </g>
      </g>
      <g id="Group_17845" data-name="Group 17845" transform="translate(11.087 10.414)">
        <path id="Path_18874" data-name="Path 18874" d="M104.839,217.971H87.173a4.052,4.052,0,0,1-4.136-4.057l-.108-6.882a.6.6,0,0,1,.589-.608h.009a.6.6,0,0,1,.6.59l.109,6.88a2.844,2.844,0,0,0,2.937,2.879h17.666a3.05,3.05,0,0,0,3.046-3.046V184.5a.6.6,0,1,1,1.2,0v29.231A4.25,4.25,0,0,1,104.839,217.971ZM83.588,189.258h0a.6.6,0,0,1-.6-.6l.047-9.254a4.306,4.306,0,0,1,4.136-4.417H97.4a.6.6,0,1,1,0,1.2H87.173a3.145,3.145,0,0,0-2.937,3.225l-.048,9.253A.6.6,0,0,1,83.588,189.258Z" transform="translate(-82.929 -174.986)" fill="#59b2ff"/>
      </g>
      <g id="Group_17846" data-name="Group 17846" transform="translate(9.65 40.416)">
        <path id="Path_18875" data-name="Path 18875" d="M83.121,223.345a1.436,1.436,0,1,0-1.436-1.436A1.438,1.438,0,0,0,83.121,223.345Z" transform="translate(-81.084 -219.875)" fill="#59b2ff" fill-rule="evenodd"/>
        <path id="Path_18876" data-name="Path 18876" d="M82.829,223.653a2.035,2.035,0,1,1,2.036-2.035A2.039,2.039,0,0,1,82.829,223.653Zm0-2.872a.837.837,0,1,0,.837.837A.837.837,0,0,0,82.829,220.781Z" transform="translate(-80.792 -219.583)" fill="#59b2ff"/>
      </g>
      <g id="Group_17847" data-name="Group 17847" transform="translate(34.607 17.888)">
        <path id="Path_18877" data-name="Path 18877" d="M120.217,189.861a1.436,1.436,0,1,0-1.436-1.437A1.439,1.439,0,0,0,120.217,189.861Z" transform="translate(-118.182 -186.389)" fill="#59b2ff" fill-rule="evenodd"/>
        <path id="Path_18878" data-name="Path 18878" d="M119.925,190.168a2.036,2.036,0,1,1,2.036-2.036A2.038,2.038,0,0,1,119.925,190.168Zm0-2.873a.837.837,0,1,0,.838.836A.838.838,0,0,0,119.925,187.3Z" transform="translate(-117.89 -186.097)" fill="#59b2ff"/>
      </g>
    </g>
    <g id="Group_17849" data-name="Group 17849" transform="translate(110.802 120.842)">
      <path id="Path_18879" data-name="Path 18879" d="M148.175,168.066h0a.6.6,0,0,1-.6-.6l.048-9.253a4.3,4.3,0,0,1,4.135-4.417h10.224a.6.6,0,0,1,0,1.2H151.758a3.145,3.145,0,0,0-2.936,3.224l-.048,9.254A.6.6,0,0,1,148.175,168.066Z" transform="translate(-147.576 -153.794)" fill="#59b2ff"/>
    </g>
    <g id="Group_17850" data-name="Group 17850" transform="translate(149.938 130.469)">
      <path id="Path_18880" data-name="Path 18880" d="M206.349,227.8a.6.6,0,1,1,0-1.2,3.134,3.134,0,0,0,2.937-3.222l.048-54.679a.6.6,0,0,1,.6-.6h0a.6.6,0,0,1,.6.6l-.048,54.679A4.293,4.293,0,0,1,206.349,227.8Z" transform="translate(-205.749 -168.105)" fill="#59b2ff"/>
    </g>
    <g id="Group_17851" data-name="Group 17851" transform="translate(109.748 132.861)">
      <path id="Path_18881" data-name="Path 18881" d="M147.954,174.659a1.054,1.054,0,1,0-1.053-1.054A1.058,1.058,0,0,0,147.954,174.659Z" transform="translate(-146.301 -171.952)" fill="#59b2ff" fill-rule="evenodd"/>
      <path id="Path_18882" data-name="Path 18882" d="M147.662,174.967a1.654,1.654,0,1,1,1.653-1.654A1.656,1.656,0,0,1,147.662,174.967Zm0-2.108a.455.455,0,1,0,.455.455A.455.455,0,0,0,147.662,172.859Z" transform="translate(-146.009 -171.66)" fill="#59b2ff"/>
    </g>
    <g id="Group_17852" data-name="Group 17852" transform="translate(123.555 119.787)">
      <path id="Path_18883" data-name="Path 18883" d="M168.478,155.224a1.054,1.054,0,1,0-1.055-1.054A1.057,1.057,0,0,0,168.478,155.224Z" transform="translate(-166.824 -152.517)" fill="#59b2ff" fill-rule="evenodd"/>
      <path id="Path_18884" data-name="Path 18884" d="M168.187,155.533a1.654,1.654,0,1,1,1.653-1.654A1.655,1.655,0,0,1,168.187,155.533Zm0-2.108a.454.454,0,1,0,.454.455A.454.454,0,0,0,168.187,153.425Z" transform="translate(-166.533 -152.226)" fill="#59b2ff"/>
    </g>
    <g id="Group_17853" data-name="Group 17853" transform="translate(152.469 129.416)">
      <path id="Path_18885" data-name="Path 18885" d="M211.456,169.538a1.054,1.054,0,1,0-1.053-1.054A1.056,1.056,0,0,0,211.456,169.538Z" transform="translate(-209.804 -166.831)" fill="#59b2ff" fill-rule="evenodd"/>
      <path id="Path_18886" data-name="Path 18886" d="M211.164,169.846a1.653,1.653,0,1,1,1.654-1.654A1.655,1.655,0,0,1,211.164,169.846Zm0-2.108a.455.455,0,1,0,.455.455A.456.456,0,0,0,211.164,167.737Z" transform="translate(-209.512 -166.539)" fill="#59b2ff"/>
    </g>
    <g id="Group_17854" data-name="Group 17854" transform="translate(148.885 187.916)">
      <path id="Path_18887" data-name="Path 18887" d="M206.129,256.495a1.054,1.054,0,1,0-1.054-1.054A1.057,1.057,0,0,0,206.129,256.495Z" transform="translate(-204.476 -253.788)" fill="#59b2ff" fill-rule="evenodd"/>
      <path id="Path_18888" data-name="Path 18888" d="M205.837,256.8a1.653,1.653,0,1,1,1.654-1.652A1.654,1.654,0,0,1,205.837,256.8Zm0-2.108a.455.455,0,1,0,.455.455A.455.455,0,0,0,205.837,254.694Z" transform="translate(-204.184 -253.496)" fill="#59b2ff"/>
    </g>
    <g id="Group_17855" data-name="Group 17855" transform="translate(257.598 144.108)">
      <path id="Path_18889" data-name="Path 18889" d="M393.358,242.644a26.687,26.687,0,1,0-26.688-26.686A26.739,26.739,0,0,0,393.358,242.644Z" transform="translate(-366.071 -188.67)" fill="#622466" fill-rule="evenodd"/>
      <path id="Path_18890" data-name="Path 18890" d="M393.067,242.952a27.287,27.287,0,1,1,27.288-27.286A27.317,27.317,0,0,1,393.067,242.952Zm0-53.376a26.089,26.089,0,1,0,26.089,26.09A26.118,26.118,0,0,0,393.067,189.576Z" transform="translate(-365.78 -188.378)" fill="#fff"/>
    </g>
    <g id="Group_17859" data-name="Group 17859" transform="translate(262.338 148.816)">
      <g id="Group_17856" data-name="Group 17856">
        <path id="Path_18891" data-name="Path 18891" d="M395.368,240.536a22.57,22.57,0,0,1-15.938-38.522.3.3,0,0,1,.423.423,21.948,21.948,0,0,0,28.32,33.349.3.3,0,1,1,.35.487A22.47,22.47,0,0,1,395.368,240.536Zm15.736-6.548a.3.3,0,0,1-.213-.512,21.948,21.948,0,0,0-28.32-33.349.3.3,0,0,1-.351-.486,22.548,22.548,0,0,1,29.095,34.26A.3.3,0,0,1,411.1,233.987Z" transform="translate(-372.826 -195.377)" fill="#ef3e37"/>
      </g>
      <g id="Group_17857" data-name="Group 17857" transform="translate(37.01 37.042)">
        <path id="Path_18892" data-name="Path 18892" d="M430,252.6a1.268,1.268,0,1,1,0-1.793A1.269,1.269,0,0,1,430,252.6Z" transform="translate(-427.839 -250.438)" fill="#ef3e37" fill-rule="evenodd"/>
      </g>
      <g id="Group_17858" data-name="Group 17858" transform="translate(5.548 5.581)">
        <path id="Path_18893" data-name="Path 18893" d="M383.237,205.836a1.267,1.267,0,1,1,0-1.792A1.269,1.269,0,0,1,383.237,205.836Z" transform="translate(-381.074 -203.673)" fill="#ef3e37" fill-rule="evenodd"/>
      </g>
    </g>
    <g id="Group_17860" data-name="Group 17860" transform="translate(77.023 212.863)" opacity="0.25">
      <path id="Rectangle_4719" data-name="Rectangle 4719" d="M2,0H48.438a2,2,0,0,1,2,2V20.076a2,2,0,0,1-2,2H2a2,2,0,0,1-2-2V2A2,2,0,0,1,2,0Z" fill="#fff"/>
    </g>
    <g id="Group_17861" data-name="Group 17861" transform="translate(76.424 212.263)">
      <path id="Path_18894" data-name="Path 18894" d="M146.165,312.963H98.419a1.947,1.947,0,0,1-1.945-1.945V291.632a1.947,1.947,0,0,1,1.945-1.945h47.746a1.947,1.947,0,0,1,1.944,1.945v19.386A1.947,1.947,0,0,1,146.165,312.963ZM98.419,290.886a.747.747,0,0,0-.746.746v19.386a.746.746,0,0,0,.746.746h47.746a.747.747,0,0,0,.747-.746V291.632a.748.748,0,0,0-.747-.746Z" transform="translate(-96.474 -289.687)" fill="#fff"/>
    </g>
    <g id="Group_17864" data-name="Group 17864" transform="translate(80.677 216.022)">
      <g id="Group_17862" data-name="Group 17862">
        <path id="Path_18895" data-name="Path 18895" d="M103.4,306.528h0a.6.6,0,0,1-.6-.6l.037-7.116a3.448,3.448,0,0,1,3.319-3.534h7.863a.6.6,0,0,1,0,1.2h-7.863a2.279,2.279,0,0,0-2.12,2.342l-.036,7.116A.6.6,0,0,1,103.4,306.528Z" transform="translate(-102.796 -295.275)" fill="#59b2ff"/>
      </g>
      <g id="Group_17863" data-name="Group 17863" transform="translate(31.312 4.504)">
        <path id="Path_18896" data-name="Path 18896" d="M157.8,313.223h-7.862a.6.6,0,1,1,0-1.2H157.8a2.279,2.279,0,0,0,2.12-2.343l.037-7.117a.6.6,0,0,1,.6-.6h0a.6.6,0,0,1,.6.6l-.038,7.116A3.447,3.447,0,0,1,157.8,313.223Z" transform="translate(-149.339 -301.97)" fill="#59b2ff"/>
      </g>
    </g>
    <g id="Group_17868" data-name="Group 17868" transform="translate(88.83 219.375)">
      <g id="Group_17865" data-name="Group 17865" transform="translate(1.835 0.123)">
        <path id="Path_18897" data-name="Path 18897" d="M129.219,309.247a.3.3,0,0,1-.3-.3v-2a.3.3,0,1,1,.6,0v2A.3.3,0,0,1,129.219,309.247Zm-11.277-.258a.3.3,0,0,1-.3-.3V301a.3.3,0,1,1,.6,0v7.689A.3.3,0,0,1,117.942,308.989Zm14.708-.939a.3.3,0,0,1-.3-.3V304.9a.3.3,0,1,1,.6,0v2.853A.3.3,0,0,1,132.65,308.05Zm-6.861,0a.3.3,0,0,1-.3-.3v-1a.3.3,0,0,1,.6,0v1A.3.3,0,0,1,125.789,308.05Zm-4.417-1.463a.3.3,0,0,1-.3-.3V303.4a.3.3,0,1,1,.6,0v2.886A.3.3,0,0,1,121.372,306.587Zm7.846-.659a.3.3,0,0,1-.3-.3v-4.886a.3.3,0,1,1,.6,0v4.886A.3.3,0,0,1,129.219,305.928Zm-3.43-.2a.3.3,0,0,1-.3-.3v-3.492a.3.3,0,0,1,.6,0v3.492A.3.3,0,0,1,125.789,305.731Zm6.861-1.854a.3.3,0,0,1-.3-.3v-1.639a.3.3,0,0,1,.6,0v1.639A.3.3,0,0,1,132.65,303.877Z" transform="translate(-117.642 -300.441)" fill="#fff"/>
      </g>
      <g id="Group_17866" data-name="Group 17866" transform="translate(0 0.004)">
        <path id="Path_18898" data-name="Path 18898" d="M141.318,309.308h-.153c-.891,0-2.957.012-6.659-4.246h0c-3.448-3.968-5.252-3.96-6.022-3.957h-.311c-.768.009-2.573-.011-6.022,3.957h0c-3.7,4.257-5.773,4.241-6.66,4.246h-.142a.4.4,0,0,1-.43-.408.419.419,0,0,1,.41-.43h.167c.778.011,2.573.01,6.022-3.957h0c3.7-4.258,5.775-4.254,6.66-4.246h.307c.891,0,2.958-.01,6.659,4.246h0c3.45,3.967,5.242,3.956,6.023,3.957h.165a.42.42,0,0,1-.009.839Z" transform="translate(-114.915 -300.264)" fill="#fff"/>
      </g>
      <g id="Group_17867" data-name="Group 17867">
        <path id="Path_18899" data-name="Path 18899" d="M128.326,309.307h-.153c-.881,0-2.959.012-6.66-4.246h0c-3.45-3.969-5.259-3.96-6.022-3.958h-.166a.42.42,0,0,1-.41-.43.4.4,0,0,1,.43-.409h.142c.907.007,2.96-.009,6.66,4.246h0c3.447,3.966,5.241,3.956,6.022,3.956h.311c.792.006,2.577.009,6.022-3.956h0c3.7-4.258,5.776-4.254,6.66-4.246h.142a.394.394,0,0,1,.429.409.42.42,0,0,1-.41.43h-.165c-.762.009-2.573-.011-6.024,3.958h0c-3.7,4.257-5.782,4.241-6.659,4.246h-.154Z" transform="translate(-114.915 -300.258)" fill="#fff"/>
      </g>
    </g>
    <g id="Group_17878" data-name="Group 17878" transform="translate(136.642 94.495)">
      <g id="Group_17871" data-name="Group 17871">
        <g id="Group_17869" data-name="Group 17869" transform="translate(0 3.836)">
          <path id="Path_18900" data-name="Path 18900" d="M189.359,120.779h-2.929l1.464,2.362Z" transform="translate(-186.13 -120.479)" fill="#fff" fill-rule="evenodd"/>
          <path id="Path_18901" data-name="Path 18901" d="M187.748,123.3a.3.3,0,0,1-.254-.142l-1.464-2.362a.3.3,0,0,1,.254-.458h2.93a.3.3,0,0,1,.255.458L188,123.153A.3.3,0,0,1,187.748,123.3Zm-.926-2.362.926,1.493.927-1.493Z" transform="translate(-185.985 -120.333)" fill="#fff"/>
        </g>
        <g id="Group_17870" data-name="Group 17870" transform="translate(1.331)">
          <path id="Path_18902" data-name="Path 18902" d="M191.207,117.584h-2.943a.3.3,0,0,1-.254-.458l1.463-2.363a.311.311,0,0,1,.509,0l1.424,2.3a.3.3,0,0,1-.2.525Zm-2.405-.6h1.852l-.926-1.493Z" transform="translate(-187.964 -114.631)" fill="#59b2ff"/>
        </g>
      </g>
      <g id="Group_17874" data-name="Group 17874" transform="translate(147.443 121.304)">
        <g id="Group_17872" data-name="Group 17872" transform="translate(0 3.837)">
          <path id="Path_18903" data-name="Path 18903" d="M408.526,301.091H405.6l1.464,2.363Z" transform="translate(-405.297 -300.792)" fill="#fff" fill-rule="evenodd"/>
          <path id="Path_18904" data-name="Path 18904" d="M406.915,303.608a.3.3,0,0,1-.255-.142L405.2,301.1a.3.3,0,0,1,.256-.457h2.929a.3.3,0,0,1,.254.457l-1.465,2.363A.3.3,0,0,1,406.915,303.608Zm-.926-2.363.926,1.494.926-1.494Z" transform="translate(-405.151 -300.646)" fill="#fff"/>
        </g>
        <g id="Group_17873" data-name="Group 17873" transform="translate(1.331)">
          <path id="Path_18905" data-name="Path 18905" d="M410.373,297.894h-2.944a.3.3,0,0,1-.262-.154.3.3,0,0,1,.009-.3l1.463-2.361a.31.31,0,0,1,.509,0l1.424,2.295a.3.3,0,0,1,.1.225A.3.3,0,0,1,410.373,297.894Zm-2.405-.6h1.851l-.926-1.493Z" transform="translate(-407.129 -294.942)" fill="#59b2ff"/>
        </g>
      </g>
      <g id="Group_17877" data-name="Group 17877" transform="translate(31.976 89.836)">
        <g id="Group_17875" data-name="Group 17875" transform="translate(0 3.837)">
          <path id="Path_18906" data-name="Path 18906" d="M236.889,254.316h-2.928l1.463,2.362Z" transform="translate(-233.661 -254.016)" fill="#fff" fill-rule="evenodd"/>
          <path id="Path_18907" data-name="Path 18907" d="M235.278,256.832a.3.3,0,0,1-.254-.141l-1.464-2.363a.3.3,0,0,1,.254-.457h2.928a.3.3,0,0,1,.256.457l-1.465,2.363A.3.3,0,0,1,235.278,256.832Zm-.925-2.363.925,1.493.926-1.493Z" transform="translate(-233.516 -253.87)" fill="#fff"/>
        </g>
        <g id="Group_17876" data-name="Group 17876" transform="translate(1.33)">
          <path id="Path_18908" data-name="Path 18908" d="M238.737,251.119h-2.944a.3.3,0,0,1-.256-.458L237,248.3a.311.311,0,0,1,.509,0l1.423,2.295a.3.3,0,0,1,.1.224A.3.3,0,0,1,238.737,251.119Zm-2.406-.6h1.851l-.925-1.493Z" transform="translate(-235.493 -248.167)" fill="#59b2ff"/>
        </g>
      </g>
    </g>
    <g id="Group_17881" data-name="Group 17881" transform="translate(269.857 156.458)">
      <g id="Group_17879" data-name="Group 17879">
        <path id="Path_18909" data-name="Path 18909" d="M387.784,223.129c-.709.795-2.316,2.6-2.836,3.2-1.388,1.613.359,2.715,2.285,1.385-.069.312-.448,2.026-.632,2.836-.488,2.14,2.018,1.933,2.692-.994l.349-1.5,1.3-1.254,2.79.815a6.167,6.167,0,0,0,3.344,5.332c0,.074.006.146.013.219.459,5.871,11.318,6.14,9.814-4.108a67.063,67.063,0,0,0-1.631-7.484c-.013-.051-.108-.406-.2-.766a96.721,96.721,0,0,1-2.555-10.971c-.728-4.81-4.085-2.177-3.951.688.126,2.666,1.1,9.878,1.1,9.878.061.462-.8.564-1.207.155s-2.18-2.586-3.151-3.574-2.791.015-2.791.015l-2.556,1.4s-2.513,1.442-3.646,2.081C384.158,221.7,385.349,223.476,387.784,223.129Z" transform="translate(-384.148 -206.882)" fill="#fff" fill-rule="evenodd"/>
        <path id="Path_18910" data-name="Path 18910" d="M401.64,237.4a4.808,4.808,0,0,1-5-4.355.378.378,0,0,1,0-.048,6.461,6.461,0,0,1-3.335-5.3L390.88,227l-1.113,1.071-.329,1.414c-.4,1.742-1.46,2.655-2.3,2.655a.981.981,0,0,1-.786-.367,1.614,1.614,0,0,1-.192-1.429c.124-.549.339-1.512.485-2.172-1.086.5-2.211.3-2.543-.42-.135-.3-.254-.915.47-1.757.424-.492,1.563-1.773,2.358-2.664a2.088,2.088,0,0,1-2.149-1.26c-.09-.338-.147-1.21,1.234-1.989,1.134-.64,3.644-2.081,3.644-2.081l2.56-1.4a4.2,4.2,0,0,1,1.791-.488,1.825,1.825,0,0,1,1.357.525c.585.595,1.447,1.6,2.141,2.417.455.536.852,1,1.01,1.156a.651.651,0,0,0,.45.168.363.363,0,0,0,.251-.069c-.014-.076-.979-7.258-1.1-9.907a4.123,4.123,0,0,1,1.069-2.952,2.039,2.039,0,0,1,1.434-.712c.6,0,1.661.379,2.046,2.916a85.307,85.307,0,0,0,2.244,9.815,78.973,78.973,0,0,1,2.145,9.408c.528,3.6-.472,5.638-1.4,6.716A5.28,5.28,0,0,1,401.64,237.4ZM390.8,226.359a.3.3,0,0,1,.084.012l2.791.815a.3.3,0,0,1,.215.264,5.827,5.827,0,0,0,3.16,5.079.3.3,0,0,1,.184.266c0,.068.005.137.011.2a4.221,4.221,0,0,0,4.4,3.8,4.62,4.62,0,0,0,3.555-1.6c.851-.984,1.76-2.866,1.265-6.238a77.82,77.82,0,0,0-2.132-9.337,86.116,86.116,0,0,1-2.256-9.883c-.233-1.528-.761-2.406-1.453-2.406a1.466,1.466,0,0,0-1,.526,3.546,3.546,0,0,0-.9,2.51c.123,2.622,1.086,9.78,1.1,9.851a.6.6,0,0,1-.143.481,1.22,1.22,0,0,1-1.574-.072c-.173-.174-.557-.623-1.042-1.192-.687-.8-1.542-1.8-2.111-2.385a1.249,1.249,0,0,0-.93-.345,3.686,3.686,0,0,0-1.5.414l-2.556,1.4h0s-2.509,1.44-3.643,2.079c-.705.4-1.06.891-.948,1.315.106.406.666.815,1.675.815h0a4,4,0,0,0,.558-.041.3.3,0,0,1,.306.155.3.3,0,0,1-.04.342c-.708.793-2.314,2.593-2.834,3.2-.37.429-.507.837-.38,1.115.231.5,1.341.466,2.269-.173a.3.3,0,0,1,.336,0,.3.3,0,0,1,.126.313c-.087.395-.452,2.046-.632,2.838a1.151,1.151,0,0,0,.076.922.385.385,0,0,0,.317.141c.468,0,1.347-.595,1.716-2.19l.35-1.5a.28.28,0,0,1,.083-.148l1.3-1.254A.3.3,0,0,1,390.8,226.359Z" transform="translate(-384.002 -206.736)" fill="#fff"/>
      </g>
      <g id="Group_17880" data-name="Group 17880" transform="translate(2.784 13.289)">
        <path id="Path_18911" data-name="Path 18911" d="M398.286,239.571h-.021a.3.3,0,0,1-.279-.32,2.955,2.955,0,0,1,1.93-2.523,6.021,6.021,0,0,1-.125-3.181A4.305,4.305,0,0,1,401.7,230.8a2.015,2.015,0,0,1,1.78-.292,1.291,1.291,0,0,1,.7.828,9.024,9.024,0,0,0,2.127,5.013.3.3,0,0,1-.447.4,9.414,9.414,0,0,1-2.27-5.33h0a.755.755,0,0,0-.35-.364,1.527,1.527,0,0,0-1.241.267,3.7,3.7,0,0,0-1.619,2.364,6.06,6.06,0,0,0,1,4.737.3.3,0,0,1-.5.328,8.233,8.233,0,0,1-.763-1.46,2.4,2.4,0,0,0-1.529,2A.3.3,0,0,1,398.286,239.571Zm-9.845-5.237a.3.3,0,0,1-.223-.1.3.3,0,0,1,.021-.423c0-.006.649-.6,1.26-1.269s2.218-2.3,2.326-2.4l1.015-1.095a.3.3,0,0,1,.44.408l-.7.757,3.331,1.107a11.6,11.6,0,0,1,1.175-1.3l-2.626-2.852c-.741.409-3.253,1.794-3.839,2.113a4.383,4.383,0,0,1-1.605.468.31.31,0,0,1-.319-.277.3.3,0,0,1,.277-.321,3.874,3.874,0,0,0,1.359-.4c.689-.376,4.045-2.226,4.045-2.226a.3.3,0,0,1,.365.059l2.785,3.025a18.022,18.022,0,0,1,1.543-1.21.3.3,0,0,1,.345.491c-3.882,2.724-4.168,5.052-4.17,5.075a.3.3,0,0,1-.6-.056,4.988,4.988,0,0,1,.9-2.084l-3.42-1.138c-.41.415-1.667,1.691-2.18,2.258-.63.692-1.274,1.282-1.3,1.307A.3.3,0,0,1,388.441,234.334Zm3.71-.91a.3.3,0,0,1-.215-.509l.548-.565a.3.3,0,0,1,.431.417l-.549.565A.3.3,0,0,1,392.151,233.424Z" transform="translate(-388.14 -226.489)" fill="#2c81fe"/>
      </g>
    </g>
    <g id="Group_17882" data-name="Group 17882" transform="translate(280.315 154.332)">
      <path id="Path_18912" data-name="Path 18912" d="M405.956,215.948a5.964,5.964,0,1,0-5.963-5.964A5.975,5.975,0,0,0,405.956,215.948Z" transform="translate(-399.693 -203.721)" fill="#fecaca" fill-rule="evenodd"/>
      <path id="Path_18913" data-name="Path 18913" d="M405.81,216.1a6.263,6.263,0,1,1,6.264-6.263A6.271,6.271,0,0,1,405.81,216.1Zm0-11.926a5.664,5.664,0,1,0,5.665,5.663A5.67,5.67,0,0,0,405.81,204.175Z" transform="translate(-399.547 -203.575)" fill="#fff"/>
    </g>
    <g id="Group_17883" data-name="Group 17883" transform="translate(283.197 157.01)">
      <path id="Path_18914" data-name="Path 18914" d="M406.177,212.3l2.306-4.608a.245.245,0,0,1,.328-.11l1.648,1a.247.247,0,0,1,.112.328l-3.591,5.683a.243.243,0,0,1-.353.093l-2.686-1.859a.244.244,0,0,1-.069-.338l.437-1.132a.246.246,0,0,1,.338-.069Z" transform="translate(-403.831 -207.557)" fill="#fff" fill-rule="evenodd"/>
    </g>
  </g>
</svg>
