<svg width="47" height="50" viewBox="0 0 47 50" fill="none" xmlns="http://www.w3.org/2000/svg">
<path d="M36.7922 17.4884C39.4078 14.8184 42.366 12.7074 45.8343 11.3529C46.6855 11.0204 46.4053 10.3107 46.3939 9.75042C46.3383 7.00687 45.8975 6.76159 43.6051 8.2123C40.1429 10.4036 37.8429 13.4796 36.7922 17.4884Z" fill="url(#paint0_linear_1_3520)"/>
<path d="M27.4583 44.8293C29.9284 43.1755 32.0119 41.1725 33.5789 38.6594C33.9633 38.0427 34.4771 38.3656 34.9135 38.4567C37.05 38.9018 37.1773 39.2825 35.7074 40.862C33.4875 43.2476 30.7459 44.5951 27.4583 44.8293Z" fill="url(#paint1_linear_1_3520)"/>
<path d="M9.15767 11.6013C7.07807 8.49551 4.55944 5.87583 1.39949 3.90603C0.624119 3.4226 1.03013 2.77639 1.14443 2.22777C1.70406 -0.458329 2.1828 -0.618448 4.1687 1.22952C7.16852 4.02053 8.86288 7.46752 9.15767 11.6013Z" fill="url(#paint2_linear_1_3520)"/>
<path d="M40.3904 38.6378C40.4971 37.1136 40.3091 35.6219 40.0088 34.1469C39.8794 33.5113 39.7297 32.8788 39.573 32.248C39.5466 32.1411 39.5215 32.0345 39.4977 31.928C39.1277 30.2727 39.0951 28.6546 39.6991 27.0181C39.9711 26.2814 40.1329 25.4916 40.2486 24.7115C40.6224 22.1918 40.2042 19.9536 37.8233 18.5073C37.4303 18.2686 35.6339 17.3972 35.0814 17.1941C33.1036 16.467 31.3565 16.988 29.7713 18.284C28.9281 18.9734 28.2088 19.7796 27.6165 20.6766C26.5346 22.3151 25.1167 23.4867 23.3117 24.2713C20.9819 25.284 18.7336 26.4393 16.9233 28.3086C13.3437 32.005 12.5541 37.2156 15.0438 41.528C16.6294 44.2744 18.9917 46.2016 22.2266 47.7929C22.5218 47.9528 22.8621 48.105 23.2298 48.2494C24.0386 48.5667 24.9938 48.8401 25.9884 49.047C26.1241 49.0751 26.2596 49.1039 26.3962 49.1295C33.9978 50.5558 39.8644 46.156 40.3904 38.6378ZM29.5234 47.1337C27.9099 47.1546 26.3875 46.9542 24.9629 46.5366C24.0632 46.2729 23.2031 45.9217 22.3839 45.4847C20.6535 44.5615 19.1066 43.2542 17.7639 41.5657C14.2939 37.203 15.8283 32.3562 19.1105 29.293C20.5215 27.9764 22.2474 27.1427 23.9994 26.3969C26.2488 25.4394 28.0782 24.0484 29.4177 21.9549C30.1246 20.8501 31.0108 19.8191 32.3258 19.3104C32.8793 19.0965 33.4186 19.0354 33.9955 19.1739C35.0614 19.43 36.0079 19.9393 36.9057 20.5411C37.9109 21.2148 38.1496 22.2473 38.146 23.3724C38.1421 24.5614 37.8147 25.6949 37.4531 26.805C36.9175 28.4498 36.8719 30.0825 37.2011 31.7558C37.2207 31.8548 37.2367 31.9539 37.2587 32.0533C37.4064 32.7164 37.5654 33.3779 37.7094 34.0422C37.9545 35.1729 38.1564 36.3121 38.1859 37.4837C38.2293 39.2017 37.9231 40.8242 37.215 42.1816C35.6094 45.5564 32.9604 47.0891 29.5234 47.1337Z" fill="url(#paint3_linear_1_3520)"/>
<path d="M19.0655 17.5117C18.8041 16.6854 18.411 15.8874 17.9842 15.1291C16.6056 12.6798 14.7266 11.0117 11.6726 11.3617C11.1686 11.4193 9.01322 11.8751 8.3943 12.0719C6.1782 12.7757 5.00761 14.412 4.50258 16.6141C4.23407 17.7855 4.15238 18.9748 4.24284 20.1574C4.40804 22.3177 3.96455 24.2981 2.92189 26.2033C1.5761 28.662 0.397768 31.19 0.0842306 34.0442C-0.53549 39.6881 2.30094 44.7645 7.38851 46.8394C10.6289 48.161 13.992 48.2427 17.8884 47.4416C18.2539 47.3813 18.6536 47.2838 19.0716 47.1609C18.6573 46.914 18.2417 46.6493 17.8332 46.3688C17.3477 46.0353 16.893 45.6853 16.464 45.3231C10.677 40.438 10.0469 33.0924 15.1369 27.2588C16.5477 25.6418 18.2889 24.4389 20.0931 23.3314C20.3174 23.1937 20.5425 23.0572 20.7684 22.9217C21.2796 22.6153 21.7618 22.2863 22.2112 21.928C20.7691 20.7354 19.6459 19.3468 19.0655 17.5117ZM2.60469 39.0556C1.54432 37.1766 1.7568 36.8362 3.93806 36.902C4.3836 36.9153 4.95872 36.7213 5.18871 37.4107C6.12564 40.2201 7.68412 42.6541 9.69996 44.8389C6.55794 43.8437 4.20658 41.8934 2.60469 39.0556Z" fill="url(#paint4_linear_1_3520)"/>
<path d="M38.5476 6.96173C37.9831 5.53404 37.9749 5.54606 36.9076 6.539C36.4024 7.00899 35.8572 7.43519 35.3513 7.90436C34.7524 8.46011 34.3372 8.97126 34.0871 9.4936L34.0844 9.49116C32.352 8.1142 29.5082 7.23451 27.2546 7.17727C26.9877 7.17055 26.959 7.28831 27.0167 7.50384C27.168 8.06938 27.2872 8.64856 27.4609 9.20391C28.1954 11.5512 29.2635 13.6459 31.3885 14.9061C32.3568 15.4802 34.4886 16.1934 35.761 16.1274C33.2098 11.965 31.7505 10.9064 29.6608 9.00243C31.9714 10.2657 33.7075 11.7036 35.3446 15.1954C35.4361 15.5148 35.5716 15.8269 35.761 16.1274C35.7651 16.0788 35.7668 15.9592 35.7635 15.7852C35.8806 14.4127 37.3892 13.2853 38.1381 12.3042C39.416 10.63 39.282 8.81948 38.5476 6.96173ZM35.4135 12.4688C35.3905 12.3529 35.3662 12.2371 35.3404 12.1222C35.2899 11.8977 35.332 11.4766 35.3919 11.2546C35.6353 10.3541 36.0809 9.70934 36.8296 8.94029C36.4887 9.7837 35.7761 11.0776 35.4135 12.4688Z" fill="url(#paint5_linear_1_3520)"/>
<path d="M20.682 3.73659C18.4751 3.2772 15.5057 3.48356 13.5043 4.42822L13.5012 4.42986C13.3767 3.86432 13.0897 3.27169 12.6334 2.5939C12.2481 2.02144 11.815 1.48198 11.4306 0.908913C10.6183 -0.301815 10.6132 -0.315059 9.73743 0.945786C8.59782 2.58636 8.05347 4.31842 8.91502 6.24034C9.41984 7.36652 10.6308 8.80908 10.4309 10.172C10.3881 10.3407 10.3625 10.4574 10.3553 10.5057C10.6076 10.2572 10.81 9.98478 10.9718 9.69589C13.3645 6.66877 15.3836 5.66544 17.9224 4.96341C15.4527 6.33955 13.7903 7.03649 10.3553 10.5057C11.5789 10.8608 13.8172 10.6536 14.891 10.316C17.2479 9.57488 18.7664 7.77947 20.0181 5.66238C20.3141 5.16142 20.5625 4.62482 20.8391 4.10879C20.9447 3.91219 20.9434 3.79098 20.682 3.73659ZM10.9577 3.26456C11.3839 3.97352 11.6422 4.59426 11.7598 5.30994C11.8503 5.86162 11.7604 6.51557 11.5292 7.02448L11.5263 7.03099C11.4923 5.59108 11.0969 4.16521 10.9577 3.26456Z" fill="url(#paint6_linear_1_3520)"/>
<defs>
<linearGradient id="paint0_linear_1_3520" x1="45.8269" y1="7.78573" x2="5.10143" y2="7.78573" gradientUnits="userSpaceOnUse">
<stop stop-color="#DD171E"/>
<stop offset="0.100302" stop-color="#D8171F"/>
<stop offset="0.208477" stop-color="#CB1723"/>
<stop offset="0.320347" stop-color="#B6172A"/>
<stop offset="0.434716" stop-color="#971734"/>
<stop offset="0.549893" stop-color="#711741"/>
<stop offset="0.644779" stop-color="#4C184E"/>
</linearGradient>
<linearGradient id="paint1_linear_1_3520" x1="54.2225" y1="14.4795" x2="13.4971" y2="14.4795" gradientUnits="userSpaceOnUse">
<stop stop-color="#DD171E"/>
<stop offset="0.100302" stop-color="#D8171F"/>
<stop offset="0.208477" stop-color="#CB1723"/>
<stop offset="0.320347" stop-color="#B6172A"/>
<stop offset="0.434716" stop-color="#971734"/>
<stop offset="0.549893" stop-color="#711741"/>
<stop offset="0.644779" stop-color="#4C184E"/>
</linearGradient>
<linearGradient id="paint2_linear_1_3520" x1="20.2585" y1="-12.5999" x2="-20.4669" y2="-12.5999" gradientUnits="userSpaceOnUse">
<stop stop-color="#DD171E"/>
<stop offset="0.100302" stop-color="#D8171F"/>
<stop offset="0.208477" stop-color="#CB1723"/>
<stop offset="0.320347" stop-color="#B6172A"/>
<stop offset="0.434716" stop-color="#971734"/>
<stop offset="0.549893" stop-color="#711741"/>
<stop offset="0.644779" stop-color="#4C184E"/>
</linearGradient>
<linearGradient id="paint3_linear_1_3520" x1="48.7233" y1="10.0951" x2="7.99795" y2="10.0951" gradientUnits="userSpaceOnUse">
<stop stop-color="#DD171E"/>
<stop offset="0.100302" stop-color="#D8171F"/>
<stop offset="0.208477" stop-color="#CB1723"/>
<stop offset="0.320347" stop-color="#B6172A"/>
<stop offset="0.434716" stop-color="#971734"/>
<stop offset="0.549893" stop-color="#711741"/>
<stop offset="0.644779" stop-color="#4C184E"/>
</linearGradient>
<linearGradient id="paint4_linear_1_3520" x1="36.4723" y1="0.327374" x2="-4.25301" y2="0.327374" gradientUnits="userSpaceOnUse">
<stop stop-color="#DD171E"/>
<stop offset="0.100302" stop-color="#D8171F"/>
<stop offset="0.208477" stop-color="#CB1723"/>
<stop offset="0.320347" stop-color="#B6172A"/>
<stop offset="0.434716" stop-color="#971734"/>
<stop offset="0.549893" stop-color="#711741"/>
<stop offset="0.644779" stop-color="#4C184E"/>
</linearGradient>
<linearGradient id="paint5_linear_1_3520" x1="38.9029" y1="2.2653" x2="-1.82242" y2="2.2653" gradientUnits="userSpaceOnUse">
<stop stop-color="#DD171E"/>
<stop offset="0.100302" stop-color="#D8171F"/>
<stop offset="0.208477" stop-color="#CB1723"/>
<stop offset="0.320347" stop-color="#B6172A"/>
<stop offset="0.434716" stop-color="#971734"/>
<stop offset="0.549893" stop-color="#711741"/>
<stop offset="0.644779" stop-color="#4C184E"/>
</linearGradient>
<linearGradient id="paint6_linear_1_3520" x1="24.774" y1="-8.99964" x2="-15.9514" y2="-8.99964" gradientUnits="userSpaceOnUse">
<stop stop-color="#DD171E"/>
<stop offset="0.100302" stop-color="#D8171F"/>
<stop offset="0.208477" stop-color="#CB1723"/>
<stop offset="0.320347" stop-color="#B6172A"/>
<stop offset="0.434716" stop-color="#971734"/>
<stop offset="0.549893" stop-color="#711741"/>
<stop offset="0.644779" stop-color="#4C184E"/>
</linearGradient>
</defs>
</svg>
