<svg id="The_match" data-name="The match" xmlns="http://www.w3.org/2000/svg" xmlns:xlink="http://www.w3.org/1999/xlink" width="467.469" height="424.005" viewBox="0 0 467.469 424.005">
  <defs>
    <clipPath id="clip-path">
      <path id="Path_18993" data-name="Path 18993" d="M121.291,133.646l10.395,115.777a2.859,2.859,0,0,0,2.847,2.6h65.419a2.53,2.53,0,0,0,2.519-2.766l-5.535-59.971L257.7,159.118l-16.309-28.227-34.113-11.422,14.6-38.584L196.355,64.136,160.484,84.908Z" transform="translate(-121.291 -64.136)" fill="none"/>
    </clipPath>
    <clipPath id="clip-path-2">
      <path id="Path_18977" data-name="Path 18977" d="M265.08,137.978s-1.245-4.683-7.267-1.549C257.813,136.43,259.98,140.267,265.08,137.978Z" transform="translate(-257.813 -135.349)" fill="#fff"/>
    </clipPath>
    <clipPath id="clip-path-3">
      <path id="Path_18981" data-name="Path 18981" d="M281.108,139.547s1.426-3.873,4.731-.184C285.839,139.363,283.312,142.6,281.108,139.547Z" transform="translate(-281.108 -137.77)" fill="#fff"/>
    </clipPath>
    <clipPath id="clip-path-4">
      <path id="Path_18987" data-name="Path 18987" d="M272.33,153.578l-6.859-1.205a3.214,3.214,0,0,0,3.023,3.76C272.114,156.693,272.33,153.578,272.33,153.578Z" transform="translate(-265.434 -152.373)"/>
    </clipPath>
    <clipPath id="clip-path-5">
      <path id="Path_19042" data-name="Path 19042" d="M482.619,133.646,472.183,249.7a2.261,2.261,0,0,1-2.423,2.33h-65.8a2.531,2.531,0,0,1-2.52-2.766l5.536-59.971-54.052-46.3,1.341-18.817,42.367-4.7-14.6-38.584,25.525-16.749,52.091,4.345Z" transform="translate(-352.921 -64.136)" fill="none"/>
    </clipPath>
    <clipPath id="clip-path-6">
      <path id="Path_19025" data-name="Path 19025" d="M471.27,143.632s.831-4.782,7.116-2.183C478.386,141.449,476.56,145.469,471.27,143.632Z" transform="translate(-471.27 -140.675)" fill="#fff"/>
    </clipPath>
    <clipPath id="clip-path-7">
      <path id="Path_19029" data-name="Path 19029" d="M457.962,146.472s-1.763-3.739-4.738.232C453.224,146.7,456.031,149.714,457.962,146.472Z" transform="translate(-453.224 -144.877)" fill="#fff"/>
    </clipPath>
  </defs>
  <path id="Path_18666" data-name="Path 18666" d="M1832.007,237.437c-75.354-8.445-151.563-109.226-193.138-26.077s57.165,104.482,0,198.025-70.318,154.662,0,188.324,117.417-117.073,257.732-39.12,205.45-81.645,130.1-149.2,18.4-145.569-41.36-184.545S1907.361,245.882,1832.007,237.437Z" transform="translate(-1590.937 -178.687)" fill="#fecaca" opacity="0.4"/>
  <g id="Group_17983" data-name="Group 17983" transform="translate(36.699 68.439)">
    <g id="Group_17906" data-name="Group 17906" transform="translate(29.301 41.561)">
      <path id="Path_18915" data-name="Path 18915" d="M64.55,410.873H361.1s-17.556-45.6-59.8-43.807c-21.626.919-25.144,18.6-42.222,26.744-9.647,4.6-21.781,4-31.139-.97a74.03,74.03,0,0,1-15.112-10.85c-18.938-17.289-31.3-4.831-41.127,1.844s-26.048,23.589-41.613,16.368S87.172,377.984,64.55,410.873Z" transform="translate(-47.308 -207.822)" fill="#b4c1ef"/>
      <g id="Group_17905" data-name="Group 17905" transform="translate(0)">
        <g id="Group_17890" data-name="Group 17890" transform="translate(156.313 2.321)">
          <g id="Group_17887" data-name="Group 17887" transform="translate(106.419)">
            <path id="Path_18916" data-name="Path 18916" d="M591.581,63.2l-25.15-2.836,27.616-14.054Z" transform="translate(-566.431 -46.306)" fill="none" stroke="#fff" stroke-miterlimit="10" stroke-width="1.394"/>
            <path id="Path_18917" data-name="Path 18917" d="M594.985,63.129l-6.15,7.919V62.162L605.1,47.415" transform="translate(-577.876 -46.872)" fill="none" stroke="#fff" stroke-miterlimit="10" stroke-width="1.394"/>
          </g>
          <g id="Group_17889" data-name="Group 17889" transform="translate(0 121.814)">
            <g id="Group_17888" data-name="Group 17888">
              <path id="Path_18918" data-name="Path 18918" d="M348.87,307.639l18.223.593-18.225-12.89Z" transform="translate(-348.868 -295.343)" fill="none" stroke="#fff" stroke-linecap="round" stroke-linejoin="round" stroke-width="1.117"/>
              <path id="Path_18919" data-name="Path 18919" d="M354.9,308.47l3.561,6.284.924-6.334-10.064-12.2" transform="translate(-349.099 -295.789)" fill="none" stroke="#fff" stroke-linecap="round" stroke-linejoin="round" stroke-width="1.117"/>
            </g>
            <path id="Path_18920" data-name="Path 18920" d="M368.765,338.144a16.219,16.219,0,0,0,5.3,10.271,12.292,12.292,0,0,0,11.041,2.659,4.668,4.668,0,0,0,2.357-1.44,4.431,4.431,0,0,0-.5-5.852,4.555,4.555,0,0,0-5.669-.62,6.776,6.776,0,0,0-2.52,5.542,9.794,9.794,0,0,0,17.445,6.145" transform="translate(-359.033 -317.208)" fill="none" stroke="#b4c1ef" stroke-miterlimit="10" stroke-width="1.007"/>
          </g>
        </g>
        <g id="Group_17892" data-name="Group 17892" transform="translate(6.638 1.323)">
          <circle id="Ellipse_481" data-name="Ellipse 481" cx="5.609" cy="5.609" r="5.609" transform="translate(304.107 96.36) rotate(-45)" fill="none" stroke="#fff" stroke-linecap="round" stroke-linejoin="round" stroke-width="1.394"/>
          <line id="Line_471" data-name="Line 471" x2="14.674" transform="translate(0 165.479)" fill="none" stroke="#fff" stroke-linecap="round" stroke-linejoin="round" stroke-width="1.394"/>
          <line id="Line_472" data-name="Line 472" x2="10.219" transform="translate(3.057 41.565)" fill="none" stroke="#fff" stroke-linecap="round" stroke-linejoin="round" stroke-width="1.394"/>
          <g id="Group_17891" data-name="Group 17891" transform="translate(178.43 4.028)">
            <line id="Line_473" data-name="Line 473" x2="21.844" y2="0.049" transform="translate(0 2.131)" fill="none" stroke="#fff" stroke-linecap="round" stroke-linejoin="round" stroke-width="1.394"/>
            <path id="Path_18921" data-name="Path 18921" d="M481.262,54.7a2.191,2.191,0,1,1-2.186-2.2A2.191,2.191,0,0,1,481.262,54.7Z" transform="translate(-443.02 -52.501)" fill="none" stroke="#fff" stroke-linecap="round" stroke-linejoin="round" stroke-width="1.394"/>
          </g>
          <path id="Path_18922" data-name="Path 18922" d="M56.845,315.05a3.5,3.5,0,1,1-3.49-3.5A3.5,3.5,0,0,1,56.845,315.05Z" transform="translate(-46.438 -180.809)" fill="#b4c1ef"/>
          <path id="Path_18923" data-name="Path 18923" d="M355.205,47.77a3.5,3.5,0,1,1-3.489-3.5A3.5,3.5,0,0,1,355.205,47.77Z" transform="translate(-198.858 -44.266)" fill="#b4c1ef"/>
          <path id="Path_18924" data-name="Path 18924" d="M255.3,57.083a2.191,2.191,0,1,1-2.187-2.2A2.191,2.191,0,0,1,255.3,57.083Z" transform="translate(-149.153 -49.692)" fill="none" stroke="#fff" stroke-linecap="round" stroke-linejoin="round" stroke-width="1.394"/>
          <path id="Path_18925" data-name="Path 18925" d="M338.187,195.337a2.262,2.262,0,1,1-2.257-2.267A2.261,2.261,0,0,1,338.187,195.337Z" transform="translate(-191.426 -120.284)" fill="#b4c1ef"/>
        </g>
        <g id="Group_17899" data-name="Group 17899" transform="translate(0 17.331)">
          <g id="Group_17894" data-name="Group 17894" transform="translate(0 63.563)">
            <g id="Group_17893" data-name="Group 17893" transform="translate(0 0)">
              <circle id="Ellipse_482" data-name="Ellipse 482" cx="11.131" cy="11.131" r="11.131" transform="matrix(0.973, -0.23, 0.23, 0.973, 0, 5.115)" fill="#622466"/>
            </g>
            <path id="Path_18926" data-name="Path 18926" d="M55.654,227.775a2.307,2.307,0,0,0-3.265.035l-.588.6-.606-.6a2.309,2.309,0,1,0-3.24,3.29l2.246,2.212s.008.011.012.015a2.309,2.309,0,0,0,3.265-.034l2.209-2.256A2.309,2.309,0,0,0,55.654,227.775Z" transform="translate(-38.479 -217.248)" fill="#fff"/>
          </g>
          <g id="Group_17896" data-name="Group 17896" transform="translate(302.747 116.735)">
            <g id="Group_17895" data-name="Group 17895" transform="translate(0 0)">
              <circle id="Ellipse_483" data-name="Ellipse 483" cx="9.511" cy="9.511" r="9.511" transform="translate(0 13.45) rotate(-45)" fill="#e26a6c"/>
            </g>
            <path id="Path_18927" data-name="Path 18927" d="M674.862,337.553a1.971,1.971,0,0,0-2.79.029l-.5.513-.517-.509a1.973,1.973,0,1,0-2.768,2.811l1.919,1.89.011.013a1.973,1.973,0,0,0,2.79-.029l1.888-1.928A1.974,1.974,0,0,0,674.862,337.553Z" transform="translate(-658.179 -326.55)" fill="#fff"/>
          </g>
          <g id="Group_17898" data-name="Group 17898" transform="translate(306.517 0)">
            <g id="Group_17897" data-name="Group 17897" transform="translate(0)">
              <circle id="Ellipse_484" data-name="Ellipse 484" cx="11.668" cy="11.668" r="11.668" transform="translate(0 22.724) rotate(-76.854)" fill="#dc3d82"/>
            </g>
            <path id="Path_18928" data-name="Path 18928" d="M683.527,98.788a2.418,2.418,0,0,0-3.422.036l-.617.63-.634-.625a2.42,2.42,0,1,0-3.4,3.448l2.354,2.319.013.016a2.42,2.42,0,0,0,3.422-.036l2.316-2.365A2.421,2.421,0,0,0,683.527,98.788Z" transform="translate(-665.545 -87.774)" fill="#fff"/>
          </g>
        </g>
        <g id="Group_17904" data-name="Group 17904" transform="translate(38.676)">
          <g id="Group_17901" data-name="Group 17901" transform="translate(110.432 22.532)">
            <g id="Group_17900" data-name="Group 17900">
              <path id="Path_18929" data-name="Path 18929" d="M371.1,125.356l-24.666-5.6a2.292,2.292,0,0,1-1.784-2.235V89.919a2.291,2.291,0,0,1,2.877-2.215l24.666,6.514a2.291,2.291,0,0,1,1.706,2.215v26.689A2.291,2.291,0,0,1,371.1,125.356Z" transform="translate(-339.508 -87.626)" fill="none" stroke="#fff" stroke-miterlimit="10" stroke-width="1.394"/>
              <path id="Path_18930" data-name="Path 18930" d="M362.756,133.05a2.86,2.86,0,0,1-2.167.586l-24.666-5.6a2.291,2.291,0,0,1-1.784-2.235V98.2a2.274,2.274,0,0,1,.764-1.709" transform="translate(-334.138 -92.154)" fill="none" stroke="#fff" stroke-miterlimit="10" stroke-width="1.394"/>
              <line id="Line_474" data-name="Line 474" x1="4.668" y2="3.485" transform="translate(28.406 37.569)" fill="none" stroke="#fff" stroke-miterlimit="10" stroke-width="1.394"/>
              <line id="Line_475" data-name="Line 475" y1="3.979" x2="5.445" transform="translate(0.765 0.356)" fill="none" stroke="#fff" stroke-miterlimit="10" stroke-width="1.394"/>
            </g>
            <path id="Path_18931" data-name="Path 18931" d="M373.083,113.114c-1.514-2.2-4.055-2.685-5.679-1.078l-1.071,1.059-1-1.469c-1.507-2.207-4.05-2.7-5.679-1.1s-1.727,4.684-.219,6.891l3.727,5.453c.008.011.013.024.021.036a4.753,4.753,0,0,0,2.144,1.777,3.214,3.214,0,0,0,3.535-.7l4.023-3.977C374.5,118.4,374.6,115.315,373.083,113.114Z" transform="translate(-346.512 -98.845)" fill="#dc3d82"/>
          </g>
          <g id="Group_17903" data-name="Group 17903">
            <g id="Group_17902" data-name="Group 17902">
              <path id="Path_18932" data-name="Path 18932" d="M110.344,53.328l12.032,14.659a1.719,1.719,0,0,0,2.1.447l18.509-9.267a1.718,1.718,0,0,0,.52-2.672L130.855,42.144a1.718,1.718,0,0,0-2.058-.4L110.9,50.7A1.718,1.718,0,0,0,110.344,53.328Z" transform="translate(-109.179 -41.561)" fill="#b4c1ef"/>
              <path id="Path_18933" data-name="Path 18933" d="M110.344,53.328l12.032,14.659a1.719,1.719,0,0,0,2.1.447l18.509-9.267a1.718,1.718,0,0,0,.52-2.672L130.855,42.144a1.718,1.718,0,0,0-2.058-.4L110.9,50.7A1.718,1.718,0,0,0,110.344,53.328Z" transform="translate(-109.179 -41.561)" fill="none" stroke="#fff" stroke-miterlimit="10" stroke-width="1.359"/>
              <path id="Path_18934" data-name="Path 18934" d="M108.412,71.868a2.143,2.143,0,0,0,.335,1.65l12.031,14.659a1.718,1.718,0,0,0,2.1.447l18.509-9.267a1.707,1.707,0,0,0,.889-1.086" transform="translate(-108.37 -57.044)" fill="none" stroke="#fff" stroke-miterlimit="10" stroke-width="1.359"/>
              <line id="Line_476" data-name="Line 476" x1="0.769" y2="4.299" transform="translate(0.007 10.72)" fill="none" stroke="#fff" stroke-miterlimit="10" stroke-width="1.359"/>
              <line id="Line_477" data-name="Line 477" y1="4.986" x2="0.84" transform="translate(33.903 16.24)" fill="none" stroke="#fff" stroke-miterlimit="10" stroke-width="1.359"/>
            </g>
            <path id="Path_18935" data-name="Path 18935" d="M140.411,57.915a2.149,2.149,0,0,0-3.053,1.846l-.129.739-1.15-.423c-1.946-.815-4.256.3-4.531,1.85a3.859,3.859,0,0,0,2.63,3.954l4.269,1.571c.009,0,.017.008.026.012a3.27,3.27,0,0,0,1.913.141,2.214,2.214,0,0,0,1.7-1.8l.669-3.838A3.642,3.642,0,0,0,140.411,57.915Z" transform="translate(-120.19 -49.835)" fill="#fff"/>
          </g>
        </g>
      </g>
    </g>
    <g id="Group_17949" data-name="Group 17949" transform="translate(59.372 52.603)">
      <g id="Group_17908" data-name="Group 17908" transform="translate(0 33.391)">
        <path id="Path_18936" data-name="Path 18936" d="M110.628,291.018h65.619a6.544,6.544,0,0,0,6.517-7.139l-13.3-145.53a6.544,6.544,0,0,0-6.516-5.948H97.323a6.544,6.544,0,0,0-6.516,7.14l13.3,145.53A6.543,6.543,0,0,0,110.628,291.018Z" transform="translate(-90.779 -132.4)" fill="#1f0c03"/>
        <path id="Path_18937" data-name="Path 18937" d="M127.21,291.018h65.619a6.544,6.544,0,0,0,6.517-7.139l-13.3-145.53a6.544,6.544,0,0,0-6.517-5.948H113.906a6.544,6.544,0,0,0-6.517,7.14l13.3,145.53A6.544,6.544,0,0,0,127.21,291.018Z" transform="translate(-99.25 -132.4)" fill="#fff"/>
        <path id="Path_18938" data-name="Path 18938" d="M179.525,136.52a2.413,2.413,0,0,1,2.415,2.2l13.3,145.53a2.424,2.424,0,0,1-2.415,2.646H127.21a2.413,2.413,0,0,1-2.414-2.2l-13.3-145.53a2.425,2.425,0,0,1,2.415-2.645h65.619m0-4.12H113.906a6.544,6.544,0,0,0-6.517,7.14l13.3,145.53a6.544,6.544,0,0,0,6.517,5.948h65.619a6.544,6.544,0,0,0,6.517-7.139l-13.3-145.53a6.544,6.544,0,0,0-6.517-5.948Z" transform="translate(-99.25 -132.4)" fill="#e26a6c"/>
        <g id="Group_17907" data-name="Group 17907" transform="translate(29.327 0.493)">
          <path id="Path_18939" data-name="Path 18939" d="M154.951,141.9h32.928a3.689,3.689,0,0,0,3.666-4.1l-.456-4.391H150.736l.55,5.221A3.689,3.689,0,0,0,154.951,141.9Z" transform="translate(-150.736 -133.407)" fill="#e26a6c"/>
          <line id="Line_478" data-name="Line 478" x1="16.624" transform="translate(13.332 3.709)" fill="none" stroke="#363042" stroke-linecap="round" stroke-linejoin="round" stroke-width="1.053"/>
        </g>
      </g>
      <g id="Group_17948" data-name="Group 17948" transform="translate(14.924)">
        <g id="Group_17947" data-name="Group 17947" clip-path="url(#clip-path)">
          <g id="Group_17946" data-name="Group 17946" transform="translate(-0.22 14.541)">
            <g id="Group_17909" data-name="Group 17909" transform="translate(21.489 106.363)">
              <path id="Path_18940" data-name="Path 18940" d="M209.875,319.023c1.255.513,23.153,72.383,23.153,72.383l-25.906.154-13.758-48.088-6.57,48.165-21.941-.153s-1.279-64.357,6.48-80.169Z" transform="translate(-164.774 -311.313)" fill="#1f0c03"/>
              <line id="Line_479" data-name="Line 479" y1="4.991" x2="8.196" transform="translate(28.59 27.167)" fill="none" stroke="#494949" stroke-linecap="round" stroke-linejoin="round" stroke-width="0.632"/>
            </g>
            <g id="Group_17931" data-name="Group 17931" transform="translate(0 43.299)">
              <g id="Group_17917" data-name="Group 17917" transform="translate(62.674 11.507)">
                <path id="Path_18941" data-name="Path 18941" d="M267.909,205.91s7.835,6.916-3.9,41.844l-11.031,1.077Z" transform="translate(-251.02 -205.91)" fill="#622466"/>
                <g id="Group_17916" data-name="Group 17916" transform="translate(0 12.561)">
                  <g id="Group_17912" data-name="Group 17912" transform="translate(28.654)">
                    <g id="Group_17911" data-name="Group 17911" transform="translate(9.473)">
                      <g id="Group_17910" data-name="Group 17910">
                        <path id="Path_18942" data-name="Path 18942" d="M328.287,246.94s-3.465-3.37.642-7.863l6.193-7.037a1.385,1.385,0,0,1,2.074.036h0a1.385,1.385,0,0,1,.176,1.539l-2.161,4.34,10.854-5.649a1.5,1.5,0,0,1,2.152.77h0a1.5,1.5,0,0,1-.607,1.8l-7.065,4.28.081.411,7.931-3.377a1.447,1.447,0,0,1,1.884,1.2h0a1.447,1.447,0,0,1-.984,1.546l-7.718,3.771.047.517,7.358-2.189c.658-.121,2.007-.873,2.373.285h0c.488,1.337-1.179,1.768-1.92,2.033l-7.677,2.826.025.478,7.024-1.8a1.043,1.043,0,0,1,1.047,1.239h0a1.043,1.043,0,0,1-.959.843l-8.051,2.38s-7.561,3.971-10.426.9Z" transform="translate(-326.921 -231.59)" fill="#c4735a"/>
                        <path id="Path_18943" data-name="Path 18943" d="M342.455,244.6s1.757,4.211-1.355,7.417" transform="translate(-334.164 -238.237)" fill="#c4735a" stroke="#1d0006" stroke-linecap="round" stroke-linejoin="round" stroke-width="0.632"/>
                      </g>
                    </g>
                    <path id="Path_18944" data-name="Path 18944" d="M307.554,258.08l12.112-3.532,4.181,7.579-13.753,5.468Z" transform="translate(-307.554 -243.318)" fill="#c4735a"/>
                  </g>
                  <g id="Group_17915" data-name="Group 17915" transform="translate(0 10.703)">
                    <path id="Path_18945" data-name="Path 18945" d="M316.694,255.788l5.061-1.362,4.154,8.618-6.271,2.55Z" transform="translate(-283.569 -253.959)" fill="#622466"/>
                    <g id="Group_17914" data-name="Group 17914">
                      <g id="Group_17913" data-name="Group 17913">
                        <path id="Path_18946" data-name="Path 18946" d="M254.136,261.961l25.171-8.275a4.684,4.684,0,0,1,5.738,2.709l2.7,6.649a4.684,4.684,0,0,1-2.4,6.026l-23.81,11.391a8.8,8.8,0,0,1-11.371-3.818h0C247.639,271.995,249.21,263.888,254.136,261.961Z" transform="translate(-248.973 -253.472)" fill="#622466"/>
                      </g>
                      <line id="Line_480" data-name="Line 480" x1="4.667" y2="1.475" transform="translate(12.401 4.576)" fill="none" stroke="#1d0006" stroke-linecap="round" stroke-linejoin="round" stroke-width="0.65"/>
                    </g>
                  </g>
                </g>
              </g>
              <g id="Group_17921" data-name="Group 17921" transform="translate(23.096)">
                <g id="Group_17918" data-name="Group 17918" transform="translate(7.144)">
                  <path id="Path_18947" data-name="Path 18947" d="M247.316,184.578a43.612,43.612,0,0,0-16.054-2.157l-1.867,4.434,9.572,3.418,9.406-.494.86-1.3Z" transform="translate(-206.537 -182.384)"/>
                  <path id="Path_18948" data-name="Path 18948" d="M182.663,257.268S207.089,271.2,222.1,261.8l1.7-33.55,2.838-23.075-3.1-5.483L214,197.008l-11.51.875-11.722,18.773Z" transform="translate(-182.663 -189.855)" fill="#fff"/>
                  <path id="Path_18949" data-name="Path 18949" d="M224.615,192.366s10.9,12.122,22.834,4.466l-2-5.25-6.318-3.173-12.106.152Z" transform="translate(-204.095 -185.462)" fill="#c4735a"/>
                </g>
                <g id="Group_17919" data-name="Group 17919" transform="translate(0 0.038)">
                  <path id="Path_18950" data-name="Path 18950" d="M200.735,203.77s-2.218,39.238-9.581,64.285c-.451,1.536-2.344,2.158-3.883,1.716-3.423-.982-13.4-8.715-19.213-19.062l8.51-55.374a6.256,6.256,0,0,1,3.085-4.888c3.022-1.761,14.72-3.046,14.72-3.046S201.153,185.956,200.735,203.77Z" transform="translate(-168.058 -184.97)" fill="#622466"/>
                  <path id="Path_18951" data-name="Path 18951" d="M224.7,193.265l-8.93,4.66L217.1,185.09l7.2-2.629Z" transform="translate(-192.43 -182.461)" fill="#622466"/>
                </g>
                <g id="Group_17920" data-name="Group 17920" transform="translate(42.778 2.194)">
                  <path id="Path_18952" data-name="Path 18952" d="M255.517,273.853c-.118,1,3.262,1.453,3.907.684h0a15.754,15.754,0,0,0,2.814-6.915l2.969-44.576,5.553-16.822a5.852,5.852,0,0,0-1.536-5.987,29.121,29.121,0,0,0-8.106-5.472S261.4,223.948,255.517,273.853Z" transform="translate(-255.514 -190.904)" fill="#622466"/>
                  <path id="Path_18953" data-name="Path 18953" d="M270.983,270.938l2.127-28.015,2.235-9.249" transform="translate(-263.417 -210.78)" fill="#622466" stroke="#1d0006" stroke-linecap="round" stroke-linejoin="round" stroke-width="0.632"/>
                  <path id="Path_18954" data-name="Path 18954" d="M266.45,195.768l5.818,5.78-2.47-10.231-3.766-4.447Z" transform="translate(-260.887 -186.87)" fill="#622466"/>
                </g>
              </g>
              <g id="Group_17930" data-name="Group 17930" transform="translate(0 4.832)">
                <g id="Group_17922" data-name="Group 17922" transform="translate(0.113)">
                  <path id="Path_18955" data-name="Path 18955" d="M157.6,192.263s7.108,12.956-13.612,41.8l-4.974,8.191a9.673,9.673,0,0,1-13.728,2.963h0a9.663,9.663,0,0,1-2.968-12.731C129.515,219.777,144.094,194.747,157.6,192.263Z" transform="translate(-121.072 -192.263)" fill="#622466"/>
                  <line id="Line_481" data-name="Line 481" y1="15.982" x2="12.193" transform="translate(26.803 20.103)" fill="none" stroke="#1d0006" stroke-linecap="round" stroke-linejoin="round" stroke-width="0.632"/>
                </g>
                <g id="Group_17929" data-name="Group 17929" transform="translate(0 36.107)">
                  <g id="Group_17925" data-name="Group 17925" transform="translate(17.912 26.063)">
                    <g id="Group_17924" data-name="Group 17924" transform="translate(6.661 8.781)">
                      <g id="Group_17923" data-name="Group 17923">
                        <path id="Path_18956" data-name="Path 18956" d="M174.625,339.316s2.733-3.987,7.858-.7l7.988,4.907a1.385,1.385,0,0,1,.317,2.05h0A1.386,1.386,0,0,1,189.3,346l-4.644-1.392,7.411,9.736a1.5,1.5,0,0,1-.393,2.251h0a1.5,1.5,0,0,1-1.881-.292l-5.418-6.235-.392.149,4.676,7.242a1.446,1.446,0,0,1-.865,2.061h0a1.446,1.446,0,0,1-1.69-.707l-5.028-6.965-.5.134,3.409,6.879c.231.628,1.013,2.038-.564,2.723h0c-.594.194-1.414-1.3-1.643-1.882l-4.09-7.085-.466.106,2.97,6.615a1.042,1.042,0,0,1-1.044,1.242h0a1.042,1.042,0,0,1-.993-.8l-3.714-7.529s-5.2-6.776-2.663-10.12Z" transform="translate(-171.079 -337.315)" fill="#c4735a"/>
                      </g>
                    </g>
                    <path id="Path_18957" data-name="Path 18957" d="M166.406,319.364l5.54,11.335-6.758,5.408-7.726-12.623Z" transform="translate(-157.461 -319.364)" fill="#c4735a"/>
                  </g>
                  <g id="Group_17928" data-name="Group 17928">
                    <path id="Path_18958" data-name="Path 18958" d="M172.223,327.6l2.2,4.756-7.787,5.559-3.579-5.746Z" transform="translate(-142.409 -297.506)" fill="#622466"/>
                    <g id="Group_17927" data-name="Group 17927">
                      <g id="Group_17926" data-name="Group 17926">
                        <path id="Path_18959" data-name="Path 18959" d="M139.338,269.747l12.433,23.4a4.684,4.684,0,0,1-1.694,6.115l-6.094,3.79a4.684,4.684,0,0,1-6.347-1.343l-15.272-21.528a8.8,8.8,0,0,1,1.828-11.854h0C128.346,265.051,136.6,265.221,139.338,269.747Z" transform="translate(-120.841 -266.081)" fill="#622466"/>
                      </g>
                      <line id="Line_482" data-name="Line 482" x1="3.603" y1="6.628" transform="translate(17.586 2.103)" fill="none" stroke="#1d0006" stroke-linecap="round" stroke-linejoin="round" stroke-width="0.632"/>
                      <path id="Path_18960" data-name="Path 18960" d="M171.079,296.954l6.5,12.107a4.191,4.191,0,0,1-.447,4.635h0" transform="translate(-146.506 -281.853)" fill="#622466" stroke="#1d0006" stroke-linecap="round" stroke-linejoin="round" stroke-width="0.632"/>
                    </g>
                  </g>
                </g>
              </g>
            </g>
            <g id="Group_17945" data-name="Group 17945" transform="translate(49.803)">
              <path id="Path_18961" data-name="Path 18961" d="M229.69,115.893s-5.124-1.559-6.851,3.684,9.545,13.557,9.545,13.557Z" transform="translate(-222.659 -105.007)" fill="#1f0c03"/>
              <path id="Path_18962" data-name="Path 18962" d="M252.353,97.193s11.489-6.328,18.854-1.533c9.476,6.171-3.617,16.305-3.617,16.305S250.92,108.6,252.353,97.193Z" transform="translate(-237.784 -93.864)" fill="#1f0c03"/>
              <path id="Path_18963" data-name="Path 18963" d="M229.982,112.289,241.6,130.958c9.007,1.252,16.351-5.264,17.546-13.86s-4.212-16.019-13.219-17.271S231.177,103.692,229.982,112.289Z" transform="translate(-226.4 -96.814)" fill="#1f0c03"/>
              <circle id="Ellipse_485" data-name="Ellipse 485" cx="4.067" cy="4.067" r="4.067" transform="matrix(0.365, -0.931, 0.931, 0.365, 26.221, 29.265)" fill="#ac503c"/>
              <path id="Path_18964" data-name="Path 18964" d="M251.012,156.462l-2.38,16.906-12.572-3.693,7.018-21.324Z" transform="translate(-229.505 -121.699)" fill="#c4735a"/>
              <path id="Path_18965" data-name="Path 18965" d="M256.138,168.6a20.126,20.126,0,0,1-7.737-12.267l8.785,5.429Z" transform="translate(-235.81 -125.777)" fill="#ac503c"/>
              <path id="Path_18966" data-name="Path 18966" d="M262.83,110.888a14.176,14.176,0,0,1,2,6.069c.245,4.054.51,9.993-1.212,13.469-2.438,4.921-5.75,9.034-13.56,7a8.822,8.822,0,0,1-1.846-.719,15.758,15.758,0,0,1-8.712-14.812C240.105,101.522,256.676,101.914,262.83,110.888Z" transform="translate(-231.256 -99.562)" fill="#c4735a"/>
              <path id="Path_18967" data-name="Path 18967" d="M240.533,131.332a12.391,12.391,0,0,0-3.87-9.876l-3.545,6,5.195,4.718Z" transform="translate(-228.002 -107.96)" fill="#1f0c03"/>
              <g id="Group_17933" data-name="Group 17933" transform="translate(3.399 20.656)">
                <g id="Group_17932" data-name="Group 17932">
                  <path id="Path_18968" data-name="Path 18968" d="M229.661,141.064a4.3,4.3,0,1,0,3.581-4.919A4.3,4.3,0,0,0,229.661,141.064Z" transform="translate(-229.608 -136.093)" fill="#c4735a"/>
                  <path id="Path_18969" data-name="Path 18969" d="M235.658,142.467s2.373-.282,3.244,2.784" transform="translate(-232.698 -139.346)" fill="none" stroke="#1d0006" stroke-linecap="round" stroke-linejoin="round" stroke-width="0.632"/>
                </g>
              </g>
              <path id="Path_18970" data-name="Path 18970" d="M238.513,119.584s4.975-2.89,3.575-8.259l-5,.022-2.621,5Z" transform="translate(-228.689 -102.784)" fill="#1f0c03"/>
              <path id="Path_18971" data-name="Path 18971" d="M246.139,107.666s3.649,2.741,10.1,1.12,8.176,1.251,8.176,1.251-4.506-8.853-16.241-6.657S246.139,107.666,246.139,107.666Z" transform="translate(-232.73 -98.546)" fill="#1f0c03"/>
              <path id="Path_18972" data-name="Path 18972" d="M244.173,98.932s-5.449-2.8-9.2-.646-4.538,8.986-2.028,10.989C232.947,109.275,240.021,99.852,244.173,98.932Z" transform="translate(-227.174 -95.708)" fill="#1f0c03"/>
              <g id="Group_17944" data-name="Group 17944" transform="translate(11.811 12.794)">
                <g id="Group_17942" data-name="Group 17942" transform="translate(4.417)">
                  <path id="Path_18973" data-name="Path 18973" d="M283.493,123.447s-.548,1.137,1.1,1.556a8.769,8.769,0,0,1,2.266.8.962.962,0,0,0,1.135-.177h0a.905.905,0,0,0,.082-.859,2.688,2.688,0,0,0-2.025-2.116C284.1,122.13,283.493,123.447,283.493,123.447Z" transform="translate(-269.92 -121.302)" fill="#1f0c03"/>
                  <path id="Path_18974" data-name="Path 18974" d="M264.576,121.419s.435,1.576-1.97,1.576a28.084,28.084,0,0,0-5.1.664,1.5,1.5,0,0,1-1.527-.575h0a.825.825,0,0,1,.133-1.086,9.571,9.571,0,0,1,5.255-1.977C264.221,119.99,264.576,121.419,264.576,121.419Z" transform="translate(-255.836 -120.021)" fill="#1f0c03"/>
                  <g id="Group_17936" data-name="Group 17936" transform="translate(0.967 7.442)">
                    <g id="Group_17935" data-name="Group 17935" transform="translate(0 0.055)">
                      <path id="Path_18975" data-name="Path 18975" d="M265.08,137.978s-1.245-4.683-7.267-1.549C257.813,136.43,259.98,140.267,265.08,137.978Z" transform="translate(-257.813 -135.349)" fill="#fff"/>
                      <g id="Group_17934" data-name="Group 17934" clip-path="url(#clip-path-2)">
                        <path id="Path_18976" data-name="Path 18976" d="M265.769,136.46a2.1,2.1,0,1,1-2.183-2.008A2.1,2.1,0,0,1,265.769,136.46Z" transform="translate(-259.735 -134.89)"/>
                      </g>
                    </g>
                    <path id="Path_18978" data-name="Path 18978" d="M257.813,136.372a5.239,5.239,0,0,1,3.589-1.128c3.509.136,3.678,2.677,3.678,2.677" transform="translate(-257.813 -135.236)" fill="none" stroke="#1d0006" stroke-linecap="round" stroke-linejoin="round" stroke-width="1.172"/>
                  </g>
                  <g id="Group_17939" data-name="Group 17939" transform="translate(12.361 8.677)">
                    <g id="Group_17938" data-name="Group 17938" transform="translate(0 0.004)">
                      <path id="Path_18979" data-name="Path 18979" d="M281.108,139.547s1.426-3.873,4.731-.184C285.839,139.363,283.312,142.6,281.108,139.547Z" transform="translate(-281.108 -137.77)" fill="#fff"/>
                      <g id="Group_17937" data-name="Group 17937" clip-path="url(#clip-path-3)">
                        <path id="Path_18980" data-name="Path 18980" d="M283.179,138.619a1.7,1.7,0,0,0,1.111,2.083c.779.126,1.546-.6,1.711-1.627a1.7,1.7,0,0,0-1.111-2.083C284.111,136.866,283.344,137.594,283.179,138.619Z" transform="translate(-282.15 -137.365)"/>
                      </g>
                    </g>
                    <path id="Path_18982" data-name="Path 18982" d="M285.839,139.359a2.734,2.734,0,0,0-2.915-1.56,2.265,2.265,0,0,0-1.817,1.744" transform="translate(-281.108 -137.761)" fill="none" stroke="#1d0006" stroke-linecap="round" stroke-linejoin="round" stroke-width="1.255"/>
                  </g>
                  <path id="Path_18983" data-name="Path 18983" d="M278.424,143.581l1.344,2.991-1.41.789" transform="translate(-267.342 -132.057)" fill="none" stroke="#1d0006" stroke-linecap="round" stroke-linejoin="round" stroke-width="0.61"/>
                  <g id="Group_17941" data-name="Group 17941" transform="translate(4.695 15.825)">
                    <path id="Path_18984" data-name="Path 18984" d="M272.33,153.578l-6.859-1.205a3.214,3.214,0,0,0,3.023,3.76C272.114,156.693,272.33,153.578,272.33,153.578Z" transform="translate(-265.434 -152.373)"/>
                    <g id="Group_17940" data-name="Group 17940" clip-path="url(#clip-path-4)">
                      <path id="Path_18985" data-name="Path 18985" d="M271.6,153.6l-8.094-1.389.5-2.032,9.327.822Z" transform="translate(-264.45 -151.253)" fill="#fff"/>
                      <path id="Path_18986" data-name="Path 18986" d="M263.413,158.892a2.312,2.312,0,1,0,1.751-2.761A2.311,2.311,0,0,0,263.413,158.892Z" transform="translate(-264.373 -154.264)" fill="#d95758"/>
                    </g>
                  </g>
                </g>
                <g id="Group_17943" data-name="Group 17943" transform="translate(0 4.222)">
                  <path id="Path_18988" data-name="Path 18988" d="M259.291,128.994l5.291,7.694s-1.773,3.137-4.421,2.7l-5.348-7.512S256.428,128.7,259.291,128.994Z" transform="translate(-250.896 -128.817)" fill="#fff" opacity="0.22"/>
                  <path id="Path_18989" data-name="Path 18989" d="M285.416,129.779l4.491,7.636s-1.563,3.151-3.845,2.736L281.52,132.7S282.946,129.511,285.416,129.779Z" transform="translate(-264.54 -129.22)" fill="#fff" opacity="0.22"/>
                  <path id="Path_18990" data-name="Path 18990" d="M264.528,134.244a5.415,5.415,0,1,1-5.236-5.588A5.414,5.414,0,0,1,264.528,134.244Z" transform="translate(-250.328 -128.653)" fill="none" stroke="#fff" stroke-miterlimit="10" stroke-width="0.793"/>
                  <path id="Path_18991" data-name="Path 18991" d="M289.885,134.962c-.113,2.987-2.3,5.353-4.878,5.285s-4.579-2.545-4.465-5.533,2.3-5.353,4.877-5.285S290,131.975,289.885,134.962Z" transform="translate(-264.038 -129.049)" fill="none" stroke="#fff" stroke-miterlimit="10" stroke-width="0.737"/>
                  <path id="Path_18992" data-name="Path 18992" d="M275.836,139.828a2.551,2.551,0,0,1,2.305.075" transform="translate(-261.636 -134.237)" fill="none" stroke="#fff" stroke-miterlimit="10" stroke-width="0.793"/>
                  <line id="Line_483" data-name="Line 483" y1="1.189" x2="3.404" transform="translate(0 5.478)" fill="none" stroke="#fff" stroke-miterlimit="10" stroke-width="0.793"/>
                </g>
              </g>
            </g>
          </g>
        </g>
      </g>
    </g>
    <g id="Group_17982" data-name="Group 17982" transform="translate(187.596 52.603)">
      <g id="Group_17951" data-name="Group 17951" transform="translate(44.676 33.391)">
        <path id="Path_18994" data-name="Path 18994" d="M533,291.018h-65.62a6.544,6.544,0,0,1-6.517-7.139l13.3-145.53a6.544,6.544,0,0,1,6.517-5.948h65.619a6.545,6.545,0,0,1,6.517,7.14l-13.3,145.53A6.543,6.543,0,0,1,533,291.018Z" transform="translate(-452.727 -132.4)" fill="#1f0c03"/>
        <path id="Path_18995" data-name="Path 18995" d="M516.42,291.018H450.8a6.544,6.544,0,0,1-6.517-7.139l13.3-145.53A6.544,6.544,0,0,1,464.1,132.4h65.62a6.544,6.544,0,0,1,6.517,7.14l-13.3,145.53A6.544,6.544,0,0,1,516.42,291.018Z" transform="translate(-444.256 -132.4)" fill="#fff"/>
        <path id="Path_18996" data-name="Path 18996" d="M529.724,136.52a2.425,2.425,0,0,1,2.415,2.645l-13.3,145.53a2.413,2.413,0,0,1-2.414,2.2H450.8a2.424,2.424,0,0,1-2.415-2.646l13.3-145.53a2.414,2.414,0,0,1,2.415-2.2h65.62m0-4.12H464.1a6.544,6.544,0,0,0-6.517,5.948l-13.3,145.53a6.544,6.544,0,0,0,6.517,7.139h65.62a6.544,6.544,0,0,0,6.517-5.948l13.3-145.53a6.544,6.544,0,0,0-6.517-7.14Z" transform="translate(-444.256 -132.4)" fill="#e26a6c"/>
        <g id="Group_17950" data-name="Group 17950" transform="translate(29.964 0.493)">
          <path id="Path_18997" data-name="Path 18997" d="M542.132,141.9H509.2a3.689,3.689,0,0,1-3.666-4.1l.456-4.391h40.353l-.55,5.221A3.689,3.689,0,0,1,542.132,141.9Z" transform="translate(-505.514 -133.407)" fill="#e26a6c"/>
          <line id="Line_484" data-name="Line 484" x2="16.624" transform="translate(10.877 3.709)" fill="none" stroke="#363042" stroke-linecap="round" stroke-linejoin="round" stroke-width="1.053"/>
        </g>
      </g>
      <g id="Group_17981" data-name="Group 17981">
        <g id="Group_17980" data-name="Group 17980" clip-path="url(#clip-path-5)">
          <g id="Group_17979" data-name="Group 17979" transform="translate(5.887 8.571)">
            <g id="Group_17954" data-name="Group 17954" transform="translate(57.572 96.546)">
              <path id="Path_18998" data-name="Path 18998" d="M496.848,292.09c-11.607,45.18-14.19,79.265-14.19,79.265l21.336-1.52,18.3-68.1Z" transform="translate(-482.658 -285.706)" fill="#622466"/>
              <g id="Group_17953" data-name="Group 17953" transform="translate(16.282)">
                <g id="Group_17952" data-name="Group 17952">
                  <path id="Path_18999" data-name="Path 18999" d="M557.387,322.343l6.188,45.406-21.386-4.576-26.244-79.32,21.269-4.816,5.907,5.9C549.342,293.721,555.6,309.267,557.387,322.343Z" transform="translate(-515.945 -279.038)" fill="#622466"/>
                </g>
                <path id="Path_19000" data-name="Path 19000" d="M535.4,362.921l-4.7-13.672-5.031-1.968" transform="translate(-520.915 -313.901)" fill="#622466" stroke="#1d0006" stroke-linecap="round" stroke-linejoin="round" stroke-width="0.654"/>
              </g>
            </g>
            <g id="Group_17965" data-name="Group 17965" transform="translate(0 54.349)">
              <g id="Group_17959" data-name="Group 17959" transform="translate(0 4.023)">
                <g id="Group_17955" data-name="Group 17955" transform="translate(34.563)">
                  <path id="Path_19001" data-name="Path 19001" d="M444.9,239.091l-8.863,23.585a6.661,6.661,0,0,0,3.753,8.493h0a6.661,6.661,0,0,0,8.548-3.4L459.948,242.4Z" transform="translate(-435.618 -220.457)" fill="#e7b38e"/>
                  <path id="Path_19002" data-name="Path 19002" d="M458.64,200.995a17.385,17.385,0,0,0-8.989,4.047c-4.466,3.725-10.124,20.334-10.124,20.334s3.073,6.665,21.551,9.021Z" transform="translate(-437.615 -200.995)" fill="#dc3d82"/>
                </g>
                <g id="Group_17958" data-name="Group 17958" transform="translate(0 0.691)">
                  <g id="Group_17956" data-name="Group 17956">
                    <path id="Path_19003" data-name="Path 19003" d="M385.666,215.514l-.169-1.464a12.636,12.636,0,0,0-2-5.511l-1.918-2.913a1.339,1.339,0,0,0-2.031-.244h0a1.715,1.715,0,0,0-.433,1.87l1.327,3.456-9.9-8.051a1.038,1.038,0,0,0-1.542.219l-.23.351a1.038,1.038,0,0,0,.137,1.307l6.465,5.654-8.325-5.468a1.037,1.037,0,0,0-1.522.314l-.154.268a1.037,1.037,0,0,0,.277,1.346l7.087,5.248-6.255-2.8a1.037,1.037,0,0,0-1.462.691l-.031.13a1.038,1.038,0,0,0,.478,1.134l6.29,3.374-3.634-.99a1.037,1.037,0,0,0-1.448,1h0a1.038,1.038,0,0,0,.539.867l15.963,8.3,1.757-3.68A8.074,8.074,0,0,0,385.666,215.514Z" transform="translate(-364.957 -202.407)" fill="#e7b38e"/>
                    <path id="Path_19004" data-name="Path 19004" d="M396.023,219.377a6.821,6.821,0,0,0,.145,5.8" transform="translate(-380.539 -211.076)" fill="none" stroke="#1d0006" stroke-linecap="round" stroke-linejoin="round" stroke-width="0.525"/>
                  </g>
                  <g id="Group_17957" data-name="Group 17957" transform="translate(16.32 13.815)">
                    <path id="Path_19005" data-name="Path 19005" d="M428.58,258.276,402.67,230.65l-4.348,4.722,19.456,29.08Z" transform="translate(-398.322 -230.65)" fill="#e7b38e"/>
                    <line id="Line_485" data-name="Line 485" x2="4.481" y2="4.81" transform="translate(22.001 18.823)" fill="none" stroke="#1d0006" stroke-linecap="round" stroke-linejoin="round" stroke-width="0.64"/>
                  </g>
                </g>
              </g>
              <g id="Group_17960" data-name="Group 17960" transform="translate(47.775 0.011)">
                <path id="Path_19006" data-name="Path 19006" d="M475.865,195.761s-8.729.9-12.2,4.334,2.862,23.39,2.862,23.39l18.116,27.136s13.641,3.525,28.221-6.367l-.484-40.659-5.407-6.7c-2.037-2.523-7.142-4.4-10.367-4.065l-7.5.246Z" transform="translate(-462.629 -192.794)" fill="#dc3d82"/>
                <path id="Path_19007" data-name="Path 19007" d="M473.286,254.36s-5.486-8.022-5.839-13.722" transform="translate(-465.09 -217.236)" fill="none" stroke="#1d0006" stroke-linecap="round" stroke-linejoin="round" stroke-width="0.64"/>
              </g>
              <g id="Group_17964" data-name="Group 17964" transform="translate(53.861)">
                <g id="Group_17961" data-name="Group 17961" transform="translate(20.758)">
                  <path id="Path_19008" data-name="Path 19008" d="M570.144,231.44s-5.413,7.477-13.812,9.725l4.993-9.965Z" transform="translate(-537.341 -212.403)" fill="#1f0c03"/>
                  <path id="Path_19009" data-name="Path 19009" d="M541.384,236.711l12.24,21.9a6.633,6.633,0,0,0,8.872,2.6h0a6.633,6.633,0,0,0,2.905-8.69l-11.825-25.133Z" transform="translate(-529.705 -210.458)" fill="#e7b38e"/>
                  <path id="Path_19010" data-name="Path 19010" d="M523.224,192.925a18.9,18.9,0,0,1,16.463,6.227c8.423,9.392,10.623,12.656,10.623,12.656s-12.834,2.772-20.564,10.212l-12.239-14.56Z" transform="translate(-517.507 -192.771)" fill="#dc3d82"/>
                  <line id="Line_486" data-name="Line 486" x1="5.535" y1="9.244" transform="translate(6.704 20.006)" fill="none" stroke="#1d0006" stroke-linecap="round" stroke-linejoin="round" stroke-width="0.64"/>
                </g>
                <g id="Group_17963" data-name="Group 17963" transform="translate(0 38.012)">
                  <path id="Path_19011" data-name="Path 19011" d="M542.785,270.483l-29.6,25.97,3.8,5.247,31.606-18.762Z" transform="translate(-494.542 -270.483)" fill="#e7b38e"/>
                  <g id="Group_17962" data-name="Group 17962" transform="translate(0 21.89)">
                    <path id="Path_19012" data-name="Path 19012" d="M494.334,316.764l-1.362-.564a12.641,12.641,0,0,0-5.789-.928l-3.478.261a1.34,1.34,0,0,0-1.2,1.657h0a1.715,1.715,0,0,0,1.424,1.287l3.666.519-11.847,4.741a1.038,1.038,0,0,0-.558,1.454l.194.371a1.038,1.038,0,0,0,1.209.515l8.083-2.9-8.824,4.618a1.038,1.038,0,0,0-.465,1.483l.159.264a1.038,1.038,0,0,0,1.312.412l8.03-3.644-5.489,4.1a1.038,1.038,0,0,0-.106,1.614l.1.09a1.036,1.036,0,0,0,1.223.133l6.006-3.858-2.631,2.7a1.037,1.037,0,0,0,.166,1.749h0a1.038,1.038,0,0,0,1.02-.049l15.011-9.918-2.363-3.324A8.075,8.075,0,0,0,494.334,316.764Z" transform="translate(-475.07 -315.235)" fill="#e7b38e"/>
                  </g>
                </g>
              </g>
            </g>
            <g id="Group_17978" data-name="Group 17978" transform="translate(38.673)">
              <g id="Group_17966" data-name="Group 17966" transform="translate(22.274)">
                <path id="Path_19013" data-name="Path 19013" d="M513.841,97.862c-3.223,3.525-12.068,5.186-15.9,1.68s-3.6-12.423-.379-15.947,9.571-1.8,13.4,1.7S517.064,94.338,513.841,97.862Z" transform="translate(-492.39 -81.659)" fill="#412c36"/>
                <path id="Path_19014" data-name="Path 19014" d="M502.513,113.345c-1.012,2.154-4.674,2.564-8.18.917s-5.527-4.728-4.516-6.881,4.738-2.842,8.243-1.2S503.525,111.192,502.513,113.345Z" transform="translate(-489.557 -93.722)" fill="#e27cae"/>
              </g>
              <path id="Path_19015" data-name="Path 19015" d="M458.529,114.308s-10.8-1.952-13.97,3.458,8.725,11.338,8.725,11.338Z" transform="translate(-444.021 -98.163)" fill="#412c36"/>
              <ellipse id="Ellipse_486" data-name="Ellipse 486" cx="16.494" cy="15.742" rx="16.494" ry="15.742" transform="translate(1.309 14.762) rotate(-10.843)" fill="#412c36"/>
              <g id="Group_17967" data-name="Group 17967" transform="translate(0.909 30.576)">
                <path id="Path_19016" data-name="Path 19016" d="M457.272,167.589a4.469,4.469,0,0,0,.75-8.468l-.182.426a4.006,4.006,0,1,1-4.289.745l-.314-.34a4.469,4.469,0,0,0,4.036,7.636Z" transform="translate(-448.906 -151.807)" fill="#e69624"/>
                <circle id="Ellipse_487" data-name="Ellipse 487" cx="4.074" cy="4.074" r="4.074" transform="translate(0 6.494) rotate(-52.858)" fill="#d9a07d"/>
              </g>
              <path id="Path_19017" data-name="Path 19017" d="M478.784,162.022l3.186,14.217,10.292-1.769-8.41-20.792Z" transform="translate(-461.78 -118.451)" fill="#e7b38e"/>
              <path id="Path_19018" data-name="Path 19018" d="M480.292,172.827a17.75,17.75,0,0,0,6.316-11.866l-7.824,4.782Z" transform="translate(-461.78 -122.171)" fill="#cb8d6d"/>
              <path id="Path_19019" data-name="Path 19019" d="M453.57,120.294A5.95,5.95,0,0,0,452.3,124c-.032,3.974-.244,11.006,1.89,14.81,2.774,4.946,7.783,7.871,14.464,5.225a14.556,14.556,0,0,0,8.625-14.238C476.789,112.508,460.813,111.335,453.57,120.294Z" transform="translate(-448.239 -98.584)" fill="#e7b38e"/>
              <g id="Group_17974" data-name="Group 17974" transform="translate(3.136 23.043)">
                <path id="Path_19020" data-name="Path 19020" d="M464.731,161.081s.021,1.753,2.444,1.36a3.362,3.362,0,0,0,2.793-2.493Z" transform="translate(-457.737 -144.697)" fill="#dc3d82"/>
                <path id="Path_19021" data-name="Path 19021" d="M454.864,134.292s.668.91-.918,1.492a9.735,9.735,0,0,0-2.162,1,1.068,1.068,0,0,1-1.146,0h0a.7.7,0,0,1-.175-.732,2.521,2.521,0,0,1,1.779-2.1C454.115,133.234,454.864,134.292,454.864,134.292Z" transform="translate(-450.432 -131.288)" fill="#412c36"/>
                <path id="Path_19022" data-name="Path 19022" d="M469.067,130.355s-.3,1.258,2.088.917a36.154,36.154,0,0,1,5.109-.217,1.791,1.791,0,0,0,1.464-.653h0a.525.525,0,0,0-.226-.805,11.148,11.148,0,0,0-5.378-.757C469.3,129.221,469.067,130.355,469.067,130.355Z" transform="translate(-459.946 -128.769)" fill="#412c36"/>
                <g id="Group_17970" data-name="Group 17970" transform="translate(10.193 5.733)">
                  <g id="Group_17969" data-name="Group 17969" transform="translate(0 0.091)">
                    <path id="Path_19023" data-name="Path 19023" d="M471.27,143.632s.831-4.782,7.116-2.183C478.386,141.449,476.56,145.469,471.27,143.632Z" transform="translate(-471.27 -140.675)" fill="#fff"/>
                    <g id="Group_17968" data-name="Group 17968" clip-path="url(#clip-path-6)">
                      <path id="Path_19024" data-name="Path 19024" d="M473.595,142.044a2.1,2.1,0,1,0,2-2.2A2.1,2.1,0,0,0,473.595,142.044Z" transform="translate(-472.456 -140.252)"/>
                    </g>
                  </g>
                  <path id="Path_19026" data-name="Path 19026" d="M478.385,141.354a5.247,5.247,0,0,0-3.68-.811c-3.489.444-3.435,2.994-3.435,2.994" transform="translate(-471.27 -140.49)" fill="none" stroke="#1d0006" stroke-linecap="round" stroke-linejoin="round" stroke-width="1.174"/>
                </g>
                <g id="Group_17973" data-name="Group 17973" transform="translate(1.366 7.879)">
                  <g id="Group_17972" data-name="Group 17972">
                    <path id="Path_19027" data-name="Path 19027" d="M457.962,146.472s-1.763-3.739-4.738.232C453.224,146.7,456.031,149.714,457.962,146.472Z" transform="translate(-453.224 -144.877)" fill="#fff"/>
                    <g id="Group_17971" data-name="Group 17971" clip-path="url(#clip-path-7)">
                      <path id="Path_19028" data-name="Path 19028" d="M457.739,145.681a1.486,1.486,0,1,1-1.85-1.473A1.7,1.7,0,0,1,457.739,145.681Z" transform="translate(-454.074 -144.518)"/>
                    </g>
                  </g>
                  <path id="Path_19030" data-name="Path 19030" d="M453.224,146.71a2.724,2.724,0,0,1,.869-1.219,2.689,2.689,0,0,1,1.9-.593,2.269,2.269,0,0,1,1.966,1.581" transform="translate(-453.224 -144.883)" fill="none" stroke="#1d0006" stroke-linecap="round" stroke-linejoin="round" stroke-width="1.257"/>
                </g>
                <path id="Path_19031" data-name="Path 19031" d="M464.193,152.76l-.526,1.456,1.058.475" transform="translate(-457.193 -141.025)" fill="none" stroke="#1d0006" stroke-linecap="round" stroke-linejoin="round" stroke-width="0.611"/>
                <path id="Path_19032" data-name="Path 19032" d="M464.73,160.982s-.058-.643,1.025-.962a13.379,13.379,0,0,1,4.211-.171A9.6,9.6,0,0,1,464.73,160.982Z" transform="translate(-457.736 -144.598)" fill="#dc3d82"/>
                <path id="Path_19033" data-name="Path 19033" d="M464.092,160.883s2.356.582,5.806-1.244" transform="translate(-457.41 -144.539)" fill="none" stroke="#1d0006" stroke-linecap="round" stroke-linejoin="round" stroke-width="0.611"/>
                <path id="Path_19034" data-name="Path 19034" d="M468.587,163.237c.021.129-.294.287-.7.354s-.758.016-.779-.112.294-.288.7-.354S468.566,163.108,468.587,163.237Z" transform="translate(-458.949 -146.305)" fill="#d9699f"/>
              </g>
              <path id="Path_19035" data-name="Path 19035" d="M494.745,133.641a8,8,0,0,1-1.895-6.3,9.78,9.78,0,0,1,3.513-6.878l4.556,7.848Z" transform="translate(-468.936 -101.485)" fill="#412c36"/>
              <g id="Group_17976" data-name="Group 17976" transform="translate(24.436 27.089)">
                <g id="Group_17975" data-name="Group 17975" transform="translate(0 0)">
                  <circle id="Ellipse_488" data-name="Ellipse 488" cx="4.154" cy="4.154" r="4.154" transform="translate(0 3.449) rotate(-24.533)" fill="#e7b38e"/>
                  <path id="Path_19036" data-name="Path 19036" d="M504.634,145.825s-2.3-.155-2.991,2.844" transform="translate(-497.894 -141.527)" fill="none" stroke="#1d0006" stroke-linecap="round" stroke-linejoin="round" stroke-width="0.611"/>
                </g>
                <path id="Path_19037" data-name="Path 19037" d="M505.288,160.569a4.469,4.469,0,0,0,.749-8.467l-.181.426a4.005,4.005,0,1,1-4.29.745l-.315-.339a4.469,4.469,0,0,0,4.036,7.636Z" transform="translate(-496.962 -144.734)" fill="#e69624"/>
              </g>
              <path id="Path_19038" data-name="Path 19038" d="M475.342,117.766s-8.234,2.774-16.189.7a8.085,8.085,0,0,0-2.788-.28,3,3,0,0,0-1.918.8s3.428-7,14.353-7.344S475.342,117.766,475.342,117.766Z" transform="translate(-449.347 -96.97)" fill="#412c36"/>
              <g id="Group_17977" data-name="Group 17977" transform="translate(15.946 53.085)">
                <path id="Path_19039" data-name="Path 19039" d="M485.3,196.371l4.164,4.379,6.128-6.148-5.271-1.516Z" transform="translate(-481.054 -191.668)" fill="#e7b38e"/>
                <path id="Path_19040" data-name="Path 19040" d="M493.812,199.269l5.662-7.32-.722-1.762,6.284,1.56-4.626,10.538Z" transform="translate(-485.403 -190.187)" fill="#e27cae"/>
                <path id="Path_19041" data-name="Path 19041" d="M485.03,202.141l-4.747,3.7-3.661-7.352,3.828-2.682.416,1.954Z" transform="translate(-476.621 -193.058)" fill="#e27cae"/>
              </g>
            </g>
          </g>
        </g>
      </g>
    </g>
  </g>
</svg>
