<svg width="47" height="51" viewBox="0 0 47 51" fill="none" xmlns="http://www.w3.org/2000/svg">
<path d="M5.09253 29.4022H10.7357C11.3132 29.4022 11.7814 29.8704 11.7814 30.4479V48.2487C11.7814 48.8263 11.3132 49.2945 10.7356 49.2945L5.09261 49.2945C4.51507 49.2945 4.04688 48.8263 4.04688 48.2488V30.4479C4.04688 29.8704 4.51503 29.4022 5.09253 29.4022Z" fill="url(#paint0_linear_1_3522)"/>
<path d="M42.5458 23.5667H32.0782L32.1037 23.4824L32.541 22.0764L32.9665 20.7096L34.239 16.6171L34.8587 14.6208C34.8916 14.5178 34.9191 14.413 34.941 14.3071C34.943 14.3051 34.943 14.3051 34.941 14.3031C35.0004 14.04 35.03 13.7709 35.0293 13.5011C35.0294 13.2808 35.0097 13.061 34.9705 12.8442C34.6907 11.2602 33.4365 10.0282 31.8477 9.77683C30.2589 9.52546 28.6857 10.3101 27.9306 11.7304L17.7454 27.7318C16.8917 29.1385 15.7085 30.3163 14.298 31.1635C14.2964 31.165 14.2943 31.1657 14.2921 31.1655C13.8581 31.4094 13.5885 31.8677 13.5862 32.3656V47.9101C13.5854 48.5036 13.9673 49.0299 14.5318 49.2132C14.563 49.2233 14.5946 49.2323 14.6268 49.2402C14.7209 49.2631 19.4745 50.1418 19.4745 50.1418L22.3612 50.4698C23.371 50.5846 24.3865 50.6421 25.4028 50.6421H38.0396C39.9776 50.6421 41.6492 49.2814 42.0425 47.3838L46.1578 27.5278C46.1577 24.7315 43.8479 23.7177 42.5458 23.5667Z" fill="url(#paint1_linear_1_3522)"/>
<path d="M17.8098 11.8098C13.8545 10.6935 10.7634 7.60231 9.64709 3.64704C9.61765 3.54274 9.52248 3.4707 9.4141 3.4707C9.30572 3.4707 9.21055 3.54274 9.18111 3.64704C8.06483 7.6023 4.97365 10.6935 1.01838 11.8098C0.914077 11.8392 0.842042 11.9344 0.842041 12.0428C0.842041 12.1511 0.914077 12.2463 1.01838 12.2757C4.97365 13.392 8.06484 16.4832 9.18112 20.4385C9.21058 20.5427 9.30575 20.6147 9.41411 20.6147C9.52247 20.6147 9.61763 20.5427 9.6471 20.4385C10.7634 16.4832 13.8546 13.392 17.8098 12.2757C17.9141 12.2463 17.9861 12.1511 17.9861 12.0428C17.9861 11.9344 17.9141 11.8392 17.8098 11.8098Z" fill="url(#paint2_linear_1_3522)"/>
<path d="M34.4538 6.04769C37.1501 6.80869 39.2574 8.91597 40.0184 11.6123C40.0384 11.6834 40.1033 11.7325 40.1772 11.7325C40.2511 11.7325 40.3159 11.6834 40.336 11.6123C41.0971 8.91598 43.2044 6.80866 45.9007 6.04769C45.9719 6.02763 46.021 5.96275 46.021 5.88886C46.021 5.81498 45.9719 5.7501 45.9007 5.73003C43.2043 4.96913 41.0969 2.86181 40.3359 0.165387C40.3158 0.0942767 40.2509 0.045166 40.177 0.045166C40.1031 0.045166 40.0382 0.0942769 40.0182 0.165388C39.2572 2.86169 37.15 4.96898 34.4538 5.73C34.3826 5.75005 34.3335 5.81494 34.3335 5.88885C34.3335 5.96275 34.3826 6.02764 34.4538 6.04769Z" fill="url(#paint3_linear_1_3522)"/>
<defs>
<linearGradient id="paint0_linear_1_3522" x1="42.7624" y1="8.20129" x2="-2.76496" y2="8.20129" gradientUnits="userSpaceOnUse">
<stop stop-color="#971734"/>
<stop offset="0.384861" stop-color="#DD171E"/>
<stop offset="0.631716" stop-color="#4C184E"/>
<stop offset="1" stop-color="#4C184E"/>
</linearGradient>
<linearGradient id="paint1_linear_1_3522" x1="176.625" y1="-33.8728" x2="-15.0998" y2="-33.8728" gradientUnits="userSpaceOnUse">
<stop stop-color="#971734"/>
<stop offset="0.384861" stop-color="#DD171E"/>
<stop offset="0.631716" stop-color="#4C184E"/>
<stop offset="1" stop-color="#4C184E"/>
</linearGradient>
<linearGradient id="paint2_linear_1_3522" x1="86.6573" y1="-14.8011" x2="-14.2568" y2="-14.8011" gradientUnits="userSpaceOnUse">
<stop stop-color="#971734"/>
<stop offset="0.384861" stop-color="#DD171E"/>
<stop offset="0.631716" stop-color="#4C184E"/>
<stop offset="1" stop-color="#4C184E"/>
</linearGradient>
<linearGradient id="paint3_linear_1_3522" x1="92.8356" y1="-12.411" x2="24.0403" y2="-12.411" gradientUnits="userSpaceOnUse">
<stop stop-color="#971734"/>
<stop offset="0.384861" stop-color="#DD171E"/>
<stop offset="0.631716" stop-color="#4C184E"/>
<stop offset="1" stop-color="#4C184E"/>
</linearGradient>
</defs>
</svg>
