<svg id="Iconly_Light-outline_Upload" data-name="Iconly/Light-outline/Upload" xmlns="http://www.w3.org/2000/svg" width="17.763" height="15.2" viewBox="0 0 17.763 15.2">
  <g id="Upload" transform="translate(0 15.2) rotate(-90)">
    <path id="Upload-2" data-name="Upload" d="M3.282,17.763C1.521,17.763.084,16.1,0,14.009l0-.185V3.939C0,1.826,1.387.1,3.127,0l.155,0H6.89c1.761,0,3.2,1.664,3.279,3.754l0,.185v.828a.618.618,0,0,1-.555.667.6.6,0,0,1-.55-.576l-.005-.091V3.939a2.452,2.452,0,0,0-2.044-2.6l-.128,0H3.282A2.39,2.39,0,0,0,1.114,3.786l0,.153v9.885a2.452,2.452,0,0,0,2.044,2.6l.128,0H6.9a2.382,2.382,0,0,0,2.162-2.444l0-.153V13a.619.619,0,0,1,.556-.666.6.6,0,0,1,.55.576l0,.09v.838a3.689,3.689,0,0,1-3.116,3.925l-.159,0Zm8.8-5.822a.768.768,0,0,1-.052-.867L12.086,11,13.3,9.547H5.733a.618.618,0,0,1-.555-.666.638.638,0,0,1,.48-.66l.075-.006H13.3L12.087,6.765a.768.768,0,0,1-.056-.867l.054-.075a.489.489,0,0,1,.723-.066l.062.064,2.168,2.589A.722.722,0,0,1,15.2,8.8h0V8.83h0q0,.025,0,.051h0s0,.009,0,.013v.056a.765.765,0,0,1-.054.224h0l0,.011,0,.009,0,0-.006.012h0l-.006.012h0l-.006.012h0l-.006.011v0l-.006.01,0,0,0,.008,0,0v0h0a.645.645,0,0,1-.067.09l-2.154,2.574a.492.492,0,0,1-.785,0Z" fill="#fff"/>
  </g>
</svg>
