<svg width="1042" height="1299" viewBox="0 0 1042 1299" fill="none" xmlns="http://www.w3.org/2000/svg">
<path d="M987.256 916.161C971.083 926.304 954.066 936.649 936.57 946.865C927.819 951.978 918.996 957.133 910.14 962.307C901.226 967.391 892.285 972.491 883.354 977.584C865.592 987.9 847.619 997.756 830.354 1007.79C821.761 1012.87 813.122 1017.67 804.732 1022.53C796.338 1027.4 788.157 1032.28 780.24 1037.17C819.979 1017.74 866.191 992.847 904.046 972.145C941.947 951.508 971.994 935.7 980.027 935.114C996.16 933.899 878.072 998.289 816.895 1031.17C825.455 1027.4 825.531 1027.49 833.994 1023.63C825.525 1027.49 816.874 1031.14 810.228 1035.73C827.52 1028.48 859.307 1011.97 869.765 1008.87L856.63 1018.26C878.909 1009.02 909.012 993.337 938.925 977.515C968.821 961.648 998.406 945.626 1020.11 935.687C968.85 961.603 913.73 991.793 854.696 1022.95C795.669 1054.06 732.466 1086.04 665.139 1114.49L652.539 1119.89L646.214 1122.59L639.658 1125.14L626.518 1130.24C622.159 1131.99 617.641 1133.4 613.204 1135L599.803 1139.63L586.228 1143.83C577.208 1146.78 567.991 1149.07 558.827 1151.6C522.067 1161.35 484.392 1167.55 447.119 1170.86C428.452 1172.6 409.943 1173.17 391.574 1173.37C373.305 1173.18 355.139 1172.65 337.46 1170.97C302.036 1167.82 267.94 1161.89 236.351 1153.05C200.839 1143.51 167.493 1131.45 137.323 1116.6C107.122 1101.8 79.7031 1084.67 55.3993 1065.58C49.5472 1060.65 43.5021 1055.87 37.8808 1050.82C35.1103 1048.27 32.3471 1045.72 29.5869 1043.18L25.4473 1039.36L21.5641 1035.39C16.3924 1030.09 11.1206 1024.88 6.43749 1019.29C4.02075 1016.53 1.61013 1013.79 -0.796509 1011.04C-3.10358 1008.14 -5.31847 1005.09 -7.57104 1002.11L-10.9311 997.613L-13.9224 992.936C-15.8879 989.804 -17.9268 986.707 -19.7995 983.528C-23.1651 976.981 -26.852 970.567 -29.4227 963.674C-32.4663 956.963 -34.4336 949.877 -36.6033 942.85C-37.4982 939.289 -38.1971 935.672 -38.9784 932.074C-39.8485 928.491 -40.2822 924.827 -40.7032 921.156C-42.1173 910.104 -41.426 890.586 -36.1491 869.318C-31.1114 848.015 -21.3069 825.372 -11.392 807.304C-3.20894 791.043 6.25585 775.739 14.7684 761.442C23.6927 746.757 32.4715 732.767 40.1236 719.255C47.7639 705.784 54.2865 692.855 58.315 680.982C62.2657 669.123 63.6513 658.497 62.3309 649.042C61.3938 638.8 57.901 629.655 51.577 619.877L46.1427 612.266L39.9867 604.337C37.9633 601.674 35.5921 599.511 33.4522 597.054C31.408 594.635 28.7838 592.325 26.3226 589.974C6.55941 571.119 -20.5641 553.557 -48.6748 533.428C-62.7514 523.387 -77.1862 512.388 -90.858 499.886C-94.2941 496.777 -97.7229 493.653 -100.937 490.169L-105.834 485.076L-108.271 482.517L-110.564 479.766C-113.577 476.041 -116.682 472.484 -119.568 468.571C-122.317 464.475 -125.075 460.373 -127.837 456.257C-130.294 451.932 -132.428 447.366 -134.658 442.888C-136.582 438.348 -138.203 433.748 -139.923 429.144C-141.244 424.421 -142.561 419.669 -143.659 414.87C-144.415 410.016 -145.434 405.155 -145.848 400.244C-147.808 380.563 -145.731 360.666 -141.786 341.694C-138.655 326.461 -131.08 309.657 -127.107 305.39C-125.12 303.216 -124.003 304.11 -124.563 309.858C-124.872 312.704 -125.537 316.831 -126.61 322.49C-127.193 325.285 -127.804 328.506 -128.475 332.167C-129.199 335.798 -129.998 339.853 -130.702 344.438C-133.002 359.503 -134.086 375.087 -132.716 390.607C-131.352 406.106 -127.566 421.511 -120.914 435.707C-119.241 439.284 -117.241 442.79 -115.386 446.313L-113.957 448.951L-112.245 451.399L-108.802 456.29L-105.333 461.163C-104.188 462.803 -102.828 464.186 -101.586 465.707C-99.0217 468.673 -96.5257 471.702 -93.8936 474.594C-83.1 485.951 -71.2617 496.123 -59.1406 505.678C-61.107 504.995 -63.9273 503.24 -67.2531 500.888C-68.914 499.714 -70.6984 498.386 -72.5704 496.965C-74.3998 495.486 -76.2685 493.845 -78.1907 492.196C-80.105 490.539 -82.0658 488.849 -83.9987 487.172C-85.9366 485.495 -87.7097 483.638 -89.5229 481.97C-93.0627 478.543 -96.5961 475.638 -99.2289 473.124C-84.5795 491.114 -68.2995 504.769 -52.0512 517.21C-35.7374 529.617 -19.0772 540.709 -2.10607 552.553C-24.744 536.736 -49.719 521.055 -73.2676 501.893C-43.9457 525.938 -10.4328 545.56 17.3461 567.251C20.9365 569.925 24.2008 572.682 27.4504 575.445L32.3474 579.59L36.8523 583.846L41.3847 588.098L45.4253 592.496L49.5106 596.876L53.2331 601.697L56.9849 606.517L60.3211 611.249L63.7001 615.961C64.343 616.748 64.7161 617.522 65.0884 618.29L66.2684 620.596L68.715 625.182C69.674 626.682 69.8712 628.325 70.5195 629.882L72.2347 634.588C72.7678 636.169 72.8596 637.828 73.2312 639.436C74.9492 649.024 72.2056 658.54 67.6563 669.324C63.1968 680.166 57.341 692.368 50.8335 709.807C63.7758 688.837 72.8743 669.075 74.1038 651.11L74.3551 644.387C74.1749 642.193 73.8146 640.029 73.6128 637.828C73.4539 636.736 73.4862 635.605 73.1944 634.533L72.2744 631.324C71.5914 629.193 71.2714 626.98 70.3873 624.866L67.5238 618.533C66.9891 617.466 66.7631 616.405 65.9924 615.318L63.9021 612.074L59.764 605.539L55.0588 598.889L52.7023 595.555C51.8767 594.485 50.959 593.507 50.0986 592.476L44.8603 586.344C42.9813 584.335 40.9319 582.376 38.9769 580.383C37.0209 578.394 35.067 576.397 32.811 574.493L26.2926 568.696C24.0857 566.769 21.6554 564.9 19.3446 563.003C14.7801 559.193 9.70318 555.489 4.77648 551.752C-15.3171 536.864 -37.648 522.244 -59.1406 505.678C-58.9357 505.751 -58.6993 505.853 -58.5321 505.88C-77.8253 491.108 -95.1724 475.029 -108.48 455.637C-110.128 453.186 -111.834 450.778 -113.392 448.283L-117.413 440.382L-119.391 436.418L-120.977 432.371L-124.054 424.236C-127.334 413.124 -129.848 401.636 -130.245 389.771C-129.834 393.421 -129.633 397.112 -128.993 400.731C-128.304 404.337 -127.625 407.928 -126.948 411.462C-125.988 414.936 -125.048 418.356 -124.123 421.69C-123.291 425.049 -121.904 428.135 -120.942 431.232C-126.688 414.993 -128.955 397.708 -128.311 380.662C-127.703 363.586 -124.383 346.806 -119.983 330.679C-115.567 314.533 -110.101 298.974 -104.784 283.848L-97.0956 261.76C-96.4117 259.945 -95.9895 258.24 -95.5703 256.538L-94.2486 251.406L-92.9077 246.274C-92.484 244.554 -92.2042 242.772 -91.8437 241.023C-92.3046 246.026 -93.4582 250.795 -94.3303 255.704L-95.0262 259.376C-95.3301 260.633 -95.7286 261.925 -96.0804 263.201L-98.2699 270.92C-101.501 281.8 -104.751 292.746 -108.025 303.748C-111.236 314.975 -114.316 326.429 -116.786 338.145C-119.14 349.89 -120.811 361.868 -121.315 373.948C-121.616 386.04 -120.533 398.146 -117.925 409.964C-115.071 421.752 -110.524 432.981 -104.481 443.868C-91.4727 465.085 -73.2924 482.188 -53.9553 497.641C-34.5758 513.059 -13.9204 526.462 5.3897 540.169C24.7162 553.816 42.9931 567.586 57.119 582.992L62.372 588.771C64.0468 590.762 65.5423 592.907 67.1435 594.96C70.4303 599.097 73.1648 603.254 76.0255 607.379L78.1749 610.47C78.7723 611.511 79.2326 612.569 79.7713 613.612L82.9436 619.876C83.5606 620.896 83.8749 621.992 84.2145 623.082L85.2794 626.333L86.3706 629.574C86.7855 630.642 87.1158 631.728 87.2219 632.866C87.9059 637.345 89.0315 641.735 88.8058 646.383L88.906 649.819C88.9912 650.956 88.9792 652.109 88.7783 653.292L88.0186 660.333C86.3886 669.812 83.7709 679.474 79.4607 689.316C82.6775 683.869 84.84 678.24 87.1755 672.401C87.9836 669.516 88.8034 666.59 89.6334 663.636C90.1229 662.144 90.2814 660.688 90.4803 659.221L91.0837 654.794C92.3593 642.988 90.586 631.329 86.1963 620.539C81.4219 609.939 74.072 599.895 66.8727 590.192C65.227 587.685 63.161 585.578 61.3647 583.332C59.4713 581.139 57.8713 578.865 55.9353 576.795C52.0372 572.664 48.8086 568.443 45.2322 564.657C52.7215 571.083 59.5076 577.85 65.6402 584.902C67.2942 586.589 68.6354 588.521 70.0519 590.392L74.2862 596.021C77.0145 599.787 79.4433 603.59 82.0547 607.365C91.4731 622.462 94.8942 639.293 92.3923 656.983C91.4521 665.792 88.3309 674.898 84.9225 684.015C80.9305 693.19 76.4676 702.408 70.9575 711.717C60.211 730.336 47.2167 749.157 34.4568 768.642C37.866 762.805 41.162 756.993 44.2763 751.317C40.0566 757.141 35.8053 763.219 31.6713 769.266C27.5877 775.388 23.5802 781.391 19.5322 787.866C11.2859 800.513 4.1921 814.114 -1.94407 827.696C-8.07292 841.345 -12.5748 855.33 -16.05 869.238C-19.3093 883.189 -20.8698 897.069 -21.3337 910.633C-21.239 915.462 -21.2401 920.264 -21.0028 925.105C-21.2096 920.335 -21.2097 915.472 -21.3337 910.633C-20.4801 885.695 -14.3683 860.6 -4.0389 836.726C-1.38164 830.771 1.15535 824.802 4.2781 818.993C5.78453 816.076 7.21382 813.142 8.79184 810.253L13.7135 801.658C16.8785 795.868 20.5897 790.436 24.0314 784.851C27.5142 779.44 30.9873 774.035 34.4568 768.642C28.5492 778.788 22.4573 789.24 15.971 800.376C12.835 806.11 9.44906 811.977 6.46263 818.224C3.1981 824.395 0.359881 830.925 -2.66517 837.733C4.95571 823.184 16.5155 802.358 30.0706 782.837C38.0989 769.994 46.5228 757.168 54.7422 744.579C62.9018 731.996 70.7424 719.536 77.6822 707.158C67.3633 726.376 54.9395 745.582 43.3738 764.764C31.9894 783.81 20.5712 803.042 12.7694 822.016C19.7825 808.013 28.6099 794.33 37.3271 780.897C45.9463 767.473 55.0996 754.102 63.7588 740.78C72.4663 727.457 80.8557 714.133 87.6718 700.69C94.529 687.269 99.9445 673.722 102.603 660.314C100.24 675.036 94.3699 689.949 86.9338 704.652C79.4759 719.376 70.5179 733.954 61.3453 748.542C53.2519 760.675 45.0697 772.925 37.1925 785.242L31.2855 794.586C29.2775 797.691 27.3537 800.828 25.588 804.025L20.1371 813.576L15.2032 823.27C8.86867 836.238 3.2696 849.457 -0.464686 862.882C-4.35983 876.276 -7.00817 889.857 -7.49703 903.303C-7.4597 901.261 -7.42397 899.196 -7.3899 897.156C-7.52451 901.246 -7.78431 905.347 -7.78228 909.404C-7.91224 930.364 -3.6178 950.88 4.71954 969.924C6.41693 974.27 8.96057 978.239 11.2224 982.296C13.4029 986.396 16.2871 990.145 18.9955 993.943C20.3962 995.814 21.6642 997.769 23.2004 999.536L27.7912 1004.83C30.9401 1008.3 33.7828 1011.92 37.2236 1015.18C39.2764 1017.56 41.3181 1019.93 43.3518 1022.28C38.7108 1018.25 36.0154 1016.51 43.0396 1025.49C58.1669 1044.59 78.0497 1062.16 100.981 1078.24C124.002 1094.3 149.981 1108.89 177.828 1122.89C185.009 1126.72 194.292 1130.25 204.431 1134.14C209.676 1135.86 215.152 1137.65 220.795 1139.5C226.449 1141.33 232.557 1142.81 238.629 1144.51C244.782 1147.04 248.611 1147.48 252.049 1147.81C257.456 1148.97 262.797 1150.41 268.375 1151.4C275.096 1152.75 281.72 1154.31 288.527 1155.44C295.37 1156.51 302.139 1157.67 309.001 1158.42C302.297 1157.45 295.58 1156.25 288.727 1155.2C281.901 1154.1 275.193 1152.64 268.375 1151.4C263.304 1150.42 258.499 1149.04 253.58 1147.92C257.303 1148.14 261.146 1148.49 268.51 1150.08C177.682 1128.77 97.1215 1083.94 43.3518 1022.28C47.0415 1025.68 52.6257 1030.28 55.0402 1032.12C48.6937 1026.76 43.0069 1020.97 37.2236 1015.18C32.8914 1010.2 29.1492 1004.88 25.0746 999.746C22.9886 997.211 21.4048 994.353 19.5457 991.671C17.8343 988.909 15.7786 986.303 14.3367 983.413L9.65685 974.904C8.01164 972.104 6.94691 969.06 5.55916 966.146C2.69356 960.347 0.918509 954.15 -1.25578 948.089C0.181908 951.663 1.63677 955.083 3.10382 958.298C4.54032 961.519 6.53371 964.345 8.20885 967.03C1.06176 950.292 -3.06677 932.378 -3.69813 913.892C-4.3694 895.407 -1.5612 876.414 4.1044 857.606C9.75451 838.787 18.189 820.166 28.4334 802.012C38.9211 783.908 50.1448 766.24 61.3453 748.542C72.2418 732.111 82.9009 715.741 91.3762 699.073C99.8159 682.447 106.081 665.378 106.971 648.637C108.037 631.901 103.74 615.828 95.4142 601.464L88.4966 590.94L80.9992 580.657C78.383 577.293 75.3839 574.159 72.5893 570.902C69.7892 567.645 66.4413 564.722 63.3899 561.613C69.7788 568.452 75.7932 575.568 81.103 583.159C83.6319 587.02 86.4283 590.788 88.7273 594.76C89.93 596.722 91.1379 598.683 92.3519 600.652L94.1737 603.597L95.5409 606.706C103.585 623.018 106.164 641.413 102.603 660.314C104.79 647.729 103.674 635.479 100.328 623.922C97.3208 612.209 90.1891 601.851 82.7564 591.583C75.3034 581.19 66.3681 571.859 56.6048 562.887C46.5417 554.113 35.9649 545.657 24.6603 537.618C2.32181 521.38 -21.7066 506.084 -43.3009 488.476C-54.2484 479.801 -64.1445 470.209 -73.23 460.131C-77.4084 454.849 -81.8848 449.767 -85.2973 444.026L-88.0214 439.832L-89.3669 437.727L-90.4364 435.491L-94.6388 426.54C-93.2043 428.517 -91.7053 430.585 -90.1673 432.711C-88.6252 434.814 -87.2225 437.045 -85.2395 439.014C-81.448 443.025 -78.0631 447.321 -73.8323 450.828C-69.8174 454.461 -66.0027 457.9 -61.9897 460.533C-58.0614 463.222 -54.7254 465.585 -51.4814 466.938C-51.0569 466.184 -56.4778 459.58 -60.198 454.93C-62.0449 452.592 -63.165 450.572 -63.2237 450.141C-63.1927 449.664 -62.1327 450.795 -58.5739 454.183C-45.3767 466.365 -31.4153 476.532 -18.2015 485.767C-4.97173 494.992 7.55966 503.214 19.1154 510.682C42.2898 525.544 60.9701 537.421 77.5697 544.702C79.3656 545.218 77.1356 541.651 73.0557 536.208C71.0525 533.426 68.3852 530.479 65.6172 527.24C64.217 525.631 62.7803 523.982 61.3365 522.32C59.8617 520.722 58.3817 519.114 56.9312 517.542C51.1269 511.15 45.7942 505.503 43.494 502.213C41.1894 498.939 41.9079 498.121 48.1509 501.828C58.194 508.227 72.3689 517.637 88.0545 530.286C90.0087 531.877 91.9989 533.502 94.0197 535.148C96.0072 536.856 97.956 538.702 99.955 540.52C101.949 542.355 103.968 544.216 106.016 546.097C107.986 548.074 109.904 550.169 111.876 552.244C113.817 554.332 115.85 556.435 117.754 558.59C119.487 560.785 121.24 562.996 123.002 565.226C126.554 569.566 129.99 574.502 133.432 579.44C134.357 580.892 135.293 582.351 136.232 583.819C137.156 585.309 137.885 587.099 138.723 588.735C140.316 592.096 141.922 595.488 143.546 598.909C144.902 602.472 145.964 606.23 147.147 609.948C147.683 611.829 148.369 613.665 148.764 615.612C149.083 617.586 149.408 619.566 149.736 621.555C149.782 623.593 151.129 626.746 152.3 630.89C152.442 638.032 152.988 645.193 151.84 652.218C151.356 655.716 151.191 659.28 150.351 662.667C149.549 666.067 148.75 669.445 147.959 672.788C147.256 676.186 145.95 679.285 144.93 682.48C143.799 685.615 142.856 688.848 141.555 691.796C138.955 697.671 136.629 703.645 133.797 708.875C122.936 730.374 111.901 746.835 104.232 758.405C98.5845 766.743 92.9988 774.995 87.4197 783.232C84.1187 787.396 81.0553 790.888 78.2676 793.504C75.7462 798.911 73.4263 803.829 70.7227 808.931C58.2039 829.396 48.7672 849.831 43.4189 869.847C39.7501 880.951 37.2745 892.028 36.1211 902.978C36.8881 902.646 37.9864 900.782 38.6585 902.744C38.4354 927.008 45.0451 950.186 58.2324 971.161C59.3647 973.373 60.4418 975.563 61.4628 977.737C62.5479 979.909 63.915 982.068 65.0278 984.188C67.4127 988.41 69.2319 992.654 71.3833 996.489C83.4318 1006.2 100.495 1023.61 121.955 1040.66C143.333 1057.74 169.255 1074.26 193.087 1085.06L193.175 1084.86C216.657 1096.21 242.12 1105.73 269.328 1113.12C273.547 1114.76 277.52 1116.43 281.188 1118.13C288.535 1118.94 295.915 1120.34 299.574 1120.69C321.722 1125.83 340.917 1129.47 360.613 1132.37C364.449 1132.16 371.926 1130.89 379.719 1131.33C387.54 1131.72 395.292 1131.94 402.944 1132.06C410.652 1131.91 418.221 1132 425.768 1131.58C434.597 1131.25 443.466 1131.08 452.449 1130.3C456.933 1129.95 461.426 1129.79 465.946 1129.28C470.472 1128.8 475.005 1128.33 479.552 1127.85C510.183 1124.42 540.677 1118.64 570.491 1110.52C577.895 1108.33 585.397 1106.44 592.726 1104.05L603.734 1100.5C607.414 1099.34 611.073 1098.14 614.668 1096.77L625.524 1092.84L630.956 1090.87L636.495 1088.63C643.883 1085.65 651.266 1082.67 658.639 1079.69C660.815 1079.46 661.663 1079.98 662.536 1080.49C666.827 1078.08 672.25 1075.69 677.588 1073.41C682.883 1071.02 688.023 1068.6 691.889 1066.49C690.503 1067.45 689.707 1068.18 690.175 1068.44C715.774 1054.83 721.935 1054.53 745.587 1043.14C750.838 1040.45 755.284 1037.28 760.324 1034.47C762.919 1033.24 765.533 1032 768.166 1030.76C782.346 1025.37 795.708 1018.77 809.216 1011.73C822.728 1004.68 836.028 996.577 850.466 988.579C879.685 972.999 908.694 956.984 937.611 940.717C960.508 927.824 970.683 924.346 987.256 916.161Z" fill="#FECACA"/>
</svg>
