<svg id="_5.get_to_know" data-name="5.get to know" xmlns="http://www.w3.org/2000/svg" xmlns:xlink="http://www.w3.org/1999/xlink" width="467.469" height="424.005" viewBox="0 0 467.469 424.005">
  <defs>
    <linearGradient id="linear-gradient" x1="-0.238" y1="2.192" x2="-0.366" y2="1.147" gradientUnits="objectBoundingBox">
      <stop offset="0" stop-color="#ffb8a8"/>
      <stop offset="1" stop-color="#ff9696"/>
    </linearGradient>
    <linearGradient id="linear-gradient-2" x1="0.28" y1="1.983" x2="-0.011" y2="0.447" xlink:href="#linear-gradient"/>
    <linearGradient id="linear-gradient-3" x1="-5.413" y1="-12.864" x2="-5.413" y2="-11.003" xlink:href="#linear-gradient"/>
    <linearGradient id="linear-gradient-4" x1="-19.148" y1="-58.17" x2="-19.148" y2="-49.222" xlink:href="#linear-gradient"/>
    <linearGradient id="linear-gradient-5" x1="7.941" y1="-5.694" x2="9.455" y2="-5.025" xlink:href="#linear-gradient"/>
    <linearGradient id="linear-gradient-6" x1="8.185" y1="-5.149" x2="9.885" y2="-4.412" xlink:href="#linear-gradient"/>
    <linearGradient id="linear-gradient-7" x1="20.404" y1="0.548" x2="22.937" y2="1.56" xlink:href="#linear-gradient"/>
    <linearGradient id="linear-gradient-8" x1="7.08" y1="-4.589" x2="8.567" y2="-3.937" xlink:href="#linear-gradient"/>
    <linearGradient id="linear-gradient-9" x1="0.747" y1="-0.217" x2="2.4" y2="0.578" xlink:href="#linear-gradient"/>
    <linearGradient id="linear-gradient-10" x1="-0.111" y1="-0.978" x2="2.859" y2="-0.02" xlink:href="#linear-gradient"/>
    <linearGradient id="linear-gradient-11" x1="0.687" y1="0.863" x2="0.687" y2="-0.137" xlink:href="#linear-gradient"/>
    <linearGradient id="linear-gradient-12" x1="1.201" y1="0.26" x2="1.201" y2="-1.087" xlink:href="#linear-gradient"/>
    <linearGradient id="linear-gradient-13" x1="0.495" y1="-0.987" x2="0.495" y2="1.842" xlink:href="#linear-gradient"/>
  </defs>
  <g id="The_match" data-name="The match">
    <path id="Path_18666" data-name="Path 18666" d="M1832.007,237.437c-75.354-8.445-151.563-109.226-193.138-26.077s57.165,104.482,0,198.025-70.318,154.662,0,188.324,117.417-117.073,257.732-39.12,205.45-81.645,130.1-149.2,18.4-145.569-41.36-184.545S1907.361,245.882,1832.007,237.437Z" transform="translate(-1590.937 -178.687)" fill="#fecaca" opacity="0.4"/>
  </g>
  <g id="Group_18098" data-name="Group 18098" transform="translate(43.043 65.637)">
    <g id="Group_18062" data-name="Group 18062" transform="translate(19.367 43.84)">
      <path id="Path_19055" data-name="Path 19055" d="M69.048,246.725S34.362,245.09,32.038,208.42s43.392-42.436,52.814-66.54c5.159-13.2-27.658-4.61-26.341-36.219C61.28,39.218,251.938,34.929,253.853,53.055c.9,8.486-24.128,6.51-24.128,9.8s81.613,3.519,106.022,34.9c27.657,35.56-24.889,61.116-24.115,82.247s33.334,37.091,16.218,66.719Z" transform="translate(-21.016 -43.84)" fill="#fecaca"/>
      <path id="Path_19056" data-name="Path 19056" d="M46.832,186.351c-6.322,1.9-12.136,8.595-16.13,13.545a51.333,51.333,0,0,0-10.055,19.428,41.325,41.325,0,0,0-.023,20.316c1.525,5.907,4.745,13.51,10.442,16.458,1.007.521,2.277-.565,1.621-1.621-1.635-2.638-3.868-4.8-5.46-7.48a33,33,0,0,1-3.745-9.452,38.9,38.9,0,0,1,.528-19.261,50.846,50.846,0,0,1,9.805-18.116c3.953-4.827,9.7-8.484,13.236-13.53a.2.2,0,0,0-.22-.286Z" transform="translate(-19.367 -62.515)" fill="#fecaca"/>
      <path id="Path_19057" data-name="Path 19057" d="M385.124,102.42c6.059,8.683,10.881,18.741,9.373,29.586a38.034,38.034,0,0,1-5.088,13.94c-2.835,4.828-7.03,8.579-9.96,13.266-.692,1.107.725,2.634,1.85,1.85,8.594-5.982,15.035-18.6,16.289-28.848,1.431-11.7-3.59-22.2-11.17-30.792-.611-.693-1.833.226-1.294,1Z" transform="translate(-66.532 -51.354)" fill="#fecaca"/>
      <path id="Path_19058" data-name="Path 19058" d="M56.909,118.059c-.081-3.234-1.289-6.382-1.453-9.649a34.942,34.942,0,0,1,1.119-10.52A50.416,50.416,0,0,1,68.5,76.8,76.634,76.634,0,0,1,91.347,60a98.687,98.687,0,0,1,15.785-6.11c5.893-1.735,12-2.466,17.9-4.085a.93.93,0,0,0-.246-1.819c-11.85.037-24.763,4.823-35.255,10.062A77.74,77.74,0,0,0,65.3,76.324c-5.362,6.213-9.7,13.568-11.479,21.644-1.316,5.982-2.156,15.424,2.042,20.523a.616.616,0,0,0,1.043-.432Z" transform="translate(-23.742 -44.384)" fill="#fecaca"/>
      <path id="Path_19059" data-name="Path 19059" d="M75.8,62.08c4.525-3.131,8.78-6.593,13.712-9.092,5.436-2.755,11.085-3.5,16.691-5.533a.874.874,0,0,0-.231-1.709c-5.66-.248-12.008,2.49-16.987,4.975-5.275,2.632-10.294,5.94-13.856,10.687-.295.392.281.942.672.672Z" transform="translate(-26.664 -44.088)" fill="#fecaca"/>
    </g>
    <path id="Path_19194" data-name="Path 19194" d="M146.817,0C227.9,0,293.635,2.359,293.635,5.268S227.9,10.536,146.817,10.536,0,8.178,0,5.268,65.732,0,146.817,0Z" transform="translate(39.772 241.974)" fill="#3d3c3c"/>
    <g id="Group_18064" data-name="Group 18064" transform="translate(189.962 192.492)">
      <path id="Path_19060" data-name="Path 19060" d="M233.309,239.877c2.967-2.581-4.186-1.257-3.742-4.516.58-4.258,9.484-2,9.87-7.677s-9.935-3.87-10.58-8.258c-.62-4.214,5.032-4.516,5.032-4.516s-3.935,1.767-2.451,4.258c2,3.355,13.742.58,14.258,9.1s-12.558,6.575-12.645,7.483C232.923,237.1,239.051,237.425,233.309,239.877Z" transform="translate(-217.409 -214.91)" fill="#fff"/>
      <g id="Group_18063" data-name="Group 18063" transform="translate(0 26.128)">
        <path id="Path_19061" data-name="Path 19061" d="M224.618,256.1c1.821-2.2-2.16-3.8-3.8-3.625a5.725,5.725,0,0,0-5.093,5.045c-.31,3,1.574,6.441,4.612,7.195a7.928,7.928,0,0,0,5.622-.941c1.423-.781.487-2.933-1.469-2.192a7.35,7.35,0,0,1-2.859.956c-2.278-.005-3.8-2.337-3.552-4.515a3.554,3.554,0,0,1,3-3.05,2.174,2.174,0,0,1,1.535.4c.518.362,1.372,1.5,2.006.729Z" transform="translate(-215.69 -245.959)" fill="#5b5b5b"/>
        <path id="Path_19062" data-name="Path 19062" d="M241.949,270.419H225.671a1.632,1.632,0,0,1-1.626-1.64c.155-7.959.17-15.668.017-23.068a.734.734,0,0,1,.742-.733h18.013a.733.733,0,0,1,.743.711c.111,6.773-.029,14.728.01,23.109A1.628,1.628,0,0,1,241.949,270.419Z" transform="translate(-216.785 -244.978)" fill="#5b5b5b"/>
        <path id="Path_19063" data-name="Path 19063" d="M245.145,245.689a.734.734,0,0,0-.743-.711H237a.734.734,0,0,1,.743.711c.111,6.773-.029,14.728.01,23.109a1.628,1.628,0,0,1-1.622,1.621h7.4a1.628,1.628,0,0,0,1.622-1.621C245.117,260.417,245.257,252.461,245.145,245.689Z" transform="translate(-218.369 -244.978)" fill="#5b5b5b" opacity="0.2" style="mix-blend-mode: multiply;isolation: isolate"/>
      </g>
    </g>
    <g id="Group_18081" data-name="Group 18081" transform="translate(79.081 98.283)">
      <g id="Group_18067" data-name="Group 18067" transform="translate(0 59.999)">
        <path id="Path_19064" data-name="Path 19064" d="M88.087,261.141H191.029V179.327a3.786,3.786,0,0,0-3.785-3.786H91.872a3.786,3.786,0,0,0-3.785,3.786Z" transform="translate(-88.087 -175.541)" fill="#b0abc6"/>
        <path id="Path_19065" data-name="Path 19065" d="M90.5,256.856H193.448V179.327a3.786,3.786,0,0,0-3.785-3.786H94.29a3.786,3.786,0,0,0-3.785,3.786Z" transform="translate(-88.404 -175.541)" fill="#50426e"/>
        <path id="Path_19066" data-name="Path 19066" d="M111.03,273.363H223.42l.109-5.922H111.03Z" transform="translate(-91.094 -187.584)" fill="#b0abc6"/>
        <path id="Path_19067" data-name="Path 19067" d="M157.688,273.363H267.977l-.1-5.922H157.589Z" transform="translate(-97.195 -187.584)" fill="#d0ccdc"/>
        <g id="Group_18065" data-name="Group 18065" transform="translate(26.97 81.784)">
          <rect id="Rectangle_4725" data-name="Rectangle 4725" width="5.491" height="1.974" transform="translate(11.108 0.247)" fill="#4e477a"/>
          <rect id="Rectangle_4726" data-name="Rectangle 4726" width="5.49" height="1.974" transform="translate(18.769 0.247)" fill="#4e477a"/>
          <path id="Path_19068" data-name="Path 19068" d="M121.039,270.893a.989.989,0,1,1-.958-1.234A1.123,1.123,0,0,1,121.039,270.893Z" transform="translate(-119.124 -269.659)" fill="#4e477a"/>
        </g>
        <path id="Path_19069" data-name="Path 19069" d="M196.626,269.823H239.2l-.038-2.382H196.588Z" transform="translate(-102.306 -187.584)" fill="#b0abc6"/>
        <g id="Group_18066" data-name="Group 18066" transform="translate(4.909 2.782)">
          <path id="Path_19070" data-name="Path 19070" d="M93.736,251.194h97.328V182.273a3.555,3.555,0,0,0-3.578-3.53H97.314a3.555,3.555,0,0,0-3.578,3.53Z" transform="translate(-93.736 -178.743)" fill="#fff"/>
          <path id="Path_19071" data-name="Path 19071" d="M93.736,187.309h97.328v-5.036a3.555,3.555,0,0,0-3.578-3.53H97.314a3.555,3.555,0,0,0-3.578,3.53Z" transform="translate(-93.736 -178.743)" fill="#ef3e37"/>
        </g>
      </g>
      <g id="Group_18080" data-name="Group 18080" transform="translate(23.532)">
        <path id="Path_19072" data-name="Path 19072" d="M139.208,119.668c.081-10.775,9.294-14.034,18.755-11.062,4.452,1.4,8.91,3.736,13.695,2.434.589-.16.336-1.009-.249-.9-9.007,1.652-17.223-6.672-26.255-2.423-4.15,1.952-8.35,7.193-6.358,12.009a.211.211,0,0,0,.412-.056Z" transform="translate(-118.197 -106.493)" fill="#936466"/>
        <path id="Path_19073" data-name="Path 19073" d="M135.36,114.231a5.108,5.108,0,0,0,1.185,4.051,7.186,7.186,0,0,0,1.987,2.051.47.47,0,0,0,.567-.734c-.484-.554-1.105-1-1.6-1.559a7.063,7.063,0,0,1-1.93-3.809c-.015-.11-.186-.1-.211,0Z" transform="translate(-117.802 -107.497)" fill="#936466"/>
        <path id="Path_19074" data-name="Path 19074" d="M171.349,121.108a19.747,19.747,0,0,1,6.126,2.021c-.135-3.623-4.054-8.522-6.853-8.148,0,0,4.156-3.037,3.5-6.2-1.382,1.355-6.545,1.964-10.238,1.636-4.351-.386-11.34-2.949-17.572-.991-4.711,1.481-8.014,5.2-7.988,9.235l.029.043c-5.83,2.97-6.484,10.281-2.626,20.612,4.58,12.266,12.931,14.366,12.931,14.366l7.1-19.281s13.531-7.616,13.428-9.647c.571,3.413,1.051,6.86,3.586,9.6C171.921,128.474,175.561,125.424,171.349,121.108Z" transform="translate(-117.544 -106.782)" fill="#936466"/>
        <path id="Path_19075" data-name="Path 19075" d="M171.355,122.276a20.437,20.437,0,0,1,5.906,1.9c-3.255-6.219-15.555-9.4-24.825-3.279a5.9,5.9,0,0,0-2.975,5.03,4,4,0,0,0-2.785,1.63c-1.26,1.44-3.555,6.39-9.022,5.445a5.135,5.135,0,0,1-4.3-3.46,33.165,33.165,0,0,0,2.382,10.941c4.58,12.266,12.931,14.366,12.931,14.366l3.568-9.681L150.619,127.7l9.293,5.435s9.287-7.095,9.282-7.209c.571,3.413,1.051,6.86,3.586,9.6C171.928,129.641,175.567,126.592,171.355,122.276Z" transform="translate(-117.55 -107.95)" fill="#65436d" opacity="0.2" style="mix-blend-mode: multiply;isolation: isolate"/>
        <path id="Path_19076" data-name="Path 19076" d="M176.013,250.416h-55.3c2.358-22.307-4.886-58.321,7.533-69.662,6.3-5.751,24.342-8.805,28.887-8.874,5.117-.077,9.52,3.8,12.893,6.174,4.117,2.9,7.6,8.723,6.844,18.9C176.2,205.948,173.436,227.463,176.013,250.416Z" transform="translate(-115.894 -115.062)" fill="#e7dffa"/>
        <path id="Path_19077" data-name="Path 19077" d="M176.325,206.679c-5.956,3.5-13.944,5.663-22.753,5.663-14.769,0-27.273-6.033-31.633-14.379-2.9,16.011.5,39.728-1.22,56.036h55.3C173.92,235.35,175.354,217.485,176.325,206.679Z" transform="translate(-115.895 -118.48)" fill="#c2bed3"/>
        <path id="Path_19078" data-name="Path 19078" d="M146.933,152.77s1.981,6.46,1.62,11.341a9.123,9.123,0,0,1-5.693,8.066s2.814,7.774,15.054,7.774c9.54,0,11.612-8.018,11.612-8.018-2.233-.779-5.988-2.03-6.553-5.221-.631-3.565,1.641-4.677,1.641-4.677L153.773,151.33Z" transform="translate(-118.797 -112.369)" fill="url(#linear-gradient)"/>
        <path id="Path_19079" data-name="Path 19079" d="M150.85,178.989c8.5-2.551,11.534-8.653,12.437-11.174a4.329,4.329,0,0,1-.315-.992c-.548-3.1,1.091-4.34,1.532-4.614l.028-.143-2.778-2.744-11.482-7.145-3.339.7s1.981,6.46,1.62,11.341a9.123,9.123,0,0,1-5.693,8.066S144.537,176.861,150.85,178.989Z" transform="translate(-118.797 -112.48)" fill="#d37a85"/>
        <path id="Path_19080" data-name="Path 19080" d="M145.518,141.166c1.106.618,1.728,2.927,3.273,2.5,1.906-.527-1.1-6.938.588-13.083.669-2.44,2.2-7.476,9.4-8.509,5.884-.845,10.544,1.088,12.745,6.544.75,1.86,1.29,7.354,1.266,14.439-.024,7.3-2.981,15.409-6.246,16.919a10.132,10.132,0,0,1-7.052.614c-3.721-1.2-7.66-3.822-11.325-10.778-3.988.791-6.356-1.794-6.683-4.39C141.147,142.743,142.6,140.075,145.518,141.166Z" transform="translate(-118.61 -108.51)" fill="url(#linear-gradient-2)"/>
        <path id="Path_19081" data-name="Path 19081" d="M146.894,148.047c.62,1.29.424,2.67-.437,3.084s-2.062-.3-2.682-1.585-.424-2.669.437-3.084S146.275,146.759,146.894,148.047Z" transform="translate(-118.869 -111.716)" fill="#d37a85"/>
        <g id="Group_18068" data-name="Group 18068" transform="translate(48.096 22.181)">
          <path id="Path_19082" data-name="Path 19082" d="M170.524,133.519c-.136.942,1.811.814,3.525,1.543,1.731.736,2.308,1.915,2.622,1.356.266-.474.564-2.657-2.134-3.984C172.782,131.571,170.726,132.116,170.524,133.519Z" transform="translate(-170.517 -132.02)" fill="#936466"/>
        </g>
        <g id="Group_18069" data-name="Group 18069" transform="translate(32.668 22.282)">
          <path id="Path_19083" data-name="Path 19083" d="M161.478,133.456c.093.955-2.1.946-4.44,1.978-2.368,1.041-3.332,2.4-3.933,2-.64-.423-.737-2.724,2.932-4.525C158.422,131.739,161.324,131.874,161.478,133.456Z" transform="translate(-152.762 -132.135)" fill="#936466"/>
        </g>
        <path id="Path_19084" data-name="Path 19084" d="M168.037,136.2a5.131,5.131,0,0,0-.9,1.316,6.3,6.3,0,0,0-.5,1.506,6.632,6.632,0,0,0-.129,1.574,4.655,4.655,0,0,0,.084.738c.072.266.127.564.213.8a5.711,5.711,0,0,0,1.688,2.5,7.651,7.651,0,0,0,1.247.884,10.214,10.214,0,0,0,1.332.646l.035.012a.8.8,0,0,1,.487,1.017.833.833,0,0,1-.069.146,5.7,5.7,0,0,1-.868,1.087,5.924,5.924,0,0,1-1.071.856,3.769,3.769,0,0,1-2.668.554.262.262,0,0,1-.021-.506l.016-.005a4.5,4.5,0,0,0,1.871-1.119,8.417,8.417,0,0,0,.733-.807,9.953,9.953,0,0,0,.614-.871l.453,1.175a6.518,6.518,0,0,1-1.689-.854,7.607,7.607,0,0,1-1.393-1.216,7.719,7.719,0,0,1-1.747-3.241c-.08-.3-.107-.561-.162-.843a5.442,5.442,0,0,1-.05-.945,7.554,7.554,0,0,1,.268-1.775,7.066,7.066,0,0,1,.679-1.653,5.9,5.9,0,0,1,1.1-1.393l.019-.017a.308.308,0,0,1,.432.439Z" transform="translate(-121.768 -110.318)" fill="#d37a85"/>
        <g id="Group_18071" data-name="Group 18071" transform="translate(35.058 28.992)">
          <g id="Group_18070" data-name="Group 18070">
            <path id="Path_19085" data-name="Path 19085" d="M160.9,141.842a1.466,1.466,0,1,1-1.518-1.7A1.636,1.636,0,0,1,160.9,141.842Z" transform="translate(-155.843 -139.895)" fill="#634a64"/>
            <path id="Path_19086" data-name="Path 19086" d="M155.513,143.079a4.119,4.119,0,0,1,3.473-3.2A1.819,1.819,0,0,1,161,141.718a2.374,2.374,0,0,0-2.046-.6A13.43,13.43,0,0,0,155.513,143.079Z" transform="translate(-155.513 -139.858)" fill="#634a64"/>
          </g>
        </g>
        <g id="Group_18073" data-name="Group 18073" transform="translate(47.667 28.441)">
          <g id="Group_18072" data-name="Group 18072">
            <path id="Path_19087" data-name="Path 19087" d="M174.7,141.124a1.378,1.378,0,1,1-1.419-1.638A1.564,1.564,0,0,1,174.7,141.124Z" transform="translate(-170.285 -139.258)" fill="#634a64"/>
            <path id="Path_19088" data-name="Path 19088" d="M170.023,142.293a3.277,3.277,0,0,1,2.906-3.059,2.04,2.04,0,0,1,2.071,2.1,2.356,2.356,0,0,0-2.1-.916A5.766,5.766,0,0,0,170.023,142.293Z" transform="translate(-170.023 -139.224)" fill="#634a64"/>
          </g>
        </g>
        <path id="Path_19089" data-name="Path 19089" d="M141.331,173.547s5.792,4.815,6.566,25.336S147.7,250.8,147.7,250.8H120.718s.647-10.876.311-27.076-.553-32.884,5.493-41.942C130.4,175.977,141.331,173.547,141.331,173.547Z" transform="translate(-115.895 -115.28)" fill="#622466"/>
        <path id="Path_19090" data-name="Path 19090" d="M169.061,173.1s9.777,5.205,8.65,30.046-.6,48.242-.6,48.242l5.239-.81s-.445-11.611.19-30.871,2.76-32.25-2.54-39.128A20.868,20.868,0,0,0,169.061,173.1Z" transform="translate(-122.23 -115.222)" fill="#622466"/>
        <g id="Group_18074" data-name="Group 18074" transform="translate(39.382 40.994)">
          <path id="Path_19091" data-name="Path 19091" d="M170.761,154.754s-4.175,1.114-10.272-1.085c0,0,1.555,4.233,4.6,4.589C169.056,158.723,170.761,154.754,170.761,154.754Z" transform="translate(-160.489 -153.669)" fill="#634a64"/>
          <path id="Path_19092" data-name="Path 19092" d="M169.082,155.664a29.6,29.6,0,0,1-7.451-.907s1.3,2.4,3.562,2.738A3.762,3.762,0,0,0,169.082,155.664Z" transform="translate(-160.639 -153.812)" fill="#fff4e9"/>
        </g>
        <path id="Path_19093" data-name="Path 19093" d="M135.107,119.521a4.544,4.544,0,0,0,3.742,1.872.444.444,0,0,0,0-.887,7.347,7.347,0,0,1-3.588-1.138c-.09-.047-.228.057-.154.154Z" transform="translate(-117.778 -108.179)" fill="#936466"/>
        <g id="Group_18075" data-name="Group 18075" transform="translate(48.445 74.976)">
          <path id="Path_19094" data-name="Path 19094" d="M191.788,200.441s-4-1.675-2.89-3.33,4.352,1.926,4.352,1.926-1.657-5.1.733-5.637,2.233,5.839,2.233,5.839,1.9-4.762,3.79-4.228-1.191,4.9-1.191,4.9,4.088-1.814,4.631.248-4.031,2.275-4.031,2.275Z" transform="translate(-173.25 -192.854)" fill="#d34089"/>
          <path id="Path_19095" data-name="Path 19095" d="M202.45,203.505s.636-3.076,5.482-6.251a26.8,26.8,0,0,1-3.339,8.821Z" transform="translate(-175.051 -193.363)" fill="#7378c0"/>
          <path id="Path_19096" data-name="Path 19096" d="M204.443,204.831s2.032-3.094,8.737-5.431a37.49,37.49,0,0,1-7.492,8.563Z" transform="translate(-175.312 -193.645)" fill="#7378c0"/>
          <path id="Path_19097" data-name="Path 19097" d="M174.749,201.653s-2.722-2.23-3.393-8.784a29.971,29.971,0,0,1,7.032,7.933Z" transform="translate(-170.976 -192.789)" fill="#7378c0"/>
          <path id="Path_19098" data-name="Path 19098" d="M183.555,200.336S185,197.188,191.01,195a29.449,29.449,0,0,1-5.786,8.644Z" transform="translate(-172.575 -193.068)" fill="#7378c0"/>
          <path id="Path_19099" data-name="Path 19099" d="M218.264,215.8s3.31-.5,6.566-5.716a26.023,26.023,0,0,0-9.433,3.137Z" transform="translate(-176.748 -195.045)" fill="#7378c0"/>
          <path id="Path_19100" data-name="Path 19100" d="M176.476,198.823s-3.447-.558-2.882-2.067,3.77.687,3.77.687-2.243-3.691-.467-4.565,2.832,4.161,2.832,4.161.61-4.1,2.191-4.038-.028,4.075-.028,4.075,2.871-2.2,3.678-.682-3.7,2.472-3.7,2.472Z" transform="translate(-171.261 -192.777)" fill="#e25998"/>
          <path id="Path_19101" data-name="Path 19101" d="M210.47,207.323s-2.823-2.614-1.406-3.646,3.04,2.929,3.04,2.929.146-4.738,2.291-4.45.113,5.526.113,5.526,3-3.367,4.41-2.346-2.453,3.7-2.453,3.7,3.936-.252,3.773,1.623-4.854,0-4.854,0Z" transform="translate(-175.866 -194.004)" fill="#e25998"/>
          <path id="Path_19102" data-name="Path 19102" d="M171.479,198.891s-.151,29.311,6.332,44.552a52.536,52.536,0,0,0-6.892,8.871s4.936,7.514,15.187,3.589c0,0,.62-2.613-.425-11.075,0,0,19.667-10.5,30.438-30.445C216.119,214.383,203.259,197.014,171.479,198.891Z" transform="translate(-170.919 -193.559)" fill="#ff75c0"/>
          <path id="Path_19103" data-name="Path 19103" d="M214.91,216.6c.435-.735.882-1.456,1.294-2.219,0,0-12.861-17.369-44.64-15.493,0,0,0,.986.027,2.678C199.682,200.233,212.669,213.94,214.91,216.6Z" transform="translate(-171.003 -193.559)" fill="#fac2f0"/>
          <path id="Path_19104" data-name="Path 19104" d="M185.682,246.561s19.666-10.5,30.438-30.444a27.771,27.771,0,0,0-4.159-4.135c.549,8.329-16.6,27.822-27.368,25.585-8.44-1.754-11.484-15.123-12.44-21.165.748,9.38,2.324,20.936,5.659,28.774a52.594,52.594,0,0,0-6.892,8.872,7.122,7.122,0,0,0,.524.668s2.793-3.544,6.852-3.384c3.622.143,5.621,3.71,6.849,6.618.32-.1.631-.187.962-.314C186.106,257.637,186.726,255.024,185.682,246.561Z" transform="translate(-170.919 -195.294)" fill="#65529d" opacity="0.3" style="mix-blend-mode: multiply;isolation: isolate"/>
        </g>
        <g id="Group_18076" data-name="Group 18076" transform="translate(34.599 116.285)">
          <path id="Path_19105" data-name="Path 19105" d="M176.352,244.443c7.447.712,11.535,3.661,10.984,4.58-.709,1.181-1.755-.912-4.118-.709,2.587.809,4.073,1.9,3.443,2.7-.371.473-.767.42-2.126-.236-1.409-.679-2.111-.985-2.262-.765-.074.162.482.164,1.7.819,1.144.616,2.305,1.259,1.742,2.056-.368.522-1.355.028-2.53-.509-1.231-.563-1.807-.626-1.865-.489s.979.348,1.866.778c1.047.507,1.6,1.128,1.179,1.549-.482.489-1.955-.458-3.76-.813a23.529,23.529,0,0,1-7.119-2.464c-4.279-1.575-18.638.426-18.5-5.392.081-3.331,3.179-5.1,6.2-5.222C166.367,240.109,169.231,243.76,176.352,244.443Z" transform="translate(-154.985 -240.315)" fill="url(#linear-gradient-3)"/>
          <path id="Path_19106" data-name="Path 19106" d="M176.495,244.717c.58.067,2.966-1.1,5.128-1.607s4.6-.413,4.857.149c.423.925-4,1.051-4.742,2.316S176.495,244.717,176.495,244.717Z" transform="translate(-157.804 -240.638)" fill="url(#linear-gradient-4)"/>
        </g>
        <path id="Path_19107" data-name="Path 19107" d="M173.995,244.039c-.7-.2-1.356-.429-1.98-.666-1.115,1.745-3.251,5.1-4.506,7.111,3.087.18,6.037.275,7.615.855a23.515,23.515,0,0,0,7.119,2.463c1.8.356,3.278,1.3,3.76.814.046-.046.037-.1.061-.151-.418.108-1.421-.364-2.928-.925-1.721-.641-4.421-.844-7.256-2.6s-1.891-6.885-1.891-6.885Z" transform="translate(-122.027 -124.431)" fill="#d37a85"/>
        <path id="Path_19108" data-name="Path 19108" d="M131.233,178.91c-12.948,1.655-21.141,42.453-12.5,56.763,6.986,11.572,43.2,10.261,43.2,10.261a21.037,21.037,0,0,0,4.32-11.61s-18.712-7.866-30.569-12.542C135.686,221.782,139.6,177.84,131.233,178.91Z" transform="translate(-115.168 -115.981)" fill="#622466"/>
        <g id="Group_18077" data-name="Group 18077" transform="translate(48.096 22.181)" opacity="0.2" style="mix-blend-mode: multiply;isolation: isolate">
          <path id="Path_19109" data-name="Path 19109" d="M170.524,133.519c-.136.942,1.811.814,3.525,1.543,1.731.736,2.308,1.915,2.622,1.356.266-.474.564-2.657-2.134-3.984C172.782,131.571,170.726,132.116,170.524,133.519Z" transform="translate(-170.517 -132.02)" fill="#65436d"/>
        </g>
        <g id="Group_18078" data-name="Group 18078" transform="translate(32.668 22.282)" opacity="0.2" style="mix-blend-mode: multiply;isolation: isolate">
          <path id="Path_19110" data-name="Path 19110" d="M161.478,133.456c.093.955-2.1.946-4.44,1.978-2.368,1.041-3.332,2.4-3.933,2-.64-.423-.737-2.724,2.932-4.525C158.422,131.739,161.324,131.874,161.478,133.456Z" transform="translate(-152.762 -132.135)" fill="#65436d"/>
        </g>
        <path id="Path_19111" data-name="Path 19111" d="M147.176,122.7s.63-6.3,6.39-8.191,10.44.45,15.03.36c4.356-.085,5.31-2.52,5.31-2.52s-1.53,1.621-5.13,1.71c-5.051.127-9.63-3.51-16.83-1.08S147.176,122.7,147.176,122.7Z" transform="translate(-119.311 -107.234)" fill="#65436d" opacity="0.2" style="mix-blend-mode: multiply;isolation: isolate"/>
        <path id="Path_19112" data-name="Path 19112" d="M141.979,121.16a9.715,9.715,0,0,1,3.69-9.81S137.838,114.05,141.979,121.16Z" transform="translate(-118.523 -107.13)" fill="#65436d" opacity="0.2" style="mix-blend-mode: multiply;isolation: isolate"/>
        <path id="Path_19113" data-name="Path 19113" d="M120.444,236.018c-6.392-10.586-2.577-39.432,4.564-52.439-9.048,10.944-13.42,40.875-6.274,52.709,6.986,11.572,43.2,10.261,43.2,10.261a17.688,17.688,0,0,0,2.437-4.042C161.233,242.595,127.1,247.039,120.444,236.018Z" transform="translate(-115.168 -116.595)" fill="#4e477a" opacity="0.3" style="mix-blend-mode: multiply;isolation: isolate"/>
        <g id="Group_18079" data-name="Group 18079" transform="translate(79.309 104.173)">
          <path id="Path_19114" data-name="Path 19114" d="M215.074,229.939c-.654.812-1.6.005-2.852-.689-1.344-.745-2.663-1.6-2.39-2.41.288-.851,2.119-.422,3.571.427C214.627,227.981,215.7,229.167,215.074,229.939Z" transform="translate(-206.877 -226.376)" fill="url(#linear-gradient-5)"/>
          <path id="Path_19115" data-name="Path 19115" d="M211.682,234.615c-.614.719-1.436.221-2.542-.411-1.2-.684-2.358-1.707-2.094-2.431.275-.756,1.885-.091,3.157.706C211.275,233.149,212.258,233.941,211.682,234.615Z" transform="translate(-206.512 -227.04)" fill="url(#linear-gradient-6)"/>
          <path id="Path_19116" data-name="Path 19116" d="M209.551,236.283c-.584.735-1.23.386-1.975-.039-.763-.434-1.353-1.189-1.064-1.784.309-.639,1.332-.211,2.154.317C209.066,235.034,210.046,235.66,209.551,236.283Z" transform="translate(-206.437 -227.394)" fill="url(#linear-gradient-7)"/>
          <path id="Path_19117" data-name="Path 19117" d="M213.5,232.516c-.7.885-1.52,0-2.748-.653-1.429-.766-2.881-1.709-2.588-2.555s2.2-.315,3.712.63C213.151,230.735,214.115,231.738,213.5,232.516Z" transform="translate(-206.658 -226.705)" fill="url(#linear-gradient-8)"/>
        </g>
      </g>
    </g>
    <g id="Group_18087" data-name="Group 18087" transform="translate(52.923 132.153)">
      <g id="Group_18086" data-name="Group 18086">
        <g id="Group_18083" data-name="Group 18083" transform="translate(0 22.59)">
          <path id="Path_19118" data-name="Path 19118" d="M63.159,176.657c-1.97,6.263-.035,14.749,1.184,21.054,2.2,11.4,7.31,21.888,9.547,33.182.142.715,1.377.565,1.29-.175-2.112-17.858-15.113-35.033-11.617-53.949a.21.21,0,0,0-.4-.112Z" transform="translate(-58.552 -172.128)" fill="#7378c0"/>
          <g id="Group_18082" data-name="Group 18082">
            <path id="Path_19119" data-name="Path 19119" d="M62.968,178.463c2.375-1.708,2.966-6.625,1.9-6.97S61.769,174.375,62.968,178.463Z" transform="translate(-58.589 -171.468)" fill="#7378c0"/>
            <path id="Path_19120" data-name="Path 19120" d="M58.191,180.561c-.655.815.132,5.5,4.028,7.5C61.82,181.641,58.74,179.876,58.191,180.561Z" transform="translate(-57.984 -172.641)" fill="#7378c0"/>
            <path id="Path_19121" data-name="Path 19121" d="M67.422,188c-1.216.2-4.433,4.651-2.861,9.134C69.535,191.527,68.442,187.832,67.422,188Z" transform="translate(-58.79 -173.634)" fill="#7378c0"/>
            <path id="Path_19122" data-name="Path 19122" d="M59.091,200.81c-.561,1.113,1.839,6.181,7.263,7.305C63.906,200.969,59.562,199.875,59.091,200.81Z" transform="translate(-58.119 -175.276)" fill="#7378c0"/>
            <path id="Path_19123" data-name="Path 19123" d="M71.684,204.284c-1.357.259-4.41,5.355-2,10.357C74.579,208.194,72.823,204.067,71.684,204.284Z" transform="translate(-59.4 -175.767)" fill="#7378c0"/>
            <path id="Path_19124" data-name="Path 19124" d="M64.127,219.882c-.481,1.217,2.53,6.336,8.335,7.056C69.2,219.641,64.532,218.861,64.127,219.882Z" transform="translate(-58.783 -177.765)" fill="#7378c0"/>
            <path id="Path_19125" data-name="Path 19125" d="M62.353,189.065a.467.467,0,0,0,.37.094Z" transform="translate(-58.557 -173.774)" fill="#7378c0"/>
            <path id="Path_19126" data-name="Path 19126" d="M62.342,189.059c-.118-.072-.071-.033,0,0Z" transform="translate(-58.546 -173.768)" fill="#7378c0"/>
          </g>
        </g>
        <g id="Group_18084" data-name="Group 18084" transform="translate(25.915 33.754)">
          <path id="Path_19127" data-name="Path 19127" d="M100.345,190.171C96.408,206.213,85.1,223.529,88.4,240.465c.135.69,1.334.544,1.244-.169-2.271-18.054,9.379-32.681,11.189-50.058.03-.283-.426-.337-.493-.067Z" transform="translate(-87.807 -185.06)" fill="#7378c0"/>
          <path id="Path_19128" data-name="Path 19128" d="M102.077,191.51c1.908-2.161,1.314-7.078.191-7.191S99.935,187.776,102.077,191.51Z" transform="translate(-89.522 -184.316)" fill="#7378c0"/>
          <path id="Path_19129" data-name="Path 19129" d="M103.268,203.82c.776,1-1.16,5.766-6.989,7.06C97.974,204.2,102.616,202.985,103.268,203.82Z" transform="translate(-88.917 -186.842)" fill="#7378c0"/>
          <path id="Path_19130" data-name="Path 19130" d="M96.4,221.979c1.024.984-.307,6.53-6.517,8.821C90.631,223.181,95.546,221.155,96.4,221.979Z" transform="translate(-88.079 -189.229)" fill="#7378c0"/>
          <path id="Path_19131" data-name="Path 19131" d="M97.638,193.8c1.141.178,3.359,4.331.912,8.551C94.859,197.129,96.68,193.652,97.638,193.8Z" transform="translate(-88.924 -185.558)" fill="#7378c0"/>
          <path id="Path_19132" data-name="Path 19132" d="M91.565,208.492c1.444.172,4.058,5.254.731,10.627C87.861,212.767,90.353,208.348,91.565,208.492Z" transform="translate(-88.063 -187.484)" fill="#7378c0"/>
        </g>
        <g id="Group_18085" data-name="Group 18085" transform="translate(12.279)">
          <path id="Path_19133" data-name="Path 19133" d="M83.2,151.779c-2.565,11.857-4.664,23.649-4.108,35.888.614,13.517,3.6,26.7,3.542,40.309a.9.9,0,0,0,1.8,0c.093-13.115-3.045-25.539-4.084-38.525-1.037-12.946,2.638-24.931,3.454-37.59a.311.311,0,0,0-.609-.082Z" transform="translate(-73.018 -146.269)" fill="#7378c0"/>
          <path id="Path_19134" data-name="Path 19134" d="M83.779,152.666c2.092-2.2,1.277-7.105.007-7.193S81.252,148.982,83.779,152.666Z" transform="translate(-73.452 -145.471)" fill="#7378c0"/>
          <path id="Path_19135" data-name="Path 19135" d="M88.087,156.706c.811.845-.459,5.489-5.638,7.3C83.3,157.613,87.406,156,88.087,156.706Z" transform="translate(-73.469 -146.923)" fill="#7378c0"/>
          <path id="Path_19136" data-name="Path 19136" d="M76.628,164.391c1.471.015,5.118,4.276,2.92,9.366C73.828,168.541,75.394,164.379,76.628,164.391Z" transform="translate(-72.553 -147.951)" fill="#7378c0"/>
          <path id="Path_19137" data-name="Path 19137" d="M72.95,185.569c1.653-.283,6.939,3.763,5.906,9.932C70.979,190.805,71.564,185.808,72.95,185.569Z" transform="translate(-72.115 -150.724)" fill="#7378c0"/>
          <path id="Path_19138" data-name="Path 19138" d="M74.7,212.138c1.8-.235,7.812,4.214,7.023,10.648C72.83,217.556,73.193,212.334,74.7,212.138Z" transform="translate(-72.345 -154.207)" fill="#7378c0"/>
          <path id="Path_19139" data-name="Path 19139" d="M85.358,174.936c-1.538-.162-6.312,3.808-5.176,9.333C87.333,179.561,86.648,175.071,85.358,174.936Z" transform="translate(-73.149 -149.332)" fill="#7378c0"/>
          <path id="Path_19140" data-name="Path 19140" d="M84.68,195.132c-1.712.414-5.743,6.495-2.925,11.988C88.151,199.341,86.117,194.785,84.68,195.132Z" transform="translate(-73.251 -151.977)" fill="#7378c0"/>
        </g>
      </g>
      <path id="Path_19141" data-name="Path 19141" d="M90.181,269.263H71.224a132.427,132.427,0,0,1-6.281-33.11H96.462A125.858,125.858,0,0,1,90.181,269.263Z" transform="translate(-58.896 -157.355)" fill="#5b5b5b"/>
      <path id="Path_19142" data-name="Path 19142" d="M88.446,236.153c-1.13,34.7-14.5,30.245-17.977,28.334.466,1.621.952,3.222,1.479,4.776H90.9a125.859,125.859,0,0,0,6.281-33.11Z" transform="translate(-59.62 -157.355)" fill="#65529d" opacity="0.35" style="mix-blend-mode: multiply;isolation: isolate"/>
    </g>
    <g id="Group_18096" data-name="Group 18096" transform="translate(218.757 125.118)">
      <g id="Group_18088" data-name="Group 18088" transform="translate(0 68.86)">
        <path id="Path_19143" data-name="Path 19143" d="M264.131,224.374c-1.212-1.273-4.81-6.363-5.557-6.169-1.268.33,2.331,3.646,1.136,3.824-.606.09-3.511-1.913-5.336-3.407-1.6-1.31-2.788-2.3-3.194-1.919-.357.333.819,1.423,1.951,2.54.96.948,1.9,1.62,1.754,1.816-.273.353-1.264-.524-2.45-1.264-1.431-.894-2.8-2.1-3.077-1.706-.409.576.838,1.874,2.2,2.9,1.126.849,2.293,1.628,2.285,1.95s-1.036-.273-2.086-.968c-1.237-.82-2.492-1.9-2.861-1.426s.909,1.706,2.291,2.646c1.164.792,2.419,1.037,2.25,1.575s-3.465-1.874-3.716-1.289,2.685,2.3,5.323,3.511c3.416,1.565,5.016,1.416,6.08,2.331Z" transform="translate(-248.828 -216.62)" fill="url(#linear-gradient-9)"/>
        <path id="Path_19144" data-name="Path 19144" d="M262.975,230.488c1.619,1.618,2.395,3.939,4.272,5.406s4.248-6.272,4.248-6.272-4.256-2.531-5.51-4.079Z" transform="translate(-250.682 -217.789)" fill="url(#linear-gradient-10)"/>
      </g>
      <path id="Path_19145" data-name="Path 19145" d="M306.156,232.285s-5.329,19.9-12.489,21.205c-11.5,2.105-29.513-19.971-29.513-19.971s-.1-5.077,5.881-8.749l18.549,10.523s6.59-19.179,12.781-27.253Z" transform="translate(-250.836 -146.636)" fill="#e26a6c"/>
      <path id="Path_19146" data-name="Path 19146" d="M304.871,228.456c-1.129,5.738-5.261,24.557-11.2,26.191-9.7,2.669-25.889-17.082-28.988-21.005a7.945,7.945,0,0,0-.527,2.553s18.01,22.077,29.513,19.971c7.16-1.309,12.489-21.206,12.489-21.206Z" transform="translate(-250.836 -149.311)" fill="#78539b" opacity="0.3" style="mix-blend-mode: multiply;isolation: isolate"/>
      <path id="Path_19149" data-name="Path 19149" d="M307.223,200.222c-.946-.581-1.98-.4-2.956-.963a5.419,5.419,0,0,1-2.342-3c-1.33-3.781.588-7.2.965-10.874.337-3.292-.926-5.646-2.521-8.327a27.768,27.768,0,0,1-3.9-10.519c-.722-5.6,1.893-13.853,5.282-18.305,4.374-5.747,13.148-10.656,20.427-10.232,4.923.287,10.962,1.056,13.774,5.735.255-1.23,3.675.191,4.588.855a15.067,15.067,0,0,1,4.97,6.847c2.052,5.392,1.831,11.333,1.6,17.024-.3,7.391-.022,14.1,3.823,20.688,2,3.42,5.018,6.214,7.356,9.392,2.127,2.893,4.49,7.637,3.692,11.756-1.338,6.907-4.34,15.607-19.652,16.65-12.313.839-25.334-4.194-31.5-15.686A42.156,42.156,0,0,1,307.223,200.222Z" transform="translate(-255.056 -137.454)" fill="#545454"/>
      <path id="Path_19150" data-name="Path 19150" d="M321.686,155.82s-14.571-3.161-17.3,5.264c-2.176,6.716,4.645,13.492,4.645,13.492Z" transform="translate(-256.052 -139.716)" fill="#65529d" opacity="0.2" style="mix-blend-mode: multiply;isolation: isolate"/>
      <path id="Path_19151" data-name="Path 19151" d="M324.379,155.611s1.136,13.054,19.2,10.878a11.079,11.079,0,0,1-5.014,2.46c-2.838.473-5.2,5.676-5.2,5.676S320.406,164.314,324.379,155.611Z" transform="translate(-258.629 -139.765)" fill="#65529d" opacity="0.2" style="mix-blend-mode: multiply;isolation: isolate"/>
      <path id="Path_19152" data-name="Path 19152" d="M309.373,195.373s-.862,6.866,4.058,11.7C313.431,207.073,305.662,202.968,309.373,195.373Z" transform="translate(-256.63 -144.976)" fill="#65529d" opacity="0.2" style="mix-blend-mode: multiply;isolation: isolate"/>
      <path id="Path_19154" data-name="Path 19154" d="M339.846,170.852a5.194,5.194,0,0,1,1.608,6.811,5.579,5.579,0,0,1-5.1,3.329s-2.086,2.725-2.275,4.144.662,10.406,3.405,11.541l-7,.473V180.879Z" transform="translate(-259.528 -141.762)" fill="#65529d" opacity="0.2" style="mix-blend-mode: multiply;isolation: isolate"/>
      <path id="Path_19155" data-name="Path 19155" d="M329.909,181.306s-8.05,6.044-9.642,10.7c1.164,4.368-5.041,4.545-10.478,11.31,0,0,3.962,3.914,13.63,4.306s17.117-5.711,17.117-5.711c-4.566-4.953-10.4-5.73-11.451-9.969A18.871,18.871,0,0,1,329.909,181.306Z" transform="translate(-256.816 -143.132)" fill="url(#linear-gradient-11)"/>
      <path id="Path_19156" data-name="Path 19156" d="M330.431,191.945a18.87,18.87,0,0,1,.824-10.639s-8.05,6.044-9.642,10.7c.441,1.652-.2,2.768-1.553,3.8a14.261,14.261,0,0,0,15.007,7.615,15.486,15.486,0,0,0,6.136-2.158C336.753,196.918,331.429,195.979,330.431,191.945Z" transform="translate(-258.162 -143.132)" fill="#d37a85"/>
      <path id="Path_19157" data-name="Path 19157" d="M334.085,168.176c-1.548.633-2.89,4.457-2.89,4.457a6.006,6.006,0,0,1-1.854-4.983c-7.662-2.271-7.374-11.742-7.374-11.742-13.2-.036-15.115,6.373-15.115,6.373-3.471,18.593,6.038,26.936,8.9,27.252,5.713.631,11.057-2.767,16.283-12.21a6.028,6.028,0,0,0,5.857-3.786C338.676,171.2,337.148,167.659,334.085,168.176Z" transform="translate(-256.333 -139.804)" fill="url(#linear-gradient-12)"/>
      <path id="Path_19158" data-name="Path 19158" d="M340.014,175.615a1.7,1.7,0,1,1-.846-2.574A1.953,1.953,0,0,1,340.014,175.615Z" transform="translate(-260.352 -142.04)" fill="#d37a85"/>
      <g id="Group_18089" data-name="Group 18089" transform="translate(55.046 39.718)">
        <path id="Path_19159" data-name="Path 19159" d="M312.175,183.452a24.207,24.207,0,0,0,10.017-.369s-1.148,4.867-5,4.945C313.795,188.1,312.175,183.452,312.175,183.452Z" transform="translate(-312.175 -183.083)" fill="#4e3a5e"/>
        <path id="Path_19160" data-name="Path 19160" d="M314.209,184.326a20.409,20.409,0,0,0,7.14-.452,4.667,4.667,0,0,1-3.725,1.933A3.448,3.448,0,0,1,314.209,184.326Z" transform="translate(-312.442 -183.187)" fill="#fff4e9"/>
      </g>
      <path id="Path_19161" data-name="Path 19161" d="M315.76,172.163a6.566,6.566,0,0,0-1.074-5.649,5.89,5.89,0,0,1,1.808,2.653,5.81,5.81,0,0,1,.255,3.186,7.949,7.949,0,0,1-3.577,4.719,6.315,6.315,0,0,0,2.993,2.158,7.61,7.61,0,0,1-4.972-2.454C313.322,175.733,315.2,174.308,315.76,172.163Z" transform="translate(-257.001 -141.194)" fill="#d37a85"/>
      <path id="Path_19162" data-name="Path 19162" d="M322.077,164.015c-.309,1.069,1.433.522,4.448,2,1.821.893,3.259,2.37,3.6,2.168s-.436-1.48-3.029-3.15C325,163.686,322.3,163.23,322.077,164.015Z" transform="translate(-258.422 -140.816)" fill="#a15ba3"/>
      <path id="Path_19163" data-name="Path 19163" d="M312.3,163.979c.191,1.009-1.523.584-3.683,1.438-1.548.613-2.615,1.587-2.953,1.442s.231-1.3,2.145-2.359C309.575,163.524,312.182,163.351,312.3,163.979Z" transform="translate(-256.264 -140.813)" fill="#a15ba3"/>
      <g id="Group_18092" data-name="Group 18092" transform="translate(63.974 27.757)">
        <g id="Group_18090" data-name="Group 18090">
          <path id="Path_19164" data-name="Path 19164" d="M323.012,171.458a1.564,1.564,0,1,0,1.6-1.838A1.745,1.745,0,0,0,323.012,171.458Z" transform="translate(-322.523 -169.357)" fill="#4e3a5e"/>
          <path id="Path_19165" data-name="Path 19165" d="M328.334,172.727a4.381,4.381,0,0,0-3.726-3.385,1.949,1.949,0,0,0-2.132,1.988,2.53,2.53,0,0,1,2.175-.666A14.256,14.256,0,0,1,328.334,172.727Z" transform="translate(-322.449 -169.318)" fill="#4e3a5e"/>
        </g>
        <g id="Group_18091" data-name="Group 18091" transform="translate(4.503 0.785)">
          <path id="Path_19166" data-name="Path 19166" d="M327.632,170.778s1.214-.67,1.308-.54-.867,1.011-.867,1.011Z" transform="translate(-327.632 -170.221)" fill="#4e3a5e"/>
          <path id="Path_19167" data-name="Path 19167" d="M328.264,171.495a6.87,6.87,0,0,1,1.477-.222c.043.1-1.17.789-1.17.789Z" transform="translate(-327.715 -170.356)" fill="#4e3a5e"/>
        </g>
      </g>
      <g id="Group_18095" data-name="Group 18095" transform="translate(49.84 27.267)">
        <g id="Group_18093" data-name="Group 18093" transform="translate(1.007)">
          <path id="Path_19168" data-name="Path 19168" d="M308.058,170.8a1.47,1.47,0,1,0,1.5-1.77A1.667,1.667,0,0,0,308.058,170.8Z" transform="translate(-307.436 -168.792)" fill="#4e3a5e"/>
          <path id="Path_19169" data-name="Path 19169" d="M312.677,172.009a3.49,3.49,0,0,0-3.12-3.245,2.189,2.189,0,0,0-2.19,2.278,2.516,2.516,0,0,1,2.229-1A6.122,6.122,0,0,1,312.677,172.009Z" transform="translate(-307.343 -168.755)" fill="#4e3a5e"/>
        </g>
        <g id="Group_18094" data-name="Group 18094" transform="translate(0 0.5)">
          <path id="Path_19170" data-name="Path 19170" d="M308.353,169.988s-1.156-.766-1.26-.645.783,1.078.783,1.078Z" transform="translate(-306.302 -169.33)" fill="#4e3a5e"/>
          <path id="Path_19171" data-name="Path 19171" d="M307.64,170.649a6.845,6.845,0,0,0-1.455-.341c-.051.1,1.1.881,1.1.881Z" transform="translate(-306.184 -169.456)" fill="#4e3a5e"/>
        </g>
      </g>
      <path id="Path_19172" data-name="Path 19172" d="M300.738,264.515H345.4c-2.191-15.618-8.469-20.233-8.842-26.442-.417-6.953,8.35-21.081,7.928-29.874a22.8,22.8,0,0,0-9.565-8.044s-5.832,8.954-16.446,8.066c-7.148-.6-6.211-6.16-6.211-6.16-6.252,4.764-9.73,9.939-9.74,14.862-.016,7.237,5.67,14.961,5.951,20.293C308.714,241.833,303.134,251.8,300.738,264.515Z" transform="translate(-255.63 -145.603)" fill="#e26a6c"/>
      <path id="Path_19173" data-name="Path 19173" d="M342.068,223.008l.008-.021.2-.518.007-.018A28.822,28.822,0,0,1,317.8,233.474c-9.294-.426-12.57-4.844-14.624-10.6.3,1.379.664,2.7,1.034,3.962,1.7,4.937,4.392,9.674,4.582,13.3a15.235,15.235,0,0,1-.9,4.844,14.942,14.942,0,0,1,9.9-3.987c14.664-.223,17.541,18.362,19.945,26.471h7.978c-2.272-17.436-8.555-20.254-8.841-26.473C336.646,236.027,339.3,231.22,342.068,223.008Z" transform="translate(-255.95 -148.524)" fill="#78539b" opacity="0.3" style="mix-blend-mode: multiply;isolation: isolate"/>
      <path id="Path_19179" data-name="Path 19179" d="M322.077,164.015c-.309,1.069,1.433.522,4.448,2,1.821.893,3.259,2.37,3.6,2.168s-.436-1.48-3.029-3.15C325,163.686,322.3,163.23,322.077,164.015Z" transform="translate(-258.422 -140.816)" fill="#65529d" opacity="0.2" style="mix-blend-mode: multiply;isolation: isolate"/>
      <path id="Path_19180" data-name="Path 19180" d="M312.3,163.979c.191,1.009-1.523.584-3.683,1.438-1.548.613-2.615,1.587-2.953,1.442s.231-1.3,2.145-2.359C309.575,163.524,312.182,163.351,312.3,163.979Z" transform="translate(-256.264 -140.813)" fill="#65529d" opacity="0.2" style="mix-blend-mode: multiply;isolation: isolate"/>
      <path id="Path_19181" data-name="Path 19181" d="M342.2,185.139s-.076,7.3,3.867,12.881c5.723,8.1,14.71,10.178,16.638,26.237,0,0,1.329-11.663-7.793-18.9C341.73,194.91,342.2,185.139,342.2,185.139Z" transform="translate(-261.063 -143.635)" fill="#65529d" opacity="0.2" style="mix-blend-mode: multiply;isolation: isolate"/>
      <path id="Path_19182" data-name="Path 19182" d="M346.753,175.751s-2.081,9.081,1.892,16.839C348.644,192.59,341.739,185.116,346.753,175.751Z" transform="translate(-261.421 -142.404)" fill="#65529d" opacity="0.2" style="mix-blend-mode: multiply;isolation: isolate"/>
      <path id="Path_19183" data-name="Path 19183" d="M331,151.771s4.747,8.017,12.971,10.9C343.973,162.674,333.819,162.013,331,151.771Z" transform="translate(-259.596 -139.262)" fill="#65529d" opacity="0.2" style="mix-blend-mode: multiply;isolation: isolate"/>
      <path id="Path_19184" data-name="Path 19184" d="M340.5,148.861s9.46,2.46,8.041,15.514C348.537,164.375,347.307,153.685,340.5,148.861Z" transform="translate(-260.841 -138.88)" fill="#65529d" opacity="0.2" style="mix-blend-mode: multiply;isolation: isolate"/>
      <path id="Path_19185" data-name="Path 19185" d="M323.432,152.212s-13.055-5.676-21.474,2.837c0,0,2.838-5.3,10.69-6.432S323.432,152.212,323.432,152.212Z" transform="translate(-255.79 -138.825)" fill="#65529d" opacity="0.2" style="mix-blend-mode: multiply;isolation: isolate"/>
      <path id="Path_19186" data-name="Path 19186" d="M321.506,140.775s6.436.706,9.063,6.681C330.569,147.456,331.41,140.617,321.506,140.775Z" transform="translate(-258.352 -137.82)" fill="#65529d" opacity="0.2" style="mix-blend-mode: multiply;isolation: isolate"/>
      <path id="Path_19187" data-name="Path 19187" d="M341.782,233.081c-2.219-4.646-4.813-8.455-9.4-14.243-1.23-1.554-2.99-2.835-3.481-2.584-.712.364,1.476,2.173,1.9,3.532-4.983-2.711-9.932-3.806-10.042-2.986-.193,1.434,3.649,1.411,6.722,3.521-3.359-.792-8.375-2.621-8.609-1.365-.125.731,2.5,1.34,4.263,1.874a13.229,13.229,0,0,1,3.785,1.607c-.076.308-7.9-2.474-8.026-.964-.066.772,2.552,1.227,3.724,1.513,1.749.428,3.716,1.013,3.7,1.236s-1.413-.21-2.6-.39c-1.536-.233-3.09-.094-3.179.307-.131.587,1.147.678,3.017,1.087,2.448.536,7.156.928,7.893,1.947a37.392,37.392,0,0,1,2.7,9.169Z" transform="translate(-258.007 -147.708)" fill="url(#linear-gradient-13)"/>
      <path id="Path_19188" data-name="Path 19188" d="M348.35,208.221c2.869,3.667,5.719,10.246,7.1,14.111,4.519,12.685,6.16,31.7-2.349,34.556-8.063,2.7-14.8-11.548-19.151-25.547,0,0,1.058-4.537,7.23-7.316C341.176,224.025,342.845,201.184,348.35,208.221Z" transform="translate(-259.982 -146.483)" fill="#e26a6c"/>
      <path id="Path_19189" data-name="Path 19189" d="M342.258,226.554,352,243.14a39.8,39.8,0,0,0-7.774-18.4Z" transform="translate(-261.072 -148.825)" fill="#78539b" opacity="0.3" style="mix-blend-mode: multiply;isolation: isolate"/>
    </g>
    <g id="Group_18097" data-name="Group 18097" transform="translate(192.449 82.643)">
      <path id="Path_19190" data-name="Path 19190" d="M232.117,146.4c-1.571.307-3.421,1.617-4.242,4.538-1.823-2.428-3.472-3.084-5.049-2.8-5.383.967-8.209,10.995,7.324,14.728C243.452,152.975,236.533,145.541,232.117,146.4Z" transform="translate(-218.551 -96.075)" fill="#fecaca"/>
      <path id="Path_19191" data-name="Path 19191" d="M276.3,127.382c-1.1-.769-2.966-1.121-5.205.083.4-2.512-.162-3.888-1.25-4.673-3.716-2.682-11.407,1.451-4.616,12.988C278.933,138.04,279.386,129.541,276.3,127.382Z" transform="translate(-224.314 -92.886)" fill="#fecaca"/>
      <path id="Path_19192" data-name="Path 19192" d="M245.912,89.4a4.012,4.012,0,0,0-3.76,2.051c-.666-1.985-1.6-2.771-2.7-2.927-3.733-.534-7.755,5.417,1.6,11.227C251.906,96.161,248.989,89.8,245.912,89.4Z" transform="translate(-220.747 -88.495)" fill="#fecaca"/>
    </g>
    <path id="Path_19193" data-name="Path 19193" d="M293.457,72.417c.181-.019.358-.037.537-.072a.344.344,0,0,0,0-.659c-.179-.035-.356-.053-.537-.071-.515-.055-.516.856,0,.8Z" transform="translate(-35.868 -3.639)" fill="#f6dcff"/>
  </g>
  <g id="Group_18108" data-name="Group 18108" transform="translate(198.609 -19.641)">
    <g id="Group_18099" data-name="Group 18099" transform="translate(41.662 144.67)" style="mix-blend-mode: multiply;isolation: isolate">
      <path id="Path_19195" data-name="Path 19195" d="M58.191,194.116H57.76l-.058-.427c-.193-1.419-.379-2.656-.543-3.747-.751-5-1.062-7.072.469-9.478a20.408,20.408,0,0,1,5.876-5.54c2.232-1.59,4.54-3.235,6.119-5.981a6.655,6.655,0,0,0-.2-7.6c-1.961-2.453-5.633-3.142-9.827-1.844a31.284,31.284,0,0,0-5.321,2.209c-3.5,1.781-3.759,1.387-8.019-5.216-.441-.682-.926-1.435-1.466-2.264l-.239-.367.336-.281c8.779-7.355,19.532-9.627,28.766-6.077,6.756,2.6,11.307,7.835,12.173,14.013.984,7.023-2.93,14.248-11.022,20.345-5.259,3.965-5.029,6.665-4.877,8.451a2.856,2.856,0,0,1-.455,2.356C68.464,193.764,65.723,194.116,58.191,194.116Zm5.374-36.248a8.186,8.186,0,0,1,6.627,2.859,7.623,7.623,0,0,1,.287,8.71c-1.687,2.933-4.085,4.641-6.4,6.293a19.357,19.357,0,0,0-5.616,5.265c-1.332,2.094-1.058,3.92-.325,8.8.148.983.314,2.086.487,3.332,6.541-.013,9.39-.332,10.119-1.125.292-.319.269-.769.2-1.6-.171-2-.428-5.031,5.267-9.325C82,175.2,85.776,168.305,84.844,161.655c-.816-5.816-5.133-10.761-11.549-13.228-8.776-3.374-19-1.266-27.439,5.633.445.686.853,1.317,1.228,1.9,2.032,3.149,3.151,4.883,3.991,5.457.651.444,1.178.212,2.749-.586a32.086,32.086,0,0,1,5.477-2.273A14.472,14.472,0,0,1,63.565,157.868Z" transform="translate(-44.548 -145.859)" fill="#622466" stroke="#622466" stroke-width="0.6"/>
    </g>
    <g id="Group_18100" data-name="Group 18100" transform="translate(51.99 197.736)" style="mix-blend-mode: multiply;isolation: isolate">
      <path id="Path_19196" data-name="Path 19196" d="M73.454,268.779c-3.86,0-8.015-2.442-8.015-7.8,0-5.345,4.155-7.78,8.016-7.78,4.006,0,8.062,2.673,8.062,7.78a7.447,7.447,0,0,1-2.539,5.852A8.447,8.447,0,0,1,73.454,268.779Zm0-14.594c-3.384,0-7.027,2.125-7.027,6.791,0,4.681,3.643,6.814,7.027,6.814,3.407,0,7.074-2.132,7.074-6.814C80.529,256.311,76.862,254.186,73.455,254.186Z" transform="translate(-65.439 -253.197)" fill="#622466" stroke="#622466" stroke-width="0.6"/>
    </g>
    <g id="Group_18105" data-name="Group 18105" transform="translate(38.84 143.507)" style="mix-blend-mode: multiply;isolation: isolate">
      <g id="Group_18102" data-name="Group 18102" transform="translate(21.145 15.304)">
        <path id="Path_19198" data-name="Path 19198" d="M88.274,180.169l-.983-.108a4.508,4.508,0,0,0,.027-.494,3.878,3.878,0,0,0-.515-1.97c-.866-1.5-2.778-2.285-5.126-2.124l-.068-.986c2.748-.188,4.988.782,6.049,2.615a4.855,4.855,0,0,1,.648,2.465A5.5,5.5,0,0,1,88.274,180.169Z" transform="translate(-81.61 -174.463)" fill="#622466" stroke="#622466" stroke-width="0.6"/>
      </g>
      <g id="Group_18104" data-name="Group 18104" transform="translate(40.009 15.273)">
        <path id="Path_19200" data-name="Path 19200" d="M120.526,192l-.758-.635c3.53-4.217,5.4-8.8,5.4-13.262a16.365,16.365,0,0,0-.379-3.494l.966-.212a17.349,17.349,0,0,1,.4,3.706C126.154,182.8,124.208,187.606,120.526,192Z" transform="translate(-119.768 -174.401)" fill="#622466" stroke="#622466" stroke-width="0.6"/>
      </g>
    </g>
    <g id="Group_18107" data-name="Group 18107" transform="translate(49.855 199.659)" style="mix-blend-mode: multiply;isolation: isolate">
      <g id="Group_18106" data-name="Group 18106" transform="translate(0)">
        <path id="Path_19201" data-name="Path 19201" d="M71.319,272.882h-.047c-5.044,0-10.151-3.413-10.151-9.937a10.7,10.7,0,0,1,.526-3.386l.938.312a9.7,9.7,0,0,0-.476,3.074c0,5.875,4.609,8.948,9.162,8.948Zm9.094-5.278-.882-.447a9.212,9.212,0,0,0,.95-4.212,8.792,8.792,0,0,0-1.607-5.278l.8-.58a9.753,9.753,0,0,1,1.8,5.857A10.193,10.193,0,0,1,80.412,267.6Z" transform="translate(-61.121 -257.087)" fill="#622466" stroke="#622466" stroke-width="0.6"/>
      </g>
    </g>
  </g>
</svg>
