<svg id="About_Yourself" data-name="About Yourself" xmlns="http://www.w3.org/2000/svg" xmlns:xlink="http://www.w3.org/1999/xlink" width="31.45" height="31.45" viewBox="0 0 31.45 31.45">
  <defs>
    <linearGradient id="linear-gradient" x1="1" y1="-0.272" x2="0" y2="1" gradientUnits="objectBoundingBox">
      <stop offset="0" stop-color="#ce1919"/>
      <stop offset="1" stop-color="#450874"/>
    </linearGradient>
  </defs>
  <path id="Path_18606" data-name="Path 18606" d="M15.725,0A15.729,15.729,0,1,1,4.607,4.607,15.667,15.667,0,0,1,15.725,0ZM11.9,22.274a4.23,4.23,0,0,0,7.663.018,8.654,8.654,0,0,1-.993-1.272l-.146-.212a4.152,4.152,0,0,1-2.7.919,4.1,4.1,0,0,1-2.869-1.149c-.044-.041-.09-.082-.133-.125-.107.3-.243.653-.389.985a5.7,5.7,0,0,1-.438.837ZM23.715,27.6l.348-3.706a12.449,12.449,0,0,1-4.092-1.344c-1.067,3.555-6.8,3.977-8.418.092a13.22,13.22,0,0,1-4.067,1.241l.5,3.883A14.316,14.316,0,0,0,23.715,27.6ZM4.238,24.26l.061-.036c1.525-.85,5.5-1.131,7.143-2.28a5.169,5.169,0,0,0,.376-.732c.189-.433.361-.9.471-1.226a15.048,15.048,0,0,1-1.234-1.758L9.808,16.242A3.643,3.643,0,0,1,9.1,14.427a1.413,1.413,0,0,1,.123-.65,1.187,1.187,0,0,1,.43-.5,1.394,1.394,0,0,1,.3-.154,31.73,31.73,0,0,1-.059-3.57,4.737,4.737,0,0,1,.154-.809,4.778,4.778,0,0,1,2.109-2.687,6.643,6.643,0,0,1,1.769-.786c.4-.113-.338-1.38.072-1.423,1.984-.2,5.19,1.607,6.575,3.1A4.851,4.851,0,0,1,21.8,10.015l-.077,3.24h0a.9.9,0,0,1,.658.681,2.805,2.805,0,0,1-.343,1.7h0a.305.305,0,0,1-.02.041L20.59,18.026a12.216,12.216,0,0,1-1.746,2.406c.061.09.125.179.187.271a8.377,8.377,0,0,0,.929,1.2.2.2,0,0,1,.031.038c1.638,1.157,5.626,1.438,7.156,2.291l.061.036a14.309,14.309,0,1,0-22.971,0ZM10.675,13.7a1.228,1.228,0,0,0-.63.164.5.5,0,0,0-.179.207.749.749,0,0,0-.059.335,2.986,2.986,0,0,0,.594,1.449l.005.008h0l1.249,1.986a10.653,10.653,0,0,0,1.679,2.2,3.43,3.43,0,0,0,2.4.965,3.535,3.535,0,0,0,2.534-1.006,11.083,11.083,0,0,0,1.728-2.355L21.4,15.344a2.246,2.246,0,0,0,.3-1.234c-.036-.141-.189-.207-.453-.223-.056,0-.113,0-.171,0s-.128.005-.2.013a.368.368,0,0,1-.107-.008,1.989,1.989,0,0,1-.386-.02l.481-2.132c-3.573.563-6.247-2.091-10.025-.53l.271,2.513a2.151,2.151,0,0,1-.433-.018Z" fill="url(#linear-gradient)"/>
</svg>
