<svg width="1306" height="735" viewBox="0 0 1306 735" fill="none" xmlns="http://www.w3.org/2000/svg">
<g opacity="0.25" filter="url(#filter0_b_34_253)">
<ellipse cx="151" cy="442.5" rx="301" ry="292.5" fill="url(#paint0_linear_34_253)"/>
</g>
<g opacity="0.31">
<path d="M1219.09 32.9278C1219.09 32.9278 1239.2 10.1552 1223.77 1.11189C1216.18 -3.33767 1210.19 7.00117 1210.19 7.00117C1210.19 7.00117 1199.12 2.54701 1195.87 10.7398C1189.25 27.3924 1219.08 32.9313 1219.08 32.9313L1219.09 32.9278Z" fill="url(#paint1_linear_34_253)"/>
<g style="mix-blend-mode:overlay" opacity="0.75">
<path d="M1210.39 6.93164C1210.39 6.93164 1213.26 1.90094 1217.56 0.395752C1213.56 1.74219 1210.74 6.10208 1210.26 6.88141C1210.34 6.91327 1210.39 6.93164 1210.39 6.93164Z" fill="white"/>
<path d="M1196.24 10.6125C1197.17 8.23352 1198.76 6.92798 1200.54 6.27222C1198.61 6.89688 1196.87 8.22034 1195.87 10.7397C1189.25 27.3924 1219.08 32.9313 1219.08 32.9313L1219.09 32.9277C1219.09 32.9277 1219.11 32.897 1219.16 32.8392C1217.19 32.4388 1189.99 26.6187 1196.24 10.6125Z" fill="white"/>
</g>
<path d="M1218.9 32.9278L1218.89 32.9297L1210 7.00207C1210 7.00207 1215.99 -3.33722 1223.58 1.11191C1239.01 10.1551 1218.9 32.9278 1218.9 32.9278Z" fill="url(#paint2_linear_34_253)"/>
<path d="M1263.6 81.6884C1263.6 81.6884 1314.08 73.5993 1303.62 45.2619C1298.48 31.3205 1279.65 38.3639 1279.65 38.3639C1279.65 38.3639 1269.99 20.6927 1257.01 27.8739C1230.63 42.4687 1263.58 81.682 1263.58 81.682L1263.6 81.6884Z" fill="url(#paint3_linear_34_253)"/>
<g style="mix-blend-mode:overlay" opacity="0.75">
<path d="M1279.99 38.4894C1279.99 38.4894 1289.1 35.0196 1296.3 37.6717C1289.65 35.1267 1281.33 37.7829 1279.87 38.2857C1279.95 38.4175 1279.99 38.4894 1279.99 38.4894Z" fill="white"/>
<path d="M1257.63 28.1036C1261.38 26.0011 1264.84 26.0037 1267.86 27.0636C1264.68 25.8076 1261 25.6658 1257.01 27.8738C1230.63 42.4686 1263.58 81.682 1263.58 81.682L1263.6 81.6883C1263.6 81.6883 1263.67 81.6776 1263.79 81.6557C1261.65 79.0143 1232.42 42.2501 1257.63 28.1036Z" fill="white"/>
</g>
<path d="M1263.6 81.6876L1263.59 81.684L1279.65 38.3646C1279.65 38.3646 1298.48 31.3204 1303.62 45.2611C1314.08 73.5988 1263.6 81.6876 1263.6 81.6876Z" fill="url(#paint4_linear_34_253)"/>
</g>
<g opacity="0.31">
<path d="M164.699 406.077C164.699 406.077 144.193 383.659 159.464 374.348C166.977 369.766 173.145 379.999 173.145 379.999C173.145 379.999 184.128 375.353 187.525 383.487C194.432 400.022 164.71 406.08 164.71 406.08L164.699 406.077Z" fill="url(#paint5_linear_34_253)"/>
<g style="mix-blend-mode:overlay" opacity="0.75">
<path d="M172.943 379.933C172.943 379.933 169.981 374.953 165.656 373.523C169.686 374.8 172.58 379.11 173.071 379.881C172.987 379.914 172.943 379.933 172.943 379.933Z" fill="white"/>
<path d="M187.154 383.366C186.184 381.004 184.574 379.726 182.779 379.102C184.718 379.693 186.48 380.986 187.525 383.487C194.432 400.022 164.71 406.08 164.71 406.08L164.699 406.077C164.699 406.077 164.672 406.047 164.621 405.99C166.589 405.555 193.683 399.261 187.154 383.366Z" fill="white"/>
</g>
<path d="M164.7 406.076L164.705 406.078L173.145 379.999C173.145 379.999 166.977 369.766 159.465 374.347C144.193 383.658 164.7 406.076 164.7 406.076Z" fill="url(#paint6_linear_34_253)"/>
<path d="M121.046 455.607C121.046 455.607 70.428 448.4 80.3913 419.884C85.292 405.855 104.239 412.569 104.239 412.569C104.239 412.569 113.591 394.732 126.691 401.686C153.32 415.818 121.063 455.6 121.063 455.6L121.046 455.607Z" fill="url(#paint7_linear_34_253)"/>
<g style="mix-blend-mode:overlay" opacity="0.75">
<path d="M103.905 412.7C103.905 412.7 94.7366 409.39 87.5776 412.168C94.1881 409.507 102.554 412.017 104.016 412.495C103.942 412.628 103.905 412.7 103.905 412.7Z" fill="white"/>
<path d="M126.079 401.926C122.296 399.889 118.836 399.952 115.831 401.065C118.988 399.754 122.662 399.548 126.691 401.686C153.32 415.818 121.064 455.6 121.064 455.6L121.047 455.607C121.047 455.607 120.978 455.597 120.851 455.577C122.952 452.899 151.533 415.63 126.079 401.926Z" fill="white"/>
</g>
<path d="M121.046 455.606L121.056 455.602L104.24 412.57C104.24 412.57 85.292 405.855 80.3912 419.884C70.4272 448.399 121.046 455.606 121.046 455.606Z" fill="url(#paint8_linear_34_253)"/>
</g>
<g opacity="0.53" filter="url(#filter1_b_34_253)">
<circle cx="950" cy="348" r="133" fill="url(#paint9_linear_34_253)"/>
</g>
<g opacity="0.53" filter="url(#filter2_b_34_253)">
<circle cx="369" cy="169" r="133" fill="url(#paint10_linear_34_253)"/>
</g>
<defs>
<filter id="filter0_b_34_253" x="-198" y="102" width="698" height="681" filterUnits="userSpaceOnUse" color-interpolation-filters="sRGB">
<feFlood flood-opacity="0" result="BackgroundImageFix"/>
<feGaussianBlur in="BackgroundImageFix" stdDeviation="24"/>
<feComposite in2="SourceAlpha" operator="in" result="effect1_backgroundBlur_34_253"/>
<feBlend mode="normal" in="SourceGraphic" in2="effect1_backgroundBlur_34_253" result="shape"/>
</filter>
<filter id="filter1_b_34_253" x="769" y="167" width="362" height="362" filterUnits="userSpaceOnUse" color-interpolation-filters="sRGB">
<feFlood flood-opacity="0" result="BackgroundImageFix"/>
<feGaussianBlur in="BackgroundImageFix" stdDeviation="24"/>
<feComposite in2="SourceAlpha" operator="in" result="effect1_backgroundBlur_34_253"/>
<feBlend mode="normal" in="SourceGraphic" in2="effect1_backgroundBlur_34_253" result="shape"/>
</filter>
<filter id="filter2_b_34_253" x="188" y="-12" width="362" height="362" filterUnits="userSpaceOnUse" color-interpolation-filters="sRGB">
<feFlood flood-opacity="0" result="BackgroundImageFix"/>
<feGaussianBlur in="BackgroundImageFix" stdDeviation="24"/>
<feComposite in2="SourceAlpha" operator="in" result="effect1_backgroundBlur_34_253"/>
<feBlend mode="normal" in="SourceGraphic" in2="effect1_backgroundBlur_34_253" result="shape"/>
</filter>
<linearGradient id="paint0_linear_34_253" x1="1008.71" y1="1371.55" x2="126.464" y2="1371.55" gradientUnits="userSpaceOnUse">
<stop stop-color="#FECACA"/>
<stop offset="0.439261" stop-color="#FCADAD"/>
<stop offset="1" stop-color="#622466"/>
</linearGradient>
<linearGradient id="paint1_linear_34_253" x1="1199.91" y1="-1.87624" x2="1217.24" y2="-1.87624" gradientUnits="userSpaceOnUse">
<stop stop-color="#FF7D96"/>
<stop offset="1" stop-color="#E53E65"/>
</linearGradient>
<linearGradient id="paint2_linear_34_253" x1="1207.07" y1="16.4649" x2="1236.32" y2="16.4649" gradientUnits="userSpaceOnUse">
<stop stop-color="#FF7D96"/>
<stop offset="1" stop-color="#E53E65"/>
</linearGradient>
<linearGradient id="paint3_linear_34_253" x1="1255.17" y1="22.9938" x2="1284.3" y2="22.9938" gradientUnits="userSpaceOnUse">
<stop stop-color="#FF7D96"/>
<stop offset="1" stop-color="#E53E65"/>
</linearGradient>
<linearGradient id="paint4_linear_34_253" x1="1257.34" y1="59.1364" x2="1319.83" y2="59.1364" gradientUnits="userSpaceOnUse">
<stop stop-color="#FF7D96"/>
<stop offset="1" stop-color="#E53E65"/>
</linearGradient>
<linearGradient id="paint5_linear_34_253" x1="183.269" y1="370.944" x2="165.936" y2="371.246" gradientUnits="userSpaceOnUse">
<stop stop-color="#FF7D96"/>
<stop offset="1" stop-color="#E53E65"/>
</linearGradient>
<linearGradient id="paint6_linear_34_253" x1="176.235" y1="389.41" x2="146.991" y2="389.92" gradientUnits="userSpaceOnUse">
<stop stop-color="#FF7D96"/>
<stop offset="1" stop-color="#E53E65"/>
</linearGradient>
<linearGradient id="paint7_linear_34_253" x1="128.446" y1="396.774" x2="99.3233" y2="397.283" gradientUnits="userSpaceOnUse">
<stop stop-color="#FF7D96"/>
<stop offset="1" stop-color="#E53E65"/>
</linearGradient>
<linearGradient id="paint8_linear_34_253" x1="126.912" y1="432.949" x2="64.4266" y2="434.04" gradientUnits="userSpaceOnUse">
<stop stop-color="#FF7D96"/>
<stop offset="1" stop-color="#E53E65"/>
</linearGradient>
<linearGradient id="paint9_linear_34_253" x1="1025.9" y1="862.837" x2="939.159" y2="862.837" gradientUnits="userSpaceOnUse">
<stop stop-color="#FECACA"/>
<stop offset="0.447642" stop-color="#FECACA"/>
<stop offset="1" stop-color="#622466"/>
</linearGradient>
<linearGradient id="paint10_linear_34_253" x1="444.899" y1="683.837" x2="358.159" y2="683.837" gradientUnits="userSpaceOnUse">
<stop stop-color="#FECACA"/>
<stop offset="0.447642" stop-color="#FECACA"/>
<stop offset="1" stop-color="#622466"/>
</linearGradient>
</defs>
</svg>
