<svg width="473" height="463" viewBox="0 0 473 463" fill="none" xmlns="http://www.w3.org/2000/svg">
<path d="M440.205 189.834C440.866 185.038 434.096 181.092 429.009 180.682C426.583 180.486 424.063 180.857 421.765 180.056C416.786 178.321 414.797 171.888 409.939 169.839C406.306 168.307 402.125 169.67 398.603 171.443C395.082 173.215 391.602 175.445 387.668 175.697C384.246 175.916 380.53 174.647 377.536 176.319C375.305 177.564 374.137 180.135 372.08 181.652C370.069 183.135 367.444 183.45 364.948 183.585C362.452 183.721 359.868 183.746 357.595 184.787C355.322 185.828 353.442 188.231 353.914 190.686L440.205 189.834Z" fill="#F5F5F5"/>
<path d="M277.867 139.692L278.77 141.193C279.784 142.878 281.26 144.237 283.023 145.109L284.593 145.886L283.092 146.789C281.407 147.803 280.048 149.279 279.176 151.042L278.399 152.613L277.496 151.111C276.482 149.426 275.006 148.067 273.243 147.195L271.672 146.418L273.174 145.515C274.859 144.501 276.218 143.025 277.09 141.262L277.867 139.692Z" fill="#E26A6C"/>
<path d="M458.274 122.6L458.841 128.245C458.977 129.597 459.527 130.909 460.528 131.83L460.594 131.89C461.554 132.756 462.822 133.201 464.113 133.266L468.57 133.491L463.983 134.309C462.797 134.52 461.678 135.062 460.841 135.928C460.75 136.022 460.661 136.119 460.574 136.218C459.772 137.129 459.325 138.3 459.216 139.508L458.71 145.141L458.15 139.817C458.009 138.474 457.458 137.175 456.467 136.259C456.408 136.205 456.348 136.151 456.287 136.098C455.395 135.319 454.259 134.872 453.081 134.749L448.368 134.258L452.782 133.719C454.088 133.559 455.343 133.01 456.241 132.048C456.296 131.989 456.35 131.93 456.403 131.87C457.211 130.953 457.659 129.773 457.763 128.556L458.274 122.6Z" fill="#E26A6C"/>
<path d="M24.5597 234.648L25.4627 236.149C26.4777 237.834 27.9527 239.194 29.7157 240.065L31.2867 240.842L29.7857 241.746C28.0997 242.759 26.7407 244.236 25.8687 245.998L25.0917 247.569L24.1887 246.068C23.1747 244.382 21.6987 243.023 19.9357 242.151L18.3657 241.375L19.8667 240.471C21.5517 239.457 22.9107 237.981 23.7827 236.218L24.5597 234.648Z" fill="#E26A6C"/>
<path d="M154.55 65.925L155.319 73.585C155.503 75.42 156.25 77.2 157.608 78.45C157.637 78.477 157.667 78.504 157.697 78.531C159 79.706 160.721 80.31 162.473 80.399L168.521 80.704L162.297 81.813C160.687 82.1 159.169 82.835 158.033 84.01C157.909 84.139 157.788 84.27 157.67 84.404C156.583 85.641 155.975 87.229 155.828 88.869L155.142 96.513L154.381 89.288C154.19 87.466 153.443 85.703 152.097 84.46C152.017 84.386 151.936 84.313 151.854 84.241C150.642 83.185 149.101 82.577 147.503 82.411L141.107 81.745L147.096 81.013C148.869 80.796 150.573 80.05 151.791 78.746C151.866 78.666 151.939 78.585 152.011 78.504C153.108 77.26 153.715 75.658 153.857 74.007L154.55 65.925Z" fill="#E26A6C"/>
<path d="M28.9417 63.6499L29.5087 69.2939C29.6437 70.6469 30.1947 71.9589 31.1947 72.8799L31.2607 72.9399C32.2207 73.8049 33.4897 74.2509 34.7807 74.3159L39.2367 74.5409L34.6507 75.3579C33.4647 75.5689 32.3457 76.1109 31.5087 76.9769C31.4167 77.0719 31.3277 77.1689 31.2407 77.2679C30.4397 78.1789 29.9917 79.3489 29.8837 80.5579L29.3777 86.1909L28.8177 80.8659C28.6757 79.5239 28.1257 78.2249 27.1337 77.3089C27.0747 77.2539 27.0147 77.1999 26.9547 77.1479C26.0617 76.3689 24.9267 75.9209 23.7477 75.7989L19.0347 75.3079L23.4487 74.7679C24.7547 74.6089 26.0107 74.0589 26.9087 73.0979C26.9637 73.0389 27.0177 72.9799 27.0707 72.9189C27.8787 72.0029 28.3267 70.8229 28.4307 69.6049L28.9417 63.6499Z" fill="#E26A6C"/>
<path d="M407.177 232.58L407.744 238.224C407.88 239.577 408.431 240.889 409.431 241.81L409.497 241.87C410.457 242.735 411.726 243.181 413.017 243.246L417.473 243.471L412.887 244.288C411.701 244.499 410.582 245.041 409.745 245.907C409.653 246.002 409.564 246.099 409.477 246.198C408.676 247.109 408.228 248.279 408.119 249.488L407.614 255.121L407.053 249.796C406.912 248.454 406.362 247.155 405.37 246.239C405.311 246.184 405.251 246.13 405.191 246.078C404.298 245.299 403.163 244.851 401.984 244.729L397.271 244.238L401.685 243.698C402.991 243.539 404.247 242.989 405.145 242.028C405.2 241.969 405.254 241.909 405.307 241.849C406.115 240.933 406.562 239.753 406.667 238.535L407.177 232.58Z" fill="#E26A6C"/>
<path d="M319.452 22.999L319.903 23.749C320.41 24.592 321.148 25.272 322.03 25.708L322.815 26.096L322.064 26.548C321.222 27.054 320.542 27.793 320.106 28.674L319.718 29.459L319.266 28.709C318.759 27.866 318.021 27.186 317.14 26.75L316.354 26.362L317.105 25.91C317.948 25.403 318.627 24.665 319.063 23.784L319.452 22.999Z" fill="#E26A6C"/>
<path d="M260.778 100.03L261.23 100.781C261.737 101.623 262.475 102.303 263.356 102.739L264.142 103.127L263.391 103.579C262.548 104.086 261.869 104.824 261.433 105.705L261.045 106.491L260.593 105.74C260.086 104.897 259.348 104.218 258.466 103.782L257.681 103.393L258.432 102.942C259.274 102.435 259.954 101.697 260.39 100.815L260.778 100.03Z" fill="#E0E0E0"/>
<path d="M442.097 33.5168L442.549 34.2678C443.056 35.1098 443.794 35.7898 444.675 36.2258L445.46 36.6138L444.71 37.0658C443.867 37.5728 443.187 38.3108 442.752 39.1928L442.363 39.9778L441.912 39.2268C441.405 38.3839 440.667 37.7048 439.785 37.2688L439 36.8808L439.75 36.4288C440.593 35.9218 441.273 35.1838 441.709 34.3018L442.097 33.5168Z" fill="#E26A6C"/>
<path d="M182.542 156.279L182.993 157.03C183.5 157.872 184.238 158.552 185.12 158.988L185.905 159.376L185.154 159.828C184.312 160.335 183.632 161.073 183.196 161.954L182.808 162.739L182.356 161.989C181.849 161.146 181.111 160.467 180.23 160.031L179.444 159.642L180.195 159.191C181.038 158.684 181.717 157.946 182.153 157.064L182.542 156.279Z" fill="#E0E0E0"/>
<circle cx="243.893" cy="44.1291" r="43.9641" fill="#EBEBEB"/>
<path d="M249.938 83.963C225.657 83.963 205.974 64.28 205.974 39.999C205.974 26.237 212.301 13.956 222.201 5.89502C208.904 13.456 199.929 27.74 199.929 44.129C199.929 68.41 219.613 88.093 243.894 88.093C254.412 88.093 264.064 84.395 271.631 78.233C265.229 81.874 257.83 83.963 249.938 83.963Z" fill="#E0E0E0"/>
<circle cx="283.598" cy="31.1881" r="9.60812" transform="rotate(-80.7546 283.598 31.1881)" fill="#F5F5F5"/>
<path d="M279.193 57.0778C279.193 60.7078 276.251 63.6498 272.622 63.6498C268.993 63.6498 266.051 60.7078 266.051 57.0778C266.051 53.4488 268.993 50.5068 272.622 50.5068C276.251 50.5068 279.193 53.4488 279.193 57.0778Z" fill="#F5F5F5"/>
<path d="M283.51 32.5099C283.493 32.5159 283.406 32.3259 283.255 31.9599C283.095 31.5979 282.91 31.0449 282.6 30.3619C282.023 28.9789 281.095 27.0129 279.724 24.7159C277.021 20.1329 272.182 14.2669 265.188 10.0119C258.19 5.75594 250.755 4.15694 245.442 3.86494C242.772 3.70294 240.6 3.78394 239.107 3.90794C238.358 3.94594 237.781 4.03594 237.386 4.06094C236.992 4.09494 236.784 4.10394 236.781 4.08694C236.778 4.06894 236.982 4.02494 237.372 3.95694C237.763 3.89794 238.338 3.77594 239.087 3.70594C240.581 3.51894 242.766 3.38094 245.462 3.49694C250.824 3.69594 258.37 5.25594 265.458 9.56694C272.544 13.8779 277.398 19.8599 280.041 24.5289C281.384 26.8699 282.266 28.8739 282.788 30.2859C283.07 30.9849 283.226 31.5509 283.354 31.9249C283.473 32.3029 283.527 32.5039 283.51 32.5099Z" fill="white"/>
<path d="M284.217 51.2289C284.057 51.1739 285.27 48.4379 285.377 44.8319C285.528 41.2269 284.513 38.4119 284.677 38.3689C284.734 38.3469 285.065 39.0179 285.382 40.1809C285.7 41.3409 285.961 43.0049 285.897 44.8509C285.829 46.6959 285.45 48.3369 285.05 49.4709C284.651 50.6089 284.273 51.2539 284.217 51.2289Z" fill="white"/>
<path d="M104.406 126.6C105.066 121.803 98.2967 117.857 93.2097 117.447C90.7837 117.251 88.2637 117.622 85.9657 116.821C80.9867 115.086 78.9977 108.653 74.1397 106.604C70.5067 105.072 66.3257 106.436 62.8037 108.208C59.2827 109.98 55.8027 112.21 51.8687 112.462C48.4467 112.681 44.7307 111.412 41.7367 113.084C39.5057 114.33 38.3367 116.9 36.2807 118.417C34.2687 119.901 31.6447 120.215 29.1487 120.351C26.6527 120.487 24.0687 120.512 21.7957 121.552C19.5227 122.593 17.6427 124.996 18.1147 127.451L104.406 126.6Z" fill="#EBEBEB"/>
<path d="M146.185 18.4188C146.659 14.9758 141.8 12.1428 138.148 11.8488C136.407 11.7088 134.598 11.9748 132.949 11.3998C129.374 10.1538 127.947 5.53685 124.459 4.06585C121.852 2.96585 118.85 3.94485 116.322 5.21685C113.795 6.48884 111.297 8.08985 108.473 8.27085C106.016 8.42785 103.349 7.51684 101.2 8.71685C99.598 9.61085 98.759 11.4568 97.283 12.5448C95.839 13.6108 93.955 13.8358 92.164 13.9338C90.372 14.0308 88.517 14.0488 86.885 14.7958C85.254 15.5428 83.904 17.2678 84.243 19.0308L146.185 18.4188Z" fill="#F5F5F5"/>
<path d="M421.608 95.2029C422.082 91.7599 417.223 88.9269 413.571 88.6329C411.83 88.4919 410.021 88.7589 408.371 88.1839C404.797 86.9379 403.369 82.3199 399.882 80.8489C397.275 79.7499 394.273 80.7289 391.745 82.0009C389.217 83.2729 386.719 84.8739 383.895 85.0549C381.439 85.2119 378.772 84.3009 376.622 85.5009C375.021 86.3949 374.182 88.2399 372.706 89.3289C371.262 90.3939 369.378 90.6199 367.586 90.7169C365.795 90.8149 363.94 90.8329 362.308 91.5799C360.677 92.3269 359.327 94.0519 359.666 95.8139L421.608 95.2029Z" fill="#EBEBEB"/>
<path d="M472.436 389.688C472.436 389.832 366.669 389.949 236.229 389.949C105.744 389.949 0 389.832 0 389.688C0 389.544 105.744 389.428 236.229 389.428C366.669 389.428 472.436 389.544 472.436 389.688Z" fill="#263238"/>
<path d="M407.586 390.354C407.511 390.38 407.12 389.402 406.437 387.85C405.756 386.297 404.754 384.18 403.481 381.931C402.205 379.684 400.903 377.737 399.921 376.354C398.94 374.971 398.301 374.133 398.362 374.083C398.411 374.041 399.151 374.796 400.216 376.133C401.28 377.468 402.645 379.404 403.934 381.674C405.22 383.946 406.179 386.111 406.778 387.71C407.379 389.31 407.647 390.333 407.586 390.354Z" fill="#263238"/>
<path d="M406.881 359.224C406.916 359.217 407.042 359.642 407.24 360.417C407.439 361.192 407.706 362.319 408.019 363.714C408.646 366.505 409.449 370.374 410.24 374.666C411.031 378.959 411.66 382.861 412.068 385.692C412.273 387.108 412.425 388.255 412.516 389.05C412.607 389.845 412.64 390.287 412.605 390.292C412.569 390.298 412.468 389.866 412.315 389.081C412.152 388.189 411.948 387.075 411.705 385.751C411.179 382.828 410.49 378.997 409.728 374.76C408.93 370.532 408.209 366.707 407.658 363.789C407.413 362.465 407.207 361.351 407.042 360.46C406.905 359.672 406.845 359.232 406.881 359.224Z" fill="#263238"/>
<path d="M420.07 373.825C420.231 373.892 418.422 377.296 417.759 381.918C417.049 386.536 417.791 390.318 417.618 390.334C417.559 390.346 417.296 389.423 417.12 387.883C416.941 386.347 416.899 384.188 417.244 381.842C417.596 379.497 418.264 377.444 418.881 376.026C419.497 374.604 420.017 373.797 420.07 373.825Z" fill="#263238"/>
<path d="M445.629 352.766C447.378 353.525 448.665 355.142 449.31 356.936C449.956 358.73 450.014 360.69 449.799 362.585C449.384 366.251 447.301 369.951 445.058 372.88C441.971 370.186 441.261 365.487 441.05 363.08C440.718 359.276 442.426 352.199 445.629 352.766Z" fill="#FF725E"/>
<path d="M448.646 378.931C448.152 376.859 449.014 374.586 450.605 373.169C452.195 371.752 454.417 371.152 456.541 371.315C457.523 371.39 458.584 371.676 459.146 372.485C459.672 373.241 459.613 374.296 459.186 375.112C458.76 375.928 458.022 376.538 457.242 377.027C454.567 378.705 451.671 379.838 448.646 378.931Z" fill="#FF725E"/>
<path d="M444.688 390.171C444.669 390.166 444.711 389.899 444.798 389.418C444.895 388.889 445.02 388.205 445.171 387.383C445.512 385.682 445.95 383.245 447.272 380.879C448.576 378.52 450.402 376.782 451.939 375.919C452.702 375.478 453.37 375.215 453.842 375.078C454.075 374.999 454.265 374.97 454.39 374.939C454.516 374.912 454.584 374.902 454.586 374.911C454.608 374.971 453.516 375.168 452.036 376.082C450.552 376.969 448.788 378.69 447.505 381.009C446.209 383.326 445.744 385.729 445.356 387.421C445.169 388.274 445.017 388.965 444.899 389.44C444.782 389.915 444.705 390.175 444.688 390.171Z" fill="#263238"/>
<path d="M444.804 358.27C444.813 358.27 444.826 358.383 444.841 358.599L444.898 359.544C444.941 360.365 444.99 361.553 445.037 363.022C445.132 365.959 445.207 370.019 445.188 374.503C445.168 378.989 445.058 383.049 444.937 385.985C444.878 387.453 444.819 388.641 444.768 389.461C444.742 389.848 444.72 390.161 444.704 390.405C444.686 390.621 444.672 390.734 444.663 390.733C444.654 390.733 444.65 390.619 444.65 390.403C444.654 390.158 444.658 389.845 444.664 389.457C444.685 388.602 444.713 387.422 444.749 385.979C444.821 383.042 444.9 378.985 444.921 374.502C444.939 370.021 444.895 365.963 444.848 363.026C444.825 361.582 444.807 360.402 444.794 359.547C444.791 359.159 444.789 358.845 444.788 358.601C444.789 358.385 444.795 358.271 444.804 358.27Z" fill="#263238"/>
<path d="M443.305 381.162C442.603 376.727 439.614 372.717 435.564 370.777C434.533 370.283 433.185 369.96 432.338 370.727C431.488 371.496 431.679 372.875 432.094 373.943C433.823 378.384 438.467 381.52 443.232 381.464" fill="#FF725E"/>
<path d="M436.064 374.254C436.072 374.237 436.304 374.34 436.719 374.54C436.927 374.638 437.182 374.76 437.459 374.934C437.737 375.107 438.072 375.276 438.402 375.525C438.738 375.763 439.114 376.016 439.48 376.337C439.863 376.635 440.236 376.996 440.627 377.379C441.387 378.163 442.153 379.098 442.807 380.18C443.451 381.268 443.917 382.384 444.243 383.427C444.39 383.954 444.531 384.454 444.606 384.935C444.71 385.41 444.749 385.862 444.791 386.272C444.848 386.682 444.829 387.057 444.842 387.384C444.857 387.711 444.836 387.992 444.818 388.222C444.784 388.682 444.757 388.934 444.738 388.932C444.678 388.93 444.783 387.913 444.603 386.292C444.55 385.888 444.501 385.444 444.388 384.978C444.306 384.506 444.158 384.016 444.008 383.5C443.674 382.478 443.21 381.386 442.578 380.317C441.935 379.255 441.189 378.332 440.451 377.551C440.071 377.17 439.709 376.808 439.337 376.506C438.983 376.183 438.619 375.925 438.293 375.68C436.967 374.729 436.037 374.306 436.064 374.254Z" fill="#263238"/>
<path d="M238.45 434.546C238.308 434.568 237.371 429.215 236.357 422.592C235.343 415.966 234.636 410.579 234.778 410.558C234.92 410.536 235.858 415.888 236.872 422.513C237.886 429.137 238.592 434.525 238.45 434.546Z" fill="#263238"/>
<path d="M235.679 436.085C235.602 436.106 235.253 434.983 234.62 433.198C233.989 431.413 233.042 428.973 231.797 426.37C230.548 423.766 229.241 421.5 228.245 419.889C227.251 418.277 226.594 417.302 226.659 417.255C226.71 417.217 227.473 418.117 228.554 419.688C229.635 421.258 231.006 423.517 232.267 426.145C233.524 428.773 234.425 431.257 234.97 433.083C235.517 434.91 235.741 436.069 235.679 436.085Z" fill="#263238"/>
<path d="M243.893 413.979C243.972 414.006 243.583 415.22 243.088 417.21C242.591 419.199 242.036 421.981 241.755 425.093C241.48 428.208 241.534 431.044 241.67 433.089C241.804 435.136 241.973 436.399 241.89 436.412C241.855 436.418 241.775 436.108 241.662 435.541C241.543 434.976 241.418 434.148 241.303 433.121C241.071 431.068 240.958 428.197 241.236 425.047C241.52 421.898 242.141 419.094 242.733 417.114C243.027 416.123 243.297 415.331 243.514 414.795C243.726 414.257 243.86 413.967 243.893 413.979Z" fill="#263238"/>
<path d="M26.2656 366.378C26.2956 366.357 26.5126 366.628 26.8806 367.136C27.2546 367.64 27.7486 368.404 28.3136 369.374C29.4456 371.312 30.7796 374.142 31.7376 377.443C32.6886 380.747 33.0706 383.852 33.1456 386.095C33.1856 387.218 33.1756 388.127 33.1286 388.753C33.0886 389.379 33.0486 389.723 33.0126 389.722C32.9246 389.72 32.9506 388.336 32.7786 386.117C32.6096 383.9 32.1746 380.848 31.2376 377.587C30.2916 374.331 29.0306 371.517 27.9906 369.552C26.9526 367.584 26.1926 366.427 26.2656 366.378Z" fill="#263238"/>
<path d="M37.41 359.52C37.446 359.516 37.53 359.928 37.651 360.678C37.773 361.427 37.928 362.515 38.102 363.861C38.451 366.554 38.865 370.282 39.22 374.409C39.574 378.537 39.801 382.282 39.916 384.994C39.974 386.35 40.008 387.448 40.015 388.208C40.023 388.967 40.011 389.388 39.975 389.39C39.939 389.391 39.883 388.974 39.813 388.219C39.741 387.353 39.653 386.283 39.549 385.016C39.323 382.196 39.027 378.52 38.701 374.453C38.33 370.392 37.994 366.72 37.736 363.902C37.623 362.637 37.527 361.567 37.45 360.702C37.391 359.945 37.375 359.524 37.41 359.52Z" fill="#263238"/>
<path d="M49.8617 373.141C50.0177 373.226 47.6837 376.361 46.5837 380.94C45.4297 385.506 46.0377 389.365 45.8607 389.369C45.8037 389.378 45.5737 388.437 45.4867 386.876C45.3967 385.319 45.5087 383.139 46.0787 380.815C46.6547 378.493 47.5687 376.511 48.3717 375.174C49.1737 373.833 49.8157 373.106 49.8617 373.141Z" fill="#263238"/>
<path d="M60.6566 414.253C62.4056 415.012 63.6926 416.629 64.3386 418.423C64.9836 420.217 65.0416 422.177 64.8276 424.072C64.4116 427.738 62.3286 431.438 60.0856 434.367C56.9996 431.673 56.2886 426.974 56.0786 424.567C55.7456 420.763 57.4546 413.686 60.6566 414.253Z" fill="#FF725E"/>
<path d="M63.6747 440.418C63.1807 438.346 64.0427 436.073 65.6327 434.656C67.2227 433.239 69.4447 432.639 71.5687 432.802C72.5507 432.877 73.6117 433.163 74.1747 433.972C74.6997 434.728 74.6407 435.783 74.2147 436.598C73.7877 437.415 73.0497 438.025 72.2697 438.514C69.5957 440.192 66.6987 441.325 63.6747 440.418Z" fill="#FF725E"/>
<path d="M59.7159 451.658C59.6969 451.653 59.7399 451.386 59.8259 450.905C59.9229 450.376 60.0489 449.692 60.1989 448.87C60.5399 447.168 60.9779 444.731 62.2999 442.366C63.6039 440.007 65.4299 438.269 66.9669 437.407C67.7309 436.965 68.3989 436.702 68.8699 436.565C69.1029 436.486 69.2929 436.457 69.4179 436.426C69.5449 436.399 69.6119 436.389 69.6139 436.398C69.6359 436.458 68.5449 436.655 67.0649 437.569C65.5809 438.456 63.8169 440.177 62.5339 442.496C61.2379 444.813 60.7719 447.216 60.3839 448.908C60.1979 449.761 60.0459 450.452 59.9279 450.927C59.8099 451.402 59.7329 451.661 59.7159 451.658Z" fill="#263238"/>
<path d="M59.8317 419.757C59.8407 419.757 59.8537 419.87 59.8697 420.086L59.9257 421.031C59.9697 421.852 60.0177 423.04 60.0647 424.508C60.1607 427.446 60.2347 431.506 60.2157 435.99C60.1957 440.476 60.0857 444.535 59.9657 447.472C59.9057 448.94 59.8467 450.128 59.7957 450.948C59.7697 451.335 59.7487 451.648 59.7317 451.892C59.7147 452.108 59.7007 452.221 59.6917 452.22C59.6817 452.22 59.6777 452.106 59.6777 451.89C59.6817 451.645 59.6867 451.332 59.6927 450.944C59.7127 450.089 59.7417 448.909 59.7767 447.466C59.8487 444.529 59.9287 440.472 59.9487 435.989C59.9677 431.508 59.9227 427.45 59.8757 424.513C59.8537 423.069 59.8347 421.889 59.8217 421.034C59.8197 420.646 59.8177 420.332 59.8157 420.088C59.8177 419.872 59.8227 419.758 59.8317 419.757Z" fill="#263238"/>
<path d="M58.3337 442.649C57.6318 438.214 54.6418 434.204 50.5917 432.264C49.5607 431.77 48.2137 431.447 47.3657 432.214C46.5167 432.983 46.7067 434.362 47.1217 435.43C48.8507 439.871 53.4948 443.007 58.2607 442.951" fill="#FF725E"/>
<path d="M51.0929 435.741C51.1009 435.724 51.3329 435.827 51.7479 436.026C51.9559 436.125 52.2099 436.247 52.4879 436.421C52.7649 436.594 53.0999 436.763 53.4299 437.012C53.7669 437.25 54.1429 437.503 54.5079 437.823C54.8919 438.122 55.2649 438.483 55.6549 438.866C56.4159 439.65 57.1809 440.585 57.8349 441.667C58.4789 442.755 58.9459 443.871 59.2719 444.914C59.4179 445.441 59.5599 445.941 59.6339 446.422C59.7389 446.897 59.7779 447.349 59.8199 447.759C59.8759 448.168 59.8569 448.544 59.8709 448.871C59.8859 449.198 59.8649 449.479 59.8459 449.709C59.8119 450.168 59.7849 450.421 59.7669 450.419C59.7059 450.417 59.8109 449.4 59.6319 447.779C59.5779 447.374 59.5289 446.931 59.4169 446.465C59.3339 445.993 59.1869 445.503 59.0359 444.987C58.7029 443.965 58.2379 442.873 57.6059 441.804C56.9639 440.742 56.2179 439.819 55.4789 439.038C55.0989 438.657 54.7379 438.295 54.3649 437.993C54.0109 437.67 53.6469 437.412 53.3209 437.167C51.9949 436.216 51.0659 435.793 51.0929 435.741Z" fill="#263238"/>
<g opacity="0.3">
<path d="M388.257 394.012C382.144 387.509 372.921 385.097 364.134 383.54C332.35 377.907 299.278 379.677 268.277 388.672L261.259 389.688C273.557 406.45 283.933 420.431 301.218 431.98C318.504 443.53 339.914 450.109 360.331 446.191C372.163 443.92 383.72 437.77 390.114 427.558C396.507 417.345 396.509 402.792 388.257 394.012Z" fill="black"/>
</g>
<path d="M323.236 279.333L292.995 294.089L281.623 267.016C281.623 267.016 279.223 267.662 273.352 256.36C267.481 245.059 257.211 226.005 257.211 226.005C268.001 213.481 284.704 207.467 300.867 210.287L303.266 210.706L323.236 279.333Z" fill="#FFBE9D"/>
<path d="M306.617 226.554C306.775 226.369 313.548 220.168 317.205 228.074C320.863 235.98 311.896 238.17 311.777 237.95C311.658 237.73 306.617 226.554 306.617 226.554Z" fill="#FFBE9D"/>
<path d="M267.97 243.973C267.728 243.99 259.607 245.735 263.779 253.382C267.951 261.029 275.051 255.132 274.945 254.905C274.839 254.678 267.97 243.973 267.97 243.973Z" fill="#FFBE9D"/>
<path d="M308.791 224.372C310.868 231.493 312.828 234.798 313.906 239.711C315.611 247.485 314.727 254.549 310.032 261.224C305.337 267.898 296.613 272.212 288.736 270.308C283.27 268.987 278.706 266.682 275.675 262.076C272.644 257.469 267.714 249.093 265.199 244.188C260.665 235.342 255.776 227.164 255.776 227.164L279.737 209.348L299.008 210.406L308.791 224.372Z" fill="#263238"/>
<path d="M298.72 271.841C298.77 272.041 301.086 271.495 303.521 269.916C305.965 268.351 307.409 266.475 307.245 266.347C307.071 266.19 305.424 267.756 303.084 269.25C300.758 270.763 298.646 271.619 298.72 271.841Z" fill="#263238"/>
<path d="M313.099 236.089C310.507 229.023 307.161 221.134 304.698 213.551C303.774 210.705 302.832 206.406 301.249 203.868C299.659 201.32 298.016 198.713 295.584 196.916C292.534 194.664 288.353 193.928 284.605 194.985C280.856 196.041 277.626 198.865 276.123 202.4C272.823 200.6 268.342 201.054 265.368 203.489C262.394 205.924 261.124 210.179 262.32 213.701C259.588 212.925 256.341 214.156 254.787 216.559C253.234 218.962 253.512 222.32 255.433 224.352C253.699 225.604 252.647 227.722 252.726 229.799C252.806 231.876 254.015 233.849 255.835 234.873C257.963 236.069 260.66 235.961 262.87 237.011C265.415 238.22 267.038 241.029 266.807 243.827" fill="#263238"/>
<path d="M264.47 230.325C264.449 230.347 264.648 230.583 265.128 230.908C265.607 231.225 266.388 231.629 267.49 231.797C268.573 231.967 270.022 231.883 271.433 231.122C272.824 230.381 274.158 228.981 274.684 227.096L274.055 227.23C275.179 228.769 277.344 229.597 279.528 229.352C281.745 229.195 283.937 227.714 285.088 225.65C286.179 223.777 286.509 221.654 286.298 219.756L285.697 220.146C288.177 221.518 291.103 221.325 293.231 220.301C295.423 219.274 296.699 217.395 297.243 215.808C297.806 214.188 297.73 212.804 297.556 211.921C297.372 211.029 297.119 210.597 297.089 210.611C297.03 210.632 297.192 211.094 297.286 211.967C297.371 212.832 297.36 214.149 296.766 215.649C296.187 217.126 294.963 218.804 292.951 219.695C290.99 220.593 288.306 220.716 286.111 219.472L285.429 219.085L285.509 219.862C285.689 221.611 285.371 223.573 284.381 225.268C283.319 227.14 281.437 228.42 279.464 228.584C277.511 228.819 275.614 228.105 274.628 226.808L274.184 226.224L273.999 226.942C273.569 228.614 272.4 229.92 271.157 230.631C269.904 231.36 268.581 231.498 267.553 231.395C265.451 231.158 264.527 230.212 264.47 230.325Z" fill="#455A64"/>
<path d="M262.963 227.218C263.108 227.18 262.298 225.961 262.661 223.822C262.852 222.783 263.4 221.552 264.52 220.638C265.613 219.725 267.25 219.128 268.898 219.36L269.76 219.481L269.31 218.755C268.881 218.062 268.586 217.249 268.454 216.384C268.176 214.44 268.756 212.469 269.858 211.127C270.95 209.758 272.479 209.026 273.779 208.718C276.465 208.116 278.097 209.021 278.129 208.858C278.15 208.82 277.795 208.565 277.04 208.322C276.289 208.093 275.11 207.904 273.673 208.164C272.258 208.424 270.544 209.158 269.276 210.674C268.003 212.161 267.334 214.348 267.644 216.52C267.791 217.487 268.128 218.404 268.623 219.185L269.035 218.58C267.106 218.33 265.272 219.053 264.064 220.122C262.822 221.201 262.272 222.622 262.14 223.759C262 224.916 262.229 225.831 262.462 226.403C262.701 226.979 262.928 227.239 262.963 227.218Z" fill="#455A64"/>
<path d="M279.831 219.011C279.911 218.917 279.586 218.579 279.315 217.932C279.035 217.285 278.862 216.324 278.98 215.221C279.101 214.151 279.316 213.014 279.46 212.396C279.663 211.792 280.182 211.88 280.219 211.813C280.253 211.779 280.174 211.619 279.888 211.588C279.625 211.544 279.166 211.74 278.939 212.164C278.709 212.584 278.624 213.013 278.478 213.507C278.347 214.003 278.222 214.563 278.165 215.171C278.03 216.387 278.332 217.545 278.803 218.211C279.271 218.894 279.775 219.094 279.831 219.011Z" fill="#455A64"/>
<path d="M290.493 201.389C290.562 201.319 290.192 200.783 289.288 200.218C288.833 199.949 288.231 199.672 287.477 199.603C286.73 199.522 285.837 199.726 285.114 200.226C283.641 201.244 283.128 202.785 282.897 203.762C282.67 204.776 282.652 205.404 282.754 205.427C282.87 205.453 283.094 204.848 283.45 203.913C283.81 202.996 284.371 201.695 285.565 200.883C286.747 200.044 288.141 200.334 289.009 200.721C289.899 201.109 290.411 201.484 290.493 201.389Z" fill="#455A64"/>
<path d="M303.003 236.427C303.211 236.453 303.73 233.579 303.282 230.069C302.854 226.555 301.65 223.934 301.456 224.02C301.227 224.103 302.056 226.778 302.47 230.188C302.906 233.593 302.762 236.412 303.003 236.427Z" fill="#455A64"/>
<path d="M300.418 240.065C300.639 240.06 300.823 238.03 300.588 235.551C300.358 233.07 299.801 231.127 299.584 231.173C299.357 231.22 299.547 233.207 299.773 235.646C300.004 238.084 300.187 240.072 300.418 240.065Z" fill="#455A64"/>
<path d="M278.551 251.737C278.355 251.786 279.613 255.196 282.898 258.115C286.155 261.065 289.74 261.999 289.773 261.805C289.88 261.575 286.572 260.345 283.46 257.517C280.312 254.729 278.776 251.613 278.551 251.737Z" fill="#455A64"/>
<path d="M272.166 247.842C271.962 247.842 272.336 251.132 274.751 254.257C277.134 257.408 280.235 258.664 280.292 258.471C280.429 258.259 277.662 256.754 275.411 253.765C273.117 250.81 272.41 247.769 272.166 247.842Z" fill="#455A64"/>
<path d="M256.525 225.223C256.559 225.299 256.139 225.503 255.631 226.008C255.126 226.5 254.549 227.352 254.415 228.412C254.286 229.473 254.638 230.441 255.008 231.041C255.378 231.654 255.735 231.955 255.683 232.02C255.652 232.071 255.196 231.868 254.705 231.251C254.22 230.651 253.75 229.575 253.898 228.348C254.054 227.123 254.772 226.194 255.389 225.731C256.015 225.252 256.507 225.167 256.525 225.223Z" fill="white"/>
<path d="M260.765 214.959C260.793 215.03 260.247 215.287 259.384 215.702C258.535 216.123 257.328 216.716 256.411 217.788C255.516 218.857 255.321 220.233 255.518 221.106C255.71 222.007 256.206 222.407 256.135 222.472C256.124 222.519 255.487 222.202 255.162 221.2C254.843 220.233 254.992 218.675 256.013 217.453C257.033 216.266 258.342 215.706 259.239 215.363C260.156 215.028 260.741 214.896 260.765 214.959Z" fill="white"/>
<path d="M270.073 202.912C270.085 202.998 269.353 203.089 268.285 203.536C267.225 203.972 265.83 204.843 264.794 206.256C263.761 207.67 263.352 209.263 263.257 210.406C263.154 211.559 263.288 212.284 263.202 212.299C263.149 212.315 262.879 211.602 262.889 210.387C262.892 209.187 263.265 207.466 264.374 205.948C265.485 204.432 267.013 203.556 268.156 203.192C269.311 202.814 270.072 202.856 270.073 202.912Z" fill="white"/>
<path d="M283.898 197.422C283.966 197.561 282.44 198.382 280.831 199.75C279.211 201.106 278.144 202.471 278.019 202.38C277.905 202.312 278.815 200.761 280.496 199.352C282.167 197.934 283.849 197.298 283.898 197.422Z" fill="white"/>
<path d="M270.848 220.967C270.811 221 270.2 220.298 269.763 218.891C269.322 217.512 269.165 215.357 270.065 213.259C270.975 211.165 272.652 209.802 273.958 209.178C275.282 208.531 276.211 208.494 276.213 208.544C276.237 208.634 275.352 208.802 274.132 209.502C272.923 210.183 271.392 211.51 270.543 213.466C269.702 215.424 269.785 217.448 270.119 218.795C270.445 220.163 270.93 220.922 270.848 220.967Z" fill="white"/>
<path d="M284.564 207.434C284.431 207.476 284.211 205.996 285.143 204.522C286.058 203.036 287.485 202.584 287.505 202.721C287.577 202.858 286.397 203.464 285.585 204.797C284.745 206.112 284.718 207.438 284.564 207.434Z" fill="white"/>
<path d="M249.083 365.215C250.56 367.294 261.34 397.352 278.065 409.982C294.79 422.613 310.314 430.717 334.353 429.928C358.392 429.139 370.999 422.656 379.95 419.141C404.098 409.655 395.593 390.985 395.593 390.985L353.461 380.382L296.42 350.089C296.42 350.089 275.863 330.611 268.307 327.903C260.751 325.195 250.889 337.065 248.801 347.651C246.713 358.238 249.083 365.215 249.083 365.215Z" fill="#263238"/>
<path d="M285.827 399.796C285.791 399.799 285.742 399.445 285.683 398.801C285.618 398.158 285.581 397.222 285.584 396.066C285.587 393.754 285.853 390.548 286.653 387.101C287.461 383.656 288.642 380.662 289.663 378.588C290.171 377.55 290.619 376.727 290.962 376.179C291.299 375.628 291.5 375.332 291.531 375.35C291.607 375.393 290.922 376.643 289.997 378.742C289.07 380.839 287.959 383.815 287.16 387.22C286.37 390.625 286.049 393.785 285.952 396.075C285.853 398.367 285.914 399.792 285.827 399.796Z" fill="#455A64"/>
<path d="M280.118 386.756C280.059 386.728 280.511 385.591 281.399 383.825C282.286 382.06 283.636 379.678 285.337 377.185C287.043 374.693 288.772 372.57 290.095 371.103C291.418 369.634 292.313 368.8 292.36 368.845C292.417 368.898 291.619 369.82 290.375 371.342C289.13 372.864 287.46 375.005 285.767 377.479C284.078 379.954 282.689 382.287 281.724 383.999C280.757 385.711 280.189 386.79 280.118 386.756Z" fill="#455A64"/>
<path d="M335.065 146.04L333.61 135.699C333.61 135.699 329.051 131.447 327.969 129.694C326.886 127.941 321.421 128.419 321.421 128.419L319.843 111.981C319.843 111.981 319.134 109.068 316.489 110.836C313.844 112.605 315.226 131.914 315.226 131.914L314.609 136.392C314.609 136.392 309.379 129.878 306.414 130.793C303.449 131.708 307.452 135.141 308.07 137.052C308.687 138.962 320.326 149.807 320.326 149.807L330.467 170.136L332.618 170.163L339.762 175.217L346.713 164.781L335.065 146.04Z" fill="#FFBE9D"/>
<path d="M275.641 285.714C275.641 285.714 265.11 292.475 261.706 303.298C260.102 308.397 261.166 330.51 262.786 350.636C263.193 355.699 263.896 375.593 267.878 378.747C267.963 378.814 270.372 382.061 276.316 382.061C287.378 382.061 289.009 374.798 292.36 364.255L291.531 351.691C291.531 351.691 296.013 309.345 294.383 302.011C292.753 294.677 275.641 285.714 275.641 285.714Z" fill="#622466"/>
<path d="M329.944 249.346L318.428 258.112C318.428 258.112 316.792 270.97 301.717 279.118C294.531 283.003 287.318 280.575 287.318 280.575L275.641 285.714L270.436 325.918L294.659 362.474L297.681 376.496L298.05 381.528C298.05 381.528 296.365 389.939 299.755 399.31C303.146 408.681 306.538 420.561 349.983 420.455C387.919 420.363 397.943 395.677 398.35 392.825C398.758 389.972 388.084 363.065 386.047 356.307C384.01 349.549 362.466 276.37 362.466 276.37L353.816 256.986L329.944 249.346Z" fill="#622466"/>
<path d="M334.843 196.286L318.428 258.112L339.982 265.786L351.005 271.132L354.632 252.416C354.632 252.416 363.313 204.404 363.373 196.48C363.448 186.524 340.376 150.278 340.376 150.278C340.376 150.278 327.367 148.307 323.425 161.317L334.843 196.286Z" fill="#622466"/>
<path d="M331.895 404.947C331.888 404.982 331.286 404.883 330.199 404.674C329.655 404.575 328.99 404.443 328.236 404.217C327.482 403.998 326.604 403.801 325.679 403.445C324.742 403.122 323.717 402.763 322.657 402.277C321.573 401.844 320.473 401.257 319.304 400.665C317.006 399.403 314.579 397.835 312.201 395.966C307.457 392.195 303.826 388.055 301.384 384.956C300.165 383.401 299.219 382.11 298.604 381.193C297.981 380.281 297.651 379.767 297.681 379.746C297.71 379.726 298.096 380.2 298.767 381.074C299.432 381.952 300.42 383.205 301.67 384.725C304.176 387.753 307.825 391.823 312.524 395.557C314.88 397.409 317.272 398.972 319.534 400.243C320.685 400.841 321.765 401.437 322.831 401.882C323.873 402.381 324.881 402.756 325.801 403.098C326.711 403.474 327.574 403.692 328.316 403.937C329.056 404.188 329.71 404.347 330.245 404.476C331.312 404.745 331.901 404.911 331.895 404.947Z" fill="#263238"/>
<path d="M375.845 328.9C375.863 328.901 375.86 329.115 375.839 329.519C375.809 329.979 375.77 330.565 375.722 331.288C375.616 332.823 375.402 335.04 375.083 337.774C374.451 343.24 373.29 350.767 371.44 358.964C369.579 367.161 367.384 374.454 365.6 379.66C364.711 382.265 363.949 384.357 363.383 385.789C363.115 386.461 362.898 387.007 362.727 387.435C362.572 387.809 362.483 388.002 362.466 387.996C362.449 387.99 362.506 387.784 362.629 387.398C362.776 386.962 362.962 386.405 363.193 385.719C363.699 384.268 364.407 382.159 365.251 379.545C366.942 374.317 369.076 367.026 370.932 358.849C372.778 350.672 373.993 343.174 374.718 337.728C375.083 335.004 375.352 332.796 375.52 331.268L375.735 329.51C375.789 329.109 375.827 328.898 375.845 328.9Z" fill="#263238"/>
<path d="M367.594 310.436C367.629 310.445 367.483 311.062 367.189 312.172C366.91 313.285 366.438 314.877 365.813 316.833C364.546 320.72 362.465 326.094 358.85 331.26C357.058 333.844 355.135 336.135 353.37 338.192C351.6 340.217 349.998 342.05 348.631 343.613C347.319 345.102 346.237 346.331 345.424 347.255C344.662 348.111 344.228 348.574 344.2 348.551C344.173 348.528 344.554 348.021 345.269 347.124C345.979 346.224 347.033 344.943 348.351 343.373C349.693 341.789 351.267 339.933 353.004 337.882C354.747 335.811 356.648 333.522 358.422 330.963C361.998 325.854 364.111 320.561 365.464 316.714C366.131 314.78 366.657 313.209 366.994 312.114C367.348 311.024 367.56 310.426 367.594 310.436Z" fill="#263238"/>
<path d="M279.339 338.247C279.339 338.391 275.576 338.508 270.934 338.508C266.29 338.508 262.527 338.391 262.527 338.247C262.527 338.103 266.29 337.987 270.934 337.987C275.576 337.987 279.339 338.103 279.339 338.247Z" fill="white"/>
<path d="M367.365 290.915C367.368 290.923 367.289 290.964 367.131 291.034C366.944 291.113 366.712 291.212 366.426 291.334C365.765 291.603 364.854 291.975 363.7 292.446C361.331 293.407 357.903 294.799 353.69 296.57C345.261 300.106 333.711 305.219 321.202 311.385C308.683 317.544 297.521 323.458 289.435 327.726C285.42 329.845 282.158 331.567 279.859 332.78C278.752 333.353 277.878 333.806 277.244 334.134C276.966 334.273 276.74 334.385 276.558 334.475C276.402 334.549 276.32 334.584 276.316 334.576C276.312 334.568 276.385 334.518 276.533 334.428C276.708 334.326 276.926 334.199 277.194 334.042C277.817 333.693 278.675 333.212 279.762 332.602C282.043 331.353 285.278 329.582 289.261 327.401C297.303 323.05 308.444 317.081 320.972 310.918C333.492 304.746 345.079 299.681 353.549 296.23C357.783 294.502 361.233 293.161 363.626 292.257C364.795 291.825 365.718 291.483 366.388 291.236C366.682 291.134 366.92 291.051 367.112 290.984C367.276 290.93 367.362 290.907 367.365 290.915Z" fill="white"/>
<path d="M354.632 248.907C354.601 248.925 354.32 248.503 353.841 247.727C353.37 246.946 352.666 245.83 351.794 244.456C350.889 243.105 349.829 241.48 348.468 239.822C347.12 238.161 345.524 236.409 343.558 234.921C339.617 231.9 335.133 230.783 331.95 230.325C330.338 230.138 329.028 229.997 328.117 229.969C327.208 229.913 326.704 229.864 326.704 229.828C326.704 229.792 327.209 229.772 328.124 229.767C329.04 229.733 330.362 229.818 331.996 229.96C335.219 230.326 339.834 231.41 343.874 234.506C345.885 236.03 347.499 237.825 348.843 239.523C350.2 241.219 351.236 242.876 352.105 244.26C352.942 245.666 353.599 246.813 354.016 247.627C354.443 248.435 354.664 248.89 354.632 248.907Z" fill="white"/>
<path d="M343.851 344.089C343.86 344.105 343.71 344.208 343.416 344.389C343.067 344.596 342.638 344.851 342.116 345.161C340.986 345.83 339.315 346.736 337.221 347.799C333.037 349.929 327.089 352.569 320.28 354.826C313.465 357.073 307.115 358.498 302.485 359.281C300.171 359.676 298.289 359.944 296.983 360.081C296.379 360.143 295.882 360.194 295.48 360.235C295.135 360.265 294.953 360.272 294.951 360.254C294.949 360.236 295.127 360.194 295.466 360.131C295.865 360.064 296.357 359.981 296.955 359.88C298.251 359.682 300.12 359.359 302.419 358.919C307.019 358.045 313.329 356.569 320.117 354.332C326.898 352.084 332.844 349.508 337.058 347.469C339.167 346.451 340.86 345.596 342.019 344.984C342.559 344.708 343.004 344.481 343.364 344.298C343.675 344.146 343.842 344.074 343.851 344.089Z" fill="white"/>
<path d="M375.845 322.987C375.869 323.014 375.658 323.25 375.255 323.655C374.855 324.063 374.253 324.63 373.498 325.318C371.979 326.679 369.805 328.509 367.141 330.161C364.471 331.806 361.861 332.931 359.964 333.682C359.011 334.049 358.236 334.334 357.692 334.509C357.149 334.688 356.843 334.771 356.83 334.738C356.802 334.665 357.961 334.166 359.822 333.342C361.676 332.508 364.234 331.34 366.867 329.718C369.495 328.089 371.683 326.324 373.258 325.039C374.827 323.743 375.792 322.929 375.845 322.987Z" fill="white"/>
<path d="M366.336 365.926C366.346 365.94 366.178 366.083 365.847 366.341C365.469 366.628 364.985 366.996 364.385 367.451C363.75 367.933 362.964 368.511 362.025 369.144C361.09 369.782 360.04 370.534 358.829 371.286C356.442 372.847 353.516 374.578 350.197 376.369C346.861 378.13 343.123 379.935 339.102 381.607C335.071 383.256 331.147 384.613 327.539 385.716C323.922 386.786 320.627 387.621 317.833 388.197C316.444 388.518 315.169 388.724 314.056 388.932C312.944 389.145 311.979 389.289 311.189 389.395C310.443 389.495 309.84 389.575 309.37 389.638C308.953 389.688 308.733 389.706 308.731 389.688C308.728 389.67 308.943 389.618 309.354 389.534C309.82 389.447 310.417 389.334 311.156 389.195C311.94 389.059 312.897 388.885 314.002 388.646C315.108 388.412 316.373 388.181 317.754 387.838C320.529 387.218 323.803 386.348 327.399 385.257C330.986 384.133 334.889 382.768 338.904 381.125C342.908 379.46 346.637 377.676 349.972 375.945C353.292 374.184 356.226 372.492 358.632 370.975C359.852 370.245 360.913 369.516 361.862 368.903C362.814 368.294 363.616 367.742 364.268 367.286C364.89 366.864 365.393 366.522 365.785 366.256C366.136 366.025 366.325 365.911 366.336 365.926Z" fill="white"/>
<path d="M386.047 355.161C386.128 355.28 383.194 357.412 379.495 359.923C375.795 362.435 372.731 364.374 372.651 364.255C372.57 364.136 375.503 362.004 379.203 359.492C382.902 356.981 385.966 355.042 386.047 355.161Z" fill="white"/>
<path d="M395.593 382.89C395.599 382.896 395.538 382.961 395.412 383.083C395.263 383.223 395.078 383.397 394.848 383.612C394.313 384.097 393.576 384.766 392.641 385.613C392.156 386.047 391.62 386.527 391.036 387.05C390.444 387.568 389.742 388.061 389.019 388.629C387.54 389.718 385.949 391.095 383.967 392.3C382.996 392.932 381.98 393.594 380.921 394.283C379.872 394.99 378.679 395.555 377.499 396.234C376.902 396.562 376.295 396.896 375.679 397.236C375.068 397.586 374.435 397.919 373.768 398.205C372.449 398.811 371.092 399.435 369.701 400.074C364.052 402.436 357.615 404.522 350.659 405.835C343.686 407.065 336.926 407.387 330.806 407.173C329.278 407.067 327.788 406.963 326.34 406.862C325.615 406.83 324.905 406.741 324.21 406.63C323.513 406.53 322.827 406.432 322.153 406.336C320.809 406.118 319.494 406.01 318.262 405.72C317.028 405.449 315.844 405.189 314.712 404.94C312.432 404.514 310.458 403.787 308.689 403.291C307.812 403.015 306.982 402.802 306.244 402.527C305.513 402.244 304.843 401.984 304.236 401.749C303.062 401.286 302.136 400.922 301.465 400.657C301.174 400.537 300.939 400.44 300.749 400.361C300.59 400.292 300.509 400.252 300.513 400.244C300.516 400.236 300.603 400.259 300.77 400.312L301.504 400.56C302.182 400.802 303.119 401.136 304.305 401.559C304.915 401.78 305.589 402.025 306.324 402.291C307.064 402.552 307.896 402.751 308.774 403.012C310.545 403.48 312.519 404.18 314.794 404.581C315.923 404.818 317.105 405.066 318.336 405.325C319.563 405.603 320.875 405.7 322.213 405.908C322.885 406 323.568 406.093 324.261 406.188C324.954 406.294 325.66 406.378 326.382 406.406C327.823 406.499 329.306 406.595 330.826 406.694C336.914 406.88 343.633 406.545 350.566 405.322C357.481 404.017 363.884 401.957 369.513 399.633C370.9 399.004 372.253 398.39 373.568 397.793C374.233 397.512 374.864 397.185 375.475 396.84C376.09 396.506 376.696 396.178 377.292 395.855C378.47 395.188 379.663 394.634 380.713 393.939C381.773 393.263 382.791 392.614 383.764 391.993C385.75 390.813 387.35 389.462 388.841 388.398C389.57 387.843 390.279 387.364 390.879 386.858C391.472 386.349 392.016 385.882 392.509 385.459C393.469 384.644 394.227 384.001 394.777 383.535L395.376 383.044C395.513 382.935 395.586 382.883 395.593 382.89Z" fill="white"/>
<path d="M349.983 257.44C349.99 257.445 349.955 257.524 349.879 257.675L349.53 258.341C349.199 258.913 348.791 259.806 348.099 260.855C346.81 263.012 344.681 265.988 341.632 269.297C338.594 272.617 334.533 276.157 329.66 279.564C324.784 282.97 319.079 286.199 312.897 289.158C306.703 292.099 300.667 294.587 295.197 296.877C289.722 299.158 284.812 301.254 280.757 303.163C276.699 305.065 273.477 306.732 271.288 307.952C270.181 308.542 269.352 309.051 268.771 309.365C268.504 309.512 268.287 309.631 268.112 309.727C267.962 309.806 267.882 309.842 267.878 309.835C267.873 309.827 267.943 309.775 268.084 309.681C268.252 309.573 268.46 309.44 268.717 309.275C269.281 308.932 270.095 308.393 271.188 307.776C273.35 306.499 276.554 304.778 280.599 302.83C284.642 300.875 289.545 298.741 295.011 296.434C300.472 294.12 306.496 291.621 312.673 288.688C318.835 285.738 324.52 282.536 329.386 279.17C334.249 275.802 338.309 272.313 341.363 269.045C344.428 265.788 346.591 262.862 347.928 260.747C348.644 259.718 349.079 258.844 349.438 258.29C349.598 258.031 349.728 257.82 349.832 257.65C349.924 257.507 349.975 257.436 349.983 257.44Z" fill="white"/>
<path d="M361.619 211.502C361.552 211.573 360.311 210.387 358.081 208.768C356.971 207.953 355.588 207.068 354.004 206.174C352.408 205.304 350.603 204.438 348.642 203.689C346.674 202.958 344.746 202.417 342.972 202.017C341.192 201.643 339.569 201.396 338.197 201.276C335.453 201.02 333.738 201.093 333.735 200.995C333.734 200.959 334.16 200.918 334.936 200.875C335.711 200.821 336.838 200.826 338.226 200.909C339.616 200.983 341.263 201.195 343.071 201.548C344.873 201.926 346.832 202.46 348.826 203.202C350.813 203.96 352.637 204.852 354.24 205.756C355.831 206.684 357.208 207.612 358.301 208.473C359.398 209.327 360.249 210.067 360.795 210.619C361.35 211.164 361.644 211.476 361.619 211.502Z" fill="white"/>
<path d="M354.632 175.858C354.63 175.949 353.27 175.925 351.099 176.151C348.93 176.371 345.951 176.923 342.826 178.063C339.704 179.214 337.075 180.72 335.277 181.954C333.475 183.186 332.453 184.083 332.393 184.015C332.369 183.988 332.604 183.742 333.052 183.318C333.494 182.888 334.18 182.315 335.064 181.654C336.826 180.328 339.473 178.744 342.647 177.575C345.823 176.415 348.866 175.912 351.068 175.784C352.169 175.716 353.063 175.71 353.679 175.753C354.295 175.787 354.633 175.822 354.632 175.858Z" fill="white"/>
<path d="M352.539 255.036C352.554 255.027 352.684 255.234 352.917 255.636L353.914 257.41C354.318 258.195 354.775 259.174 355.321 260.304C355.852 261.441 356.402 262.759 357.036 264.205C359.477 270.028 362.449 278.228 365.484 287.362C368.503 296.505 371.047 304.842 372.821 310.895C373.706 313.922 374.402 316.377 374.868 318.078C375.083 318.89 375.256 319.542 375.388 320.041C375.502 320.492 375.553 320.731 375.536 320.736C375.518 320.741 375.433 320.512 375.287 320.071C375.131 319.579 374.928 318.936 374.674 318.135C374.135 316.393 373.386 313.97 372.468 311.001C370.605 304.977 368.007 296.662 364.99 287.526C361.957 278.399 359.044 270.191 356.695 264.344C356.084 262.893 355.56 261.568 355.056 260.424C354.546 259.298 354.104 258.321 353.732 257.501C353.357 256.751 353.056 256.149 352.825 255.687C352.622 255.27 352.523 255.046 352.539 255.036Z" fill="#263238"/>
<path d="M268.477 320.736C268.493 320.727 268.591 320.863 268.762 321.129C268.96 321.45 269.2 321.839 269.489 322.307C270.16 323.401 271.058 324.865 272.148 326.642C274.409 330.293 277.65 335.261 281.288 340.713C284.928 346.167 288.211 351.116 290.505 354.752C291.653 356.57 292.568 358.05 293.177 359.086C293.453 359.563 293.681 359.958 293.87 360.284C294.024 360.561 294.097 360.711 294.082 360.721C294.067 360.73 293.964 360.599 293.781 360.34C293.57 360.028 293.314 359.65 293.005 359.194C292.296 358.124 291.348 356.692 290.196 354.953C287.763 351.319 284.482 346.419 280.855 341.002C277.215 335.547 274.017 330.539 271.833 326.833C270.736 324.984 269.878 323.469 269.313 322.408C269.058 321.92 268.845 321.515 268.67 321.181C268.528 320.898 268.462 320.745 268.477 320.736Z" fill="#263238"/>
<path d="M291.325 361.586C291.315 361.73 285.224 361.426 277.723 360.908C270.219 360.389 264.146 359.853 264.155 359.709C264.165 359.566 270.255 359.87 277.759 360.388C285.26 360.906 291.335 361.443 291.325 361.586Z" fill="white"/>
<g opacity="0.3">
<path d="M346.806 345.158L346.801 345.348C342.62 350.069 338.439 354.791 334.258 359.512C350.768 353.537 363.108 337.41 364.558 319.912C359.777 329.054 353.791 337.565 346.806 345.158Z" fill="black"/>
</g>
<g opacity="0.3">
<path d="M331.895 404.947C320.835 402.809 309.011 393.631 301.43 385.3C307.523 396.174 318.053 405.897 330.05 409.279C342.046 412.661 355.361 411.086 366.236 404.996C354.948 406.282 342.954 407.085 331.895 404.947Z" fill="black"/>
</g>
<path d="M354.358 190.808C354.348 190.897 353.449 190.807 352.012 190.901C350.578 190.991 348.604 191.34 346.582 192.185C344.563 193.039 342.932 194.205 341.864 195.167C340.792 196.127 340.227 196.833 340.157 196.778C340.112 196.747 340.577 195.955 341.611 194.9C342.638 193.846 344.293 192.587 346.38 191.705C348.469 190.831 350.527 190.53 351.999 190.533C353.476 190.532 354.368 190.755 354.358 190.808Z" fill="#263238"/>
<path d="M264.76 252.955C264.722 253.003 264.304 252.765 263.852 252.148C263.403 251.544 262.965 250.512 263.034 249.321C263.105 248.131 263.662 247.158 264.178 246.61C264.699 246.05 265.143 245.864 265.175 245.916C265.223 245.981 264.871 246.269 264.464 246.842C264.056 247.407 263.617 248.301 263.554 249.352C263.493 250.403 263.825 251.343 264.163 251.951C264.5 252.568 264.816 252.895 264.76 252.955Z" fill="white"/>
<path d="M313.875 226.167C313.764 226.258 313.041 225.358 311.725 225.255C310.414 225.104 309.532 225.848 309.441 225.738C309.395 225.697 309.544 225.425 309.951 225.153C310.352 224.881 311.029 224.666 311.776 224.737C312.522 224.81 313.145 225.151 313.486 225.495C313.834 225.84 313.927 226.135 313.875 226.167Z" fill="white"/>
<path d="M317.11 146.152C317.063 146.202 316.355 145.631 315.288 144.621C314.221 143.613 312.806 142.156 311.349 140.452C309.893 138.746 308.675 137.121 307.846 135.909C307.016 134.698 306.562 133.909 306.619 133.871C306.681 133.828 307.241 134.541 308.143 135.691C309.044 136.841 310.299 138.42 311.745 140.114C313.192 141.806 314.554 143.293 315.55 144.362C316.544 145.433 317.162 146.098 317.11 146.152Z" fill="white"/>
<path d="M318.163 110.603C318.18 110.651 317.89 110.71 317.522 111.034C317.149 111.348 316.755 111.959 316.494 112.811C316.018 114.534 315.536 117.017 315.299 119.763C315.057 122.516 315.141 125.025 315.278 126.832C315.421 128.64 315.585 129.756 315.505 129.77C315.443 129.782 315.15 128.686 314.912 126.869C314.679 125.054 314.534 122.511 314.78 119.718C315.023 116.924 315.56 114.449 316.146 112.69C316.464 111.813 316.947 111.166 317.398 110.874C317.846 110.57 318.164 110.583 318.163 110.603Z" fill="white"/>
<g opacity="0.3">
<path d="M213.557 443.231C211.726 440.848 208.988 439.273 207.216 436.846C202.45 430.316 206.427 421.301 209.831 413.969C213.235 406.636 215.194 396.281 208.43 391.854C204.196 389.083 198.625 390.267 193.695 391.409C160.688 399.057 126.198 400.245 92.7426 394.885L88.8516 393.256C91.2176 403.879 93.6636 414.71 99.2516 424.049C104.841 433.388 114.215 441.148 125.071 441.92C132.428 442.443 139.586 439.784 146.833 438.416C154.08 437.048 162.442 437.297 167.702 442.467C173.277 447.946 174.84 458.277 182.504 459.815C190.771 461.474 197.246 450.673 205.658 451.255C208.292 451.437 211.186 452.703 213.392 451.25C215.901 449.596 215.389 445.614 213.557 443.231Z" fill="black"/>
</g>
<path d="M181.782 436.689L180.311 443.391C180.311 443.391 172.667 455.111 173.049 456.895C173.431 458.678 174.832 457.787 174.832 457.787L179.928 451.162C179.928 451.162 175.469 458.806 176.106 460.335C176.743 461.864 178.145 460.972 178.145 460.972C178.145 460.972 179.359 462.5 181.364 462.5C183.368 462.5 184.77 460.972 184.77 460.972C184.77 460.972 187.318 461.354 188.846 460.717C190.375 460.08 193.56 456.513 196.108 452.818C198.656 449.123 200.312 445.938 200.312 445.938C200.312 445.938 202.351 444.792 204.007 446.576C205.663 448.359 210.639 452.181 212.674 451.799C214.709 451.417 214.454 450.548 214.454 450.548C214.454 450.548 207.956 443.263 206.937 441.48C205.918 439.696 201.894 438.54 200.185 436.893C198.476 435.247 198.383 433.946 198.383 433.946L181.782 436.689Z" fill="#BA7F72"/>
<path d="M193.063 447.836C193.124 447.871 192.771 448.621 192.125 449.791C191.48 450.961 190.537 452.549 189.425 454.259C188.312 455.969 187.242 457.475 186.434 458.539C185.625 459.603 185.084 460.23 185.027 460.188C184.907 460.1 186.775 457.383 188.988 453.975C191.207 450.571 192.934 447.762 193.063 447.836Z" fill="#8B5D54"/>
<path d="M187.327 445.286C187.389 445.316 187.006 446.259 186.288 447.739C185.571 449.218 184.506 451.227 183.218 453.381C181.927 455.534 180.659 457.422 179.693 458.752C178.728 460.084 178.078 460.867 178.022 460.827C177.961 460.783 178.505 459.925 179.389 458.545C180.273 457.166 181.487 455.256 182.771 453.113C184.053 450.97 185.163 448.999 185.962 447.568C186.761 446.138 187.26 445.253 187.327 445.286Z" fill="#8B5D54"/>
<path d="M183.812 445.189C183.937 445.262 183.249 446.678 182.277 448.354C181.305 450.03 180.416 451.33 180.291 451.258C180.167 451.185 180.854 449.769 181.827 448.093C182.799 446.417 183.688 445.117 183.812 445.189Z" fill="#8B5D54"/>
<path d="M196.333 214.187C201.407 226.866 199.281 239.534 199.57 252.621C199.654 256.433 206.75 261.669 208.213 265.19C210.432 270.526 207.328 272.31 210.59 277.08C213.742 281.689 215.089 288.218 211.816 292.741C207.823 298.257 199.656 297.946 192.904 297.067C186.922 271.535 188.031 244.38 196.076 219.421" fill="#263238"/>
<path d="M120.32 341.553C120.32 341.553 108.214 326.979 103.393 325.685C90.3527 322.184 74.1807 325.884 74.1807 340.811C74.1807 355.739 82.0947 377.782 82.0947 377.782C82.0947 377.782 90.3767 410.122 100.187 418.225C109.996 426.329 114.261 428.461 136.438 429.741C158.616 431.02 176.108 425.371 179.517 424.357C182.926 423.343 194.925 413.744 207.314 397.111C219.702 380.478 235.546 362.561 237.679 353.19C239.811 343.818 235.778 329.578 223.15 326.275C210.522 322.971 190.203 340.811 190.203 340.811L136.865 349.987L120.32 341.553Z" fill="#263238"/>
<path d="M109.06 352.88C108.989 352.901 108.566 351.688 107.901 349.726C107.235 347.764 106.316 345.055 105.19 342.107C104.061 339.159 102.918 336.54 102.018 334.679C101.118 332.818 100.492 331.7 100.564 331.656C100.595 331.638 100.784 331.898 101.101 332.386C101.427 332.869 101.845 333.6 102.347 334.512C103.337 336.342 104.542 338.958 105.676 341.921C106.808 344.884 107.675 347.622 108.252 349.616C108.828 351.611 109.126 352.86 109.06 352.88Z" fill="#455A64"/>
<path d="M220.448 331.656C220.435 331.7 220.09 331.636 219.492 331.593C218.887 331.634 218.001 331.722 217.003 332.198C214.98 333.049 212.503 334.905 209.984 337.155C207.451 339.405 205.299 341.605 203.722 343.176C202.152 344.754 201.175 345.727 201.119 345.676C201.092 345.651 201.302 345.376 201.705 344.899C202.106 344.421 202.705 343.746 203.456 342.921C204.967 341.282 207.084 339.034 209.638 336.766C212.178 334.498 214.73 332.652 216.866 331.856C217.914 331.409 218.872 331.366 219.502 331.391C220.133 331.499 220.459 331.633 220.448 331.656Z" fill="#455A64"/>
<path d="M234.472 340.737C234.439 340.754 234.195 340.336 233.768 339.576C233.34 338.816 232.738 337.708 231.914 336.393C231.088 335.083 230.024 333.56 228.558 332.15C227.093 330.749 225.143 329.56 222.859 329.03C220.581 328.488 218.301 328.54 216.29 328.842C214.271 329.145 212.495 329.682 211.021 330.169C209.548 330.663 208.37 331.115 207.55 331.413C206.731 331.713 206.272 331.866 206.258 331.833C206.245 331.8 206.677 331.583 207.474 331.225C208.271 330.869 209.43 330.364 210.9 329.821C212.369 329.287 214.156 328.704 216.216 328.368C218.269 328.034 220.614 327.961 222.981 328.524C225.354 329.072 227.401 330.338 228.89 331.804C230.385 333.278 231.433 334.853 232.228 336.201C233.021 337.555 233.575 338.694 233.949 339.483C234.32 340.274 234.503 340.722 234.472 340.737Z" fill="white"/>
<path d="M115.204 335.989C115.105 336.07 113.866 333.905 110.91 331.312C108.009 328.729 103.124 325.865 97.1549 325.218C91.1819 324.586 85.8009 326.352 82.4189 328.261C78.9799 330.17 77.3129 332.023 77.2319 331.924C77.2199 331.911 77.3189 331.794 77.5209 331.584C77.7279 331.38 78.0129 331.053 78.4349 330.694C79.2499 329.943 80.5219 328.947 82.2379 327.941C85.6209 325.921 91.0989 324.053 97.2099 324.7C103.318 325.362 108.276 328.346 111.155 331.037C112.619 332.383 113.651 333.626 114.289 334.533C114.626 334.973 114.834 335.353 114.994 335.596C115.147 335.845 115.219 335.98 115.204 335.989Z" fill="white"/>
<path d="M135.681 155.409L117.764 218.842L121.254 285.429L117.598 334.215L97.6726 377.772C97.6726 377.772 89.7956 400.941 118.757 410.209C147.718 419.476 172.74 416.232 179.228 410.209C185.715 404.185 196.836 319.387 196.836 319.387L215.386 279.09C215.386 279.09 210.737 272.097 197.299 267.476C183.861 262.855 150.498 260.538 150.498 260.538L145.659 219.934L156.89 159.521C156.89 159.521 144.233 154.235 135.681 155.409Z" fill="#EF3E37"/>
<path d="M196.173 310.373C196.173 310.373 175.785 349.76 175.321 358.1C174.858 366.441 179.811 437.569 179.811 437.569L200.344 435.948C200.344 435.948 196.637 384.976 198.027 373.392C199.417 361.808 199.88 342.809 205.441 329.834C211.001 316.86 220.543 289.958 215.386 279.09L196.173 310.373Z" fill="#EF3E37"/>
<g opacity="0.3">
<path d="M197.427 300.925C194.858 298.149 190.68 297.757 186.904 297.547C172.062 296.718 157.22 295.889 142.378 295.061L133.998 302.951C132.141 308.637 131.658 314.767 132.601 320.673C134.306 319.401 136.01 318.13 137.715 316.858C137.944 319.448 138.673 321.992 139.85 324.31C142.546 321.935 145.243 319.56 147.94 317.185C154.069 322.44 162.046 325.494 170.117 325.676C178.189 325.858 186.296 323.167 192.656 318.195C195.308 316.122 197.722 313.572 198.878 310.411C200.035 307.25 199.712 303.396 197.427 300.925Z" fill="black"/>
</g>
<path d="M196.173 310.373C196.181 310.377 196.14 310.462 196.052 310.622C195.947 310.806 195.816 311.037 195.652 311.324C195.275 311.971 194.751 312.867 194.087 314.005C192.758 316.349 190.886 319.773 188.822 324.126C184.685 332.819 179.874 345.303 176.473 359.612C176.248 360.502 176.063 361.397 175.86 362.282C175.766 362.723 175.651 363.167 175.574 363.604C175.526 364.041 175.436 364.461 175.429 364.911C175.308 366.681 175.344 368.45 175.353 370.18C175.407 373.645 175.544 376.989 175.678 380.174C175.999 386.534 176.288 392.265 176.532 397.094C176.776 401.881 176.975 405.768 177.114 408.503C177.168 409.82 177.21 410.857 177.24 411.606C177.248 411.936 177.254 412.202 177.26 412.414C177.261 412.596 177.257 412.69 177.248 412.69C177.239 412.691 177.225 412.598 177.206 412.417L177.135 411.612C177.082 410.865 177.007 409.829 176.912 408.514C176.733 405.782 176.478 401.898 176.164 397.115C175.862 392.301 175.509 386.568 175.199 380.196C175.052 377.009 174.904 373.663 174.843 370.188C174.83 368.449 174.791 366.682 174.912 364.874C174.918 364.426 175.012 363.96 175.064 363.501C175.145 363.05 175.257 362.615 175.352 362.169C175.556 361.282 175.741 360.384 175.967 359.491C179.377 345.141 184.257 332.64 188.49 323.967C190.602 319.623 192.527 316.219 193.912 313.902C194.603 312.743 195.184 311.869 195.563 311.269C195.745 310.993 195.891 310.77 196.007 310.593C196.109 310.443 196.166 310.368 196.173 310.373Z" fill="#263238"/>
<path d="M171.925 364.178C171.934 364.194 171.795 364.3 171.52 364.487C171.193 364.704 170.791 364.968 170.306 365.288C169.249 365.981 167.683 366.928 165.718 368.044C161.792 370.281 156.196 373.092 149.759 375.587C143.316 378.073 137.283 379.758 132.874 380.745C130.669 381.241 128.874 381.594 127.626 381.793C127.051 381.882 126.577 381.957 126.189 382.017C125.859 382.063 125.685 382.078 125.682 382.061C125.679 382.043 125.847 381.993 126.17 381.914C126.552 381.827 127.02 381.722 127.588 381.594C128.822 381.335 130.601 380.927 132.789 380.387C137.165 379.311 143.154 377.577 149.571 375.102C155.982 372.617 161.579 369.87 165.54 367.722C167.522 366.65 169.113 365.754 170.2 365.115C170.706 364.828 171.124 364.592 171.465 364.398C171.757 364.239 171.915 364.163 171.925 364.178Z" fill="#263238"/>
<g opacity="0.3">
<path d="M113.997 382.553C133.432 387.992 155.228 380.471 169.137 365.882C152.131 375.911 133.738 382.328 113.997 382.553Z" fill="black"/>
</g>
<g opacity="0.3">
<path d="M175.079 364.897C173.991 377.038 172.913 397.192 173.046 409.381C173.112 415.407 173.635 420.737 178.101 424.783C177.073 407.325 175.568 382.482 175.079 364.897Z" fill="black"/>
</g>
<path d="M153.437 159.509C153.405 159.65 150.204 159.058 146.287 158.188C142.369 157.317 139.219 156.498 139.25 156.357C139.282 156.217 142.482 156.809 146.4 157.679C150.317 158.549 153.468 159.369 153.437 159.509Z" fill="white"/>
<path d="M152.843 175.812C152.702 175.781 153.306 172.482 154.192 168.445C155.078 164.407 155.91 161.159 156.05 161.19C156.191 161.221 155.587 164.518 154.701 168.557C153.815 172.594 152.983 175.843 152.843 175.812Z" fill="white"/>
<path d="M211.269 305.965C211.235 305.952 211.38 305.492 211.666 304.672C211.986 303.756 212.393 302.593 212.878 301.202C213.846 298.28 215.189 294.137 215.157 289.428C215.1 284.724 213.205 280.656 211.137 278.416C209.066 276.118 207.126 275.524 207.202 275.408C207.209 275.391 207.325 275.426 207.539 275.508C207.749 275.601 208.081 275.696 208.46 275.917C209.246 276.304 210.314 277.03 211.407 278.166C213.609 280.408 215.621 284.582 215.677 289.421C215.708 294.246 214.284 298.423 213.225 301.325C212.681 302.784 212.199 303.947 211.855 304.745C211.51 305.544 211.302 305.978 211.269 305.965Z" fill="white"/>
<path d="M139.289 155.409L143.367 142.691C143.367 142.691 138.09 129.738 139.289 128.539C140.489 127.34 150.323 119.664 150.323 119.664C150.323 119.664 152.862 102.048 153.921 101.435C154.815 100.917 156.804 100.911 156.89 104.553C156.979 108.257 156.979 121.103 156.979 121.103C156.979 121.103 162.796 126.86 162.796 130.458C162.796 134.056 159.677 145.329 159.677 145.329L155.281 158.688L139.289 155.409Z" fill="#BA7F72"/>
<path d="M150.162 125.275C150.114 125.314 149.848 125.07 149.671 124.543C149.485 124.021 149.439 123.258 149.531 122.453C149.746 120.841 150.207 119.643 150.323 119.664C150.489 119.694 150.251 120.979 150.049 122.512C149.961 123.28 149.95 123.97 150.029 124.456C150.097 124.943 150.231 125.231 150.162 125.275Z" fill="#8B5D54"/>
<path d="M158.616 129.119C158.468 129.147 158.049 127.355 157.638 125.139C157.236 122.921 156.848 121.146 156.979 121.103C157.122 121.056 157.745 122.809 158.15 125.042C158.563 127.271 158.75 129.094 158.616 129.119Z" fill="#8B5D54"/>
<path d="M146.542 130.06C146.434 130.091 145.75 128.709 145.303 126.808C145.097 125.852 145.108 124.937 145.248 124.306C145.383 123.672 145.585 123.323 145.645 123.344C145.786 123.389 145.371 124.876 145.813 126.702C146.237 128.514 146.71 130.013 146.542 130.06Z" fill="#8B5D54"/>
<path d="M142.826 131.404C142.7 131.469 142.064 130.402 141.787 128.907C141.653 128.161 141.659 127.461 141.749 126.968C141.833 126.472 141.998 126.195 142.054 126.212C142.19 126.254 142.013 127.4 142.3 128.814C142.56 130.226 142.958 131.345 142.826 131.404Z" fill="#8B5D54"/>
<path d="M156.383 104.61C156.242 104.571 156.351 103.827 155.901 103.085C155.479 102.326 154.779 102.052 154.815 101.91C154.83 101.846 155.048 101.82 155.369 101.944C155.688 102.065 156.086 102.367 156.351 102.823C156.616 103.281 156.681 103.776 156.628 104.112C156.577 104.453 156.446 104.629 156.383 104.61Z" fill="white"/>
<path d="M158.836 143.029C158.762 143.006 159.074 141.881 159.566 140.069C160.042 138.258 160.714 135.737 160.827 132.9C160.936 130.065 160.277 127.519 159.431 125.876C158.598 124.214 157.722 123.411 157.797 123.344C157.819 123.322 158.055 123.498 158.427 123.88C158.8 124.26 159.284 124.871 159.756 125.704C160.718 127.358 161.461 129.995 161.347 132.919C161.23 135.838 160.487 138.38 159.919 140.173C159.334 141.968 158.9 143.049 158.836 143.029Z" fill="white"/>
<path d="M148.577 121.647C148.667 121.756 146.772 123.464 144.26 125.351C141.748 127.241 139.581 128.587 139.502 128.47C139.419 128.349 141.445 126.818 143.947 124.935C146.449 123.056 148.484 121.534 148.577 121.647Z" fill="white"/>
<path d="M166.242 195.218C178.997 193.678 192.419 200.989 196.333 211.608C200.75 223.591 193.822 236.508 194.94 249.05C195.625 256.734 199.327 264.078 199.591 271.782C199.865 279.788 196.425 287.974 199.005 295.666C199.953 298.495 201.713 301.357 200.918 304.221C199.995 307.551 196.047 309.447 192.485 310.936C184.813 314.143 176.825 317.389 168.307 317.535C159.788 317.68 150.559 313.837 147.913 306.827C144.98 308.784 142.048 310.74 139.115 312.696C138.613 310.686 138.11 308.675 137.608 306.664C136.031 308.418 134.025 309.881 131.762 310.93C131.131 301.759 130.504 292.506 132.106 283.424C133.293 276.695 138.535 269.239 139.621 262.476C141.567 250.35 139.768 239.03 142.42 226.977C145.071 214.924 149.876 200.368 163.125 195.833L166.242 195.218Z" fill="#263238"/>
<path d="M163.624 212.719C163.557 212.712 163.597 211.767 163.801 210.253C164.005 208.741 164.394 206.662 165.007 204.413C165.622 202.163 166.344 200.175 166.938 198.769C167.531 197.362 167.977 196.528 168.038 196.555C168.108 196.585 167.783 197.469 167.282 198.901C166.779 200.333 166.119 202.32 165.509 204.55C164.901 206.78 164.46 208.826 164.165 210.314C163.869 211.802 163.7 212.729 163.624 212.719Z" fill="#455A64"/>
<path d="M188.621 224.973C188.505 224.959 189.017 222.934 188.802 219.642C188.612 216.386 187.463 211.799 184.429 207.785C181.385 203.775 177.279 201.429 174.195 200.364C171.084 199.267 168.997 199.211 169.015 199.096C169.017 199.078 169.146 199.074 169.391 199.083C169.635 199.099 169.999 199.097 170.46 199.163C171.387 199.259 172.722 199.504 174.314 200.016C177.478 201.007 181.721 203.356 184.844 207.47C187.958 211.589 189.072 216.308 189.17 219.622C189.232 221.294 189.106 222.646 188.948 223.564C188.886 224.026 188.786 224.376 188.735 224.615C188.677 224.853 188.639 224.976 188.621 224.973Z" fill="#455A64"/>
<path d="M179.694 238.345C179.663 238.353 179.502 237.864 179.28 236.961C179.056 236.058 178.801 234.735 178.572 233.088C178.071 229.799 177.92 225.202 177.171 220.225C176.41 215.252 174.656 210.946 172.677 208.32C170.729 205.655 168.881 204.618 168.965 204.521C168.975 204.506 169.089 204.566 169.297 204.695C169.5 204.832 169.824 205.003 170.184 205.3C170.937 205.851 171.941 206.778 172.972 208.099C175.07 210.724 176.916 215.107 177.685 220.143C178.442 225.175 178.532 229.762 178.937 233.043C179.119 234.686 179.316 236.009 179.479 236.92C179.638 237.83 179.733 238.335 179.694 238.345Z" fill="#455A64"/>
<path d="M192.495 238.982C193.217 239.032 193.87 239.965 194.489 241.442C195.198 242.933 195.937 244.965 197.03 247.448C198.113 249.941 199.528 252.885 201.103 256.403C202.636 259.928 204.401 264.014 205.392 268.972C205.667 270.188 205.805 271.466 205.946 272.71C206.035 273.971 206.086 275.245 206.052 276.476C205.952 278.94 205.59 281.068 205.271 282.934C204.948 284.793 204.652 286.408 204.492 287.83C204.415 288.562 204.345 289.179 204.336 289.784C204.317 290.394 204.33 290.99 204.378 291.551C204.549 293.83 205.136 295.523 205.707 296.772C206.272 298.026 206.874 298.911 206.618 299.608C206.405 300.244 205.174 300.699 203.167 299.932C201.186 299.187 198.753 296.977 197.314 293.634C196.941 292.802 196.63 291.904 196.383 290.943C196.123 289.977 195.968 288.939 195.857 287.962C195.634 285.96 195.657 283.923 195.724 281.956C195.793 279.996 195.902 278.103 195.848 276.377C195.809 275.516 195.725 274.657 195.638 273.765C195.495 272.866 195.399 271.959 195.178 271.008C194.444 267.239 193.138 263.392 192.083 259.682C191.003 255.98 190.151 252.362 189.874 249.19C189.578 246.011 189.904 243.332 190.437 241.576C191.059 239.799 191.786 238.932 192.495 238.982Z" fill="#263238"/>
<path d="M163.624 212.719C163.687 212.777 162.602 213.672 161.262 215.762C160.944 216.295 160.569 216.873 160.261 217.563C159.907 218.231 159.603 218.992 159.284 219.813C158.685 221.467 158.11 223.396 157.708 225.581C156.873 229.945 156.502 235.246 156.452 241.129C156.377 247.015 156.595 253.491 156.585 260.299C156.543 267.095 156.321 273.644 154.849 279.411C154.096 282.286 153.042 284.896 152.067 287.329C151.081 289.759 150.147 292.011 149.416 294.109C148.68 296.205 148.153 298.146 147.837 299.879C147.526 301.613 147.461 303.134 147.499 304.372C147.563 305.607 147.678 306.569 147.831 307.204C147.888 307.501 147.934 307.741 147.971 307.936C148 308.102 148.01 308.189 148.002 308.191C147.993 308.194 147.965 308.112 147.919 307.95L147.729 307.227C147.541 306.595 147.392 305.63 147.296 304.382C147.227 303.131 147.263 301.589 147.55 299.83C147.842 298.074 148.349 296.106 149.068 293.99C149.781 291.87 150.699 289.602 151.666 287.168C152.622 284.733 153.656 282.127 154.384 279.292C155.812 273.598 156.023 267.078 156.064 260.297C156.074 253.503 155.871 247.023 155.972 241.123C156.049 235.225 156.459 229.898 157.347 225.509C157.776 223.312 158.38 221.37 159.013 219.708C159.348 218.883 159.668 218.12 160.039 217.451C160.365 216.76 160.758 216.182 161.092 215.652C161.405 215.108 161.797 214.702 162.081 214.314C162.366 213.924 162.662 213.641 162.896 213.409C163.112 213.197 163.288 213.025 163.43 212.885C163.552 212.769 163.617 212.713 163.624 212.719Z" fill="#455A64"/>
<path d="M139.621 298.178C139.613 298.173 139.655 298.093 139.744 297.941C139.85 297.765 139.983 297.546 140.147 297.274L140.817 296.202C141.07 295.771 141.335 295.258 141.649 294.691C142.867 292.406 144.42 288.958 145.57 284.461C146.736 279.971 147.53 274.48 147.872 268.35C148.044 265.287 148.175 262.055 148.194 258.722C148.179 255.384 148.034 251.919 147.972 248.369C147.823 241.267 147.948 234.475 148.699 228.348C149.434 222.23 150.822 216.767 152.892 212.557C153.932 210.458 155.143 208.698 156.371 207.302C156.687 206.961 156.992 206.632 157.287 206.314C157.611 206.029 157.923 205.754 158.223 205.49C158.797 204.933 159.446 204.581 159.965 204.186C161.082 203.506 161.987 203.04 162.64 202.819L163.37 202.54C163.535 202.481 163.621 202.454 163.624 202.463C163.627 202.471 163.547 202.514 163.388 202.59C163.201 202.676 162.969 202.783 162.681 202.915C162.046 203.166 161.164 203.658 160.077 204.355C159.573 204.759 158.941 205.117 158.385 205.678C158.094 205.943 157.791 206.219 157.477 206.506C157.192 206.823 156.896 207.153 156.59 207.494C155.401 208.888 154.229 210.635 153.223 212.718C151.221 216.896 149.88 222.317 149.176 228.405C148.454 234.501 148.344 241.268 148.492 248.359C148.554 251.905 148.696 255.366 148.704 258.721C148.678 262.081 148.536 265.302 148.351 268.379C147.982 274.528 147.146 280.048 145.926 284.555C144.722 289.07 143.106 292.522 141.827 294.788C141.497 295.351 141.217 295.858 140.949 296.282C140.673 296.688 140.435 297.037 140.235 297.332C140.053 297.592 139.906 297.802 139.788 297.971C139.684 298.113 139.628 298.183 139.621 298.178Z" fill="#455A64"/>
<path d="M202.564 268.253C202.542 268.281 202.18 268.039 201.546 267.576C200.912 267.113 200.004 266.429 198.902 265.56C196.706 263.817 193.684 261.34 190.839 258.1C187.989 254.86 186.045 251.398 185.105 248.734C184.624 247.405 184.346 246.293 184.209 245.516C184.069 244.74 184.038 244.304 184.068 244.3C184.167 244.279 184.409 246.013 185.448 248.602C186.463 251.193 188.419 254.559 191.231 257.757C194.04 260.956 197.003 263.462 199.135 265.275C200.141 266.125 200.99 266.842 201.672 267.417C202.267 267.929 202.586 268.224 202.564 268.253Z" fill="#455A64"/>
<path d="M168.534 212.969C168.534 212.969 169.552 213.97 170.744 216.225C171.956 218.458 173.163 222.012 173.607 226.542C174.121 231.074 173.691 236.488 173.55 242.45C173.5 245.432 173.576 248.57 174.115 251.762C174.639 254.957 175.557 258.198 176.687 261.448C178.967 267.949 181.744 273.943 183.508 279.69C185.325 285.407 186.108 290.875 185.673 295.42C185.315 299.975 183.917 303.487 182.666 305.686C181.382 307.888 180.353 308.87 180.353 308.87C180.346 308.864 180.393 308.79 180.493 308.65C180.612 308.489 180.76 308.289 180.943 308.042C181.335 307.506 181.879 306.69 182.489 305.588C183.673 303.38 184.999 299.895 185.306 295.391C185.688 290.898 184.88 285.507 183.05 279.834C181.274 274.133 178.489 268.156 176.196 261.619C175.059 258.351 174.135 255.079 173.611 251.845C173.072 248.609 173.007 245.436 173.07 242.441C173.239 236.45 173.704 231.073 173.241 226.578C172.847 222.083 171.708 218.557 170.563 216.317C170.006 215.187 169.472 214.363 169.102 213.812L168.668 213.192C168.572 213.05 168.527 212.975 168.534 212.969Z" fill="#455A64"/>
<path d="M197.991 243.936C197.973 243.935 197.968 243.645 197.976 243.094C197.989 242.496 198.007 241.693 198.029 240.684C198.073 238.592 198.176 235.564 198.073 231.83C197.947 228.105 197.638 223.638 196.391 218.871C195.141 214.138 192.931 209.024 189.067 204.858C185.218 200.703 180.142 198.155 175.313 197.398C170.458 196.6 165.961 197.449 162.502 198.749C159.032 200.104 156.538 201.877 154.983 203.254C154.604 203.602 154.263 203.914 153.962 204.191C153.673 204.47 153.449 204.726 153.256 204.922C152.875 205.318 152.667 205.521 152.653 205.51C152.64 205.498 152.82 205.272 153.178 204.851C153.36 204.644 153.573 204.375 153.852 204.082C154.146 203.793 154.478 203.467 154.847 203.103C156.375 201.668 158.865 199.825 162.368 198.405C165.86 197.043 170.427 196.137 175.39 196.924C180.328 197.672 185.516 200.259 189.448 204.504C193.391 208.756 195.617 213.958 196.855 218.75C198.091 223.58 198.361 228.08 198.441 231.821C198.497 235.572 198.338 238.601 198.232 240.692C198.168 241.7 198.118 242.501 198.081 243.098C198.039 243.648 198.009 243.936 197.991 243.936Z" fill="white"/>
<path d="M175.379 223.31C175.214 223.345 174.61 219.615 172.69 215.428C170.803 211.224 168.394 208.314 168.529 208.213C168.578 208.172 169.241 208.846 170.153 210.07C171.066 211.292 172.197 213.087 173.164 215.213C174.126 217.339 174.732 219.373 175.05 220.864C175.371 222.357 175.441 223.3 175.379 223.31Z" fill="white"/>
<path d="M182.974 216.706C182.81 216.78 181.953 212.947 178.893 209.395C175.884 205.798 172.241 204.331 172.34 204.181C172.36 204.129 173.285 204.412 174.64 205.177C175.994 205.936 177.743 207.242 179.29 209.058C180.83 210.879 181.835 212.816 182.365 214.275C182.9 215.737 183.029 216.695 182.974 216.706Z" fill="white"/>
<path d="M107.898 212.954L101.061 200.905C104.085 195.995 105.833 190.215 105.833 184.026C105.833 166.226 91.4035 151.796 73.6035 151.796C55.8035 151.796 41.3735 166.226 41.3735 184.026C41.3735 201.826 55.8035 216.255 73.6035 216.255C81.0355 216.255 87.8755 213.733 93.3275 209.506L93.3165 209.52L107.898 212.954Z" fill="#FAFAFA"/>
<path d="M107.898 212.954C107.205 212.796 102.589 211.741 93.2935 209.617L93.1445 209.583L93.2375 209.46L93.2485 209.446L93.3885 209.584C91.5495 211.009 89.3475 212.412 86.7585 213.582C84.1665 214.731 81.1965 215.67 77.9185 216.106C76.2805 216.315 74.5705 216.45 72.8135 216.364C71.9355 216.315 71.0415 216.293 70.1395 216.218C69.2435 216.083 68.3355 215.945 67.4155 215.806C63.7655 215.086 60.0325 213.7 56.5515 211.54C53.0715 209.387 49.8505 206.464 47.2675 202.872C44.6895 199.288 42.7335 195.036 41.8185 190.417C40.9125 185.804 40.9875 180.86 42.1995 176.074C43.4195 171.306 45.6985 166.647 49.1095 162.814L50.4265 161.366C50.8595 160.879 51.3755 160.477 51.8445 160.03C52.3355 159.607 52.7785 159.128 53.3065 158.755L54.8535 157.598C55.3545 157.193 55.9065 156.867 56.4555 156.538C57.0025 156.206 57.5475 155.875 58.0915 155.545C58.6635 155.267 59.2345 154.99 59.8035 154.714C60.3785 154.449 60.9305 154.135 61.5325 153.945C66.2165 152.086 71.2105 151.378 75.9855 151.724C80.7605 152.068 85.3305 153.438 89.2505 155.645C93.1825 157.834 96.4985 160.757 99.0575 164.021C101.625 167.287 103.434 170.89 104.554 174.477C105.666 178.081 105.967 181.655 105.955 184.963C105.859 188.28 105.255 191.335 104.376 194.017C103.494 196.702 102.337 199.011 101.142 200.954L101.144 200.857C105.458 208.584 107.566 212.361 107.898 212.954C107.558 212.366 105.398 208.618 100.978 200.952L100.95 200.903L100.979 200.854C102.154 198.915 103.291 196.614 104.152 193.944C105.012 191.278 105.597 188.244 105.679 184.955C105.678 181.674 105.369 178.134 104.257 174.568C103.137 171.019 101.337 167.458 98.7895 164.232C96.2495 161.008 92.9645 158.123 89.0735 155.965C85.1945 153.789 80.6765 152.442 75.9575 152.107C71.2385 151.77 66.3045 152.473 61.6795 154.311C61.0845 154.499 60.5395 154.809 59.9725 155.071L58.2815 155.893C57.7445 156.219 57.2055 156.546 56.6665 156.875C56.1235 157.199 55.5785 157.521 55.0835 157.922L53.5555 159.065C53.0335 159.434 52.5975 159.907 52.1115 160.325C51.6485 160.766 51.1385 161.163 50.7115 161.644L49.4105 163.075C46.0405 166.861 43.7895 171.462 42.5815 176.171C41.3825 180.896 41.3035 185.783 42.1945 190.342C43.0945 194.907 45.0215 199.11 47.5655 202.659C50.1135 206.214 53.2945 209.111 56.7325 211.248C60.1715 213.393 63.8625 214.774 67.4755 215.498C68.3865 215.638 69.2855 215.777 70.1715 215.913C71.0645 215.991 71.9505 216.014 72.8205 216.067C74.5615 216.158 76.2575 216.03 77.8805 215.829C81.1325 215.408 84.0815 214.49 86.6605 213.361C89.2355 212.213 91.4295 210.832 93.2665 209.428L93.8675 208.969L93.4065 209.566L93.3955 209.581L93.3395 209.424C102.606 211.671 107.208 212.787 107.898 212.954Z" fill="#E26A6C"/>
<path d="M64.5197 184.015C64.5197 185.823 63.0547 187.289 61.2457 187.289C59.4377 187.289 57.9717 185.823 57.9717 184.015C57.9717 182.207 59.4377 180.741 61.2457 180.741C63.0547 180.741 64.5197 182.207 64.5197 184.015Z" fill="#E26A6C"/>
<path d="M77.6227 184.015C77.6227 185.823 76.1567 187.289 74.3487 187.289C72.5407 187.289 71.0747 185.823 71.0747 184.015C71.0747 182.207 72.5407 180.741 74.3487 180.741C76.1567 180.741 77.6227 182.207 77.6227 184.015Z" fill="#E26A6C"/>
<path d="M90.6915 182.378C91.5955 183.944 91.0595 185.946 89.4935 186.851C87.9275 187.755 85.9245 187.218 85.0205 185.652C84.1165 184.086 84.6535 182.084 86.2195 181.179C87.7855 180.276 89.7875 180.812 90.6915 182.378Z" fill="#E26A6C"/>
<path d="M107.794 78.697L108.147 79.283C108.543 79.941 109.119 80.471 109.807 80.812L110.42 81.115L109.834 81.468C109.176 81.864 108.645 82.44 108.305 83.128L108.002 83.741L107.649 83.155C107.253 82.497 106.677 81.967 105.989 81.626L105.376 81.323L105.962 80.97C106.62 80.574 107.15 79.998 107.491 79.31L107.794 78.697Z" fill="#FFF700"/>
<path d="M453.663 70.2271L454.015 70.8131C454.411 71.4711 454.987 72.0021 455.676 72.3421L456.289 72.6451L455.703 72.9981C455.045 73.3941 454.514 73.9701 454.174 74.6581L453.87 75.2721L453.518 74.6851C453.122 74.0271 452.546 73.4971 451.857 73.1571L451.244 72.8531L451.83 72.5001C452.488 72.1051 453.019 71.5291 453.359 70.84L453.663 70.2271Z" fill="#263238"/>
<path d="M225.005 116.115L225.456 116.866C225.963 117.709 226.701 118.388 227.583 118.824L228.368 119.212L227.617 119.664C226.775 120.171 226.095 120.909 225.659 121.791L225.271 122.576L224.819 121.825C224.312 120.983 223.574 120.303 222.693 119.867L221.907 119.479L222.658 119.027C223.501 118.52 224.18 117.782 224.616 116.901L225.005 116.115Z" fill="#FFF700"/>
<path d="M176.866 11.8311L177.318 12.5821C177.825 13.4251 178.563 14.1041 179.444 14.5401L180.23 14.9281L179.479 15.3801C178.636 15.8871 177.957 16.6251 177.521 17.5071L177.132 18.2921L176.681 17.5411C176.174 16.6991 175.436 16.0191 174.554 15.5831L173.769 15.1951L174.52 14.7431C175.362 14.2361 176.042 13.4981 176.478 12.6161L176.866 11.8311Z" fill="#FFF700"/>
<path d="M367.461 2.66504L367.913 3.41504C368.42 4.25804 369.158 4.93804 370.039 5.37404L370.825 5.76204L370.074 6.21404C369.231 6.72104 368.552 7.45904 368.116 8.34004L367.727 9.12504L367.276 8.37504C366.769 7.53204 366.031 6.85204 365.149 6.41704L364.364 6.02804L365.115 5.57604C365.957 5.06904 366.637 4.33104 367.073 3.45004L367.461 2.66504Z" fill="#FFF700"/>
<path d="M316.991 81.219L317.337 84.662C317.42 85.487 317.755 86.287 318.365 86.849L318.406 86.885C318.991 87.413 319.765 87.685 320.553 87.725L323.271 87.862L320.473 88.36C319.75 88.489 319.067 88.82 318.557 89.348C318.501 89.406 318.447 89.465 318.394 89.525C317.905 90.081 317.632 90.795 317.566 91.532L317.257 94.968L316.915 91.72C316.829 90.901 316.493 90.109 315.889 89.55C315.853 89.517 315.816 89.484 315.779 89.452C315.235 88.977 314.542 88.704 313.823 88.629L310.949 88.33L313.641 88C314.437 87.903 315.203 87.568 315.751 86.982C315.785 86.946 315.818 86.91 315.85 86.873C316.343 86.314 316.616 85.594 316.679 84.852L316.991 81.219Z" fill="#FFF700"/>
<path d="M54.9668 16.124L55.3118 19.567C55.3948 20.392 55.7308 21.192 56.3408 21.754L56.3808 21.791C56.9668 22.319 57.7408 22.59 58.5278 22.63L61.2458 22.767L58.4488 23.266C57.7248 23.395 57.0428 23.725 56.5318 24.253C56.4768 24.311 56.4218 24.37 56.3688 24.43C55.8798 24.986 55.6068 25.7 55.5408 26.437L55.2328 29.873L54.8908 26.625C54.8048 25.807 54.4688 25.014 53.8638 24.456C53.8278 24.422 53.7918 24.389 53.7548 24.357C53.2098 23.882 52.5178 23.609 51.7988 23.534L48.9238 23.235L51.6168 22.906C52.4128 22.809 53.1788 22.473 53.7268 21.887C53.7598 21.851 53.7928 21.815 53.8258 21.778C54.3178 21.219 54.5908 20.499 54.6548 19.757L54.9668 16.124Z" fill="#FFF700"/>
<path d="M230.736 184.059L231.188 184.81C231.695 185.653 232.433 186.332 233.314 186.768L234.1 187.157L233.349 187.608C232.506 188.115 231.827 188.853 231.391 189.735L231.002 190.52L230.551 189.769C230.044 188.927 229.306 188.247 228.424 187.811L227.639 187.423L228.39 186.971C229.232 186.464 229.912 185.726 230.348 184.845L230.736 184.059Z" fill="#FFF700"/>
<path d="M388.324 133.871L388.775 134.621C389.282 135.464 390.02 136.144 390.902 136.58L391.687 136.968L390.937 137.42C390.094 137.927 389.414 138.665 388.978 139.546L388.59 140.331L388.138 139.581C387.631 138.738 386.893 138.058 386.012 137.623L385.227 137.234L385.977 136.782C386.82 136.275 387.499 135.537 387.935 134.656L388.324 133.871Z" fill="#FFF700"/>
</svg>
