<svg xmlns="http://www.w3.org/2000/svg" xmlns:xlink="http://www.w3.org/1999/xlink" width="30.45" height="26.445" viewBox="0 0 30.45 26.445">
  <defs>
    <linearGradient id="linear-gradient" x1="1" y1="-0.272" x2="0" y2="1" gradientUnits="objectBoundingBox">
      <stop offset="0" stop-color="#ce1919"/>
      <stop offset="1" stop-color="#450874"/>
    </linearGradient>
  </defs>
  <path id="Demographics" d="M28.114,24.767l-2.2-6.45c-.1-.282-.257-.547-.546-.547h-1.23l.824-1.674h.406a2.046,2.046,0,0,1,1.6.743,2.784,2.784,0,0,1,.528.941l2.95,8.662H0l2.639-8.616a2.694,2.694,0,0,1,.636-1.1h.007a2.063,2.063,0,0,1,1.5-.631H5.6l.9,1.674H4.782c-.29,0-.462.272-.546.547l-1.977,6.45ZM13.349,12.859a1.783,1.783,0,0,1-.787-1.357h-.043a.582.582,0,0,1-.285-.075.779.779,0,0,1-.313-.381c-.145-.332-.259-1.207.1-1.456l-.068-.046-.008-.1c-.014-.175-.017-.389-.02-.612-.014-.823-.03-1.818-.692-2.018l-.283-.086L11.14,6.5A10.724,10.724,0,0,1,12.8,4.82a4.223,4.223,0,0,1,1.916-.931,2.307,2.307,0,0,1,1.864.522,3.467,3.467,0,0,1,.5.5,2.117,2.117,0,0,1,1.492.872,3.028,3.028,0,0,1,.486.981,3.381,3.381,0,0,1,.131,1.111,2.674,2.674,0,0,1-.774,1.8.552.552,0,0,1,.241.061.6.6,0,0,1,.211.736c-.071.225-.162.485-.248.7-.1.295-.256.35-.551.318-.015.73-.352.931-.806,1.36.019,1.1-3.933.97-3.909,0Zm-.2.906,1.176,3.4.591-1.993-.29-.316c-.218-.318-.143-.68.26-.745a3.031,3.031,0,0,1,.437-.008,2.34,2.34,0,0,1,.481.018c.375.083.414.446.228.735l-.29.316.591,1.993,1.063-3.4c.7.632,3.024.8,4.062,1.188a14.128,14.128,0,0,0,1.019-3.074,9.443,9.443,0,0,0-.9-6.832A6.962,6.962,0,0,0,20.3,3.5a7.045,7.045,0,0,0-4.748-1.937,7.959,7.959,0,0,0-5,1.845A7.318,7.318,0,0,0,8.919,5.223a8.461,8.461,0,0,0-1.058,5.962,12.736,12.736,0,0,0,1.253,3.749c1.146-.445,3.25-.466,4.03-1.169Zm3.371,9.01a1.841,1.841,0,0,1-2.049.056l0-.005a20.274,20.274,0,0,1-2.608-1.969,18.414,18.414,0,0,1-2.2-2.324A17.069,17.069,0,0,1,7.5,15.083a14.168,14.168,0,0,1-1.144-3.689,11.149,11.149,0,0,1,0-3.716A8.8,8.8,0,0,1,8.525,3.194,8.513,8.513,0,0,1,9.6,2.175,10.332,10.332,0,0,1,12.457.55,8.8,8.8,0,0,1,15.569,0a8.272,8.272,0,0,1,3.07.61,9.232,9.232,0,0,1,2.692,1.722,8.2,8.2,0,0,1,.832.88,8.65,8.65,0,0,1,.708,1A9.591,9.591,0,0,1,24.15,7.938a12.719,12.719,0,0,1-.187,4.222,16.381,16.381,0,0,1-2.673,6.1,16.481,16.481,0,0,1-4.774,4.519Z" transform="translate(0 0.003)" fill-rule="evenodd" fill="url(#linear-gradient)"/>
</svg>
