<svg xmlns="http://www.w3.org/2000/svg" width="467.469" height="436.853" viewBox="0 0 467.469 436.853">
  <g id="fill_the_form" data-name="fill the form" transform="translate(0 0.5)">
    <path id="Path_18611" data-name="Path 18611" d="M1832.007,237.437c-75.354-8.445-151.563-109.226-193.138-26.077s57.165,104.482,0,198.025-70.318,154.662,0,188.324,117.417-117.073,257.732-39.12,205.45-81.645,130.1-149.2,18.4-145.569-41.36-184.545S1907.361,245.882,1832.007,237.437Z" transform="translate(-1590.937 -166.339)" fill="#fecaca" opacity="0.4"/>
    <g id="Group_17361" data-name="Group 17361" transform="translate(-29.312 -55.594)">
      <g id="BACKGROUND">
        <g id="Group_17344" data-name="Group 17344">
          <g id="Group_17338" data-name="Group 17338">
            <line id="Line_446" data-name="Line 446" x2="114.19" transform="translate(95.329 429.295)" fill="none" stroke="#1c00a0" stroke-miterlimit="10" stroke-width="1"/>
            <line id="Line_447" data-name="Line 447" x2="97.898" transform="translate(320.436 429.295)" fill="none" stroke="#1c00a0" stroke-miterlimit="10" stroke-width="1"/>
          </g>
          <g id="Group_17339" data-name="Group 17339">
            <line id="Line_449" data-name="Line 449" x2="4.488" y2="4.488" transform="translate(128.851 143.33)" fill="none" stroke="#ef3e37" stroke-miterlimit="10" stroke-width="1"/>
            <line id="Line_450" data-name="Line 450" x1="4.488" y2="4.488" transform="translate(128.851 143.33)" fill="none" stroke="#ef3e37" stroke-miterlimit="10" stroke-width="1"/>
          </g>
          <g id="Group_17340" data-name="Group 17340">
            <line id="Line_451" data-name="Line 451" x2="4.488" y2="4.488" transform="translate(264.355 108.839)" fill="none" stroke="#ef3e37" stroke-miterlimit="10" stroke-width="1"/>
            <line id="Line_452" data-name="Line 452" x1="4.488" y2="4.488" transform="translate(264.355 108.839)" fill="none" stroke="#ef3e37" stroke-miterlimit="10" stroke-width="1"/>
          </g>
          <g id="Group_17341" data-name="Group 17341">
            <line id="Line_453" data-name="Line 453" x2="4.488" y2="4.488" transform="translate(413.845 155.571)" fill="none" stroke="#ef3e37" stroke-miterlimit="10" stroke-width="1"/>
            <line id="Line_454" data-name="Line 454" x1="4.488" y2="4.488" transform="translate(413.845 155.571)" fill="none" stroke="#ef3e37" stroke-miterlimit="10" stroke-width="1"/>
          </g>
          <g id="Group_17342" data-name="Group 17342">
            <line id="Line_455" data-name="Line 455" x2="4.488" y2="4.488" transform="translate(54.41 284.63)" fill="none" stroke="#ef3e37" stroke-miterlimit="10" stroke-width="1"/>
            <line id="Line_456" data-name="Line 456" x1="4.488" y2="4.488" transform="translate(54.41 284.63)" fill="none" stroke="#ef3e37" stroke-miterlimit="10" stroke-width="1"/>
          </g>
          <g id="Group_17343" data-name="Group 17343">
            <line id="Line_457" data-name="Line 457" x2="4.488" y2="4.488" transform="translate(444.087 284.63)" fill="none" stroke="#1c00a0" stroke-miterlimit="10" stroke-width="1"/>
            <line id="Line_458" data-name="Line 458" x1="4.488" y2="4.488" transform="translate(444.087 284.63)" fill="none" stroke="#1c00a0" stroke-miterlimit="10" stroke-width="1"/>
          </g>
          <path id="Path_18617" data-name="Path 18617" d="M101.39,235.3a1.757,1.757,0,1,1-1.757-1.756A1.757,1.757,0,0,1,101.39,235.3Z" fill="none" stroke="#1c00a0" stroke-miterlimit="10" stroke-width="1"/>
          <path id="Path_18618" data-name="Path 18618" d="M88.707,111.083a1.757,1.757,0,1,1-1.756-1.756A1.757,1.757,0,0,1,88.707,111.083Z" fill="#ef3e37" stroke="#ef3e37" stroke-miterlimit="10" stroke-width="1"/>
          <path id="Path_18619" data-name="Path 18619" d="M268.356,57.351a1.757,1.757,0,1,1-1.757-1.757A1.757,1.757,0,0,1,268.356,57.351Z" fill="#ef3e37" stroke="#ef3e37" stroke-miterlimit="10" stroke-width="1"/>
          <path id="Path_18620" data-name="Path 18620" d="M372.605,251.821a1.757,1.757,0,1,1-1.756-1.756A1.757,1.757,0,0,1,372.605,251.821Z" fill="none" stroke="#1c00a0" stroke-miterlimit="10" stroke-width="1"/>
          <path id="Path_18621" data-name="Path 18621" d="M368.522,131.048a1.757,1.757,0,1,1-1.756-1.756A1.756,1.756,0,0,1,368.522,131.048Z" fill="#ef3e37" stroke="#ef3e37" stroke-miterlimit="10" stroke-width="1"/>
        </g>
      </g>
      <g id="OBJECTS">
        <path id="Path_18622" data-name="Path 18622" d="M192.192,441.5c0,3.754-15.992,6.8-35.719,6.8s-35.72-3.044-35.72-6.8,15.992-6.8,35.72-6.8S192.192,437.743,192.192,441.5Z" fill="#aea2e9" opacity="0.22"/>
        <path id="Path_18623" data-name="Path 18623" d="M401.275,441.5c0,3.754-15.992,6.8-35.72,6.8s-35.72-3.044-35.72-6.8,15.993-6.8,35.72-6.8S401.275,437.743,401.275,441.5Z" fill="#aea2e9" opacity="0.22"/>
        <path id="Path_18624" data-name="Path 18624" d="M338.31,419.83c0,3.754-46.387,6.8-103.608,6.8S131.1,423.584,131.1,419.83s46.387-6.8,103.607-6.8S338.31,416.075,338.31,419.83Z" fill="#aea2e9" opacity="0.22"/>
        <g id="Group_17348" data-name="Group 17348">
          <rect id="Rectangle_4705" data-name="Rectangle 4705" width="193.942" height="238.59" rx="14.829" transform="translate(147.949 181.24)" fill="#ef3e37"/>
          <rect id="Rectangle_4706" data-name="Rectangle 4706" width="151.757" height="200.393" transform="translate(168.679 201.65)" fill="#fff"/>
          <g id="Group_17345" data-name="Group 17345">
            <rect id="Rectangle_4707" data-name="Rectangle 4707" width="82.174" height="29.995" transform="translate(179.673 225.509)" fill="#fecaca" opacity="0.4"/>
            <line id="Line_459" data-name="Line 459" x2="64.163" transform="translate(186.548 231.229)" fill="none" stroke="#1c00a0" stroke-miterlimit="10" stroke-width="1"/>
            <line id="Line_460" data-name="Line 460" x2="47.556" transform="translate(186.548 246.092)" fill="none" stroke="#1c00a0" stroke-miterlimit="10" stroke-width="1"/>
            <line id="Line_461" data-name="Line 461" x2="34.211" transform="translate(186.548 238.66)" fill="none" stroke="#1c00a0" stroke-miterlimit="10" stroke-width="1"/>
          </g>
          <g id="Group_17346" data-name="Group 17346">
            <rect id="Rectangle_4708" data-name="Rectangle 4708" width="82.174" height="29.995" transform="translate(179.673 266.292)" fill="#fecaca" opacity="0.4"/>
            <line id="Line_462" data-name="Line 462" x2="64.163" transform="translate(186.548 272.012)" fill="none" stroke="#1c00a0" stroke-miterlimit="10" stroke-width="1"/>
            <line id="Line_463" data-name="Line 463" x2="47.556" transform="translate(186.548 286.874)" fill="none" stroke="#1c00a0" stroke-miterlimit="10" stroke-width="1"/>
            <line id="Line_464" data-name="Line 464" x2="34.211" transform="translate(186.548 279.443)" fill="none" stroke="#1c00a0" stroke-miterlimit="10" stroke-width="1"/>
          </g>
          <g id="Group_17347" data-name="Group 17347">
            <rect id="Rectangle_4709" data-name="Rectangle 4709" width="82.174" height="29.995" transform="translate(179.673 307.075)" fill="#fecaca" opacity="0.4"/>
            <rect id="Rectangle_4710" data-name="Rectangle 4710" width="82.174" height="29.995" transform="translate(179.673 343.624)" fill="none" stroke="#8e8aff" stroke-miterlimit="10" stroke-width="1" opacity="0.4"/>
            <line id="Line_465" data-name="Line 465" x2="64.163" transform="translate(186.548 312.795)" fill="none" stroke="#1c00a0" stroke-miterlimit="10" stroke-width="1"/>
            <line id="Line_466" data-name="Line 466" x2="47.556" transform="translate(186.548 327.657)" fill="none" stroke="#1c00a0" stroke-miterlimit="10" stroke-width="1"/>
            <line id="Line_467" data-name="Line 467" x2="34.211" transform="translate(186.548 320.226)" fill="none" stroke="#1c00a0" stroke-miterlimit="10" stroke-width="1"/>
          </g>
          <circle id="Ellipse_476" data-name="Ellipse 476" cx="9.908" cy="9.908" r="9.908" transform="translate(277.782 231.229)" fill="none" stroke="#8e8aff" stroke-miterlimit="10" stroke-width="1"/>
          <circle id="Ellipse_477" data-name="Ellipse 477" cx="9.908" cy="9.908" r="9.908" transform="translate(277.782 269.949)" fill="none" stroke="#8e8aff" stroke-miterlimit="10" stroke-width="1"/>
          <path id="Path_18625" data-name="Path 18625" d="M276.757,237.984l9.658,10.463,20.524-22.939" fill="none" stroke="#ef3e37" stroke-linecap="round" stroke-miterlimit="10" stroke-width="2"/>
          <path id="Path_18626" data-name="Path 18626" d="M276.757,277.193l9.658,10.463,9.328-11.743" fill="none" stroke="#ef3e37" stroke-linecap="round" stroke-miterlimit="10" stroke-width="2"/>
          <circle id="Ellipse_478" data-name="Ellipse 478" cx="9.908" cy="9.908" r="9.908" transform="translate(277.782 310.65)" fill="none" stroke="#8e8aff" stroke-miterlimit="10" stroke-width="1"/>
          <circle id="Ellipse_479" data-name="Ellipse 479" cx="9.908" cy="9.908" r="9.908" transform="translate(274.758 356.856) rotate(-22.357)" fill="none" stroke="#8e8aff" stroke-miterlimit="10" stroke-width="1"/>
          <path id="Path_18627" data-name="Path 18627" d="M276.757,359.628l9.658,10.463,20.524-22.938" fill="none" stroke="#ef3e37" stroke-linecap="round" stroke-linejoin="round" stroke-width="2"/>
        </g>
        <g id="Group_17354" data-name="Group 17354">
          <g id="Group_17353" data-name="Group 17353">
            <g id="Group_17352" data-name="Group 17352">
              <path id="Path_18628" data-name="Path 18628" d="M351.7,403.611a9.268,9.268,0,0,1-.056-1.184,16.233,16.233,0,0,1-.114-2.113c.023-3.185-.376-16.779-.593-24.9h0a128.984,128.984,0,0,1-.146-13.409l21.037-1.438a36.372,36.372,0,0,1,1.267,7.688c.57,3.178,3.716,26.1,4.566,30.305.043.217.077.422.112.628,4.564,6.838,8,32.859,8.849,37.365.114.6-.221.558-.581.513-1.052-.131-.679-1.131-2.156-.939-.782.1-.933,1.193-.933,1.193-2.046-6.033-8.9-27.26-12.019-33.627a8.079,8.079,0,0,1-.806-2.616c-2.511-7.007-6.5-19.08-7.623-24.291-.6,5.962-1.011,19.429-2.232,25.726,2.758,8.532-1.1,26.509-.664,36.732-1.206-1.722-2.259-2.088-2.738-2.019a1.735,1.735,0,0,0-1.161.761C354.935,424.274,352.485,410.674,351.7,403.611Z" fill="#622466"/>
              <path id="Path_18629" data-name="Path 18629" d="M362.34,319.589a9.27,9.27,0,0,0-6.489.966c-5.75,4.14-10.152,7.508-12.362,8.892-3.224-3.026-9.647-8.242-10.487-9.31-.678-.862-2.054.372-2.069,1.334-.019,1.184,1.4,1.3,3.556,4.4a33.621,33.621,0,0,0,7.273,8.165,2.5,2.5,0,0,0,1.351.6,1.3,1.3,0,0,0,.493.009,2.48,2.48,0,0,0,.877-.235c1.81-.57,5.112-2,11.073-5.725a59.234,59.234,0,0,0,7.012-4.946C364.644,322.067,363.757,319.961,362.34,319.589Z" fill="#ebaf84"/>
              <path id="Path_18630" data-name="Path 18630" d="M364.834,311.685c.041.226.735,5.062,1.054,8.788.156,1.826-1.044,3.652-2.358,3.785l-.057.006c-1.291.088-2.922-1.431-2.931-3.234-.015-3.261-.4-6.574-.406-6.625Z" fill="#ebaf84"/>
              <path id="Path_18631" data-name="Path 18631" d="M370.044,332.433a63.681,63.681,0,0,0-1.633,10.367,25.885,25.885,0,0,0,.556,7.683c.312,1.52.718,3.02,1.169,4.5.115.377,1.477,3.2,2.386,5.156a1.355,1.355,0,0,1-1.193,1.928c-4.744.125-16.555.439-20.4.567a1.078,1.078,0,0,1-1.112-1.2c.6-5.2,4.394-17.526.959-25.006-2.6-5.656.314-6.035,1.965-11a14.268,14.268,0,0,1,1.441-3.62,6.057,6.057,0,0,1,3.084-2.194,11.945,11.945,0,0,1,1.938-.408c3.54-.531,11.852-2.135,12.987,2.877a8.991,8.991,0,0,1-.138,4.122c-.369,1.51-.976,2.95-1.467,4.424Q370.287,331.527,370.044,332.433Z" fill="#5b5b5b"/>
              <path id="Path_18632" data-name="Path 18632" d="M367.125,307.992c-.13,4.179-.19,5.1-1.886,6.929a9.807,9.807,0,0,1-6.2,2.914c-2.124.145-3.854-1.991-4.453-3.715a30.251,30.251,0,0,1-1.208-10.6,6.72,6.72,0,0,1,5.73-5.514C362.036,297.809,367.445,297.781,367.125,307.992Z" fill="#ebaf84"/>
              <path id="Path_18633" data-name="Path 18633" d="M355.449,437.97c-.208.483-7.721,3.846-5.8,4.344a11.24,11.24,0,0,0,5.171-.284,22.478,22.478,0,0,1,3.472-.448c1.72-.129,1.725-.236,1.362-2.162C359.15,436.769,356.122,436.407,355.449,437.97Z" fill="#321144"/>
              <path id="Path_18634" data-name="Path 18634" d="M382.971,436.926c-.209.483-6.744,4.967-4.826,5.465a11.239,11.239,0,0,0,5.171-.284c1.1-.254,4.22-1.806,3.856-3.732C386.671,435.725,383.643,435.363,382.971,436.926Z" fill="#321144"/>
              <path id="Path_18635" data-name="Path 18635" d="M365.892,308.128c-.488,1.476-.257,2.88.516,3.136s1.8-.734,2.284-2.21.257-2.88-.515-3.135S366.381,306.652,365.892,308.128Z" fill="#ebaf84"/>
              <g id="Group_17349" data-name="Group 17349">
                <path id="Path_18636" data-name="Path 18636" d="M383.712,436.182a1.624,1.624,0,0,0-.317.2A.9.9,0,0,1,383.712,436.182Z" fill="#ffc385"/>
              </g>
              <g id="Group_17351" data-name="Group 17351">
                <g id="Group_17350" data-name="Group 17350">
                  <rect id="Rectangle_4711" data-name="Rectangle 4711" width="14.916" height="116.687" transform="matrix(-0.67, 0.742, -0.742, -0.67, 396.252, 355.926)" fill="#622466"/>
                  <rect id="Rectangle_4712" data-name="Rectangle 4712" width="1.657" height="117.145" transform="matrix(-0.67, 0.742, -0.742, -0.67, 393.197, 359.309)" fill="#622466"/>
                  <rect id="Rectangle_4713" data-name="Rectangle 4713" width="1.657" height="117.145" transform="matrix(-0.67, 0.742, -0.742, -0.67, 390.421, 362.382)" fill="#622466"/>
                  <rect id="Rectangle_4714" data-name="Rectangle 4714" width="15.271" height="2.974" transform="matrix(-0.67, 0.742, -0.742, -0.67, 398.358, 357.349)" fill="#fff"/>
                  <path id="Rectangle_4715" data-name="Rectangle 4715" d="M3.907,0h7.456a3.907,3.907,0,0,1,3.907,3.907V5.262a0,0,0,0,1,0,0H0a0,0,0,0,1,0,0V3.907A3.907,3.907,0,0,1,3.907,0Z" transform="matrix(-0.67, 0.742, -0.742, -0.67, 402.263, 360.877)" fill="#ff572b"/>
                  <path id="Path_18637" data-name="Path 18637" d="M299.658,288.78l10-11.069-10.12-1.934-4.484-.863,1.413,4.263Z" fill="#ebaf84"/>
                  <path id="Path_18638" data-name="Path 18638" d="M296.466,279.177l3.071-3.4-4.484-.863Z" fill="#ff572b"/>
                </g>
              </g>
              <path id="Path_18639" data-name="Path 18639" d="M385.462,336.1c-.7-1.444-2.6-4.447-8.353-10.332a59.214,59.214,0,0,0-6.332-5.793c-2.077-1.67-3.945-.354-4.006,1.11a9.275,9.275,0,0,0,2.33,6.133c4.734,4.247,8.625,7.564,10.692,9.547-3.65,2.939-9.626,8.4-10.813,9.076a.713.713,0,0,0-.139.128,7.044,7.044,0,0,0-3.117.794c-.655.449.737.455,1.74.471-1.808,1.016-2.978,1.409-3.521,2.388-.612,1.105,1.752,1.26,2.6.908s3.95-1.428,4.261-2.474h0c.785-.381,1.615-1.532,4.306-2.868a34.966,34.966,0,0,0,9.506-6.235,2.576,2.576,0,0,0,.9-1.828A1.388,1.388,0,0,0,385.462,336.1Z" fill="#ebaf84"/>
              <path id="Path_18640" data-name="Path 18640" d="M333.274,321.738a9.085,9.085,0,0,0,1.463-2.477c.2-.574-.043-1.3-.733-1.2A4.506,4.506,0,0,0,331.4,320a3.135,3.135,0,0,0,.147,2.31C331.876,322.936,332.537,322.668,333.274,321.738Z" fill="#ebaf84"/>
            </g>
          </g>
          <path id="Path_18641" data-name="Path 18641" d="M366.766,319.028l-.359-1.283-7.3.8.1.669Z" fill="#ffb507"/>
          <path id="Path_18642" data-name="Path 18642" d="M367.231,299.263c-1.747-1.909-6.963-3.774-10.737-1.068a7.547,7.547,0,0,0-3.122,2.951c-.845,1.791-.383,5.587-.03,4.351a3.876,3.876,0,0,1,1.694-1.862,22.6,22.6,0,0,0,6.538,3.2l1.445,9.092h6.591C371.193,301.426,367.231,299.263,367.231,299.263Z" fill="#321144"/>
        </g>
        <g id="Group_17357" data-name="Group 17357">
          <g id="Group_17355" data-name="Group 17355">
            <rect id="Rectangle_4716" data-name="Rectangle 4716" width="82.174" height="29.995" transform="translate(122.429 384.948) rotate(-25.455)" fill="#8e8aff" opacity="0.4"/>
            <line id="Line_468" data-name="Line 468" y1="27.578" x2="57.934" transform="translate(131.095 359.58)" fill="none" stroke="#1c00a0" stroke-miterlimit="10" stroke-width="1"/>
            <line id="Line_469" data-name="Line 469" y1="20.44" x2="42.939" transform="translate(137.483 380.137)" fill="none" stroke="#1c00a0" stroke-miterlimit="10" stroke-width="1"/>
            <line id="Line_470" data-name="Line 470" y1="14.704" x2="30.89" transform="translate(134.289 379.163)" fill="none" stroke="#1c00a0" stroke-miterlimit="10" stroke-width="1"/>
          </g>
          <g id="Group_17356" data-name="Group 17356">
            <path id="Path_18643" data-name="Path 18643" d="M137.99,381.837l-11.092,7.39,5.525,17.24s4.017,1.795,4.751,3.181,2.039,3.181,1.305,3.1-2.854-1.876-3.262-1.876.652,4.894.652,4.894-3.67-.49-5.056-2.61a21.979,21.979,0,0,1-2.218-5.872s-5.565-10.4-7.733-18.73a3.5,3.5,0,0,1,1.159-3.547c3.508-2.948,11.649-9.634,14.746-10.835C140.763,372.621,143.21,378.93,137.99,381.837Z" fill="#ebaf84"/>
            <path id="Path_18644" data-name="Path 18644" d="M148.47,403.164l1.356,2.184s30.247-1.572,34.284,3.688-5.26,14.558-16.27,21.654-7.218,4.893-7.218,4.893,10.521,1.468,10.4,3.059-20.064,0-20.064,0l17.861-20.43-25.078,1.223-5.383-15.047Z" fill="#622466"/>
            <path id="Path_18645" data-name="Path 18645" d="M147.594,402.185l.876,5.873s13.987,8.93,19.492,16.637,10.057,16.086,7.9,19.329c-3.741,5.628-39.219-9.419-39.219-9.419l1.1,5.872s3.253,2.312,2.654,3.168-9.015-1.333-9.015-1.333-3.181-13.335-2.08-16.149,8.033,3.548,8.033,3.548l17.809,2.208s-13.486-6.367-20.826-11.995c-5.414-4.15-6.661-11.377-3.269-17.739Z" fill="#622466"/>
            <path id="Path_18646" data-name="Path 18646" d="M137.337,429.711l13.064,1.62c-.526,1.105-1.411,3.894-.092,8.542-7.476-2.646-13.665-5.268-13.665-5.268l1.1,5.872s3.253,2.312,2.654,3.168-9.015-1.333-9.015-1.333-3.181-13.335-2.08-16.149S137.337,429.711,137.337,429.711Z" fill="#ebaf84"/>
            <path id="Path_18647" data-name="Path 18647" d="M135.512,428.178l1.825,1.533-.363,6.65.771,4.116s3.253,2.312,2.654,3.168c-.4.575-3.241.321-6.365-.56a4.6,4.6,0,0,1-3.252-3.467c-.863-4.048-2.265-11.442-1.478-13.455C130.04,424.282,133.377,426.5,135.512,428.178Z" fill="#ffc385"/>
            <path id="Path_18648" data-name="Path 18648" d="M163.13,356.677s6.361,8.38-5.689,10.888-10-4.263-9.2-5.914S158.971,355.086,163.13,356.677Z" fill="#ffb507"/>
            <path id="Path_18649" data-name="Path 18649" d="M161.907,359.851s-1.179,5.172,0,7.071h-1.834s-1.047,2.03-1.767,3.4-3.077-.589-3.994,0-2.641,5.587-2.641,5.587l-9.013-2.706,7.529-15.582Z" fill="#ebaf84"/>
            <path id="Path_18650" data-name="Path 18650" d="M154.137,372.4s-3.18.544-7.747-2.228l-1.631,1.631-5.79.619s-5.22,6.476-6.117,14.387-4.746,18.6-3.2,18.921,16.187.747,18.815,0c1.356-.385-.693-10.194,1.427-12.233s4.96-3.478,5.954-6.688c1.427-4.608-2.447-11.826-2.447-11.826Z" fill="#5b5b5b"/>
            <path id="Path_18651" data-name="Path 18651" d="M169.537,393.042s-8.364-8.534-10.566-11.47-6.056-5.659-8.5-2.642c-2.111,2.6,1.59,6.557,2.386,7.78.609.937,9.451,8.94,13.562,12.64a3.914,3.914,0,0,0,4.514.513l16.223-8.965a6.557,6.557,0,0,0,3.529.546c2.018-.244,1.726-.211,2.582-1.006s3.671-2.728,3.671-3.891c0,0-6.239.909-7.157.052s1.04-3.486.061-4.343l-3.418,4.291Z" fill="#ebaf84"/>
            <path id="Path_18652" data-name="Path 18652" d="M164.5,356.555c-.36-4.742-8.156-6.117-12.723-4.323s-5.138,5.79-9.134,7.585-4.078,5.383-6.2,7.5-5.546,5.79-3.262,10.032,8.074-1.3,11.418-2.2,2.284-3.1,4.241-5.872,7.34-2.446,8.156-7.258C156.993,362.019,164.985,363,164.5,356.555Z" fill="#321144"/>
          </g>
        </g>
        <g id="Group_17360" data-name="Group 17360">
          <path id="Path_18653" data-name="Path 18653" d="M217.488,230.445s9.1,2.791,9.876,4.855L212.473,234l2.286-3.794Z" fill="#25232a"/>
          <path id="Path_18654" data-name="Path 18654" d="M223.942,230.445s9.1,2.791,9.876,4.855l-14.89-1.3,2.286-3.794Z" fill="#25232a"/>
          <g id="Group_17359" data-name="Group 17359">
            <path id="Path_18655" data-name="Path 18655" d="M210.31,167.859l.991,6.818s23.927,12.112,24.67,19.134c.7,6.56-10.43,37.234-10.43,37.234h-3.715l.743-35.226s-9.149-2.425-23.205-10.649c-5.925-3.467-6.778-11.1-3.327-17.311Z" fill="#622466"/>
            <path id="Path_18656" data-name="Path 18656" d="M203.3,167.859l.991,6.818s23.928,12.112,24.671,19.134c.694,6.56-10.43,37.234-10.43,37.234h-3.716l.744-35.226s-9.149-2.425-23.205-10.649c-5.926-3.467-6.778-11.1-3.327-17.311Z" fill="#622466"/>
            <path id="Path_18657" data-name="Path 18657" d="M223.714,119.13c.915.455,1.341-3.012,1.422-4.207a2.817,2.817,0,0,0-1.591-2.663,7.988,7.988,0,0,0-3.112-1.177l-4.826.05a6.7,6.7,0,0,0-3.008.506c-1.749.872-2.814,3.132-3.028,5.281a19.152,19.152,0,0,0,.738,6.258c.316,1.352.763,2.873,1.9,3.311,1.108.424,2.386-.4,3.265-1.434,1.424-1.67,2.926-.78,4.129-2.664s.894-3.548,2.773-3.16" fill="#321144"/>
            <path id="Path_18658" data-name="Path 18658" d="M220.994,154.273l-.266,7.985,11.767,8.352,2.5.628a2.225,2.225,0,0,1,1.565,1.444l.069.2-2.69.117,2.215,3.269a1.284,1.284,0,0,1-.483,1.865l-1.382.7a1.283,1.283,0,0,1-1.535-.289l-5.46-6.1-12.429-6.956a2.369,2.369,0,0,1-1.206-2.215l.66-10.454Z" fill="#ebaf84"/>
            <path id="Path_18659" data-name="Path 18659" d="M220.8,139.738l2.341,16.142-10.177,1.935,1.145-13.072Z" fill="#5b5b5b"/>
            <path id="Path_18660" data-name="Path 18660" d="M213.636,131.371c-3.738-.995-11.007.178-14.611,5.425S187.063,162.244,187,172.08c0,0,12.826,2.3,24.273-.837,0,0,2.279-12.066,4.46-17.081s2.034-4.848,5.069-14.424C220.8,139.738,219.616,132.964,213.636,131.371Z" fill="#5b5b5b"/>
            <path id="Path_18661" data-name="Path 18661" d="M222.6,118.173l.542,5.39-1.567-.136s-.031,2.647-.138,3.774-.867,2.2-3.64,1.618l-1.321,7.205s-3.845,1.221-6.61-4.784l2.1-6.885a2.541,2.541,0,0,1-1.918-2.439c.012-1.976,2.488-.793,2.488-.793l.253,3.809,1.792.535.427-6.358s4.173,1.2,5.463.224a6.015,6.015,0,0,0,1.171-1.244Z" fill="#ebaf84"/>
            <g id="Group_17358" data-name="Group 17358">
              <path id="Path_18662" data-name="Path 18662" d="M198.585,178.8l16.3,6.393,26.652.536,12.983-20.492-27.439-1.706-11.87,19.808-16.52-5.966Z" fill="#aea2e9"/>
              <path id="Path_18663" data-name="Path 18663" d="M237.972,175.065a1.721,1.721,0,0,1-1.952,1.244,1.544,1.544,0,0,1-.679-2.108,1.718,1.718,0,0,1,1.951-1.243A1.543,1.543,0,0,1,237.972,175.065Z" fill="#f3f0d8"/>
            </g>
            <path id="Path_18664" data-name="Path 18664" d="M201.584,151.923l-1.136,10.29,13.269,12.1s7.275,1.382,7.347,2.106-3.5.83-3.5.83l2.9,4.675.144.14a1.989,1.989,0,0,1-.832,3.335l-.865.252a1.992,1.992,0,0,1-1.857-.4l-2.111-1.826a3.208,3.208,0,0,1-.546-.612l-3.5-5.117L194.58,166.52a2.684,2.684,0,0,1-1.166-2.122l-.463-13.224Z" fill="#ebaf84"/>
            <path id="Path_18665" data-name="Path 18665" d="M202.259,134.078c3.641,1.09,4.106,5.062,3.724,8.787a72.035,72.035,0,0,0,.111,9.959l-13.9-2.4s2.084-10.914,3.257-13C197.221,134.263,199.768,133.333,202.259,134.078Z" fill="#5b5b5b"/>
          </g>
        </g>
      </g>
    </g>
  </g>
</svg>
