<svg xmlns="http://www.w3.org/2000/svg" xmlns:xlink="http://www.w3.org/1999/xlink" width="34.592" height="26.799" viewBox="0 0 34.592 26.799">
  <defs>
    <linearGradient id="linear-gradient" x1="1" y1="-0.272" x2="0" y2="1" gradientUnits="objectBoundingBox">
      <stop offset="0" stop-color="#ce1919"/>
      <stop offset="1" stop-color="#450874"/>
    </linearGradient>
  </defs>
  <g id="Interests_" data-name="Interests " transform="translate(0.003)">
    <path id="Interests_2" data-name="Interests " d="M17.293,8.834a7.583,7.583,0,1,1-5.363,2.221,7.575,7.575,0,0,1,5.363-2.221Zm0,3.035,1.317,3.22,3.468.259L19.424,17.6l.828,3.378-2.959-1.833-2.959,1.83.828-3.378-2.655-2.249,3.468-.259,1.317-3.218ZM.7,5.838H1.963V3.063a.7.7,0,0,1,.7-.7H3.9V.7A.7.7,0,0,1,4.6,0H15.934a.7.7,0,0,1,.7.7V2.365H31.918a.7.7,0,0,1,.7.7V5.838h1.275a.7.7,0,0,1,.7.7.614.614,0,0,1-.017.146L32.129,24.646a2.657,2.657,0,0,1-.729,1.523,2.1,2.1,0,0,1-1.509.631H4.136a2.143,2.143,0,0,1-1.529-.636,2.564,2.564,0,0,1-.715-1.537L0,6.61a.7.7,0,0,1,.622-.766L.7,5.838Zm1.965,1.4H1.47L3.283,24.485a1.152,1.152,0,0,0,.31.693.761.761,0,0,0,.543.228H29.894a.729.729,0,0,0,.526-.222,1.254,1.254,0,0,0,.329-.718L33.092,7.24l-30.431,0Zm.7-3.474V5.836l27.861-.3V3.764H15.934a.7.7,0,0,1-.7-.7V1.4H5.3V3.066a.7.7,0,0,1-.7.7Zm18.357,8.231a6.252,6.252,0,1,0,1.833,4.422,6.238,6.238,0,0,0-1.833-4.422Z" fill="url(#linear-gradient)"/>
  </g>
</svg>
