<svg width="149" height="59" viewBox="0 0 149 59" fill="none" xmlns="http://www.w3.org/2000/svg">
<path d="M42.5942 20.5562C45.6228 17.4655 49.0473 15.0215 53.0627 13.4531C54.048 13.0683 53.7239 12.2466 53.7103 11.598C53.6462 8.42221 53.1355 8.13797 50.4821 9.8172C46.4736 12.354 43.8109 15.9155 42.5942 20.5562Z" fill="white"/>
<path d="M31.7886 52.209C34.648 50.2947 37.0604 47.9755 38.8742 45.0661C39.3193 44.3523 39.9145 44.726 40.4194 44.8314C42.893 45.3469 43.0402 45.7876 41.3386 47.616C38.7683 50.3778 35.5945 51.9379 31.7886 52.209Z" fill="white"/>
<path d="M10.6015 13.7407C8.19397 10.1451 5.27818 7.1127 1.61995 4.83195C0.722524 4.27222 1.19238 3.52443 1.32454 2.8889C1.97271 -0.220764 2.52662 -0.405884 4.82582 1.73346C8.29893 4.9646 10.2604 8.95518 10.6015 13.7407Z" fill="white"/>
<path d="M46.7598 45.0413C46.8833 43.2766 46.6656 41.5493 46.3182 39.8418C46.1685 39.1062 45.9951 38.3735 45.8133 37.6437C45.7827 37.5198 45.7536 37.3964 45.7264 37.273C45.2978 35.3566 45.2599 33.4836 45.9596 31.5891C46.2745 30.7359 46.462 29.8214 46.5956 28.9187C47.0285 26.0014 46.5441 23.4102 43.7877 21.7358C43.3329 21.4594 41.2533 20.4507 40.6134 20.2155C38.3239 19.374 36.3012 19.9769 34.466 21.4773C33.4898 22.2756 32.657 23.209 31.9715 24.2474C30.7188 26.1443 29.0775 27.5004 26.9877 28.409C24.2906 29.5814 21.6877 30.9186 19.5921 33.0827C15.4475 37.3624 14.5335 43.3946 17.4158 48.3871C19.2515 51.5667 21.9865 53.7979 25.7312 55.6399C26.0733 55.8251 26.4673 56.0014 26.893 56.1686C27.8293 56.5359 28.9352 56.8522 30.0867 57.0917C30.2436 57.1243 30.4006 57.1578 30.559 57.1875C39.3593 58.8385 46.1505 53.745 46.7598 45.0413ZM34.1793 54.8766C32.3111 54.9009 30.5483 54.6692 28.8992 54.1857C27.8575 53.88 26.8619 53.4739 25.9134 52.968C23.9101 51.8991 22.1192 50.3855 20.5648 48.4308C16.548 43.3801 18.3244 37.7686 22.124 34.2226C23.7576 32.6984 25.7555 31.7329 27.7841 30.8695C30.388 29.7612 32.5059 28.151 34.0569 25.7274C34.8751 24.448 35.9008 23.2547 37.4236 22.6658C38.064 22.418 38.6883 22.3471 39.3564 22.5074C40.5906 22.8038 41.6862 23.3937 42.7255 24.0904C43.8892 24.8703 44.1657 26.0655 44.1613 27.3682C44.157 28.7447 43.778 30.0571 43.3591 31.3423C42.7392 33.2465 42.6862 35.1366 43.0676 37.0738C43.0904 37.1884 43.1089 37.3031 43.1342 37.4183C43.3052 38.186 43.4894 38.9517 43.656 39.7204C43.9398 41.0298 44.1735 42.3485 44.2075 43.7051C44.258 45.6938 43.9033 47.5723 43.0836 49.1436C41.2251 53.0511 38.1582 54.8251 34.1793 54.8766Z" fill="white"/>
<path d="M22.0722 20.5834C21.7695 19.6267 21.3142 18.703 20.8201 17.825C19.2239 14.9894 17.0486 13.0585 13.5133 13.4632C12.9298 13.5303 10.4343 14.058 9.71761 14.2854C7.15213 15.1007 5.797 16.9947 5.21248 19.5441C4.90151 20.9002 4.80677 22.2772 4.91172 23.6464C5.10315 26.1473 4.58958 28.4402 3.38264 30.6456C1.8244 33.4924 0.460524 36.4189 0.0975674 39.7234C-0.620086 46.2571 2.66352 52.1344 8.55342 54.5366C12.3049 56.0661 16.1983 56.1609 20.7093 55.2333C21.1325 55.1638 21.5951 55.0506 22.079 54.9083C21.5994 54.6226 21.1184 54.316 20.6452 53.9914C20.083 53.6051 19.5568 53.2004 19.0602 52.7811C12.3603 47.1254 11.631 38.6214 17.5238 31.8676C19.1574 29.996 21.1728 28.603 23.2616 27.3207C23.5211 27.1613 23.782 27.0034 24.0434 26.8465C24.6352 26.4918 25.1935 26.1113 25.7139 25.6959C24.0439 24.3155 22.7442 22.7082 22.0722 20.5834ZM3.01531 45.5249C1.78747 43.3496 2.03382 42.9555 4.55896 43.0318C5.07449 43.0473 5.74064 42.8224 6.00642 43.6207C7.0914 46.8732 8.89549 49.6908 11.2297 52.2204C7.59186 51.0678 4.86993 48.8104 3.01531 45.5249Z" fill="white"/>
<path d="M44.6263 8.36965C43.9728 6.71666 43.9636 6.73026 42.7275 7.87989C42.143 8.42406 41.5118 8.91773 40.9258 9.46094C40.2325 10.1043 39.7519 10.696 39.4623 11.3005L39.4594 11.2981C37.4537 9.70388 34.1613 8.68546 31.5526 8.6189C31.2436 8.61112 31.21 8.74765 31.2766 8.99691C31.452 9.65189 31.59 10.3224 31.7912 10.9652C32.6415 13.6828 33.878 16.1079 36.3381 17.567C37.4595 18.2316 39.9273 19.0572 41.4 18.9809C38.4468 14.1619 36.7574 12.9365 34.3382 10.732C37.013 12.1945 39.0231 13.8592 40.918 17.9017C41.024 18.2715 41.1809 18.633 41.4 18.9809C41.4049 18.9245 41.4068 18.7861 41.4034 18.5844C41.5385 16.9956 43.2853 15.6905 44.1521 14.5545C45.6316 12.6163 45.4766 10.5202 44.6263 8.36965ZM40.9977 14.7449C40.971 14.6108 40.9433 14.4767 40.9132 14.3441C40.8549 14.0842 40.9035 13.5968 40.9729 13.3393C41.2548 12.2971 41.7708 11.5503 42.6371 10.6601C42.2426 11.6367 41.4175 13.1342 40.9977 14.7449Z" fill="white"/>
<path d="M23.9432 4.63555C21.3884 4.104 17.9503 4.34304 15.6336 5.43629L15.6302 5.43824C15.4859 4.78375 15.1535 4.09768 14.6254 3.31297C14.1793 2.65023 13.6779 2.02539 13.2328 1.36215C12.2926 -0.0396315 12.2863 -0.0551802 11.2728 1.4049C9.9531 3.30423 9.3229 5.30947 10.3204 7.53434C10.9049 8.83798 12.3067 10.508 12.0754 12.0861C12.0259 12.281 11.9962 12.4165 11.988 12.4724C12.28 12.1847 12.5142 11.8694 12.7018 11.5346C15.4718 8.03044 17.8094 6.86868 20.7485 6.0558C17.8895 7.64901 15.9645 8.45607 11.988 12.4724C13.4043 12.8835 15.9956 12.6434 17.2389 12.2528C19.9677 11.3947 21.7256 9.31608 23.1745 6.86529C23.5175 6.28514 23.8047 5.66369 24.1254 5.06654C24.2473 4.83914 24.2459 4.69871 23.9432 4.63555ZM12.6852 4.08894C13.1789 4.91008 13.4777 5.6287 13.6138 6.45713C13.7187 7.09559 13.6147 7.85308 13.347 8.44198L13.3436 8.44975C13.3042 6.78268 12.8465 5.13165 12.6852 4.08894Z" fill="white"/>
<path d="M57.3016 30.2524C58.9332 30.2524 60.4788 28.4061 60.4788 26.6885C60.4788 25.3999 59.6203 24.4126 58.0742 24.4126C56.4426 24.4126 54.8965 26.2158 54.8965 27.9333C54.8965 29.2219 55.9703 30.2524 57.3016 30.2524Z" fill="white"/>
<path d="M91.566 32.5278C88.9465 32.5278 86.8854 34.2454 86.4991 34.847C86.4991 34.847 86.6279 34.3314 86.6279 33.6444C86.6279 32.9146 86.1129 32.5278 85.1678 32.5278C82.6776 32.5278 80.359 33.1721 80.359 34.1167C80.359 34.675 80.6593 34.7609 80.6593 35.4908C80.6194 36.4178 80.5786 37.7229 79.7934 41.6046C79.7419 41.6513 79.6899 41.6999 79.6297 41.7601C79.0714 42.3179 78.7279 42.6619 77.9976 42.6619C77.225 42.6619 76.6235 42.2324 76.6235 41.1158C76.6235 39.3555 77.8261 37.2084 77.8261 35.2332C77.8261 33.6016 76.8815 32.5278 74.5196 32.5278C71.9862 32.5278 69.4528 34.6322 68.6798 35.5768C68.6798 35.5768 69.0233 34.3314 69.0233 33.6444C69.0233 32.9146 68.5083 32.5278 67.5637 32.5278C65.0731 32.5278 62.7544 33.1721 62.7544 34.1167C62.7544 34.675 63.0547 34.7609 63.0547 35.4908C63.0547 36.7988 62.4814 39.2126 61.9809 41.3544C61.8069 41.403 61.6524 41.5313 61.4241 41.7601C60.8658 42.3179 60.5223 42.6619 59.792 42.6619C59.0189 42.6619 58.3751 42.0177 58.3751 40.9011C58.3751 38.0674 59.7492 35.362 59.7492 33.6444C59.7492 32.9146 59.2337 32.5278 58.2891 32.5278C55.7985 32.5278 53.5226 33.1721 53.5226 34.1167C53.5226 34.675 53.7806 34.7609 53.7806 35.4908C53.7806 37.0368 52.3633 39.8278 52.3633 42.5759C52.3633 44.5511 53.7806 46.1399 56.6148 46.1399C58.7624 46.1399 60.3663 45.0846 61.3886 44.0691C61.3036 44.5389 61.2516 44.9276 61.2516 45.1953C61.2516 45.9251 61.5946 46.1399 62.1529 46.1399C62.7972 46.1399 64.472 45.9251 65.7601 45.9251C66.4039 45.9251 66.7047 45.7531 66.7047 45.0233C66.7047 43.349 67.8212 39.699 68.551 38.2389C69.4961 36.3498 70.5261 35.6195 71.2564 35.6195C71.8575 35.6195 72.2438 36.1351 72.2438 36.8221C72.2438 38.4964 70.8697 40.214 70.8697 42.8335C70.8697 44.6798 72.373 46.1399 74.8204 46.1399C76.6925 46.1399 78.1521 45.3377 79.1734 44.4597C78.0355 49.3336 77.0953 51.6115 77.0953 55.0282C77.0953 57.0038 78.3839 58.3779 80.6593 58.3779C83.4934 58.3779 85.4686 56.7458 85.4686 56.0588C85.4686 55.7152 85.2538 55.5437 84.8675 55.5437C83.923 55.5437 83.1072 54.9427 83.1072 53.5253C83.1072 51.6362 84.0085 46.9985 84.524 44.9806C84.7815 45.2381 85.9841 46.1399 87.8305 46.1399C93.112 46.1399 95.989 40.9871 95.989 37.2511C95.989 34.3314 94.2713 32.5278 91.566 32.5278ZM86.8427 43.95C85.9409 43.95 85.4686 43.4778 85.4686 42.7047C85.4686 40.9011 86.1556 38.4109 86.6711 37.2944C87.229 36.0063 88.1307 35.1905 88.9465 35.1905C89.8916 35.1905 90.2779 35.7055 90.2779 36.8221C90.2779 39.1407 89.2473 43.95 86.8427 43.95Z" fill="white"/>
<path d="M119.733 30.2524C121.364 30.2524 122.91 28.4061 122.91 26.6885C122.91 25.3999 122.051 24.4126 120.506 24.4126C118.874 24.4126 117.328 26.2158 117.328 27.9333C117.328 29.2219 118.402 30.2524 119.733 30.2524Z" fill="white"/>
<path d="M134.975 32.6998C132.657 32.6998 131.455 34.8037 131.197 35.3192C131.283 35.0185 131.455 34.2027 131.455 33.6444C131.455 32.9146 130.939 32.5278 129.995 32.5278C127.504 32.5278 125.185 33.1721 125.185 34.1167C125.185 34.675 125.486 34.7609 125.486 35.4908C125.486 36.7988 124.912 39.2126 124.412 41.3544C124.238 41.403 124.083 41.5313 123.855 41.7601C123.297 42.3179 122.953 42.6619 122.223 42.6619C121.45 42.6619 120.806 42.0177 120.806 40.9011C120.806 38.0674 122.18 35.362 122.18 33.6444C122.18 32.9146 121.665 32.5278 120.721 32.5278C118.23 32.5278 115.954 33.1721 115.954 34.1167C115.954 34.675 116.212 34.7609 116.212 35.4908C116.212 36.8673 115.091 39.2316 114.844 41.6731C114.814 41.7023 114.786 41.7266 114.752 41.7601C114.195 42.3179 113.851 42.6619 113.121 42.6619C112.348 42.6619 111.661 42.0177 111.661 40.9011C111.661 37.5519 113.164 34.2027 113.164 33.1721C113.164 32.6998 112.906 32.5278 112.52 32.5278C111.532 32.5278 109.686 33.3436 108.956 33.3436C108.269 33.3436 107.625 32.5278 105.349 32.5278C99.2085 32.5278 96.6318 36.8648 96.6318 41.1158C96.6318 44.4223 98.693 46.1399 101.227 46.1399C104.361 46.1399 106.637 43.864 106.637 43.864C106.637 43.864 107.367 46.1399 109.944 46.1399C112.296 46.1399 113.998 44.8737 114.995 43.7814C115.473 45.1584 116.82 46.1399 119.046 46.1399C121.193 46.1399 122.797 45.0846 123.82 44.0695C123.735 44.5389 123.683 44.9276 123.683 45.1953C123.683 45.9251 124.026 46.1399 124.584 46.1399C125.229 46.1399 126.903 45.9251 128.191 45.9251C128.835 45.9251 129.136 45.7531 129.136 45.0233C129.136 43.349 130.123 39.7845 130.896 38.3249C131.54 37.1224 132.099 36.5641 132.357 36.4786C132.357 37.2511 132.958 38.1102 134.16 38.1102C135.92 38.1102 136.951 36.3066 136.951 34.7177C136.951 33.4296 136.178 32.6998 134.975 32.6998ZM105.907 41.2878C105.349 42.5759 104.49 43.3058 103.674 43.3058C102.73 43.3058 102.214 42.4039 102.214 41.2878C102.214 38.926 103.288 34.4174 105.735 34.4174C106.637 34.4174 107.023 34.8897 107.023 35.6628C107.023 37.3371 106.422 40.1713 105.907 41.2878Z" fill="white"/>
<path d="M142.962 35.5334C142.962 34.7176 143.649 34.1166 144.208 34.1166C144.68 34.1166 145.023 34.2886 145.023 34.7176C145.023 35.1044 144.68 35.3619 144.68 36.0062C144.68 36.822 145.41 37.4658 146.225 37.4658C147.643 37.4658 148.244 36.4352 148.244 35.2759C148.244 33.5156 146.826 32.3135 143.692 32.3135C140.472 32.3135 137.767 33.6871 137.767 36.3925C137.767 39.6129 142.018 39.9992 142.018 42.5326C142.018 43.3057 141.674 43.6919 141.073 43.6919C140.3 43.6919 139.913 42.9621 139.913 41.8888C139.913 40.8583 139.226 40.3 138.067 40.3C137.08 40.3 136.092 41.1158 136.092 42.4899C136.092 44.8085 138.454 46.2258 141.674 46.2258C145.452 46.2258 147.686 44.3362 147.686 41.5453C147.686 38.4108 142.962 38.0673 142.962 35.5334Z" fill="white"/>
</svg>
