<svg width="14" height="19" viewBox="0 0 14 19" fill="none" xmlns="http://www.w3.org/2000/svg">
<path d="M7.19628 0.240967C3.74849 0.240967 0.943359 3.0461 0.943359 6.4939C0.943359 7.52892 1.20213 8.55516 1.69407 9.4654L6.85435 18.7982C6.92303 18.9226 7.05394 18.9997 7.19628 18.9997C7.33862 18.9997 7.46953 18.9226 7.53823 18.7982L12.7004 9.46232C13.1904 8.55516 13.4492 7.52889 13.4492 6.49386C13.4492 3.0461 10.6441 0.240967 7.19628 0.240967ZM7.19628 9.62034C5.47238 9.62034 4.06984 8.21779 4.06984 6.4939C4.06984 4.77 5.47238 3.36745 7.19628 3.36745C8.92019 3.36745 10.3227 4.77 10.3227 6.4939C10.3227 8.21779 8.92019 9.62034 7.19628 9.62034Z" fill="url(#paint0_linear_46_288)"/>
<defs>
<linearGradient id="paint0_linear_46_288" x1="5.0581" y1="27.199" x2="8.6372" y2="27.199" gradientUnits="userSpaceOnUse">
<stop stop-color="#EF3E37"/>
<stop offset="1" stop-color="#622466"/>
</linearGradient>
</defs>
</svg>
