<svg width="1365" height="198" viewBox="0 0 1365 198" fill="none" xmlns="http://www.w3.org/2000/svg">
<path opacity="0.19" d="M40.2217 193.928C40.2217 193.928 90.4648 194.736 146.839 197.358C226.793 202.18 353.668 179.131 435.737 152.471C492.912 133.596 521.286 120.113 567.126 110.68C571.497 109.78 587.524 108.936 594.021 108.257C661.372 105.353 779.774 139.634 960.4 102.343C1154 62.3741 1364.79 -2.302 1364.79 -2.302C1364.79 -2.302 1191.24 102.049 1091.32 150.962C991.406 199.875 892.398 195.851 851.704 188.19C758.28 170.602 544.252 79.9766 334.88 83.5846C273.993 84.2354 187.365 105.105 135.655 118.306C115.374 123.484 119.947 126.567 76.6255 142.235C33.3042 157.903 13.0522 189.764 0.0854492 193.928" fill="white"/>
</svg>
