<svg id="wait_for_matching" data-name="wait for matching" xmlns="http://www.w3.org/2000/svg" width="467.469" height="424.005" viewBox="0 0 467.469 424.005">
  <path id="Path_18666" data-name="Path 18666" d="M1832.007,237.437c-75.354-8.445-151.563-109.226-193.138-26.077s57.165,104.482,0,198.025-70.318,154.662,0,188.324,117.417-117.073,257.732-39.12,205.45-81.645,130.1-149.2,18.4-145.569-41.36-184.545S1907.361,245.882,1832.007,237.437Z" transform="translate(-1590.937 -178.687)" fill="#fecaca" opacity="0.4"/>
  <g id="Group_17716" data-name="Group 17716" transform="translate(55.62 -9.733)">
    <g id="Hourglass" transform="translate(107.085 97.733)">
      <g id="Group_17388" data-name="Group 17388">
        <g id="Group_17381" data-name="Group 17381">
          <g id="Group_17365" data-name="Group 17365" transform="translate(0 8.546)">
            <g id="Group_17362" data-name="Group 17362" transform="translate(0.159 0.128)">
              <path id="Path_18667" data-name="Path 18667" d="M150.507,110.238c-11.13,17.509-10.4,41.782,1.76,58.59,8.107,11.205,20.268,18.715,29.925,28.617s16.99,24.491,11.895,37.348c-5.188,13.089-20.384,18.414-31.763,26.7a60.035,60.035,0,0,0-14.482,82H266.047s20.764-39.573-5.933-69.731-41.034-30.652-40.045-50.427,14.831-26.2,22.742-33.619,46.472-24.719,23.73-79.484Z" transform="translate(-137.666 -110.238)" fill="#fafafa"/>
            </g>
            <g id="Group_17364" data-name="Group 17364">
              <g id="Group_17363" data-name="Group 17363">
                <path id="Path_18668" data-name="Path 18668" d="M150.437,110.182s.687-.01,2.035-.016l5.992-.017,23.066-.033,84.94-.062h.087l.031.079a110.113,110.113,0,0,1,4.4,12.8,74.6,74.6,0,0,1,2.512,13.909,55.213,55.213,0,0,1-.75,14.682,47.181,47.181,0,0,1-5.343,14.273,52.036,52.036,0,0,1-4.452,6.46,60.238,60.238,0,0,1-5.445,5.826,80.338,80.338,0,0,1-6.181,5.232c-2.151,1.664-4.4,3.237-6.588,4.9-1.1.827-2.1,1.757-3.147,2.688-1.052.912-2.134,1.794-3.227,2.666-2.184,1.747-4.39,3.494-6.473,5.406A34.57,34.57,0,0,0,222.19,212.9a33.826,33.826,0,0,0-1.848,8.512c-.059.73-.157,1.46-.184,2.195s-.056,1.47-.021,2.206a25.141,25.141,0,0,0,.444,4.4,20.078,20.078,0,0,0,3.548,8.1,44.928,44.928,0,0,0,6.131,6.638c4.488,4.1,9.248,8.02,13.807,12.249q6.873,6.308,13.317,13.312a80.309,80.309,0,0,1,6.147,7.308,51.312,51.312,0,0,1,4.955,8.263,54.231,54.231,0,0,1,5.09,18.745,68.672,68.672,0,0,1-1.151,19.705,80.936,80.936,0,0,1-2.536,9.667,70.477,70.477,0,0,1-3.753,9.337l-.048.1h-3.155l-115.162-.008h-.092l-.051-.077a60.946,60.946,0,0,1-9.9-27.9,58.83,58.83,0,0,1,4.089-28.164,61.312,61.312,0,0,1,15.625-22.318,70.946,70.946,0,0,1,10.668-7.781c3.69-2.291,7.412-4.41,10.931-6.728a50.083,50.083,0,0,0,9.621-7.827,26.288,26.288,0,0,0,5.954-10.321,25.666,25.666,0,0,0,.47-11.52,37.516,37.516,0,0,0-3.653-10.591,51.784,51.784,0,0,0-5.95-9.038,72,72,0,0,0-7.2-7.512c-5-4.607-10.124-8.635-14.734-12.775-2.308-2.066-4.5-4.15-6.509-6.293a58.672,58.672,0,0,1-5.4-6.652,50.68,50.68,0,0,1-6.763-14.018,52.336,52.336,0,0,1-2.3-13.277c-.1-1.032-.058-2.045-.057-3.033s-.017-1.955.085-2.892q.109-1.408.212-2.745c.107-.886.253-1.744.372-2.582a49.31,49.31,0,0,1,4.636-14.72,19.819,19.819,0,0,1,1.07-2.061l.848-1.447c.455-.774.689-1.161.689-1.161l-.67,1.184-.831,1.45a20.206,20.206,0,0,0-1.053,2.062,49.627,49.627,0,0,0-4.574,14.712c-.117.836-.261,1.692-.366,2.577q-.1,1.334-.2,2.739c-.1.935-.068,1.9-.079,2.885s-.035,2,.064,3.025a52.237,52.237,0,0,0,2.321,13.235,50.561,50.561,0,0,0,6.76,13.957,58.506,58.506,0,0,0,5.387,6.622c2.01,2.134,4.2,4.212,6.5,6.272,4.608,4.129,9.733,8.151,14.751,12.762a72.287,72.287,0,0,1,7.231,7.53,52.058,52.058,0,0,1,5.986,9.076,37.791,37.791,0,0,1,3.688,10.663,25.957,25.957,0,0,1-.467,11.643,26.575,26.575,0,0,1-6.01,10.437,50.323,50.323,0,0,1-9.67,7.88c-3.528,2.328-7.252,4.45-10.934,6.74a70.725,70.725,0,0,0-10.62,7.754A61.018,61.018,0,0,0,142.12,287.6a58.5,58.5,0,0,0-4.055,28.009,60.614,60.614,0,0,0,9.85,27.742l-.144-.076,115.162-.008h3.043l-.16.1a70.271,70.271,0,0,0,3.73-9.282,80.661,80.661,0,0,0,2.525-9.624,68.328,68.328,0,0,0,1.147-19.6,53.9,53.9,0,0,0-5.054-18.623,51.024,51.024,0,0,0-4.921-8.207,79.927,79.927,0,0,0-6.121-7.279q-6.417-6.989-13.293-13.293c-4.553-4.225-9.3-8.137-13.8-12.253a45.311,45.311,0,0,1-6.175-6.692,20.435,20.435,0,0,1-3.6-8.231,25.538,25.538,0,0,1-.448-4.456c-.035-.745.007-1.487.022-2.229s.126-1.476.186-2.213a34.18,34.18,0,0,1,1.87-8.592,34.9,34.9,0,0,1,9.8-14.05c2.095-1.922,4.309-3.673,6.492-5.418,1.092-.871,2.172-1.749,3.218-2.656,1.029-.914,2.059-1.866,3.164-2.7,2.2-1.667,4.444-3.235,6.591-4.894a79.981,79.981,0,0,0,6.16-5.208,60.026,60.026,0,0,0,5.42-5.792,51.7,51.7,0,0,0,4.429-6.419,46.876,46.876,0,0,0,5.318-14.179,54.944,54.944,0,0,0,.755-14.605A74.3,74.3,0,0,0,270.735,123a109.7,109.7,0,0,0-4.382-12.772l.118.079-84.89-.062-23.084-.033-6.007-.016C151.135,110.193,150.437,110.182,150.437,110.182Z" transform="translate(-137.436 -110.054)" fill="#263238"/>
              </g>
            </g>
          </g>
          <g id="Group_17366" data-name="Group 17366" transform="translate(11.129 30.502)">
            <path id="Path_18669" data-name="Path 18669" d="M266.669,151.992c17.41,2.861-10.04,33.7-25.578,45.863-9,7.046-18.659,14.686-22.931,25.284-4.848,12.024-1.255,25.539-3.6,37.635a1.681,1.681,0,0,1-3.329-.353,131.046,131.046,0,0,0-1.412-23.691c-1.866-11.086-6.128-22.053-13.9-30.178-6.342-6.632-14.659-11.039-21.424-17.238-9.878-9.051-20.023-20.727-21.013-34.088,0,0,18.964-15.276,29.492-13.348,12.3,2.254,24.413,21.237,43.475,19.063C239.758,159.422,246.475,148.672,266.669,151.992Z" transform="translate(-153.481 -141.709)" fill="#e8505b"/>
          </g>
          <g id="Group_17367" data-name="Group 17367" transform="translate(6.4 185.353)">
            <path id="Path_18670" data-name="Path 18670" d="M266.127,385.436c-.44-4.354-1.6-9.281-5.465-11.335a10.789,10.789,0,0,0-7.754-.432c-2.564.675-4.972,1.84-7.514,2.595a24.622,24.622,0,0,1-15.374-.487c-4.723-1.735-8.777-4.872-13.164-7.338s-9.52-4.3-14.4-3.088c-8.42,2.1-12.8,12.232-21.127,14.68-3.7,1.088-7.673.477-11.435-.375s-7.537-1.946-11.391-1.8a12.636,12.636,0,0,0-8.279,3.227l.022-.029c-.021.021-.04.045-.061.067a8.609,8.609,0,0,0-.954,1.119c-2.582,3.442-2.995,8.071-2.2,12.274.889,4.707,3.088,9.056,5.448,13.225,2.779,4.909,5.936,9.8,10.531,13.071,5.668,4.038,12.8,1.251,19.735,1.8,16.184,1.277,33.6,2.149,49.781.894,8.549-.663,16.563.264,23.347-4.981,4.773-3.69,7.877-9.252,9.374-15.1A51.642,51.642,0,0,0,266.127,385.436Z" transform="translate(-146.664 -364.966)" fill="#e8505b"/>
          </g>
          <g id="Group_17369" data-name="Group 17369" transform="translate(92.746 197.484)" opacity="0.24">
            <g id="Group_17368" data-name="Group 17368">
              <path id="Path_18671" data-name="Path 18671" d="M273.727,382.456a4.47,4.47,0,0,0-.422,4.694c.881,1.42,2.072,2.711,2.454,4.338.6,2.555-.938,5.054-2.086,7.415a23.643,23.643,0,0,0-2.293,13.685,18.616,18.616,0,0,0,6.792,11.95c1.644,1.269,3.779,2.252,5.76,1.631a5.57,5.57,0,0,0,3.442-4.4,18.645,18.645,0,0,0-.179-5.835,90.766,90.766,0,0,1,.685-27.1c.265-1.493.518-3.2-.429-4.383a5.093,5.093,0,0,0-2.487-1.419c-3.607-1.2-7.5.134-11.236-.576" transform="translate(-271.153 -382.456)"/>
            </g>
          </g>
          <g id="Group_17370" data-name="Group 17370" transform="translate(1.657 238.856)">
            <path id="Path_18672" data-name="Path 18672" d="M139.828,450.55s-.325-5.425,6.751-8.445H270.908s6.483,3.281,7.281,8.333Z" transform="translate(-139.826 -442.105)" fill="#263238"/>
          </g>
          <g id="Group_17371" data-name="Group 17371" transform="translate(10.256)">
            <path id="Path_18673" data-name="Path 18673" d="M272.071,107.067c-.065.031-.13.062-.2.092l-116.907-.753s-.415-.266-1.036-.752a4.432,4.432,0,0,1,2.767-7.922l113.466.916A4.432,4.432,0,0,1,272.071,107.067Z" transform="translate(-152.223 -97.733)" fill="#263238"/>
          </g>
          <g id="Group_17373" data-name="Group 17373" transform="translate(33.935 52.466)" opacity="0.24">
            <g id="Group_17372" data-name="Group 17372">
              <path id="Path_18674" data-name="Path 18674" d="M263.821,174.84c.235.451-.642,1.426-2.318,2.913s-4.136,3.532-7.256,6.047a94.641,94.641,0,0,1-11.778,8.309,47.69,47.69,0,0,1-8.076,3.707,37.8,37.8,0,0,1-4.641,1.283,30.726,30.726,0,0,1-5.015.653,26.8,26.8,0,0,1-10.079-1.377,36.38,36.38,0,0,1-8.1-4.134c-2.331-1.545-4.339-3.071-6.233-4.53s-3.6-2.874-5.141-4.2c-6.141-5.321-9.371-9.233-8.748-9.989.644-.785,4.99,1.7,11.765,5.866l5.534,3.4c1.986,1.21,4.121,2.544,6.3,3.779a35.069,35.069,0,0,0,6.829,3.087,21.8,21.8,0,0,0,7.517.886,39.816,39.816,0,0,0,14.969-4.309c4.5-2.2,8.524-4.694,12.034-6.659a60.682,60.682,0,0,1,8.686-4.236C262.258,174.548,263.6,174.407,263.821,174.84Z" transform="translate(-186.362 -173.376)"/>
            </g>
          </g>
          <g id="Group_17374" data-name="Group 17374" transform="translate(67.734 163.965)">
            <path id="Path_18675" data-name="Path 18675" d="M236.32,334.221a1.967,1.967,0,1,1-.1.038" transform="translate(-235.091 -334.13)" fill="#e8505b"/>
          </g>
          <g id="Group_17376" data-name="Group 17376" transform="translate(10.699 20.436)">
            <g id="Group_17375" data-name="Group 17375">
              <path id="Path_18676" data-name="Path 18676" d="M169.31,180.038a3.566,3.566,0,0,1-.413-.416l-1.132-1.242c-.479-.551-1.108-1.187-1.752-2l-2.208-2.747c-.754-1.066-1.609-2.215-2.47-3.487l-1.267-2.017c-.214-.349-.447-.694-.654-1.06l-.61-1.126a46.787,46.787,0,0,1-4.307-10.369,43.567,43.567,0,0,1-1.635-11.111c0-.864.045-1.708.064-2.527.019-.409.012-.814.052-1.21l.125-1.167c.087-.764.148-1.505.251-2.21l.366-2.02c.2-1.294.54-2.428.785-3.437.133-.5.237-.973.37-1.4l.378-1.156.535-1.594A3.531,3.531,0,0,1,156,127.2a3.649,3.649,0,0,1-.141.571q-.174.6-.469,1.611-.157.529-.347,1.161c-.122.426-.216.9-.34,1.4-.225,1.009-.549,2.143-.73,3.433l-.341,2.012c-.094.7-.148,1.441-.228,2.2l-.114,1.16c-.037.393-.027.8-.044,1.2-.013.814-.056,1.651-.049,2.509a44.118,44.118,0,0,0,1.649,11.019,47.437,47.437,0,0,0,4.252,10.308l.6,1.122c.2.366.434.71.644,1.058l1.246,2.017c.846,1.274,1.686,2.426,2.424,3.5l2.16,2.772c.627.824,1.24,1.473,1.7,2.037l1.081,1.285A3.626,3.626,0,0,1,169.31,180.038Z" transform="translate(-152.862 -127.197)" fill="#263238"/>
            </g>
          </g>
          <g id="Group_17378" data-name="Group 17378" transform="translate(20.565 96.145)">
            <g id="Group_17377" data-name="Group 17377">
              <path id="Path_18677" data-name="Path 18677" d="M167.086,316.525a1.354,1.354,0,0,1,.13-.228l.413-.652.682-1.055.438-.672c.171-.23.37-.46.572-.712l1.361-1.663c.534-.575,1.147-1.171,1.787-1.826a48.092,48.092,0,0,1,4.762-4.007c3.682-2.791,8.431-5.563,13.58-8.8a78.251,78.251,0,0,0,7.787-5.486,36.6,36.6,0,0,0,6.988-7.385,34.933,34.933,0,0,0,5.649-18.609,44.079,44.079,0,0,0-2.659-15.81,58.954,58.954,0,0,0-4.594-9.853c-.642-1.114-1.17-1.964-1.534-2.535l-.408-.654a1.346,1.346,0,0,1-.129-.23,1.443,1.443,0,0,1,.16.209l.438.635c.384.559.931,1.4,1.593,2.5a56.408,56.408,0,0,1,4.714,9.838,43.9,43.9,0,0,1,2.751,15.9,36.216,36.216,0,0,1-.383,4.678,34.191,34.191,0,0,1-1.015,4.791,32.678,32.678,0,0,1-4.285,9.336,36.748,36.748,0,0,1-7.064,7.456,77.491,77.491,0,0,1-7.833,5.493c-5.167,3.227-9.919,5.97-13.606,8.723a49.374,49.374,0,0,0-4.774,3.948c-.644.646-1.26,1.231-1.8,1.8l-1.378,1.634c-.205.247-.409.473-.583.7l-.449.66-.709,1.033-.443.632A1.5,1.5,0,0,1,167.086,316.525Z" transform="translate(-167.085 -236.35)" fill="#263238"/>
            </g>
          </g>
          <g id="Group_17380" data-name="Group 17380" transform="translate(8.235 188.575)">
            <g id="Group_17379" data-name="Group 17379">
              <path id="Path_18678" data-name="Path 18678" d="M155.189,369.613a1.344,1.344,0,0,1-.152.322l-.494.882c-.223.378-.488.844-.756,1.407s-.619,1.179-.911,1.907l-.488,1.128c-.167.393-.3.817-.466,1.248-.339.857-.6,1.8-.9,2.795a37.484,37.484,0,0,0-1.223,13.332c.115,1.028.2,2.009.378,2.912.082.453.139.895.232,1.312s.187.815.275,1.2c.155.768.382,1.441.549,2.041s.336,1.109.488,1.521l.325.958a1.315,1.315,0,0,1,.091.343,1.272,1.272,0,0,1-.158-.316l-.39-.936a14.658,14.658,0,0,1-.547-1.509c-.187-.6-.432-1.269-.6-2.04q-.145-.576-.3-1.2c-.1-.419-.166-.863-.255-1.319-.191-.909-.29-1.9-.415-2.934a36.187,36.187,0,0,1,1.235-13.452c.311-1,.587-1.95.941-2.809.17-.431.314-.857.49-1.249l.513-1.127c.309-.726.673-1.342.965-1.9a14.732,14.732,0,0,1,.813-1.384l.553-.85A1.272,1.272,0,0,1,155.189,369.613Z" transform="translate(-149.31 -369.613)" fill="#263238"/>
            </g>
          </g>
        </g>
        <g id="Group_17383" data-name="Group 17383" transform="translate(35.599 205.244)">
          <g id="Group_17382" data-name="Group 17382">
            <path id="Path_18679" data-name="Path 18679" d="M253.031,393.646a.65.65,0,0,1-.141.1l-.432.271-1.683,1.011-1.221.724c-.454.25-.966.488-1.507.762-1.091.526-2.3,1.2-3.732,1.737l-2.216.909c-.773.31-1.608.55-2.456.843-1.688.617-3.557,1.056-5.511,1.565a64.757,64.757,0,0,1-26.086.681c-1.977-.407-3.867-.748-5.586-1.276-.862-.248-1.708-.444-2.5-.713l-2.26-.793c-1.456-.464-2.7-1.07-3.817-1.539-.554-.245-1.077-.456-1.544-.682l-1.257-.659-1.733-.922-.446-.248a.088.088,0,1,1,.018-.033l.463.216,1.761.86,1.268.629c.47.216,1,.418,1.552.653,1.121.449,2.367,1.037,3.822,1.484l2.258.766c.787.261,1.631.449,2.491.691,1.713.513,3.6.841,5.565,1.237a65.779,65.779,0,0,0,25.954-.678c1.945-.5,3.808-.924,5.492-1.526.846-.286,1.679-.517,2.451-.819l2.215-.884c1.43-.522,2.644-1.174,3.74-1.681.542-.264,1.058-.492,1.516-.733l1.233-.694,1.714-.951.451-.24A.625.625,0,0,1,253.031,393.646Z" transform="translate(-188.761 -393.645)" fill="#263238"/>
          </g>
        </g>
        <g id="Group_17385" data-name="Group 17385" transform="translate(39.782 58.451)">
          <g id="Group_17384" data-name="Group 17384">
            <path id="Path_18680" data-name="Path 18680" d="M262.113,182.006a.833.833,0,0,1-.148.137l-.454.375-1.771,1.414c-1.543,1.22-3.774,2.989-6.593,5.1a95.726,95.726,0,0,1-10.317,6.82,46.969,46.969,0,0,1-6.646,3.057,30.276,30.276,0,0,1-7.669,1.706,29.205,29.205,0,0,1-14.736-3.065,50.188,50.188,0,0,1-5.691-3.385c-1.694-1.2-3.24-2.351-4.608-3.46-2.747-2.2-4.9-4.069-6.393-5.347l-1.713-1.482-.44-.392a.8.8,0,0,1-.142-.143.85.85,0,0,1,.165.114l.463.365,1.758,1.43c1.522,1.245,3.7,3.081,6.46,5.254,1.375,1.094,2.926,2.234,4.619,3.413a50.948,50.948,0,0,0,5.668,3.333,29.058,29.058,0,0,0,14.563,3,30.12,30.12,0,0,0,7.576-1.678,47.22,47.22,0,0,0,6.605-3.016,99.284,99.284,0,0,0,10.326-6.735c2.835-2.078,5.089-3.817,6.659-5l1.812-1.36.477-.346A.869.869,0,0,1,262.113,182.006Z" transform="translate(-194.793 -182.005)" fill="#263238"/>
          </g>
        </g>
        <g id="Group_17387" data-name="Group 17387" transform="translate(44.548 208.784)" opacity="0.24">
          <g id="Group_17386" data-name="Group 17386">
            <path id="Path_18681" data-name="Path 18681" d="M201.664,401.035c3.286-2.538,7.9-1.923,11.968-1.069s8.157,2.244,12.269,1.668c3.1-.434,5.942-1.959,9-2.621s6.77-.173,8.465,2.457a65.887,65.887,0,0,1-41.7-.436" transform="translate(-201.664 -398.748)"/>
          </g>
        </g>
      </g>
    </g>
    <g id="Character" transform="translate(200.848 196.729)">
      <g id="Group_17618" data-name="Group 17618">
        <g id="Group_17418" data-name="Group 17418" transform="translate(0 42.767)">
          <g id="Group_17396" data-name="Group 17396" transform="translate(5.047)">
            <g id="Group_17390" data-name="Group 17390">
              <g id="Group_17389" data-name="Group 17389">
                <path id="Path_18682" data-name="Path 18682" d="M340.335,352.607,325.4,335.882l-.151,20.331,4.5,13.04L285.059,377l-1.895-35.256-3.216-27.076a7.352,7.352,0,0,1,4.607-7.708l12.3-4.843L314.17,305.3l6.967,2.648a19.1,19.1,0,0,1,7.592,5.28L349.7,337.209" transform="translate(-279.897 -302.12)" fill="#622466"/>
              </g>
            </g>
            <g id="Group_17392" data-name="Group 17392" transform="translate(44.453 19.339)">
              <g id="Group_17391" data-name="Group 17391">
                <path id="Path_18683" data-name="Path 18683" d="M343.987,340.425a23.651,23.651,0,0,0,2.523-.178,10.24,10.24,0,0,0,8.4-7.745,23.648,23.648,0,0,0,.381-2.5,2.2,2.2,0,0,1,.063.687,8.833,8.833,0,0,1-.195,1.871,10.01,10.01,0,0,1-8.611,7.94,8.837,8.837,0,0,1-1.881.044A2.185,2.185,0,0,1,343.987,340.425Z" transform="translate(-343.987 -330.002)" fill="#fff"/>
              </g>
            </g>
            <g id="Group_17395" data-name="Group 17395" transform="translate(45.402 21.77)">
              <g id="Group_17394" data-name="Group 17394">
                <g id="Group_17393" data-name="Group 17393">
                  <path id="Path_18684" data-name="Path 18684" d="M345.713,364.964c.1,0,.131-7.044.06-15.729s-.214-15.728-.318-15.727-.132,7.042-.06,15.731S345.608,364.964,345.713,364.964Z" transform="translate(-345.355 -333.507)" fill="#263238"/>
                </g>
              </g>
            </g>
          </g>
          <g id="Group_17397" data-name="Group 17397" transform="translate(0 4.843)">
            <path id="Path_18685" data-name="Path 18685" d="M321.79,362.654l-27-10.869a6.171,6.171,0,0,1-3.847-5.253l-1.975-25.885s.234-11.01-6.643-11.545l-3.912,1.54c-5.056,2.685-6.308,10.046-5.62,15.729.978,8.075,1.385,19.5,2.48,26.512.9,5.733,4.179,10.776,9.79,12.253l33.254,7.2Z" transform="translate(-272.619 -309.102)" fill="#622466"/>
          </g>
          <g id="Group_17399" data-name="Group 17399" transform="translate(16.728 20.336)">
            <g id="Group_17398" data-name="Group 17398">
              <path id="Path_18686" data-name="Path 18686" d="M296.745,331.44a3.736,3.736,0,0,1,.085.592q.064.633.173,1.706c.138,1.518.332,3.653.572,6.278.228,2.662.5,5.815.8,9.313q.111,1.315.227,2.693a20.2,20.2,0,0,0,.345,2.77,4.6,4.6,0,0,0,1.342,2.426,9.123,9.123,0,0,0,2.491,1.549c7.445,3.222,14.306,5.882,19.287,7.747l5.913,2.179,1.608.593a3.68,3.68,0,0,1,.553.229,3.741,3.741,0,0,1-.576-.16l-1.631-.529c-1.413-.468-3.45-1.169-5.955-2.071-5.01-1.807-11.882-4.427-19.349-7.658a9.423,9.423,0,0,1-2.589-1.617,4.957,4.957,0,0,1-1.439-2.607,20.32,20.32,0,0,1-.344-2.819q-.109-1.378-.214-2.694c-.271-3.5-.516-6.657-.723-9.322-.191-2.629-.346-4.768-.456-6.287q-.067-1.077-.105-1.711A3.609,3.609,0,0,1,296.745,331.44Z" transform="translate(-296.738 -331.44)" fill="#263238"/>
            </g>
          </g>
          <g id="Group_17401" data-name="Group 17401" transform="translate(1.247 34.408)">
            <g id="Group_17400" data-name="Group 17400">
              <path id="Path_18687" data-name="Path 18687" d="M274.437,351.728a1.324,1.324,0,0,1,.053.348l.089,1c.08.922.189,2.164.32,3.673.148,1.549.336,3.393.6,5.431a51.945,51.945,0,0,0,1.219,6.557,9.8,9.8,0,0,0,1.318,3.126,17.882,17.882,0,0,0,2.017,2.478,17.259,17.259,0,0,0,4.32,3.241,16.229,16.229,0,0,0,4.741,1.552,1.287,1.287,0,0,1-.351-.008,7.506,7.506,0,0,1-1-.128,13.211,13.211,0,0,1-3.508-1.188,16.927,16.927,0,0,1-4.441-3.236,17.864,17.864,0,0,1-2.073-2.514,10.037,10.037,0,0,1-1.373-3.228,48.782,48.782,0,0,1-1.2-6.611c-.252-2.047-.414-3.9-.53-5.452s-.173-2.815-.206-3.686c-.008-.4-.015-.732-.022-1A1.26,1.26,0,0,1,274.437,351.728Z" transform="translate(-274.418 -351.728)" fill="#263238"/>
            </g>
          </g>
          <g id="Group_17403" data-name="Group 17403" transform="translate(12.805 46.13)">
            <g id="Group_17402" data-name="Group 17402">
              <path id="Path_18688" data-name="Path 18688" d="M291.088,375.019a3.956,3.956,0,0,1,.492-1.439,9.285,9.285,0,0,1,5.477-4.678,3.983,3.983,0,0,1,1.5-.261c.011.06-.556.173-1.414.5A10.5,10.5,0,0,0,291.8,373.7C291.346,374.5,291.146,375.04,291.088,375.019Z" transform="translate(-291.082 -368.628)" fill="#263238"/>
            </g>
          </g>
          <g id="Group_17405" data-name="Group 17405" transform="translate(18.122 6.09)">
            <g id="Group_17404" data-name="Group 17404">
              <path id="Path_18689" data-name="Path 18689" d="M298.747,337.646a.689.689,0,0,1,.171.076l.483.254a16.744,16.744,0,0,0,1.927.816,15.244,15.244,0,0,0,7.566.646,14.944,14.944,0,0,0,9.407-5.844,12.409,12.409,0,0,0,2.463-6.116,8.337,8.337,0,0,0-.36-3.461,7.024,7.024,0,0,0-1.947-2.974,5.881,5.881,0,0,0-3.168-1.54,3.775,3.775,0,0,0-3.177.893,2.041,2.041,0,0,0-.62,1.437,2.512,2.512,0,0,0,.522,1.484,4.055,4.055,0,0,0,2.747,1.432,11.118,11.118,0,0,0,5.9-.844,10.953,10.953,0,0,0,6.217-6.951,11.741,11.741,0,0,0,.513-3.248,12.271,12.271,0,0,0-.151-2.082c-.04-.218-.073-.4-.1-.536a.759.759,0,0,1-.024-.186,8.715,8.715,0,0,1,.414,2.8,11.56,11.56,0,0,1-.461,3.306,11.316,11.316,0,0,1-2.029,3.926,11.543,11.543,0,0,1-10.332,4.14,4.381,4.381,0,0,1-2.974-1.556,2.852,2.852,0,0,1-.594-1.69,2.4,2.4,0,0,1,.719-1.686,4.12,4.12,0,0,1,3.476-1,6.239,6.239,0,0,1,3.364,1.629,7.377,7.377,0,0,1,2.045,3.128,8.671,8.671,0,0,1,.371,3.608,12.7,12.7,0,0,1-2.548,6.281,14.915,14.915,0,0,1-17.289,5.132A10.98,10.98,0,0,1,298.747,337.646Z" transform="translate(-298.747 -310.901)" fill="#fff"/>
            </g>
          </g>
          <g id="Group_17407" data-name="Group 17407" transform="translate(0.435 21.923)">
            <g id="Group_17406" data-name="Group 17406">
              <path id="Path_18690" data-name="Path 18690" d="M273.248,337.736a2.422,2.422,0,0,1,.444-.553,9.978,9.978,0,0,1,1.459-1.269,12.223,12.223,0,0,1,5.973-2.117,11.538,11.538,0,0,1,3.52.148,10.825,10.825,0,0,1,2.713.953,12.192,12.192,0,0,1,1.649,1,2.5,2.5,0,0,1,.542.456c-.037.057-.845-.553-2.3-1.23a11.34,11.34,0,0,0-6.084-.972,12.84,12.84,0,0,0-5.866,1.968C273.959,337.015,273.3,337.787,273.248,337.736Z" transform="translate(-273.247 -333.728)" fill="#fff"/>
            </g>
          </g>
          <g id="Group_17409" data-name="Group 17409" transform="translate(4.754 2.014)">
            <g id="Group_17408" data-name="Group 17408">
              <path id="Path_18691" data-name="Path 18691" d="M279.475,310.432a11.028,11.028,0,0,0,2.186,1.588,7.815,7.815,0,0,0,2.781.816,6.966,6.966,0,0,0,6.287-2.6,7.842,7.842,0,0,0,1.392-2.543,11.009,11.009,0,0,0,.423-2.668,2.34,2.34,0,0,1,.09.736,6.686,6.686,0,0,1-.269,2.007,7.706,7.706,0,0,1-1.377,2.677,7.107,7.107,0,0,1-6.583,2.724,7.675,7.675,0,0,1-2.865-.921,6.645,6.645,0,0,1-1.609-1.23A2.341,2.341,0,0,1,279.475,310.432Z" transform="translate(-279.473 -305.023)" fill="#fff"/>
            </g>
          </g>
          <g id="Group_17411" data-name="Group 17411" transform="translate(28.279 39.707)">
            <g id="Group_17410" data-name="Group 17410">
              <path id="Path_18692" data-name="Path 18692" d="M313.394,369.647a2.683,2.683,0,0,1,.056-.512,5.634,5.634,0,0,1,.479-1.4,7.7,7.7,0,0,1,4.042-3.508,11.823,11.823,0,0,1,7.938-.284,7.578,7.578,0,0,1,4.137,2.342,2.507,2.507,0,0,1,.3,2.539,4.031,4.031,0,0,1-1.924,1.816,6.109,6.109,0,0,1-2.556.633,3.721,3.721,0,0,1-2.455-.761,3.138,3.138,0,0,1-1.1-2.224,5.586,5.586,0,0,1,.368-2.34,10.5,10.5,0,0,1,5.565-5.633,10.916,10.916,0,0,1,5.311-.912,7.509,7.509,0,0,1,1.941.409c-.011.046-.687-.182-1.951-.268a11.118,11.118,0,0,0-5.2,1.005,10.858,10.858,0,0,0-3.03,2.056A9.723,9.723,0,0,0,323,366.065a5.269,5.269,0,0,0-.336,2.2,2.791,2.791,0,0,0,.979,1.98,3.379,3.379,0,0,0,2.224.675,5.777,5.777,0,0,0,2.4-.6,3.69,3.69,0,0,0,1.758-1.64,2.149,2.149,0,0,0-.264-2.185,5.008,5.008,0,0,0-1.806-1.434,12.946,12.946,0,0,0-2.134-.8,11.667,11.667,0,0,0-7.75.2,7.7,7.7,0,0,0-4.015,3.337A7.876,7.876,0,0,0,313.394,369.647Z" transform="translate(-313.391 -359.368)" fill="#fff"/>
            </g>
          </g>
          <g id="Group_17413" data-name="Group 17413" transform="translate(10.306 47.213)">
            <g id="Group_17412" data-name="Group 17412">
              <path id="Path_18693" data-name="Path 18693" d="M287.479,382.711c-.011-.069,1.029-.156,2.589-.712a12.911,12.911,0,0,0,8.282-9.162c.4-1.608.379-2.651.448-2.647a2.527,2.527,0,0,1,.038.728,10.872,10.872,0,0,1-.237,1.976,12.455,12.455,0,0,1-8.449,9.347,10.968,10.968,0,0,1-1.942.435A2.524,2.524,0,0,1,287.479,382.711Z" transform="translate(-287.479 -370.189)" fill="#fff"/>
            </g>
          </g>
          <g id="Group_17415" data-name="Group 17415" transform="translate(1.557 37.848)">
            <g id="Group_17414" data-name="Group 17414">
              <path id="Path_18694" data-name="Path 18694" d="M274.864,358.452a1.268,1.268,0,0,1,.326-.13c.218-.071.541-.171.964-.278a11.628,11.628,0,0,1,3.677-.374,7.68,7.68,0,0,1,2.5.619,5.762,5.762,0,0,1,2.333,1.83,4.8,4.8,0,0,1,.907,3.148,3.835,3.835,0,0,1-.535,1.689,2.683,2.683,0,0,1-1.415,1.183,1.867,1.867,0,0,1-1.824-.361,2.436,2.436,0,0,1-.629-1.683,7.2,7.2,0,0,1,.636-3.211,7.019,7.019,0,0,1,3.938-3.736,7.144,7.144,0,0,1,3.671-.364,6.062,6.062,0,0,1,.977.248,1.277,1.277,0,0,1,.322.141c-.01.035-.463-.144-1.318-.25a7.314,7.314,0,0,0-3.56.463,6.819,6.819,0,0,0-3.725,3.634,6.917,6.917,0,0,0-.587,3.058,2.1,2.1,0,0,0,.522,1.439,1.512,1.512,0,0,0,1.468.277,2.33,2.33,0,0,0,1.218-1.027,3.508,3.508,0,0,0,.489-1.529,4.485,4.485,0,0,0-.825-2.924,5.507,5.507,0,0,0-2.186-1.752,7.556,7.556,0,0,0-2.4-.637,12.458,12.458,0,0,0-3.625.257C275.336,358.354,274.872,358.48,274.864,358.452Z" transform="translate(-274.864 -356.688)" fill="#fff"/>
            </g>
          </g>
          <g id="Group_17417" data-name="Group 17417" transform="translate(17.615 28.032)" opacity="0.3">
            <g id="Group_17416" data-name="Group 17416">
              <path id="Path_18695" data-name="Path 18695" d="M321.813,369.812c-2.887-1.631-5.712-2.883-8.73-4.255a19.777,19.777,0,0,1-7.951-5.8c-3.726-5.022-3.3-12.27-7.116-17.226l.747,10c.228,3.055-.24,6.075,1.728,8.15,1.657,1.749,4.888,3.089,7.176,3.844,4.6,1.517,9.548,3.77,14.146,5.286" transform="translate(-298.016 -342.535)"/>
            </g>
          </g>
        </g>
        <g id="Group_17445" data-name="Group 17445" transform="translate(83.12 134.914)">
          <g id="Group_17420" data-name="Group 17420" transform="translate(0 1.207)">
            <g id="Group_17419" data-name="Group 17419">
              <path id="Path_18696" data-name="Path 18696" d="M397.663,436.713s22.59,6.253,23.5,6.572c1.361.479,1.132,5.465-.986,5.387-1-.037-17.352.609-19.417.479s-8.3-2.585-8.3-2.585Z" transform="translate(-392.458 -436.713)" fill="#622466"/>
            </g>
          </g>
          <g id="Group_17423" data-name="Group 17423" transform="translate(14.57 5.314)">
            <g id="Group_17422" data-name="Group 17422">
              <g id="Group_17421" data-name="Group 17421">
                <path id="Path_18697" data-name="Path 18697" d="M413.51,447.147a9.909,9.909,0,0,1,2.593-4.5,5.019,5.019,0,0,0-2.593,4.5Z" transform="translate(-413.465 -442.635)" fill="#263238"/>
              </g>
            </g>
          </g>
          <g id="Group_17426" data-name="Group 17426" transform="translate(12.225 4.442)">
            <g id="Group_17425" data-name="Group 17425">
              <g id="Group_17424" data-name="Group 17424">
                <path id="Path_18698" data-name="Path 18698" d="M410.119,445.694c.11.019.339-1.049.94-2.229s1.312-2.006,1.23-2.084a5.663,5.663,0,0,0-2.171,4.312Z" transform="translate(-410.083 -441.377)" fill="#263238"/>
              </g>
            </g>
          </g>
          <g id="Group_17429" data-name="Group 17429" transform="translate(9.902 3.661)">
            <g id="Group_17428" data-name="Group 17428">
              <g id="Group_17427" data-name="Group 17427">
                <path id="Path_18699" data-name="Path 18699" d="M406.883,444.757a7.932,7.932,0,0,1,1.759-4.5,4.242,4.242,0,0,0-1.759,4.5Z" transform="translate(-406.734 -440.251)" fill="#263238"/>
              </g>
            </g>
          </g>
          <g id="Group_17432" data-name="Group 17432" transform="translate(8.661)">
            <g id="Group_17431" data-name="Group 17431">
              <g id="Group_17430" data-name="Group 17430">
                <path id="Path_18700" data-name="Path 18700" d="M406.736,440.222a3.989,3.989,0,0,0,.243-1.681,7.917,7.917,0,0,0-.229-1.842,7.7,7.7,0,0,0-.336-1.049,1.259,1.259,0,0,0-.362-.554.6.6,0,0,0-.775.038,1,1,0,0,0-.3.639,4.371,4.371,0,0,0-.029.6,4.981,4.981,0,0,0,.139,1.106,6.707,6.707,0,0,0,.695,1.727,4.548,4.548,0,0,0,1.015,1.359c.052-.036-.327-.562-.778-1.484a7.417,7.417,0,0,1-.592-1.679,4.924,4.924,0,0,1-.109-1.032c.01-.347,0-.781.208-.948a.219.219,0,0,1,.3-.025.946.946,0,0,1,.248.395,8.357,8.357,0,0,1,.343,1,9.109,9.109,0,0,1,.3,1.764C406.777,439.574,406.675,440.213,406.736,440.222Z" transform="translate(-404.944 -434.973)" fill="#263238"/>
              </g>
            </g>
          </g>
          <g id="Group_17435" data-name="Group 17435" transform="translate(5.904 4.784)">
            <g id="Group_17434" data-name="Group 17434">
              <g id="Group_17433" data-name="Group 17433">
                <path id="Path_18701" data-name="Path 18701" d="M405.49,442.106a3.155,3.155,0,0,0-1.457-.235,6.521,6.521,0,0,0-1.6.2,3.539,3.539,0,0,0-.923.34.954.954,0,0,0-.51,1.033,1.13,1.13,0,0,0,.814.806,2.066,2.066,0,0,0,1.013,0,3.9,3.9,0,0,0,1.468-.721,3.986,3.986,0,0,0,1.05-1.034,9.944,9.944,0,0,0-1.2.815,4.011,4.011,0,0,1-1.386.6,1.79,1.79,0,0,1-.838-.012.766.766,0,0,1-.55-.537.583.583,0,0,1,.336-.63,3.418,3.418,0,0,1,.82-.32,7.579,7.579,0,0,1,1.522-.266C404.926,442.076,405.48,442.166,405.49,442.106Z" transform="translate(-400.97 -441.871)" fill="#263238"/>
              </g>
            </g>
          </g>
          <g id="Group_17438" data-name="Group 17438" transform="translate(17.911 6.252)">
            <g id="Group_17437" data-name="Group 17437">
              <g id="Group_17436" data-name="Group 17436">
                <path id="Path_18702" data-name="Path 18702" d="M418.457,447.8A6.1,6.1,0,0,1,420.009,444a3.241,3.241,0,0,0-1.552,3.806Z" transform="translate(-418.282 -443.988)" fill="#263238"/>
              </g>
            </g>
          </g>
          <g id="Group_17441" data-name="Group 17441" transform="translate(2.324 11.105)">
            <g id="Group_17440" data-name="Group 17440">
              <g id="Group_17439" data-name="Group 17439">
                <path id="Path_18703" data-name="Path 18703" d="M395.809,450.99a4.666,4.666,0,0,0,.874.411,19.433,19.433,0,0,0,2.514.779,35.853,35.853,0,0,0,8.625.817c3.385-.037,6.436-.191,8.648-.279l2.618-.139a4.654,4.654,0,0,0,.958-.1,4.781,4.781,0,0,0-.963-.044l-2.621.019-8.642.169a40.41,40.41,0,0,1-8.564-.7C397.1,451.476,395.835,450.92,395.809,450.99Z" transform="translate(-395.809 -450.984)" fill="#263238"/>
              </g>
            </g>
          </g>
          <g id="Group_17444" data-name="Group 17444" transform="translate(1.656 9.705)">
            <g id="Group_17443" data-name="Group 17443">
              <g id="Group_17442" data-name="Group 17442">
                <path id="Path_18704" data-name="Path 18704" d="M394.846,450.887c.031.052.649-.309,1.692-.766a7.867,7.867,0,0,1,4.275-.711,6.772,6.772,0,0,1,3.695,2.2,13.3,13.3,0,0,0,1.3,1.33,6.969,6.969,0,0,0-1.106-1.511,8.92,8.92,0,0,0-1.5-1.4,5.359,5.359,0,0,0-2.334-.99,7.473,7.473,0,0,0-4.447.841A6.009,6.009,0,0,0,394.846,450.887Z" transform="translate(-394.845 -448.966)" fill="#263238"/>
              </g>
            </g>
          </g>
        </g>
        <g id="Group_17475" data-name="Group 17475" transform="translate(41.775 129.884)">
          <g id="Group_17447" data-name="Group 17447">
            <g id="Group_17446" data-name="Group 17446">
              <path id="Path_18705" data-name="Path 18705" d="M355.42,427.721s-21.377,14-22.143,14.575c-1.151.87.169,5.012,2.163,4.295.943-.339,18.881-5.329,20.81-6.079s7.122-4.984,7.122-4.984Z" transform="translate(-332.849 -427.721)" fill="#622466"/>
            </g>
          </g>
          <g id="Group_17450" data-name="Group 17450" transform="translate(12.384 7.548)">
            <g id="Group_17449" data-name="Group 17449">
              <g id="Group_17448" data-name="Group 17448">
                <path id="Path_18706" data-name="Path 18706" d="M354.543,442.126a5.021,5.021,0,0,0-3.838-3.5,9.909,9.909,0,0,1,3.838,3.5Z" transform="translate(-350.703 -438.603)" fill="#263238"/>
              </g>
            </g>
          </g>
          <g id="Group_17453" data-name="Group 17453" transform="translate(14.763 5.877)">
            <g id="Group_17452" data-name="Group 17452">
              <g id="Group_17451" data-name="Group 17451">
                <path id="Path_18707" data-name="Path 18707" d="M357.513,439.655a5.668,5.668,0,0,0-3.378-3.449c-.054.1.882.66,1.8,1.611S357.414,439.707,357.513,439.655Z" transform="translate(-354.133 -436.195)" fill="#263238"/>
              </g>
            </g>
          </g>
          <g id="Group_17456" data-name="Group 17456" transform="translate(17.024 4.335)">
            <g id="Group_17455" data-name="Group 17455">
              <g id="Group_17454" data-name="Group 17454">
                <path id="Path_18708" data-name="Path 18708" d="M360.437,437.74a4.241,4.241,0,0,0-3.042-3.753,7.928,7.928,0,0,1,3.042,3.753Z" transform="translate(-357.393 -433.972)" fill="#263238"/>
              </g>
            </g>
          </g>
          <g id="Group_17459" data-name="Group 17459" transform="translate(17.699 0.097)">
            <g id="Group_17458" data-name="Group 17458">
              <g id="Group_17457" data-name="Group 17457">
                <path id="Path_18709" data-name="Path 18709" d="M359.467,433.208c.056-.027-.237-.606-.484-1.6a9.068,9.068,0,0,1-.251-1.771,8.2,8.2,0,0,1,.024-1.054.942.942,0,0,1,.116-.451.22.22,0,0,1,.293-.067c.243.1.371.513.486.84a4.96,4.96,0,0,1,.21,1.017,7.4,7.4,0,0,1-.055,1.78c-.15,1.015-.35,1.631-.29,1.65a4.572,4.572,0,0,0,.554-1.6,6.715,6.715,0,0,0,.138-1.856,4.98,4.98,0,0,0-.2-1.1,4.371,4.371,0,0,0-.209-.56,1,1,0,0,0-.481-.517.6.6,0,0,0-.75.2,1.261,1.261,0,0,0-.177.637,7.784,7.784,0,0,0,0,1.1,7.935,7.935,0,0,0,.341,1.824A4.006,4.006,0,0,0,359.467,433.208Z" transform="translate(-358.366 -427.86)" fill="#263238"/>
              </g>
            </g>
          </g>
          <g id="Group_17462" data-name="Group 17462" transform="translate(18.756 4.237)">
            <g id="Group_17461" data-name="Group 17461">
              <g id="Group_17460" data-name="Group 17460">
                <path id="Path_18710" data-name="Path 18710" d="M359.892,434.81c.027.055.528-.2,1.389-.409a7.567,7.567,0,0,1,1.531-.209,3.423,3.423,0,0,1,.878.056.582.582,0,0,1,.511.5.766.766,0,0,1-.361.678,1.778,1.778,0,0,1-.794.266,4.006,4.006,0,0,1-1.5-.15,10.014,10.014,0,0,0-1.394-.411,3.958,3.958,0,0,0,1.314.667,3.907,3.907,0,0,0,1.617.242,2.081,2.081,0,0,0,.967-.305,1.129,1.129,0,0,0,.53-1.015.952.952,0,0,0-.8-.829,3.522,3.522,0,0,0-.983-.044,6.559,6.559,0,0,0-1.587.3A3.166,3.166,0,0,0,359.892,434.81Z" transform="translate(-359.891 -433.83)" fill="#263238"/>
              </g>
            </g>
          </g>
          <g id="Group_17465" data-name="Group 17465" transform="translate(3.046 12.808)">
            <g id="Group_17464" data-name="Group 17464">
              <g id="Group_17463" data-name="Group 17463">
                <path id="Path_18711" data-name="Path 18711" d="M339.509,451.468c.024.033.36-.216.523-.828a3.158,3.158,0,0,0-.4-2.32,8.408,8.408,0,0,0-.716-1.067,3.9,3.9,0,0,0-.726-.779,1.262,1.262,0,0,0-.683-.286c-.178-.008-.27.036-.267.058a2,2,0,0,1,.778.431,4.819,4.819,0,0,1,.617.78,12.166,12.166,0,0,1,.667,1.044,3.31,3.31,0,0,1,.47,2.084C339.693,451.14,339.46,451.432,339.509,451.468Z" transform="translate(-337.24 -446.188)" fill="#263238"/>
              </g>
            </g>
          </g>
          <g id="Group_17468" data-name="Group 17468" transform="translate(10.354 9.179)">
            <g id="Group_17467" data-name="Group 17467">
              <g id="Group_17466" data-name="Group 17466">
                <path id="Path_18712" data-name="Path 18712" d="M350.412,444.131a3.24,3.24,0,0,0-2.634-3.154,6.094,6.094,0,0,1,2.634,3.154Z" transform="translate(-347.777 -440.955)" fill="#263238"/>
              </g>
            </g>
          </g>
          <g id="Group_17471" data-name="Group 17471" transform="translate(1.323 8.56)">
            <g id="Group_17470" data-name="Group 17470">
              <g id="Group_17469" data-name="Group 17469">
                <path id="Path_18713" data-name="Path 18713" d="M361.758,440.064a7.5,7.5,0,0,0-.94.645,26.86,26.86,0,0,1-2.636,1.615A34.624,34.624,0,0,1,354,444.188c-1.618.6-3.434,1.173-5.354,1.729-3.846,1.108-7.327,2.12-9.839,2.876l-2.971.911a6.7,6.7,0,0,0-1.075.384,6.565,6.565,0,0,0,1.116-.243l3-.8c2.532-.69,6.022-1.661,9.872-2.77,1.923-.558,3.747-1.14,5.372-1.767a31.465,31.465,0,0,0,4.191-1.955,21.037,21.037,0,0,0,2.595-1.731A5.954,5.954,0,0,0,361.758,440.064Z" transform="translate(-334.757 -440.063)" fill="#263238"/>
              </g>
            </g>
          </g>
          <g id="Group_17474" data-name="Group 17474" transform="translate(19.288 8.247)">
            <g id="Group_17473" data-name="Group 17473">
              <g id="Group_17472" data-name="Group 17472">
                <path id="Path_18714" data-name="Path 18714" d="M370.487,440.214a6,6,0,0,0-1.812-.482,7.472,7.472,0,0,0-4.492.549,5.367,5.367,0,0,0-1.923,1.651,8.957,8.957,0,0,0-1,1.789,6.968,6.968,0,0,0-.594,1.776,13.3,13.3,0,0,0,.836-1.663,6.769,6.769,0,0,1,2.853-3.216,7.872,7.872,0,0,1,4.289-.621C369.775,440.116,370.474,440.273,370.487,440.214Z" transform="translate(-360.658 -439.612)" fill="#263238"/>
              </g>
            </g>
          </g>
        </g>
        <g id="Group_17490" data-name="Group 17490" transform="translate(47.95 94.603)">
          <g id="Group_17477" data-name="Group 17477">
            <g id="Group_17476" data-name="Group 17476">
              <path id="Path_18715" data-name="Path 18715" d="M402.572,378a10.239,10.239,0,0,1,6.439,9.481c.051,13.774-27.831,28.957-27.831,28.957l-37.1-24.585-2.326-.941S391.839,372.1,402.572,378Z" transform="translate(-341.752 -376.854)" fill="#263238"/>
            </g>
          </g>
          <g id="Group_17480" data-name="Group 17480" transform="translate(21.12 8.104)">
            <g id="Group_17479" data-name="Group 17479">
              <g id="Group_17478" data-name="Group 17478">
                <path id="Path_18716" data-name="Path 18716" d="M372.2,407.85a6.853,6.853,0,0,0,.966-.655c.608-.44,1.476-1.094,2.538-1.916,2.124-1.642,5.015-3.969,8.124-6.638s5.847-5.176,7.791-7.028c.972-.926,1.751-1.685,2.278-2.219a6.916,6.916,0,0,0,.794-.856,6.955,6.955,0,0,0-.9.749l-2.358,2.129c-1.989,1.8-4.751,4.27-7.856,6.937s-5.964,5.021-8.044,6.715l-2.462,2.009A6.9,6.9,0,0,0,372.2,407.85Z" transform="translate(-372.202 -388.538)" fill="#455a64"/>
              </g>
            </g>
          </g>
          <g id="Group_17483" data-name="Group 17483" transform="translate(43.589 6.201)">
            <g id="Group_17482" data-name="Group 17482">
              <g id="Group_17481" data-name="Group 17481">
                <path id="Path_18717" data-name="Path 18717" d="M411.353,385.889a9.2,9.2,0,0,0-6.754,1.993c.061.1,1.414-.764,3.286-1.306C409.75,386.016,411.355,386,411.353,385.889Z" transform="translate(-404.597 -385.795)" fill="#455a64"/>
              </g>
            </g>
          </g>
          <g id="Group_17486" data-name="Group 17486" transform="translate(43.777 4.114)">
            <g id="Group_17485" data-name="Group 17485">
              <g id="Group_17484" data-name="Group 17484">
                <path id="Path_18718" data-name="Path 18718" d="M408.24,382.8a5.636,5.636,0,0,0-3.354,4.153c.108.037.513-1.118,1.448-2.261S408.3,382.893,408.24,382.8Z" transform="translate(-404.868 -382.786)" fill="#455a64"/>
              </g>
            </g>
          </g>
          <g id="Group_17489" data-name="Group 17489" transform="translate(60.787 47.698)">
            <g id="Group_17488" data-name="Group 17488">
              <g id="Group_17487" data-name="Group 17487">
                <path id="Path_18719" data-name="Path 18719" d="M431.465,445.662c.019-.043-.443-.132-.956.29a3.472,3.472,0,0,0-1.072,2.154,4.228,4.228,0,0,0,.338,2.375c.262.564.551.828.583.8.051-.035-.152-.348-.336-.9a4.817,4.817,0,0,1-.212-2.222,3.722,3.722,0,0,1,.877-2.009C431.082,445.738,431.473,445.722,431.465,445.662Z" transform="translate(-429.392 -445.623)" fill="#263238"/>
              </g>
            </g>
          </g>
        </g>
        <g id="Group_17493" data-name="Group 17493" transform="translate(29.066 73.247)">
          <g id="Group_17491" data-name="Group 17491">
            <path id="Path_18720" data-name="Path 18720" d="M385.7,346.065l-13.215,33.5-56.9.927-1.053-3.078,19.942-.723,9.584-29.717Z" transform="translate(-314.526 -346.065)" fill="#455a64"/>
          </g>
          <g id="Group_17492" data-name="Group 17492" transform="translate(43.548 14.222)">
            <path id="Path_18721" data-name="Path 18721" d="M378.36,366.85a2.528,2.528,0,0,1,2.736.292,2.212,2.212,0,0,1,.536,2.424A2.4,2.4,0,0,1,379.576,371a2.161,2.161,0,0,1-2.173-1.435,2.427,2.427,0,0,1,.956-2.717" transform="translate(-377.312 -366.569)" fill="#ebebeb"/>
          </g>
        </g>
        <g id="Group_17499" data-name="Group 17499" transform="translate(9.344 97.727)">
          <g id="Group_17495" data-name="Group 17495">
            <g id="Group_17494" data-name="Group 17494">
              <path id="Path_18722" data-name="Path 18722" d="M367.64,419.491s-52.424-34.387-54.57-35.1-7.334-4.114-12.522-2.684-9.839,6.082-12.164,12.879c-1.328,3.883-1.956,10.51-2.25,15.478a22.962,22.962,0,0,0,5.373,16.373,14.66,14.66,0,0,0,6.536,4.641c.546.17,1.113.316,1.694.443A24.656,24.656,0,0,0,325.4,420.744l1.224-1.862s34.294,12.6,34.83,12.42Z" transform="translate(-286.092 -381.358)" fill="#263238"/>
            </g>
          </g>
          <g id="Group_17498" data-name="Group 17498" transform="translate(16.692 2.29)">
            <g id="Group_17497" data-name="Group 17497">
              <g id="Group_17496" data-name="Group 17496">
                <path id="Path_18723" data-name="Path 18723" d="M310.158,411.038s.1.049.287.127l.858.341,3.324,1.28,12.352,4.653c5.246,1.957,11.531,4.285,18.582,6.851s14.867,5.377,23.212,8.2l.152.051L369,432.4l4.1-7.821,2.088-3.989.08-.154-.146-.092L335.128,394.96l-12.012-7.577-3.263-2.036-.852-.521c-.193-.116-.3-.166-.3-.166s.09.072.277.2l.832.551,3.226,2.094,11.949,7.675,39.922,25.483-.064-.246-2.088,3.988-4.093,7.823.225-.091c-8.341-2.818-16.159-5.619-23.218-8.161L327.065,417.2l-12.39-4.546-3.347-1.217-.87-.308C310.261,411.064,310.158,411.038,310.158,411.038Z" transform="translate(-310.158 -384.66)" fill="#455a64"/>
              </g>
            </g>
          </g>
        </g>
        <g id="Group_17617" data-name="Group 17617" transform="translate(19.683)">
          <g id="Group_17500" data-name="Group 17500" transform="translate(2.251)">
            <path id="Path_18724" data-name="Path 18724" d="M313.786,244.745c.893-2.416,2.869-3.466,5.373-4.072a8.036,8.036,0,0,1,7.19,1.853c1.271,1.164,2.2,2.772,3.771,3.484,2.584,1.171,5.9-.54,8.345.891a3.66,3.66,0,0,1-2.36,6.784c1.684.8,2,3.33.839,4.787a4.878,4.878,0,0,1-5.1,1.345,10.278,10.278,0,0,1-4.546-3.124c-1.266-1.366-2.373-2.881-3.744-4.141a7.991,7.991,0,0,0-4.941-2.346,7.317,7.317,0,0,0-6.166,3.745,18.737,18.737,0,0,0-2.185,7.184,30.947,30.947,0,0,1-1.608,7.369c-.113.274-.275.577-.564.637-.419.088-.725-.376-.893-.769a37.011,37.011,0,0,1-2.957-14.084c-.03-2.8.284-5.428,2.025-7.625s5.757-3.567,7.516-1.919" transform="translate(-304.243 -240.46)" fill="#263238"/>
          </g>
          <g id="Group_17597" data-name="Group 17597" transform="translate(1.949 3.302)">
            <g id="Group_17596" data-name="Group 17596">
              <g id="Group_17595" data-name="Group 17595">
                <g id="Group_17519" data-name="Group 17519">
                  <g id="Group_17518" data-name="Group 17518">
                    <g id="Group_17517" data-name="Group 17517">
                      <g id="Group_17508" data-name="Group 17508">
                        <g id="Group_17507" data-name="Group 17507">
                          <g id="Group_17506" data-name="Group 17506">
                            <g id="Group_17505" data-name="Group 17505">
                              <g id="Group_17504" data-name="Group 17504">
                                <g id="Group_17503" data-name="Group 17503">
                                  <g id="Group_17502" data-name="Group 17502">
                                    <g id="Group_17501" data-name="Group 17501">
                                      <path id="Path_18725" data-name="Path 18725" d="M307.741,257.393,303.888,285.4a8.41,8.41,0,0,0,7.6,9.524h0a8.413,8.413,0,0,0,9.066-7.245c.288-2.108.533-3.865.576-4.08,0,0,7.222.31,8.707-6.675.718-3.376,1.631-10.449,2.382-16.858a13.3,13.3,0,0,0-10.611-14.586l-.676-.135C313.559,244.313,308.567,250,307.741,257.393Z" transform="translate(-303.808 -245.222)" fill="#ffbe9d"/>
                                    </g>
                                  </g>
                                </g>
                              </g>
                            </g>
                          </g>
                        </g>
                      </g>
                      <g id="Group_17516" data-name="Group 17516" transform="translate(8.74 33.858)">
                        <g id="Group_17515" data-name="Group 17515">
                          <g id="Group_17514" data-name="Group 17514">
                            <g id="Group_17513" data-name="Group 17513">
                              <g id="Group_17512" data-name="Group 17512">
                                <g id="Group_17511" data-name="Group 17511">
                                  <g id="Group_17510" data-name="Group 17510">
                                    <g id="Group_17509" data-name="Group 17509">
                                      <path id="Path_18726" data-name="Path 18726" d="M325.02,298.456a16.607,16.607,0,0,1-8.611-4.419s1.151,5.471,8.265,6.236Z" transform="translate(-316.409 -294.037)" fill="#eb996e"/>
                                    </g>
                                  </g>
                                </g>
                              </g>
                            </g>
                          </g>
                        </g>
                      </g>
                    </g>
                  </g>
                </g>
                <g id="Group_17594" data-name="Group 17594" transform="translate(11.656 10.595)">
                  <g id="Group_17593" data-name="Group 17593">
                    <g id="Group_17576" data-name="Group 17576" transform="translate(0 3.975)">
                      <g id="Group_17575" data-name="Group 17575">
                        <g id="Group_17574" data-name="Group 17574">
                          <g id="Group_17537" data-name="Group 17537" transform="translate(10.618 1.913)">
                            <g id="Group_17527" data-name="Group 17527" transform="translate(1.128 1.523)">
                              <g id="Group_17526" data-name="Group 17526">
                                <g id="Group_17525" data-name="Group 17525">
                                  <g id="Group_17524" data-name="Group 17524">
                                    <g id="Group_17523" data-name="Group 17523">
                                      <g id="Group_17522" data-name="Group 17522">
                                        <g id="Group_17521" data-name="Group 17521">
                                          <g id="Group_17520" data-name="Group 17520">
                                            <path id="Path_18727" data-name="Path 18727" d="M339.578,272.3a1.02,1.02,0,0,1-1.166.816.975.975,0,0,1-.85-1.108,1.019,1.019,0,0,1,1.165-.817A.976.976,0,0,1,339.578,272.3Z" transform="translate(-337.549 -271.182)" fill="#263238"/>
                                          </g>
                                        </g>
                                      </g>
                                    </g>
                                  </g>
                                </g>
                              </g>
                            </g>
                            <g id="Group_17536" data-name="Group 17536">
                              <g id="Group_17535" data-name="Group 17535">
                                <g id="Group_17534" data-name="Group 17534">
                                  <g id="Group_17533" data-name="Group 17533">
                                    <g id="Group_17532" data-name="Group 17532">
                                      <g id="Group_17531" data-name="Group 17531">
                                        <g id="Group_17530" data-name="Group 17530">
                                          <g id="Group_17529" data-name="Group 17529">
                                            <g id="Group_17528" data-name="Group 17528">
                                              <path id="Path_18728" data-name="Path 18728" d="M339.865,270.482c-.15.105-.8-.606-1.872-.818-1.072-.227-1.973.169-2.063.013-.046-.07.128-.28.522-.462a2.8,2.8,0,0,1,1.684-.171,2.687,2.687,0,0,1,1.458.814C339.874,270.178,339.938,270.436,339.865,270.482Z" transform="translate(-335.923 -268.986)" fill="#263238"/>
                                            </g>
                                          </g>
                                        </g>
                                      </g>
                                    </g>
                                  </g>
                                </g>
                              </g>
                            </g>
                          </g>
                          <g id="Group_17555" data-name="Group 17555">
                            <g id="Group_17545" data-name="Group 17545" transform="translate(1.119 1.693)">
                              <g id="Group_17544" data-name="Group 17544">
                                <g id="Group_17543" data-name="Group 17543">
                                  <g id="Group_17542" data-name="Group 17542">
                                    <g id="Group_17541" data-name="Group 17541">
                                      <g id="Group_17540" data-name="Group 17540">
                                        <g id="Group_17539" data-name="Group 17539">
                                          <g id="Group_17538" data-name="Group 17538">
                                            <path id="Path_18729" data-name="Path 18729" d="M324.256,269.788a1.02,1.02,0,0,1-1.166.816.975.975,0,0,1-.851-1.108,1.021,1.021,0,0,1,1.165-.817A.977.977,0,0,1,324.256,269.788Z" transform="translate(-322.226 -268.668)" fill="#263238"/>
                                          </g>
                                        </g>
                                      </g>
                                    </g>
                                  </g>
                                </g>
                              </g>
                            </g>
                            <g id="Group_17554" data-name="Group 17554">
                              <g id="Group_17553" data-name="Group 17553">
                                <g id="Group_17552" data-name="Group 17552">
                                  <g id="Group_17551" data-name="Group 17551">
                                    <g id="Group_17550" data-name="Group 17550">
                                      <g id="Group_17549" data-name="Group 17549">
                                        <g id="Group_17548" data-name="Group 17548">
                                          <g id="Group_17547" data-name="Group 17547">
                                            <g id="Group_17546" data-name="Group 17546">
                                              <path id="Path_18730" data-name="Path 18730" d="M324.557,267.724c-.151.105-.8-.606-1.873-.818-1.072-.227-1.973.169-2.063.013-.046-.07.126-.28.522-.461a2.8,2.8,0,0,1,1.684-.173,2.691,2.691,0,0,1,1.458.815C324.563,267.42,324.629,267.678,324.557,267.724Z" transform="translate(-320.614 -266.228)" fill="#263238"/>
                                            </g>
                                          </g>
                                        </g>
                                      </g>
                                    </g>
                                  </g>
                                </g>
                              </g>
                            </g>
                          </g>
                          <g id="Group_17564" data-name="Group 17564" transform="translate(6.254 1.193)">
                            <g id="Group_17563" data-name="Group 17563">
                              <g id="Group_17562" data-name="Group 17562">
                                <g id="Group_17561" data-name="Group 17561">
                                  <g id="Group_17560" data-name="Group 17560">
                                    <g id="Group_17559" data-name="Group 17559">
                                      <g id="Group_17558" data-name="Group 17558">
                                        <g id="Group_17557" data-name="Group 17557">
                                          <g id="Group_17556" data-name="Group 17556">
                                            <path id="Path_18731" data-name="Path 18731" d="M329.63,277.012a7.315,7.315,0,0,1,1.811.034c.281.027.551.024.635-.154a1.426,1.426,0,0,0-.021-.852q-.188-1.075-.395-2.254a36.557,36.557,0,0,1-.731-5.838,36.733,36.733,0,0,1,1.2,5.765q.187,1.183.358,2.26a1.622,1.622,0,0,1-.073,1.107.7.7,0,0,1-.532.311,1.878,1.878,0,0,1-.48-.028A7.1,7.1,0,0,1,329.63,277.012Z" transform="translate(-329.63 -267.948)" fill="#263238"/>
                                          </g>
                                        </g>
                                      </g>
                                    </g>
                                  </g>
                                </g>
                              </g>
                            </g>
                          </g>
                          <g id="Group_17573" data-name="Group 17573" transform="translate(2.606 10.367)">
                            <g id="Group_17572" data-name="Group 17572">
                              <g id="Group_17571" data-name="Group 17571">
                                <g id="Group_17570" data-name="Group 17570">
                                  <g id="Group_17569" data-name="Group 17569">
                                    <g id="Group_17568" data-name="Group 17568">
                                      <g id="Group_17567" data-name="Group 17567">
                                        <g id="Group_17566" data-name="Group 17566">
                                          <g id="Group_17565" data-name="Group 17565">
                                            <path id="Path_18732" data-name="Path 18732" d="M324.7,281.176c.177.025-.054,1.194.78,2.222s2.1,1.149,2.079,1.314c0,.077-.323.172-.851.081a2.968,2.968,0,0,1-1.749-1.031,2.582,2.582,0,0,1-.579-1.848C324.436,281.417,324.625,281.154,324.7,281.176Z" transform="translate(-324.371 -281.175)" fill="#263238"/>
                                          </g>
                                        </g>
                                      </g>
                                    </g>
                                  </g>
                                </g>
                              </g>
                            </g>
                          </g>
                        </g>
                      </g>
                    </g>
                    <g id="Group_17584" data-name="Group 17584" transform="translate(0.055)">
                      <g id="Group_17583" data-name="Group 17583">
                        <g id="Group_17582" data-name="Group 17582">
                          <g id="Group_17581" data-name="Group 17581">
                            <g id="Group_17580" data-name="Group 17580">
                              <g id="Group_17579" data-name="Group 17579">
                                <g id="Group_17578" data-name="Group 17578">
                                  <g id="Group_17577" data-name="Group 17577">
                                    <path id="Path_18733" data-name="Path 18733" d="M325.7,261.807c-.164.271-1.211-.082-2.5-.182-1.291-.126-2.383.04-2.5-.255-.049-.141.183-.381.651-.581a4.361,4.361,0,0,1,3.811.334C325.588,261.4,325.775,261.677,325.7,261.807Z" transform="translate(-320.693 -260.497)" fill="#263238"/>
                                  </g>
                                </g>
                              </g>
                            </g>
                          </g>
                        </g>
                      </g>
                    </g>
                    <g id="Group_17592" data-name="Group 17592" transform="translate(11.16 2.647)">
                      <g id="Group_17591" data-name="Group 17591">
                        <g id="Group_17590" data-name="Group 17590">
                          <g id="Group_17589" data-name="Group 17589">
                            <g id="Group_17588" data-name="Group 17588">
                              <g id="Group_17587" data-name="Group 17587">
                                <g id="Group_17586" data-name="Group 17586">
                                  <g id="Group_17585" data-name="Group 17585">
                                    <path id="Path_18734" data-name="Path 18734" d="M340.331,265.857c-.238.207-.929-.2-1.818-.386-.882-.221-1.679-.164-1.8-.455-.051-.139.116-.361.492-.526a2.689,2.689,0,0,1,2.916.677C340.385,265.482,340.439,265.754,340.331,265.857Z" transform="translate(-336.703 -264.313)" fill="#263238"/>
                                  </g>
                                </g>
                              </g>
                            </g>
                          </g>
                        </g>
                      </g>
                    </g>
                  </g>
                </g>
              </g>
            </g>
          </g>
          <g id="Group_17615" data-name="Group 17615" transform="translate(0 20.155)">
            <g id="Group_17605" data-name="Group 17605">
              <g id="Group_17604" data-name="Group 17604">
                <g id="Group_17603" data-name="Group 17603">
                  <g id="Group_17602" data-name="Group 17602">
                    <g id="Group_17601" data-name="Group 17601">
                      <g id="Group_17600" data-name="Group 17600">
                        <g id="Group_17599" data-name="Group 17599">
                          <g id="Group_17598" data-name="Group 17598">
                            <path id="Path_18735" data-name="Path 18735" d="M306.416,270.137c-.109-.075-4.527-2.384-5.33,2.434s4.2,4.631,4.23,4.495S306.416,270.137,306.416,270.137Z" transform="translate(-300.998 -269.519)" fill="#ffbe9d"/>
                          </g>
                        </g>
                      </g>
                    </g>
                  </g>
                </g>
              </g>
            </g>
            <g id="Group_17614" data-name="Group 17614" transform="translate(1.26 1.501)">
              <g id="Group_17613" data-name="Group 17613">
                <g id="Group_17612" data-name="Group 17612">
                  <g id="Group_17611" data-name="Group 17611">
                    <g id="Group_17610" data-name="Group 17610">
                      <g id="Group_17609" data-name="Group 17609">
                        <g id="Group_17608" data-name="Group 17608">
                          <g id="Group_17607" data-name="Group 17607">
                            <g id="Group_17606" data-name="Group 17606">
                              <path id="Path_18736" data-name="Path 18736" d="M304.7,275.657c-.018-.019-.094.045-.246.086a.851.851,0,0,1-.63-.092,2.107,2.107,0,0,1-.65-2.023,2.813,2.813,0,0,1,.436-1.163.984.984,0,0,1,.739-.539.434.434,0,0,1,.457.313c.042.146,0,.237.019.249s.117-.063.111-.268a.538.538,0,0,0-.139-.334.641.641,0,0,0-.444-.2,1.2,1.2,0,0,0-1,.6,2.889,2.889,0,0,0-.515,1.295,2.209,2.209,0,0,0,.877,2.285.91.91,0,0,0,.789,0C304.677,275.772,304.72,275.669,304.7,275.657Z" transform="translate(-302.814 -271.683)" fill="#eb996e"/>
                            </g>
                          </g>
                        </g>
                      </g>
                    </g>
                  </g>
                </g>
              </g>
            </g>
          </g>
          <g id="Group_17616" data-name="Group 17616" transform="translate(4.861 2.32)">
            <path id="Path_18737" data-name="Path 18737" d="M335.276,258.473a10.315,10.315,0,0,1-8.581-3.819c-1.415-1.785-2.315-4.124-4.318-5.208a5.8,5.8,0,0,0-4.469-.274,11.207,11.207,0,0,0-3.9,2.372c.642,3.829-1.06,7.62-2.72,11.13a1.941,1.941,0,0,1-.778.993c-.653.322-1.434-.188-1.824-.8a6.031,6.031,0,0,1-.675-3.381,20.078,20.078,0,0,1,1.6-7.757,13.673,13.673,0,0,1,5.036-6.032,12.956,12.956,0,0,1,9.583-1.587,15.911,15.911,0,0,1,8.4,5.042,9.32,9.32,0,0,1,2.263,3.974" transform="translate(-308.006 -243.806)" fill="#263238"/>
          </g>
        </g>
      </g>
    </g>
    <g id="Plant" transform="translate(38.38 209.515)">
      <g id="Group_17715" data-name="Group 17715">
        <g id="Group_17706" data-name="Group 17706">
          <g id="Group_17621" data-name="Group 17621" transform="translate(8.466)">
            <g id="Group_17620" data-name="Group 17620">
              <g id="Group_17619" data-name="Group 17619">
                <path id="Path_18738" data-name="Path 18738" d="M62.29,376.081a1.766,1.766,0,0,1,.121-.293l.393-.838a21.147,21.147,0,0,0,1.155-3.354,29.611,29.611,0,0,0-.1-12.954,69.631,69.631,0,0,0-2.4-8.7c-1.018-3.088-2.2-6.364-3.163-9.906a38.323,38.323,0,0,1-1.561-11.389,44.591,44.591,0,0,1,2.65-12.053c1.309-4.01,2.663-7.929,3.068-11.87a18.091,18.091,0,0,0-2.177-10.962c-1.736-3.2-3.92-5.934-5.555-8.768a30.46,30.46,0,0,1-3.339-8.429,31.4,31.4,0,0,1-.212-13.058,24.3,24.3,0,0,1,1.363-4.612,1.791,1.791,0,0,1-.08.306c-.069.219-.16.511-.276.884a33.554,33.554,0,0,0-.847,3.452,31.8,31.8,0,0,0,.338,12.961,30.387,30.387,0,0,0,3.35,8.323c1.631,2.8,3.825,5.524,5.6,8.76a18.451,18.451,0,0,1,2.244,11.185c-.408,4.009-1.772,7.953-3.077,11.958a44.4,44.4,0,0,0-2.639,11.94,38.117,38.117,0,0,0,1.525,11.274c.949,3.524,2.115,6.8,3.12,9.9a68.647,68.647,0,0,1,2.364,8.753,29.281,29.281,0,0,1-.033,13.05,19.389,19.389,0,0,1-1.236,3.349l-.431.823A1.793,1.793,0,0,1,62.29,376.081Z" transform="translate(-50.586 -258.895)" fill="#263238"/>
              </g>
            </g>
          </g>
          <g id="Group_17627" data-name="Group 17627" transform="translate(13.899 11.949)">
            <g id="Group_17623" data-name="Group 17623">
              <g id="Group_17622" data-name="Group 17622">
                <path id="Path_18739" data-name="Path 18739" d="M59.342,293.069s-3.319-10.615,2.635-16.83a.368.368,0,0,1,.631.182C62.925,278.174,63.323,283.513,59.342,293.069Z" transform="translate(-58.419 -276.122)" fill="#e8505b"/>
              </g>
            </g>
            <g id="Group_17626" data-name="Group 17626" transform="translate(0.803 3.654)">
              <g id="Group_17625" data-name="Group 17625">
                <g id="Group_17624" data-name="Group 17624">
                  <path id="Path_18740" data-name="Path 18740" d="M61.685,281.39a9.787,9.787,0,0,1-.224,1.958c-.218,1.349-.474,2.933-.757,4.682s-.529,3.333-.743,4.681a10.631,10.631,0,0,1-.352,1.938,8.265,8.265,0,0,1,.06-1.973c.11-1.212.324-2.881.625-4.713s.619-3.48.878-4.669A8.792,8.792,0,0,1,61.685,281.39Z" transform="translate(-59.576 -281.39)" fill="#263238"/>
                </g>
              </g>
            </g>
          </g>
          <g id="Group_17633" data-name="Group 17633" transform="translate(18.656 40.267)">
            <g id="Group_17629" data-name="Group 17629" transform="translate(0.065)">
              <g id="Group_17628" data-name="Group 17628">
                <path id="Path_18741" data-name="Path 18741" d="M65.371,330.613s2.03-10.935,10.2-13.644a.369.369,0,0,1,.473.456C75.5,319.124,73.358,324.029,65.371,330.613Z" transform="translate(-65.371 -316.95)" fill="#e8505b"/>
              </g>
            </g>
            <g id="Group_17632" data-name="Group 17632" transform="translate(0 2.842)">
              <g id="Group_17631" data-name="Group 17631">
                <g id="Group_17630" data-name="Group 17630">
                  <path id="Path_18742" data-name="Path 18742" d="M73.317,321.049a9.813,9.813,0,0,1-1.113,1.626l-2.859,3.784L66.5,330.25a10.646,10.646,0,0,1-1.217,1.548,8.283,8.283,0,0,1,.975-1.716c.664-1.02,1.633-2.4,2.756-3.874s2.174-2.787,2.96-3.716A8.83,8.83,0,0,1,73.317,321.049Z" transform="translate(-65.278 -321.047)" fill="#263238"/>
                </g>
              </g>
            </g>
          </g>
          <g id="Group_17639" data-name="Group 17639" transform="translate(16.425 65.274)">
            <g id="Group_17635" data-name="Group 17635" transform="translate(0.005)">
              <g id="Group_17634" data-name="Group 17634">
                <path id="Path_18743" data-name="Path 18743" d="M62.151,369.092s-1.233-11.053,5.8-16.018a.368.368,0,0,1,.584.3C68.511,355.155,67.882,360.472,62.151,369.092Z" transform="translate(-62.068 -353.004)" fill="#e8505b"/>
              </g>
            </g>
            <g id="Group_17638" data-name="Group 17638" transform="translate(0 3.418)">
              <g id="Group_17637" data-name="Group 17637">
                <g id="Group_17636" data-name="Group 17636">
                  <path id="Path_18744" data-name="Path 18744" d="M66.637,357.933a9.746,9.746,0,0,1-.593,1.88l-1.637,4.451-1.622,4.454a10.766,10.766,0,0,1-.714,1.835,8.184,8.184,0,0,1,.435-1.925c.339-1.169.867-2.767,1.512-4.507s1.271-3.3,1.753-4.415A8.844,8.844,0,0,1,66.637,357.933Z" transform="translate(-62.06 -357.932)" fill="#263238"/>
                </g>
              </g>
            </g>
          </g>
          <g id="Group_17645" data-name="Group 17645" transform="translate(22.582 93.092)">
            <g id="Group_17641" data-name="Group 17641" transform="translate(0.056)">
              <g id="Group_17640" data-name="Group 17640">
                <path id="Path_18745" data-name="Path 18745" d="M71.048,408.973s-.837-11.09,6.367-15.8a.368.368,0,0,1,.574.32C77.9,395.272,77.084,400.563,71.048,408.973Z" transform="translate(-71.018 -393.111)" fill="#e8505b"/>
              </g>
            </g>
            <g id="Group_17644" data-name="Group 17644" transform="translate(0 3.361)">
              <g id="Group_17643" data-name="Group 17643">
                <g id="Group_17642" data-name="Group 17642">
                  <path id="Path_18746" data-name="Path 18746" d="M75.962,397.958a9.8,9.8,0,0,1-.66,1.857l-1.8,4.39c-.665,1.642-1.268,3.127-1.781,4.393a10.617,10.617,0,0,1-.78,1.808,8.2,8.2,0,0,1,.5-1.908c.381-1.157.965-2.734,1.672-4.45s1.389-3.251,1.91-4.35A8.8,8.8,0,0,1,75.962,397.958Z" transform="translate(-70.937 -397.957)" fill="#263238"/>
                </g>
              </g>
            </g>
          </g>
          <g id="Group_17651" data-name="Group 17651" transform="translate(0 5.433)">
            <g id="Group_17647" data-name="Group 17647">
              <g id="Group_17646" data-name="Group 17646">
                <path id="Path_18747" data-name="Path 18747" d="M48.432,280.864s-9.858-5.149-10.052-13.753a.368.368,0,0,1,.575-.318C40.42,267.806,44.48,271.3,48.432,280.864Z" transform="translate(-38.38 -266.728)" fill="#e8505b"/>
              </g>
            </g>
            <g id="Group_17650" data-name="Group 17650" transform="translate(2.043 3.338)">
              <g id="Group_17649" data-name="Group 17649">
                <g id="Group_17648" data-name="Group 17648">
                  <path id="Path_18748" data-name="Path 18748" d="M41.329,271.541a9.769,9.769,0,0,1,1.228,1.541l2.779,3.843,2.789,3.833a10.694,10.694,0,0,1,1.123,1.617,8.237,8.237,0,0,1-1.355-1.436c-.781-.934-1.811-2.265-2.9-3.771s-2.026-2.9-2.684-3.919A8.849,8.849,0,0,1,41.329,271.541Z" transform="translate(-41.325 -271.54)" fill="#263238"/>
                </g>
              </g>
            </g>
          </g>
          <g id="Group_17657" data-name="Group 17657" transform="translate(9.767 28.842)">
            <g id="Group_17653" data-name="Group 17653">
              <g id="Group_17652" data-name="Group 17652">
                <path id="Path_18749" data-name="Path 18749" d="M63.332,314s-10.153-4.54-10.869-13.117a.369.369,0,0,1,.555-.352C54.542,301.454,58.806,304.691,63.332,314Z" transform="translate(-52.462 -300.478)" fill="#e8505b"/>
              </g>
            </g>
            <g id="Group_17656" data-name="Group 17656" transform="translate(2.221 3.231)">
              <g id="Group_17655" data-name="Group 17655">
                <g id="Group_17654" data-name="Group 17654">
                  <path id="Path_18750" data-name="Path 18750" d="M55.667,305.137a9.741,9.741,0,0,1,1.32,1.463l3.007,3.667,3.016,3.657a10.7,10.7,0,0,1,1.219,1.546,8.207,8.207,0,0,1-1.439-1.35c-.836-.885-1.945-2.15-3.118-3.589s-2.2-2.768-2.917-3.75A8.859,8.859,0,0,1,55.667,305.137Z" transform="translate(-55.664 -305.136)" fill="#263238"/>
                </g>
              </g>
            </g>
          </g>
          <g id="Group_17663" data-name="Group 17663" transform="translate(10.221 50.931)">
            <g id="Group_17659" data-name="Group 17659">
              <g id="Group_17658" data-name="Group 17658">
                <path id="Path_18751" data-name="Path 18751" d="M57.691,349.187s-6.971-8.666-3.7-16.628a.368.368,0,0,1,.654-.061C55.581,334.013,57.9,338.837,57.691,349.187Z" transform="translate(-53.117 -332.326)" fill="#e8505b"/>
              </g>
            </g>
            <g id="Group_17662" data-name="Group 17662" transform="translate(1.547 3.762)">
              <g id="Group_17661" data-name="Group 17661">
                <g id="Group_17660" data-name="Group 17660">
                  <path id="Path_18752" data-name="Path 18752" d="M55.364,337.749a9.761,9.761,0,0,1,.508,1.9c.29,1.335.63,2.9,1.007,4.635s.726,3.3,1.02,4.629a10.686,10.686,0,0,1,.381,1.932,8.232,8.232,0,0,1-.666-1.858c-.341-1.169-.753-2.8-1.142-4.615s-.7-3.466-.889-4.667A8.9,8.9,0,0,1,55.364,337.749Z" transform="translate(-55.347 -337.749)" fill="#263238"/>
                </g>
              </g>
            </g>
          </g>
          <g id="Group_17669" data-name="Group 17669" transform="translate(11.053 84.018)">
            <g id="Group_17665" data-name="Group 17665">
              <g id="Group_17664" data-name="Group 17664">
                <path id="Path_18753" data-name="Path 18753" d="M64.963,393.726s-10.075-4.71-10.646-13.3a.368.368,0,0,1,.56-.343C56.386,381.032,60.6,384.341,64.963,393.726Z" transform="translate(-54.316 -380.028)" fill="#e8505b"/>
              </g>
            </g>
            <g id="Group_17668" data-name="Group 17668" transform="translate(2.172 3.261)">
              <g id="Group_17667" data-name="Group 17667">
                <g id="Group_17666" data-name="Group 17666">
                  <path id="Path_18754" data-name="Path 18754" d="M57.451,384.731a9.765,9.765,0,0,1,1.295,1.486l2.945,3.718,2.955,3.707a10.677,10.677,0,0,1,1.193,1.566,8.243,8.243,0,0,1-1.416-1.375c-.821-.9-1.909-2.183-3.057-3.641s-2.152-2.8-2.854-3.8A8.864,8.864,0,0,1,57.451,384.731Z" transform="translate(-57.448 -384.73)" fill="#263238"/>
                </g>
              </g>
            </g>
          </g>
          <g id="Group_17705" data-name="Group 17705" transform="translate(19.234 51.46)">
            <g id="Group_17672" data-name="Group 17672" transform="translate(3.296 2.53)">
              <g id="Group_17671" data-name="Group 17671">
                <g id="Group_17670" data-name="Group 17670">
                  <path id="Path_18755" data-name="Path 18755" d="M90.1,336.735a.8.8,0,0,1,.012.245c0,.193-.01.427-.017.711-.03.668-.069,1.57-.119,2.7-.13,2.371-.311,5.676-.528,9.63v.01l0,.013a37.359,37.359,0,0,1-5.522,12.816c-2.02,3.19-4.136,6.09-5.962,8.788a62.377,62.377,0,0,0-4.47,7.389,31.322,31.322,0,0,0-2.091,5.423c-.178.664-.311,1.183-.387,1.537a2.723,2.723,0,0,1-.148.535,2.829,2.829,0,0,1,.065-.551c.051-.361.159-.887.313-1.562a28.6,28.6,0,0,1,1.983-5.509,58.984,58.984,0,0,1,4.417-7.476c1.814-2.716,3.919-5.622,5.928-8.8A37.89,37.89,0,0,0,89.1,349.972l0,.023c.277-3.95.51-7.252.676-9.621.091-1.124.164-2.024.218-2.69.028-.282.051-.515.071-.707A.853.853,0,0,1,90.1,336.735Z" transform="translate(-70.862 -336.735)" fill="#263238"/>
                </g>
              </g>
            </g>
            <g id="Group_17680" data-name="Group 17680" transform="translate(14.301 10.682)">
              <g id="Group_17674" data-name="Group 17674">
                <g id="Group_17673" data-name="Group 17673">
                  <path id="Path_18756" data-name="Path 18756" d="M88.963,365.63s4.267-10.271-1.1-17a.368.368,0,0,0-.645.125C86.743,350.472,85.863,355.753,88.963,365.63Z" transform="translate(-86.729 -348.488)" fill="#e8505b"/>
                </g>
              </g>
              <g id="Group_17677" data-name="Group 17677" transform="translate(1.426 3.723)">
                <g id="Group_17676" data-name="Group 17676">
                  <g id="Group_17675" data-name="Group 17675">
                    <path id="Path_18757" data-name="Path 18757" d="M88.816,353.856a8.9,8.9,0,0,1,.338,1.943c.151,1.206.32,2.878.452,4.728s.2,3.533.195,4.75a8.184,8.184,0,0,1-.119,1.971,10.705,10.705,0,0,1-.175-1.962c-.091-1.363-.2-2.962-.316-4.73s-.235-3.368-.33-4.731A9.7,9.7,0,0,1,88.816,353.856Z" transform="translate(-88.785 -353.856)" fill="#263238"/>
                  </g>
                </g>
              </g>
              <g id="Group_17679" data-name="Group 17679" opacity="0.3">
                <g id="Group_17678" data-name="Group 17678">
                  <path id="Path_18758" data-name="Path 18758" d="M88.963,365.63s4.267-10.271-1.1-17a.368.368,0,0,0-.645.125C86.743,350.472,85.863,355.753,88.963,365.63Z" transform="translate(-86.729 -348.488)"/>
                </g>
              </g>
            </g>
            <g id="Group_17688" data-name="Group 17688" transform="translate(0 35.6)">
              <g id="Group_17682" data-name="Group 17682">
                <g id="Group_17681" data-name="Group 17681">
                  <path id="Path_18759" data-name="Path 18759" d="M69.43,401.387s3.42-10.583-2.475-16.854a.368.368,0,0,0-.633.176C65.987,386.459,65.539,391.795,69.43,401.387Z" transform="translate(-66.111 -384.414)" fill="#e8505b"/>
                </g>
              </g>
              <g id="Group_17685" data-name="Group 17685" transform="translate(1.44 3.662)">
                <g id="Group_17684" data-name="Group 17684">
                  <g id="Group_17683" data-name="Group 17683">
                    <path id="Path_18760" data-name="Path 18760" d="M68.2,389.694A8.838,8.838,0,0,1,68.7,391.6c.248,1.191.553,2.843.834,4.677s.481,3.5.58,4.719a8.235,8.235,0,0,1,.041,1.973,10.639,10.639,0,0,1-.334-1.941c-.2-1.35-.437-2.936-.7-4.688s-.507-3.338-.712-4.689A9.761,9.761,0,0,1,68.2,389.694Z" transform="translate(-68.187 -389.694)" fill="#263238"/>
                  </g>
                </g>
              </g>
              <g id="Group_17687" data-name="Group 17687" opacity="0.3">
                <g id="Group_17686" data-name="Group 17686">
                  <path id="Path_18761" data-name="Path 18761" d="M69.43,401.387s3.42-10.583-2.475-16.854a.368.368,0,0,0-.633.176C65.987,386.459,65.539,391.795,69.43,401.387Z" transform="translate(-66.111 -384.414)"/>
                </g>
              </g>
            </g>
            <g id="Group_17696" data-name="Group 17696" transform="translate(21.969)">
              <g id="Group_17690" data-name="Group 17690">
                <g id="Group_17689" data-name="Group 17689">
                  <path id="Path_18762" data-name="Path 18762" d="M97.785,348.359s9.11-6.378,8.191-14.935a.368.368,0,0,0-.611-.241C104.043,334.376,100.468,338.361,97.785,348.359Z" transform="translate(-97.785 -333.088)" fill="#e8505b"/>
                </g>
              </g>
              <g id="Group_17692" data-name="Group 17692" opacity="0.3">
                <g id="Group_17691" data-name="Group 17691">
                  <path id="Path_18763" data-name="Path 18763" d="M97.785,348.359s9.11-6.378,8.191-14.935a.368.368,0,0,0-.611-.241C104.043,334.376,100.468,338.361,97.785,348.359Z" transform="translate(-97.785 -333.088)"/>
                </g>
              </g>
              <g id="Group_17695" data-name="Group 17695" transform="translate(0.084 3.53)">
                <g id="Group_17694" data-name="Group 17694">
                  <g id="Group_17693" data-name="Group 17693">
                    <path id="Path_18764" data-name="Path 18764" d="M104.365,338.178a8.786,8.786,0,0,1-.757,1.821c-.52,1.1-1.274,2.6-2.156,4.234s-1.73,3.086-2.383,4.113a8.2,8.2,0,0,1-1.158,1.6,10.718,10.718,0,0,1,.905-1.749l2.271-4.161,2.259-4.17A9.84,9.84,0,0,1,104.365,338.178Z" transform="translate(-97.906 -338.177)" fill="#263238"/>
                  </g>
                </g>
              </g>
            </g>
            <g id="Group_17704" data-name="Group 17704" transform="translate(6.993 31.78)">
              <g id="Group_17698" data-name="Group 17698">
                <g id="Group_17697" data-name="Group 17697">
                  <path id="Path_18765" data-name="Path 18765" d="M76.193,389.208s10.989-1.714,13.932-9.8a.368.368,0,0,0-.443-.486C87.97,379.41,83,381.414,76.193,389.208Z" transform="translate(-76.193 -378.907)" fill="#e8505b"/>
                </g>
              </g>
              <g id="Group_17700" data-name="Group 17700" opacity="0.3">
                <g id="Group_17699" data-name="Group 17699">
                  <path id="Path_18766" data-name="Path 18766" d="M76.193,389.208s10.989-1.714,13.932-9.8a.368.368,0,0,0-.443-.486C87.97,379.41,83,381.414,76.193,389.208Z" transform="translate(-76.193 -378.907)"/>
                </g>
              </g>
              <g id="Group_17703" data-name="Group 17703" transform="translate(0.068 2.639)">
                <g id="Group_17702" data-name="Group 17702">
                  <g id="Group_17701" data-name="Group 17701">
                    <path id="Path_18767" data-name="Path 18767" d="M87.268,382.716a8.871,8.871,0,0,1-1.482,1.3c-.951.757-2.289,1.773-3.8,2.851s-2.912,2.008-3.951,2.643a8.189,8.189,0,0,1-1.744.925,10.7,10.7,0,0,1,1.583-1.172l3.871-2.736,3.865-2.748A9.741,9.741,0,0,1,87.268,382.716Z" transform="translate(-76.29 -382.712)" fill="#263238"/>
                  </g>
                </g>
              </g>
            </g>
          </g>
        </g>
        <g id="Group_17708" data-name="Group 17708" transform="translate(12.539 113.764)">
          <g id="Group_17707" data-name="Group 17707">
            <path id="Path_18768" data-name="Path 18768" d="M59.663,422.915l-3.206,21.574H76.434l-2.59-21.574Z" transform="translate(-56.458 -422.915)" fill="#455a64"/>
          </g>
        </g>
        <g id="Group_17711" data-name="Group 17711" transform="translate(14.613 120.242)">
          <g id="Group_17710" data-name="Group 17710">
            <g id="Group_17709" data-name="Group 17709">
              <path id="Path_18769" data-name="Path 18769" d="M75.559,432.461a78.074,78.074,0,0,1-8.055.208,78.063,78.063,0,0,1-8.055-.208,78.427,78.427,0,0,1,8.055-.207A78.439,78.439,0,0,1,75.559,432.461Z" transform="translate(-59.448 -432.254)" fill="#263238"/>
            </g>
          </g>
        </g>
        <g id="Group_17714" data-name="Group 17714" transform="translate(14.481 121.958)">
          <g id="Group_17713" data-name="Group 17713">
            <g id="Group_17712" data-name="Group 17712">
              <path id="Path_18770" data-name="Path 18770" d="M75.9,434.936c0,.115-3.725.208-8.319.208s-8.32-.093-8.32-.208,3.724-.207,8.32-.207S75.9,434.822,75.9,434.936Z" transform="translate(-59.258 -434.729)" fill="#263238"/>
            </g>
          </g>
        </g>
      </g>
    </g>
  </g>
</svg>
