<svg id="What_are_you" data-name="What are you" xmlns="http://www.w3.org/2000/svg" xmlns:xlink="http://www.w3.org/1999/xlink" width="31.002" height="31.302" viewBox="0 0 31.002 31.302">
  <defs>
    <linearGradient id="linear-gradient" x1="1" y1="-0.272" x2="0" y2="1" gradientUnits="objectBoundingBox">
      <stop offset="0" stop-color="#ce1919"/>
      <stop offset="1" stop-color="#450874"/>
    </linearGradient>
  </defs>
  <path id="Path_18607" data-name="Path 18607" d="M13.658,0A13.661,13.661,0,0,1,25.09,21.132L31,27.575,26.924,31.3l-5.7-6.273A13.659,13.659,0,1,1,13.658,0Zm.149,10.627c.933-.974,1.587-1.815,3.026-1.98a3.671,3.671,0,0,1,3.82,5.177,12.1,12.1,0,0,1-2.052,2.6c-.96.993-2.021,1.966-2.765,2.7l-2.028,2.012-1.676-1.614c-2.016-1.942-5.3-4.386-5.412-7.414a3.316,3.316,0,0,1,3.523-3.455c1.721.022,2.444.879,3.565,1.968ZM22.235,5.08a12.12,12.12,0,1,0,3.557,8.577A12.1,12.1,0,0,0,22.235,5.08Z" fill="url(#linear-gradient)"/>
</svg>
